<svg id="Vantiv_Logo" data-name="Vantiv Logo" xmlns="http://www.w3.org/2000/svg" viewBox="0 0 280.78 73.81">
  <defs>
    <style>
      .cls-1 {
        fill: #2c2c2c;
      }

      .cls-2 {
        fill: #2c2c2c;
      }
    </style>
  </defs>
  <title>vantiv-logo-svg</title>
  <g id="Vantiv">
    <path id="v" class="cls-1" d="M264.17,76.22h-15.8L226.55,25.91h18.29l11.73,30,11.54-30h17.67Z" transform="translate(-5 -3.65)"/>
    <path id="a" class="cls-1" d="M95.38,76.22,95,71.13c-2.18,2.38-7.49,6.34-15.81,6.34-9,0-17.67-4.88-17.67-15.8a13.94,13.94,0,0,1,4.06-10.39c5.49-5.51,12.46-6.54,19.53-6.54h9.05V43.38c0-5.3-4.07-7-9.15-7-6.11,0-11.27,3.36-13.31,4.93l-7.09-9.86c2.28-2.1,9.08-7.55,21.33-7.55,8.32,0,14.14,1.87,18.19,5.92,5.52,5.52,5.93,12.17,5.93,21V76.22ZM94.14,54.71h-7.7c-4.26,0-9.24,1-9.24,6.23,0,3.43,2.59,5.51,6.44,5.51A11,11,0,0,0,91.22,64c2-1.66,2.92-4.26,2.92-7.28Z" transform="translate(-5 -3.65)"/>
    <path id="n" class="cls-1" d="M152.22,76.22V47.64c0-3.43-.1-6.65-2.8-8.41a8.75,8.75,0,0,0-5.21-1.47,9.67,9.67,0,0,0-6.75,2.6c-2.6,2.59-2.6,6.85-2.6,11V76.22H118.23V25.91h15.59l.21,5.39a22.44,22.44,0,0,1,16.51-7.37c5.31,0,9.67,1.34,13.63,5.3,4.16,4.16,4.68,9.78,4.68,15.5V76.22Z" transform="translate(-5 -3.65)"/>
    <polygon id="t" class="cls-1" points="198.49 22.26 190.15 22.26 190.15 6.82 173.51 6.82 173.51 22.26 168.59 22.26 168.59 34.9 173.51 34.9 173.51 72.57 190.15 72.57 190.15 34.9 198.49 34.9 198.49 22.26"/>
    <path id="i" class="cls-1" d="M208.28,76.22V25.91h16.63V76.22Z" transform="translate(-5 -3.65)"/>
    <path id="i_dot" data-name="i dot" class="cls-1" d="M225.77,12.83a9.18,9.18,0,1,1-9.19-9.18A9.19,9.19,0,0,1,225.77,12.83Z" transform="translate(-5 -3.65)"/>
    <path id="v-2" data-name="v" class="cls-1" d="M42.62,76.22H26.83L5,25.91H23.29L35,56l11.54-30H64.24Z" transform="translate(-5 -3.65)"/>
  </g>
  <g id="Registered">
    <path class="cls-2" d="M279.5,76.2a6,6,0,1,1,6-6A6,6,0,0,1,279.5,76.2Zm0-10.59a4.62,4.62,0,1,0,4.62,4.62A4.63,4.63,0,0,0,279.5,65.61Zm1.4,7.43-1.35-2.31h-.91V73H277.4v-6h2a3,3,0,0,1,1.87.35,1.81,1.81,0,0,1,.7,1.46,1.62,1.62,0,0,1-1.2,1.61L282.31,73Zm-.38-4.8a2.84,2.84,0,0,0-1.14-.15h-.73v1.61h.73c.91,0,1.41-.15,1.41-.79A.77.77,0,0,0,280.53,68.25Z" transform="translate(-5 -3.65)"/>
  </g>
</svg>
