<?xml version="1.0" standalone="no"?>
<!DOCTYPE svg PUBLIC "-//W3C//DTD SVG 1.1//EN" "http://www.w3.org/Graphics/SVG/1.1/DTD/svg11.dtd" >
<svg>
<metadata>
Created by FontForge 20090622 at Fri Oct  7 20:23:31 2016
 By deploy user
Copyright (c) (c) The Foundry, London, 2005. All rights reserved.
</metadata>
<defs>
<font id="FoundryContext-Medium" horiz-adv-x="601" >
  <font-face 
    font-family="Foundry Context Medium"
    font-weight="500"
    font-stretch="normal"
    units-per-em="1000"
    panose-1="2 0 0 0 0 0 0 0 0 0"
    ascent="800"
    descent="-200"
    x-height="475"
    cap-height="678"
    bbox="-171 -213 1214 920"
    underline-thickness="50"
    underline-position="-50"
    unicode-range="U+0020-U+FB04"
  />
<missing-glyph horiz-adv-x="621" 
d="M558 -186h-495v864h495v-864zM168 591v-690h284v690h-284z" />
    <glyph glyph-name="f_j" unicode="fj" horiz-adv-x="644" 
d="M407 660l-11.5 -22t-13 -25.5l-10.5 -22.5q-38 19 -72 19q-39 0 -63 -21q-29 -26 -29 -91v-22h168v-83h-168v-392h-100v392h-105v83h105v27q0 94 49 143q48 48 133 48q68 0 117 -33zM539 23v1q0 -42 -2 -65.5t-12.5 -54t-31.5 -52.5q-52 -52 -135 -52q-76 0 -118 33
l40 71q28 -19 70 -19q44 0 66 29q23 27 23 97v464h100v-452zM550 622q0 -26 -17 -43t-44 -17q-26 0 -43.5 17t-17.5 43q0 25 17.5 42.5t43.5 17.5t43.5 -17.5t17.5 -42.5z" />
    <glyph glyph-name="f_f" unicode="ff" horiz-adv-x="808" 
d="M439 392h-231v-392h-100v392h-105v83h105v27q0 94 49 143q48 48 133 48q68 0 117 -33l-11.5 -22t-13 -25.5l-10.5 -22.5q-38 19 -72 19q-39 0 -63 -21q-29 -26 -29 -91v-22h231v27q0 94 49 143q48 48 133 48q67 0 117 -33l-11.5 -22t-13 -25.5l-10.5 -22.5q-38 19 -72 19
q-39 0 -63 -21q-29 -26 -29 -91v-22h168v-83h-168v-392h-100v392z" />
    <glyph glyph-name="fi" unicode="fi" 
d="M407 660l-11.5 -22t-13 -25.5l-10.5 -22.5q-38 19 -72 19q-39 0 -63 -21q-29 -26 -29 -91v-22h168v-83h-168v-392h-100v392h-105v83h105v27q0 94 49 143q48 48 133 48q68 0 117 -33zM550 622q0 -26 -17 -43t-44 -17q-26 0 -43.5 17t-17.5 43q0 25 17.5 42.5t43.5 17.5
t43.5 -17.5t17.5 -42.5zM539 0h-100v475h100v-475z" />
    <glyph glyph-name="fl" unicode="fl" horiz-adv-x="602" 
d="M407 660l-11.5 -22t-13 -25.5l-10.5 -22.5q-38 19 -72 19q-39 0 -63 -21q-29 -26 -29 -91v-22h168v-83h-168v-392h-100v392h-105v83h105v27q0 94 49 143q48 48 133 48q68 0 117 -33zM539 0h-100v678h100v-678z" />
    <glyph glyph-name="f_f_i" unicode="ffi" horiz-adv-x="1032" 
d="M439 392h-231v-392h-100v392h-105v83h105v27q0 94 49 143q48 48 133 48q68 0 117 -33l-11.5 -22t-13 -25.5l-10.5 -22.5q-38 19 -72 19q-39 0 -63 -21q-29 -26 -29 -91v-22h231v27q0 94 49 143q48 48 133 48q67 0 117 -33l-11.5 -22t-13 -25.5l-10.5 -22.5q-38 19 -72 19
q-39 0 -63 -21q-29 -26 -29 -91v-22h168v-83h-168v-392h-100v392zM881 622q0 -26 -17 -43t-44 -17q-26 0 -43.5 17t-17.5 43q0 25 17.5 42.5t43.5 17.5t43.5 -17.5t17.5 -42.5zM870 0h-100v475h100v-475z" />
    <glyph glyph-name="f_f_l" unicode="ffl" horiz-adv-x="1034" 
d="M439 392h-231v-392h-100v392h-105v83h105v27q0 94 49 143q48 48 133 48q68 0 117 -33l-11.5 -22t-13 -25.5l-10.5 -22.5q-38 19 -72 19q-39 0 -63 -21q-29 -26 -29 -91v-22h231v27q0 94 49 143q48 48 133 48q67 0 117 -33l-11.5 -22t-13 -25.5l-10.5 -22.5q-38 19 -72 19
q-39 0 -63 -21q-29 -26 -29 -91v-22h168v-83h-168v-392h-100v392zM870 0h-100v678h100v-678z" />
    <glyph glyph-name="f_t" unicode="ft" horiz-adv-x="750" 
d="M439 392h-231v-392h-100v392h-105v83h105v27q0 94 49 143q48 48 133 48q68 0 117 -33l-11.5 -22t-13 -25.5l-10.5 -22.5q-38 19 -72 19q-39 0 -63 -21q-29 -26 -29 -91v-22h231v151h100v-151h169v-83h-169v-211q0 -61 23 -84q25 -25 74 -25q32 0 68 12l25 -75
q-46 -23 -111 -23q-88 0 -134 44q-27 26 -36 56.5t-9 85.5v220z" />
    <glyph glyph-name=".notdef" horiz-adv-x="621" 
d="M558 -186h-495v864h495v-864zM168 591v-690h284v690h-284z" />
    <glyph glyph-name=".null" horiz-adv-x="0" 
 />
    <glyph glyph-name="nonmarkingreturn" horiz-adv-x="333" 
 />
    <glyph glyph-name="space" unicode=" " horiz-adv-x="242" 
 />
    <glyph glyph-name="exclam" unicode="!" horiz-adv-x="271" 
d="M189 678l-4 -493h-99l-4 493h107zM202 57q0 -28 -19.5 -47.5t-47.5 -19.5t-47 19.5t-19 46.5q0 28 19 47.5t47 19.5t47.5 -19t19.5 -47z" />
    <glyph glyph-name="quotedbl" unicode="&#x22;" horiz-adv-x="421" 
d="M181 678l-21 -277h-76l-21 277h118zM358 678l-21 -277h-76l-21 277h118z" />
    <glyph glyph-name="numbersign" unicode="#" 
d="M559 465h-106l-27 -111h90v-77h-109l-33 -137h-83l33 137h-111l-33 -137h-84l33 137h-86v77h106l27 111h-90v77h107l33 136h84l-33 -136h111l33 136h84l-33 -136h87v-77zM370 465h-111l-27 -111h111z" />
    <glyph glyph-name="dollar" unicode="$" 
d="M551 185q0 -81 -58 -134.5t-153 -63.5v-91h-84v91q-42 4 -79 17.5t-59.5 29t-41 33.5t-25 27.5t-9.5 15.5l69 54q7 -11 19 -24t47.5 -34.5t78.5 -29.5v219q-41 10 -68.5 21t-60.5 33t-50 59t-17 87q0 77 55 133t141 65v89h84v-89q39 -4 74 -17t57 -27.5t39 -31
t24.5 -26.5t8.5 -14l-67 -55q-59 71 -136 83v-224q45 -10 75 -21t65 -32.5t53 -57.5t18 -85zM256 398v206q-40 -9 -67.5 -36.5t-27.5 -73.5q0 -25 10 -43.5t29 -29.5t29 -15t27 -8zM449 182q0 72 -109 98v-206q109 18 109 108z" />
    <glyph glyph-name="percent" unicode="%" horiz-adv-x="874" 
d="M190 308q-72 0 -110.5 52t-38.5 138q0 85 39 137.5t111 52.5t111 -52.5t39 -137.5t-39.5 -137.5t-111.5 -52.5zM191 628q-76 0 -76 -130q0 -129 75 -129q76 0 76 129q0 130 -75 130zM666 659l-401 -694l-64 37l401 694zM682 -8q-72 0 -110.5 52t-38.5 138q0 85 39 137.5
t111 52.5t111 -52.5t39 -137.5t-39.5 -137.5t-111.5 -52.5zM683 312q-76 0 -76 -130q0 -129 75 -129q76 0 76 129q0 130 -75 130z" />
    <glyph glyph-name="ampersand" unicode="&#x26;" horiz-adv-x="654" 
d="M657 0h-118l-66 73q-88 -88 -213 -88q-99 0 -163 49.5t-64 139.5q0 51 23.5 92t54.5 65.5t83 53.5q-27 31 -40 48t-25.5 47t-12.5 61q0 67 51 110t135 43q72 0 122 -38t50 -105q0 -62 -36.5 -103.5t-103.5 -82.5l135 -151q11 18 20.5 57.5t10.5 59.5h92
q-2 -48 -20 -102.5t-41 -86.5zM383 544q0 33 -23 52t-59 19q-38 0 -63 -18.5t-25 -51.5q0 -15 4 -29t13.5 -28.5t14.5 -21.5t19.5 -22.5t15.5 -16.5q4 2 22.5 14l25 16.5t20.5 16t19.5 20t10.5 22t5 28.5zM415 139l-164 182q-31 -19 -44.5 -28t-34 -27.5t-28.5 -39.5t-8 -48
q0 -48 37 -78t92 -30q89 0 150 69z" />
    <glyph glyph-name="quotesingle" unicode="'" horiz-adv-x="244" 
d="M181 678l-21 -277h-76l-21 277h118z" />
    <glyph glyph-name="parenleft" unicode="(" horiz-adv-x="358" 
d="M349 -133l-62 -68q-100 68 -171 183.5t-71 262.5q0 144 71.5 263.5t170.5 185.5l62 -68q-85 -67 -142 -164.5t-57 -215.5t57 -214.5t142 -164.5z" />
    <glyph glyph-name="parenright" unicode=")" horiz-adv-x="358" 
d="M71 -201l-62 68q85 68 142 164.5t57 214.5t-57 215.5t-142 164.5l62 68q99 -66 170.5 -185.5t71.5 -263.5q0 -147 -71 -262.5t-171 -183.5z" />
    <glyph glyph-name="asterisk" unicode="*" horiz-adv-x="421" 
d="M386 528l-116 -40l72 -98l-64 -45l-70 103l-69 -103l-67 45l72 98l-117 40l28 72l114 -42l-1 120h78l-1 -120l115 42z" />
    <glyph glyph-name="plus" unicode="+" 
d="M558 208h-212v-211h-90v211h-213v88h213v211h90v-211h212v-88z" />
    <glyph glyph-name="comma" unicode="," horiz-adv-x="244" 
d="M205 114l-99 -237h-67l46 237h120z" />
    <glyph glyph-name="hyphen" unicode="-" horiz-adv-x="451" 
d="M382 208h-313v88h313v-88z" />
    <glyph glyph-name="period" unicode="." horiz-adv-x="255" 
d="M194 57q0 -28 -19.5 -47.5t-47.5 -19.5t-47 19.5t-19 46.5q0 28 19 47.5t47 19.5t47.5 -19t19.5 -47z" />
    <glyph glyph-name="slash" unicode="/" horiz-adv-x="412" 
d="M82 -213l-85 27l285 891l85 -27z" />
    <glyph glyph-name="zero" unicode="0" 
d="M560 339q0 -161 -68 -257.5t-192 -96.5q-125 0 -192 96t-67 258q0 161 68 258t192 97q125 0 192 -96.5t67 -258.5zM453 339q0 267 -152 267q-47 0 -79.5 -26t-47.5 -69.5t-20.5 -84t-5.5 -87.5q0 -266 152 -266q47 0 79.5 25.5t47.5 69t20.5 84t5.5 87.5z" />
    <glyph glyph-name="one" unicode="1" 
d="M560 0h-465v88h182v483l-162 -101l-49 74l216 134h98v-590h180v-88z" />
    <glyph glyph-name="two" unicode="2" 
d="M527 489q0 -54 -25 -97.5t-63 -69.5t-82.5 -53t-83.5 -48.5t-66 -55.5t-29 -75h346v-90h-451v18q0 73 14.5 122t60.5 95q33 33 87 66.5t92.5 54t68 55.5t29.5 78q0 55 -35.5 86.5t-92.5 31.5q-98 0 -170 -90l-64 58q92 119 237 119q101 0 164 -55t63 -150z" />
    <glyph glyph-name="three" unicode="3" 
d="M526 189q0 -93 -67 -148.5t-178 -55.5q-54 0 -99.5 13.5t-74.5 35.5t-41.5 34.5t-21.5 24.5l64 59q68 -80 168 -80q66 0 105.5 30t39.5 88q0 37 -16 61.5t-46 35t-56.5 14t-63.5 3.5h-45v88h40q36 0 60.5 3t52.5 12.5t42.5 32.5t14.5 58q0 42 -28.5 75.5t-90.5 33.5
q-92 0 -162 -79l-62 59q10 12 21.5 23.5t40.5 34t72 36t92 13.5q97 0 158 -52.5t61 -134.5q0 -36 -12 -66t-31 -48t-35 -28t-31 -15q16 -4 34.5 -13.5t41.5 -27t38 -49.5t15 -71z" />
    <glyph glyph-name="four" unicode="4" 
d="M565 153h-106v-153h-99v153h-323v85l318 440h104v-441h106v-84zM360 237v306l-223 -306h223z" />
    <glyph glyph-name="five" unicode="5" 
d="M539 222q0 -108 -70.5 -172.5t-189.5 -64.5q-42 0 -80 9.5t-62 22t-43.5 28t-27 23.5t-9.5 12l61 63q71 -71 159 -71q72 0 114.5 38.5t42.5 109.5q0 65 -39.5 98t-97.5 33q-96 0 -138 -74l-80 33l39 368h379v-86h-303l-24 -210q56 54 150 54q97 0 158 -57.5t61 -156.5z
" />
    <glyph glyph-name="six" unicode="6" 
d="M556 223q0 -103 -67 -170.5t-176 -67.5q-72 0 -125 29.5t-81 80t-41 108t-13 123.5q0 48 6 93t24 96.5t47 89.5t80 63.5t118 25.5q151 0 218 -105l-66 -55q-58 73 -148 73q-65 0 -108 -41t-58.5 -94t-15.5 -115v-15q7 11 17 23t32.5 32t59 32.5t79.5 12.5
q97 0 157.5 -60.5t60.5 -158.5zM173 209q0 -62 38.5 -101.5t104.5 -39.5q62 0 100 41.5t38 104.5q0 62 -36.5 101.5t-97.5 39.5q-66 0 -106.5 -41.5t-40.5 -104.5z" />
    <glyph glyph-name="seven" unicode="7" 
d="M544 596l-282 -596h-116l287 589h-376v89h487v-82z" />
    <glyph glyph-name="eight" unicode="8" 
d="M553 184q0 -92 -72 -146t-180 -54q-109 0 -181 53.5t-72 145.5q0 38 14.5 70t36.5 51t41 29.5t34 14.5q-36 13 -71 51.5t-35 103.5q0 90 65.5 140.5t166.5 50.5q102 0 167.5 -50t65.5 -140q0 -65 -35 -103.5t-71 -51.5q15 -4 34 -14.5t41 -29.5t36.5 -51t14.5 -70z
M300 610q-56 0 -94 -27.5t-38 -82.5q0 -56 38 -84t94 -28q57 0 95 28t38 84q0 54 -38.5 82t-94.5 28zM448 185q0 59 -43 91t-105 32q-61 0 -104.5 -32t-43.5 -91q0 -56 43.5 -86.5t104.5 -30.5q62 0 105 30.5t43 86.5z" />
    <glyph glyph-name="nine" unicode="9" 
d="M45 456q0 103 67 170.5t176 67.5q72 0 125 -29.5t81 -80t41 -108t13 -123.5q0 -48 -6 -93t-24 -96.5t-47 -89.5t-80 -63.5t-118 -25.5q-151 0 -218 105l66 55q58 -73 148 -73q65 0 108 41t58.5 94t15.5 115v15q-7 -11 -17 -23t-32.5 -32t-59 -32.5t-79.5 -12.5
q-97 0 -157.5 60.5t-60.5 158.5zM428 470q0 62 -38.5 101.5t-104.5 39.5q-62 0 -100 -41.5t-38 -104.5q0 -62 36.5 -101.5t97.5 -39.5q66 0 106.5 41.5t40.5 104.5z" />
    <glyph glyph-name="colon" unicode=":" horiz-adv-x="255" 
d="M194 418q0 -28 -19.5 -47.5t-47.5 -19.5t-47 19.5t-19 46.5q0 28 19 47.5t47 19.5t47.5 -19t19.5 -47zM194 57q0 -28 -19.5 -47.5t-47.5 -19.5t-47 19.5t-19 46.5q0 28 19 47.5t47 19.5t47.5 -19t19.5 -47z" />
    <glyph glyph-name="semicolon" unicode=";" horiz-adv-x="268" 
d="M207 418q0 -28 -19.5 -47.5t-47.5 -19.5t-47 19.5t-19 46.5q0 28 19 47.5t47 19.5t47.5 -19t19.5 -47zM205 114l-99 -237h-67l46 237h120z" />
    <glyph glyph-name="less" unicode="&#x3c;" 
d="M558 -2l-515 206v95l515 206v-97l-408 -157l408 -156v-97z" />
    <glyph glyph-name="equal" unicode="=" 
d="M558 304h-515v88h515v-88zM558 114h-515v88h515v-88z" />
    <glyph glyph-name="greater" unicode="&#x3e;" 
d="M558 204l-515 -206v97l408 156l-408 157v97l515 -206v-95z" />
    <glyph glyph-name="question" unicode="?" horiz-adv-x="510" 
d="M477 506q0 -45 -23 -80t-65 -73l-37.5 -31.5t-30 -26t-17.5 -20.5t-13 -27t-3 -34v-29h-100v31q0 34 4 54.5t20 42.5t32 36l57 48q35 28 53 52.5t18 57.5q0 47 -31 72.5t-87 25.5q-23 0 -44.5 -6t-36.5 -14.5t-29.5 -19.5t-22 -19.5t-14.5 -17.5l-7 -8l-67 56
q92 118 226 118q96 0 157 -50t61 -138zM305 57q0 -28 -19.5 -47.5t-47.5 -19.5t-47 19.5t-19 46.5q0 28 19 47.5t47 19.5t47.5 -19t19.5 -47z" />
    <glyph glyph-name="at" unicode="@" horiz-adv-x="960" 
d="M903 375q0 -129 -70 -218q-64 -80 -158 -80q-43 0 -72 22t-31 58q-13 -17 -30.5 -32.5t-53 -31.5t-73.5 -16q-63 0 -107.5 40.5t-44.5 116.5q0 103 65.5 179.5t168.5 76.5q68 0 107 -55l10 40h86q-16 -77 -50 -229q-7 -42 -7 -52q0 -36 40 -36q38 0 69 31q64 65 64 180
q0 114 -82 180t-212 66q-167 0 -271 -101t-104 -254q0 -137 92 -225t245 -88q169 0 290 102l53 -56q-14 -16 -39 -34.5t-67 -40.5t-105 -36t-134 -14q-190 0 -307.5 110.5t-117.5 282.5q0 184 127.5 308.5t329.5 124.5q169 0 279 -86t110 -233zM577 327q0 43 -23.5 65
t-55.5 22q-61 0 -102 -55.5t-41 -117.5q0 -42 20 -63.5t55 -21.5q64 0 105.5 53t41.5 118z" />
    <glyph glyph-name="A" unicode="A" horiz-adv-x="697" 
d="M688 0h-114l-67 163h-320l-67 -163h-111l280 678h118zM474 252l-127 318l-127 -318h254z" />
    <glyph glyph-name="B" unicode="B" horiz-adv-x="667" 
d="M622 196q0 -74 -44 -125q-38 -45 -99.5 -58t-159.5 -13h-244v678h249q44 0 67.5 -1t57.5 -5.5t58.5 -16.5t43.5 -31q44 -46 44 -113q0 -116 -103 -159q58 -14 94 -55t36 -101zM490 490q0 28 -10.5 48t-24 30t-38.5 15t-41.5 6t-44.5 1h-152v-203h154q35 0 58.5 3
t48.5 12.5t37.5 31.5t12.5 56zM513 198q0 24 -6.5 42t-20.5 29t-28.5 17.5t-37.5 9.5t-40.5 4t-44.5 1h-156v-212h149q29 0 45 0.5t41.5 3.5t40 10t29.5 18.5t22 31t7 45.5z" />
    <glyph glyph-name="C" unicode="C" horiz-adv-x="692" 
d="M660 103l-13.5 -15.5t-34 -29.5t-54.5 -35t-75.5 -27t-97.5 -12q-161 0 -250.5 100t-89.5 255q0 154 90 254.5t250 100.5q61 0 111.5 -14.5t82 -37t47.5 -39t26 -31.5l-68 -60l-4 4q-4 5 -8.5 10t-12.5 12t-17.5 14t-21 14.5t-26 13.5t-30.5 11t-35.5 8t-40.5 3
q-115 0 -174.5 -76t-59.5 -187t61 -186.5t172 -75.5q120 0 209 89z" />
    <glyph glyph-name="D" unicode="D" horiz-adv-x="723" 
d="M678 342q0 -161 -99 -254q-33 -31 -71.5 -50.5t-82 -27t-69.5 -9t-68 -1.5h-213v678h213q100 0 168.5 -14.5t122.5 -64.5q99 -93 99 -257zM569 343q0 122 -69 192q-25 25 -62.5 37.5t-65 14.5t-80.5 2h-112v-499h103q49 0 76 2t67.5 15t68.5 40q74 68 74 196z" />
    <glyph glyph-name="E" unicode="E" horiz-adv-x="616" 
d="M571 0h-496v678h483v-90h-378v-200h353v-88h-353v-209h391v-91z" />
    <glyph glyph-name="F" unicode="F" horiz-adv-x="567" 
d="M546 588h-366v-203h341v-89h-341v-296h-105v678h471v-90z" />
    <glyph glyph-name="G" unicode="G" horiz-adv-x="743" 
d="M680 0h-83l-2 84q-7 -10 -18 -21.5t-37.5 -32t-71.5 -33.5t-100 -13q-152 0 -237.5 99t-85.5 256q0 153 91.5 254t252.5 101q51 0 97 -11.5t73.5 -26t52 -34.5t32.5 -29.5t14 -18.5l-67 -61q-81 89 -200 89q-114 0 -175.5 -76t-61.5 -187q0 -114 58.5 -188.5t172.5 -74.5
q56 0 98 19t64 49t32.5 60t10.5 59v14h-208v88h298v-365z" />
    <glyph glyph-name="H" unicode="H" horiz-adv-x="719" 
d="M644 0h-105v300h-359v-300h-105v678h105v-288h359v288h105v-678z" />
    <glyph glyph-name="I" unicode="I" horiz-adv-x="255" 
d="M180 0h-105v678h105v-678z" />
    <glyph glyph-name="J" unicode="J" horiz-adv-x="518" 
d="M449 246q0 -69 -11 -115t-48 -83q-66 -64 -177 -64q-48 0 -88 13.5t-64.5 33.5t-37 35t-19.5 28l72 60q54 -79 135 -79q61 0 98 35q16 15 24 41.5t9 46.5t1 56v424h106v-432z" />
    <glyph glyph-name="K" unicode="K" horiz-adv-x="641" 
d="M638 0h-139l-319 315v-315h-105v678h105v-303l318 303h130l-345 -328z" />
    <glyph glyph-name="L" unicode="L" horiz-adv-x="551" 
d="M542 0h-467v678h105v-587h362v-91z" />
    <glyph glyph-name="M" unicode="M" horiz-adv-x="866" 
d="M791 0h-98v551l-214 -551h-94l-213 551v-551h-97v678h146l214 -550l212 550h144v-678z" />
    <glyph glyph-name="N" unicode="N" horiz-adv-x="719" 
d="M644 0h-104l-364 515v-515h-101v678h106l362 -510v510h101v-678z" />
    <glyph glyph-name="O" unicode="O" horiz-adv-x="780" 
d="M735 339q0 -67 -21.5 -129t-63 -113.5t-109 -82t-151.5 -30.5t-151.5 30.5t-109 82t-63 113.5t-21.5 129t21.5 129t63 113.5t109 82t151.5 30.5t151.5 -30.5t109 -82t63 -113.5t21.5 -129zM626 339q0 110 -61.5 187.5t-174.5 77.5t-174.5 -77.5t-61.5 -187.5
q0 -111 61.5 -188t174.5 -77t174.5 77t61.5 188z" />
    <glyph glyph-name="P" unicode="P" horiz-adv-x="624" 
d="M603 476q0 -88 -51 -143q-66 -70 -219 -70h-153v-263h-105v678h227q92 0 145 -9.5t92 -45.5q64 -57 64 -147zM497 473q0 50 -27 77q-24 25 -64.5 33.5t-105.5 8.5h-120v-241h143q106 0 148 43q26 28 26 79z" />
    <glyph glyph-name="Q" unicode="Q" horiz-adv-x="780" 
d="M735 339q0 -66 -21.5 -126t-41 -87.5t-37.5 -44.5l94 -84l-62 -65l-104 93q-75 -41 -173 -41q-84 0 -151.5 30.5t-109 82t-63 113.5t-21.5 129t21.5 129t63 113.5t109 82t151.5 30.5t151.5 -30.5t109 -82t63 -113.5t21.5 -129zM626 339q0 110 -61.5 187.5t-174.5 77.5
t-174.5 -77.5t-61.5 -187.5q0 -111 61.5 -188t174.5 -77q66 0 99 20l-99 89l62 65l109 -99q65 74 65 190z" />
    <glyph glyph-name="R" unicode="R" horiz-adv-x="664" 
d="M643 0h-124l-196 274h-143v-274h-105v678h251q79 0 131.5 -11t90.5 -49q56 -57 56 -138q0 -82 -56 -138q-39 -39 -112 -57zM499 477q0 48 -28 76q-18 18 -47 27t-51 10.5t-60 1.5h-133v-231h124q34 0 56.5 1.5t51.5 7.5t46 18t29 34.5t12 54.5z" />
    <glyph glyph-name="S" unicode="S" horiz-adv-x="647" 
d="M590 189q0 -95 -75.5 -150t-201.5 -55q-184 0 -280 122l67 65l8 -9q9 -10 16.5 -16.5l21 -18t29.5 -20t36.5 -16.5t46.5 -12.5t54 -4.5q79 0 124 28.5t45 83.5q0 33 -23.5 54.5t-61.5 32.5t-83.5 20t-91 22.5t-83.5 33.5t-61.5 58.5t-23.5 93.5q0 80 69.5 136.5
t187.5 56.5q179 0 273 -118l-67 -62q-83 92 -205 92q-70 0 -110 -26t-40 -75q0 -34 23.5 -56t61.5 -33t84 -19.5t91.5 -21t83.5 -32t61.5 -59t23.5 -95.5z" />
    <glyph glyph-name="T" unicode="T" horiz-adv-x="583" 
d="M574 588h-230v-588h-105v588h-230v90h565v-90z" />
    <glyph glyph-name="U" unicode="U" horiz-adv-x="709" 
d="M640 284q0 -73 -13.5 -123.5t-57.5 -94.5q-81 -80 -215 -80t-215 81q-31 31 -47.5 73t-19.5 72.5t-3 73.5v392h105v-379q0 -39 2 -62.5t13 -55.5t33 -54q50 -50 133 -50t130 48q29 29 38.5 67t9.5 97v389h107v-394z" />
    <glyph glyph-name="V" unicode="V" horiz-adv-x="671" 
d="M662 678l-271 -678h-111l-271 678h115l213 -554l213 554h112z" />
    <glyph glyph-name="W" unicode="W" horiz-adv-x="996" 
d="M981 678l-206 -678h-109l-167 534l-168 -534h-109l-207 678h110l159 -528l165 528h100l168 -528l157 528h107z" />
    <glyph glyph-name="X" unicode="X" horiz-adv-x="616" 
d="M607 0h-123l-178 268l-179 -268h-118l239 354l-220 324h122l161 -241l161 241h114l-218 -323z" />
    <glyph glyph-name="Y" unicode="Y" horiz-adv-x="621" 
d="M612 678l-250 -387v-291h-105v291l-248 387h121l183 -293l182 293h117z" />
    <glyph glyph-name="Z" unicode="Z" horiz-adv-x="636" 
d="M591 0h-546v89l403 499h-390v90h520v-88l-403 -499h416v-91z" />
    <glyph glyph-name="bracketleft" unicode="[" horiz-adv-x="321" 
d="M300 -186h-237v864h237v-87h-132v-690h132v-87z" />
    <glyph glyph-name="backslash" unicode="\" horiz-adv-x="388" 
d="M379 -186l-85 -27l-285 891l85 27z" />
    <glyph glyph-name="bracketright" unicode="]" horiz-adv-x="321" 
d="M258 -186h-237v87h132v690h-132v87h237v-864z" />
    <glyph glyph-name="asciicircum" unicode="^" 
d="M558 171h-98l-160 401l-159 -401h-98l210 507h96z" />
    <glyph glyph-name="underscore" unicode="_" horiz-adv-x="574" 
d="M574 -186h-574v88h574v-88z" />
    <glyph glyph-name="grave" unicode="`" horiz-adv-x="346" 
d="M165 547l-119 131h115l88 -131h-84z" />
    <glyph glyph-name="a" unicode="a" horiz-adv-x="519" 
d="M462 0h-91l-3 60l-7.5 -10t-19 -18t-31 -21t-44 -16t-58.5 -7q-72 0 -120.5 38.5t-48.5 112.5q0 62 39 101q56 56 167 56h120v2q0 48 -22 74q-27 34 -92 34q-74 0 -139 -65l-58 58l10 12.5t24.5 22.5t40 26.5t56 20.5t72.5 9q102 0 155 -53q32 -33 41 -73t9 -110v-254z
M365 222h-81q-30 0 -49 -2t-44.5 -9t-38.5 -25t-13 -46q0 -36 24.5 -54t62.5 -18q62 0 103 37q34 32 36 105v12z" />
    <glyph glyph-name="b" unicode="b" 
d="M562 237q0 -103 -64.5 -177t-175.5 -74q-32 0 -60 7.5t-45.5 17t-31.5 21.5t-19.5 18.5t-7.5 10.5l-3 -61h-92v678h100v-267l9 11.5t21 20t34 22.5t48 17.5t62 7.5q39 0 77 -13.5t72 -41.5t55 -79.5t21 -118.5zM458 236q0 83 -40.5 126t-105.5 43q-63 0 -107 -44.5
t-44 -124.5q0 -77 43 -121t106 -44q64 0 106 45t42 120z" />
    <glyph glyph-name="c" unicode="c" horiz-adv-x="525" 
d="M497 85q-3 -5 -9.5 -13.5t-24.5 -24.5t-40.5 -28.5t-58 -22.5t-75.5 -10q-116 0 -183 71t-67 181q0 105 66 178.5t188 73.5q45 0 83.5 -11.5t63 -30t36.5 -30t20 -23.5l-64 -54q-55 65 -138 65q-72 0 -111.5 -49.5t-39.5 -119.5q0 -69 38.5 -117t110.5 -48q88 0 143 66z
" />
    <glyph glyph-name="d" unicode="d" 
d="M538 0h-92l-3 68q-6 -9 -16 -18.5t-32 -26t-56.5 -27t-75.5 -10.5q-39 0 -76 13.5t-71.5 41t-55.5 79t-21 119.5q0 101 63.5 176t175.5 75q105 0 160 -73v261h100v-678zM440 240q0 78 -43 122t-106 44q-64 0 -106 -45.5t-42 -119.5q0 -84 40.5 -126.5t105.5 -42.5
q63 0 107 44t44 124z" />
    <glyph glyph-name="e" unicode="e" horiz-adv-x="549" 
d="M510 206h-368q0 -54 38.5 -96t106.5 -42q89 0 150 66l59 -52q-79 -96 -212 -96q-116 0 -180.5 70.5t-64.5 179.5q0 108 66 181t178 73q97 0 156 -59q43 -43 57 -97t14 -128zM410 283q0 44 -33 86t-96 42q-66 0 -101 -44.5t-35 -83.5h265z" />
    <glyph glyph-name="f" unicode="f" horiz-adv-x="404" 
d="M407 660l-11.5 -22t-13 -25.5l-10.5 -22.5q-38 19 -72 19q-39 0 -63 -21q-29 -26 -29 -91v-22h168v-83h-168v-392h-100v392h-105v83h105v27q0 94 49 143q48 48 133 48q68 0 117 -33z" />
    <glyph glyph-name="g" unicode="g" horiz-adv-x="593" 
d="M530 53q0 -63 -11 -107t-47 -81q-65 -65 -193 -65q-43 0 -80.5 9.5t-60 21t-42 28t-25.5 23.5t-11 14l60 59q61 -71 158 -71q88 0 120 42.5t32 115.5v36l-9 -10.5t-20.5 -18.5t-34 -23.5t-47 -17.5t-60.5 -8q-37 0 -73 12.5t-70.5 39t-55.5 76t-21 116.5q0 61 23.5 115
t78 92.5t129.5 38.5q61 0 103 -26.5t60 -53.5l2 65h95v-422zM432 246q0 79 -41 120t-101 41q-72 0 -109.5 -47.5t-37.5 -116.5q0 -78 38 -119t100 -41q58 0 104 40.5t47 122.5z" />
    <glyph glyph-name="h" unicode="h" horiz-adv-x="555" 
d="M498 0h-100v266q0 81 -29 108t-80 27q-52 0 -88 -35q-25 -26 -31.5 -60.5t-6.5 -93.5v-212h-100v678h100v-263q4 7 18 22t53.5 34t86.5 19q79 0 129 -51q48 -49 48 -158v-281z" />
    <glyph glyph-name="i" unicode="i" horiz-adv-x="224" 
d="M173 622q0 -26 -17 -43t-44 -17q-26 0 -43.5 17t-17.5 43q0 25 17.5 42.5t43.5 17.5t43.5 -17.5t17.5 -42.5zM162 0h-100v475h100v-475z" />
    <glyph glyph-name="j" unicode="j" horiz-adv-x="240" 
d="M178 23v1q0 -42 -2 -65.5t-12.5 -54t-31.5 -52.5q-52 -52 -135 -52q-76 0 -118 33l40 71q29 -19 70 -19q44 0 66 29q23 27 23 97v464h100v-452zM189 622q0 -26 -17 -43t-44 -17q-26 0 -43.5 17t-17.5 43q0 25 17.5 42.5t43.5 17.5t43.5 -17.5t17.5 -42.5z" />
    <glyph glyph-name="k" unicode="k" horiz-adv-x="509" 
d="M506 0h-130l-213 226v-226h-100v678h100v-405l212 202h127l-240 -223z" />
    <glyph glyph-name="l" unicode="l" horiz-adv-x="226" 
d="M163 0h-100v678h100v-678z" />
    <glyph glyph-name="m" unicode="m" horiz-adv-x="825" 
d="M158 475l2 -59q51 74 140 74q36 0 65 -11t45 -27.5t23.5 -27t10.5 -17.5q3 5 8 11.5t19 20t30.5 24.5t43.5 19t56 8q74 0 120 -47q21 -21 32 -52t13 -54.5t2 -61.5v-275h-100v261q0 90 -27 116q-22 24 -68 24q-44 0 -75 -29q-32 -32 -32 -105v-267h-100v259q0 90 -28 118
q-22 24 -68 24q-44 0 -75 -29q-32 -32 -32 -105v-267h-100v475h95z" />
    <glyph glyph-name="n" unicode="n" horiz-adv-x="555" 
d="M498 0h-100v266q0 81 -29 108t-80 27q-52 0 -88 -35q-25 -26 -31.5 -60.5t-6.5 -93.5v-212h-100v475h95l2 -64q3 5 8 11t19.5 19t31.5 23t44.5 18t57.5 8q79 0 129 -51q48 -49 48 -158v-281z" />
    <glyph glyph-name="o" unicode="o" horiz-adv-x="589" 
d="M550 238q0 -102 -66 -177t-189 -75q-84 0 -143.5 38t-86 93.5t-26.5 120.5q0 101 66.5 176.5t189.5 75.5t189 -75.5t66 -176.5zM446 238q0 82 -47 129q-39 39 -104 39q-66 0 -105 -39q-47 -49 -47 -129q0 -79 47 -128q39 -39 105 -39q65 0 104 39q47 47 47 128z" />
    <glyph glyph-name="p" unicode="p" 
d="M458 235q0 83 -40.5 126.5t-105.5 43.5q-62 0 -106.5 -45t-44.5 -124q0 -77 43 -121t106 -44q64 0 106 45t42 119zM562 237q0 -103 -64.5 -177t-175.5 -74q-49 0 -87.5 16.5t-51.5 29.5t-20 24v-242h-100v661h95l2 -67q62 82 176 82q40 0 77.5 -13.5t72 -41.5t55.5 -79
t21 -119z" />
    <glyph glyph-name="q" unicode="q" 
d="M538 -186h-100v247q-3 -4 -8 -10t-20.5 -18.5t-33.5 -22t-48 -17t-63 -7.5q-91 0 -158.5 63.5t-67.5 188.5q0 102 63.5 177t175.5 75q47 0 86 -17t53.5 -31.5t24.5 -28.5l2 62h94v-661zM440 240q0 77 -43 121t-106 44q-64 0 -106 -45.5t-42 -119.5q0 -83 40.5 -126
t105.5 -43q63 0 107 44.5t44 124.5z" />
    <glyph glyph-name="r" unicode="r" horiz-adv-x="351" 
d="M348 387q-16 2 -33 2q-67 0 -106 -38q-29 -27 -37.5 -61.5t-8.5 -83.5v-206h-100v475h95l2 -82q26 43 73 70t97 27q12 0 18 -1v-102z" />
    <glyph glyph-name="s" unicode="s" horiz-adv-x="489" 
d="M450 135q0 -65 -57.5 -107t-156.5 -42q-139 0 -209 82l54 61q7 -9 21.5 -20.5t53.5 -27t82 -15.5q50 0 81 17.5t31 47.5q0 31 -32 46t-78 21t-92 16t-78 42t-32 88q0 62 54.5 104t144.5 42q137 0 203 -84l-57 -54q-58 58 -143 58q-44 0 -73 -16.5t-29 -46.5t32 -44
t78 -19.5t92 -15.5t78 -43t32 -90z" />
    <glyph glyph-name="t" unicode="t" horiz-adv-x="413" 
d="M392 9q-46 -23 -111 -23q-88 0 -134 44q-27 26 -36 56.5t-9 85.5v220h-105v83h105v151h100v-151h169v-83h-169v-211q0 -61 23 -84q25 -25 74 -25q32 0 68 12z" />
    <glyph glyph-name="u" unicode="u" horiz-adv-x="552" 
d="M489 0h-92l-2 64q-59 -78 -158 -78q-83 0 -129 46q-30 30 -40.5 67.5t-10.5 92.5v283h100v-271q0 -74 27 -100q29 -29 81 -29q51 0 86 35q34 32 37 104q1 18 1 56v205h100v-475z" />
    <glyph glyph-name="v" unicode="v" horiz-adv-x="514" 
d="M511 475l-207 -475h-98l-203 475h108l147 -357l149 357h104z" />
    <glyph glyph-name="w" unicode="w" horiz-adv-x="774" 
d="M765 475l-159 -475h-98l-120 343l-122 -343h-98l-159 475h104l110 -347l120 347h90l122 -347l110 347h100z" />
    <glyph glyph-name="x" unicode="x" horiz-adv-x="515" 
d="M500 0h-117l-130 173l-128 -173h-110l185 241l-178 234h116l122 -164l124 164h108l-179 -231z" />
    <glyph glyph-name="y" unicode="y" horiz-adv-x="514" 
d="M511 475l-236 -557q-50 -118 -163 -118q-48 0 -81 18l28 76q21 -9 43 -9q56 0 84 64l23 52l-206 474h107l149 -360l148 360h104z" />
    <glyph glyph-name="z" unicode="z" horiz-adv-x="484" 
d="M451 0h-418v82l283 310h-273v83h398v-81l-281 -309h291v-85z" />
    <glyph glyph-name="braceleft" unicode="{" horiz-adv-x="310" 
d="M289 -186h-76q-68 2 -101 32q-35 32 -39 99v192q0 32 -16 49q-21 21 -60 21v90q37 0 60 22q16 15 16 52v176q4 66 39 99q38 32 125 32h52v-87h-52q-33 -2 -45 -14q-14 -15 -14 -65v-110q0 -48 -1 -71q-4 -69 -84 -78q79 -11 84 -79q1 -18 1 -56v-150q0 -38 15 -53
q14 -14 62 -14h34v-87z" />
    <glyph glyph-name="bar" unicode="|" horiz-adv-x="255" 
d="M180 -186h-105v986h105v-986z" />
    <glyph glyph-name="braceright" unicode="}" horiz-adv-x="310" 
d="M97 -186h-76v87h34q48 0 62 14q15 15 15 53v150q0 38 1 56q5 68 84 79q-80 9 -84 78q-1 23 -1 71v110q0 50 -14 65q-12 12 -45 14h-52v87h52q87 0 125 -32q35 -33 39 -99v-176q0 -37 16 -52q23 -22 60 -22v-90q-39 0 -60 -21q-16 -17 -16 -49v-192q-4 -67 -39 -99
q-33 -30 -101 -32z" />
    <glyph glyph-name="asciitilde" unicode="~" 
d="M557 278q-59 -94 -154 -94q-46 0 -106 22.5t-92 22.5q-49 0 -92 -56l-69 51q61 95 150 95q53 0 110.5 -22.5t84.5 -22.5q32 0 53.5 13t45.5 42z" />
    <glyph glyph-name="exclamdown" unicode="&#xa1;" horiz-adv-x="271" 
d="M185 307l4 -493h-107l4 493h99zM202 435q0 -28 -19.5 -47t-47.5 -19t-47 19.5t-19 47.5q0 27 19 46.5t47 19.5t47.5 -19.5t19.5 -47.5z" />
    <glyph glyph-name="cent" unicode="&#xa2;" 
d="M477 140l66 -53q-1 -3 -6.5 -10.5t-21 -23t-35.5 -29t-52 -25.5t-68 -15v-88h-84v89q-107 12 -163.5 85t-56.5 174q0 99 57 171.5t163 86.5v87h84v-86q34 -3 64.5 -14t50.5 -23.5t35.5 -27t22.5 -23t9 -12.5l-66 -53l-6 6l-10 11.5t-15.5 13.5t-21.5 14t-28 12t-35 9
v-345q74 12 117 69zM276 73v341q-55 -12 -85.5 -60t-30.5 -111q0 -65 29 -110.5t87 -59.5z" />
    <glyph glyph-name="sterling" unicode="&#xa3;" 
d="M560 584l-66 -54q-64 77 -150 77q-56 0 -89.5 -36.5t-33.5 -84.5q0 -45 20 -107h199v-83h-181q5 -25 5 -45q0 -104 -67 -163h350v-88h-484v80q101 48 101 160q0 32 -7 56h-94v83h74q-20 60 -20 105q0 91 62 150.5t158 59.5q50 0 93 -14t70 -36t40 -35.5t20 -24.5z" />
    <glyph glyph-name="currency" unicode="&#xa4;" horiz-adv-x="620" 
d="M586 564l-90 -89q45 -67 45 -132q0 -72 -44 -134l86 -89l-51 -51l-88 88q-71 -45 -138 -45q-69 0 -132 45l-89 -89l-51 52l88 89q-43 65 -43 132q0 70 45 134l-89 89l51 51l90 -89q65 46 134 46t135 -46l89 90zM460 344q0 63 -44.5 106.5t-108.5 43.5q-60 0 -104 -44.5
t-44 -106.5q0 -63 44.5 -107.5t106.5 -44.5q63 0 106.5 44.5t43.5 108.5z" />
    <glyph glyph-name="yen" unicode="&#xa5;" 
d="M577 678l-177 -299h149v-83h-198v-73h192v-82h-192v-141h-100v141h-190v82h190v73h-196v83h146l-176 299h113l166 -300l164 300h109z" />
    <glyph glyph-name="brokenbar" unicode="&#xa6;" horiz-adv-x="255" 
d="M180 441h-105v359h105v-359zM180 -186h-105v358h105v-358z" />
    <glyph glyph-name="section" unicode="&#xa7;" horiz-adv-x="582" 
d="M532 -4q0 -89 -70 -142.5t-182 -53.5q-50 0 -93.5 12.5t-69 27t-47.5 35.5t-28 29t-11 16l66 57q76 -91 186 -91q61 0 104.5 25.5t43.5 80.5q0 28 -21 46.5t-54 28t-73.5 17.5t-80.5 20.5t-73 30.5t-54 53.5t-21 85.5q0 41 16.5 71.5t34.5 43.5q-53 36 -53 119
q0 79 63 132.5t167 53.5q48 0 91 -12t67.5 -26t46.5 -34.5t27.5 -27.5t11.5 -16l-65 -56q-70 85 -179 85q-53 0 -91.5 -24.5t-38.5 -72.5q0 -34 28 -55t70 -28.5t90.5 -19.5t90.5 -27.5t70 -53.5t28 -96q0 -78 -46 -117q49 -36 49 -117zM433 222q0 14 -7 22q-10 32 -50.5 50
t-106 32t-90.5 24q-29 -27 -29 -71q0 -26 14.5 -44.5t43.5 -29.5t57.5 -17.5l71.5 -16.5t72 -19q24 24 24 70z" />
    <glyph glyph-name="dieresis" unicode="&#xa8;" horiz-adv-x="360" 
d="M330 613q0 -24 -16.5 -40.5t-40.5 -16.5t-41 16.5t-17 40.5t17 40.5t41 16.5t40.5 -16.5t16.5 -40.5zM145 613q0 -24 -16.5 -40.5t-40.5 -16.5t-41 16.5t-17 40.5t17 40.5t41 16.5t40.5 -16.5t16.5 -40.5z" />
    <glyph glyph-name="copyright" unicode="&#xa9;" horiz-adv-x="822" 
d="M765 339q0 -147 -103.5 -251t-250.5 -104t-250.5 104t-103.5 251t103.5 251t250.5 104t250.5 -104t103.5 -251zM688 339q0 115 -81.5 197.5t-195.5 82.5q-115 0 -196.5 -82.5t-81.5 -197.5q0 -116 81.5 -198.5t196.5 -82.5t196 82.5t81 198.5zM587 224l-4 -6
q-57 -83 -166 -83q-96 0 -146 60t-50 144t51 143.5t147 59.5q109 0 166 -86l-56 -43q-1 1 -8 8.5l-12 12.5t-15 12.5t-20 12t-25 8t-31 3.5q-55 0 -84.5 -38t-29.5 -93q0 -56 29.5 -93.5t84.5 -37.5q71 0 113 59z" />
    <glyph glyph-name="ordfeminine" unicode="&#xaa;" horiz-adv-x="344" 
d="M298 415h-64l-1 23q-29 -29 -78 -29q-42 0 -70.5 21t-28.5 62q0 36 23 56q30 27 108 27h43v7q-4 38 -52 38q-43 0 -74 -31l-41 39q44 49 118 49q57 0 88 -29q19 -18 24 -40t5 -58v-135zM230 525v3h-38q-67 0 -67 -36q0 -30 38 -30q29 0 50 17q17 16 17 46z" />
    <glyph glyph-name="guillemotleft" unicode="&#xab;" horiz-adv-x="463" 
d="M406 88l-58 -41l-150 206l150 206l58 -40l-107 -166zM241 88l-58 -41l-150 206l150 206l58 -40l-107 -166z" />
    <glyph glyph-name="logicalnot" unicode="&#xac;" 
d="M558 105h-87v198h-428v88h515v-286z" />
    <glyph glyph-name="registered" unicode="&#xae;" horiz-adv-x="476" 
d="M443 489q0 -85 -60 -145t-145 -60t-145 60t-60 145t60 145t145 60t145 -60t60 -145zM392 488h1q0 64 -45.5 109.5t-109.5 45.5t-109.5 -45t-45.5 -109q0 -65 45.5 -110.5t109.5 -45.5t109 45.5t45 109.5zM334 392h-51l-45 79h-27v-79h-46v204h74q43 0 59 -12
q25 -19 25 -51q0 -19 -11.5 -34.5t-28.5 -19.5zM278 532h1q0 17 -9 21q-8 5 -36 5h-23v-51h22q45 0 45 25z" />
    <glyph glyph-name="macron" unicode="&#xaf;" horiz-adv-x="346" 
d="M318 580h-290v73h290v-73z" />
    <glyph glyph-name="degree" unicode="&#xb0;" horiz-adv-x="376" 
d="M349 533q0 -67 -47 -114t-114 -47t-114 47t-47 114t47 114t114 47t114 -47t47 -114zM274 533q0 36 -25 62t-61 26t-61.5 -26t-25.5 -62q0 -37 25 -62.5t62 -25.5q36 0 61 25.5t25 62.5z" />
    <glyph glyph-name="plusminus" unicode="&#xb1;" 
d="M558 318h-212v-185h-90v185h-213v88h213v183h90v-183h212v-88zM558 0h-515v88h515v-88z" />
    <glyph glyph-name="twosuperior" unicode="&#xb2;" horiz-adv-x="393" 
d="M322 574q0 -43 -26 -70.5t-70 -51.5q-5 -3 -18 -9.5t-19.5 -10.5l-17.5 -11t-17 -13t-11.5 -14.5t-7.5 -17.5h185v-62h-259v22q0 37 8 62.5t34 49.5q10 10 23.5 19.5t22.5 15t27.5 15.5t24.5 14q49 29 49 64q0 24 -16.5 38.5t-44.5 14.5q-49 0 -91 -51l-47 39
q56 71 140 71q57 0 94 -30.5t37 -83.5z" />
    <glyph glyph-name="threesuperior" unicode="&#xb3;" horiz-adv-x="390" 
d="M327 424q0 -54 -39.5 -85t-102.5 -31q-96 0 -140 66l48 41q24 -24 32 -29q32 -18 58 -18q33 0 51 14.5t18 38.5q0 52 -87 52h-31v58h28q18 0 29 1t25 5t21 14.5t7 27.5q0 19 -13.5 34.5t-42.5 15.5q-44 0 -88 -46l-46 40q22 25 42 38q40 27 93 27q55 0 91 -29.5t36 -75.5
q0 -31 -15.5 -51.5t-35.5 -27.5q24 -7 43 -27t19 -53z" />
    <glyph glyph-name="acute" unicode="&#xb4;" horiz-adv-x="360" 
d="M314 678l-119 -131h-84l88 131h115z" />
    <glyph glyph-name="mu" unicode="&#xb5;" horiz-adv-x="558" 
d="M395 475h100v-475h-92l-2 64q-5 -8 -13 -16.5t-27 -24.5t-49 -26t-65 -10q-57 0 -87 22v-195h-97v661h100v-271q0 -74 27 -100q29 -29 81 -29q51 0 86 35q34 32 37 104q1 18 1 56v205z" />
    <glyph glyph-name="paragraph" unicode="&#xb6;" horiz-adv-x="626" 
d="M551 -116h-100v705h-72v-705h-100v379q-64 1 -110.5 15.5t-82.5 52.5q-53 57 -53 144q0 90 63 148q39 36 91.5 45.5t141.5 9.5h222v-794z" />
    <glyph glyph-name="periodcentered" unicode="&#xb7;" horiz-adv-x="255" 
d="M194 255q0 -28 -19.5 -47.5t-47.5 -19.5t-47 19.5t-19 46.5q0 28 19 47.5t47 19.5t47.5 -19t19.5 -47z" />
    <glyph glyph-name="cedilla" unicode="&#xb8;" horiz-adv-x="343" 
d="M272 -121q0 -35 -29.5 -60.5t-77.5 -25.5q-61 0 -91 34l33 41q21 -21 55 -21q20 0 31 10t11 24q0 32 -36 32q-23 0 -37 -14l-45 29l45 73h63l-29 -44q6 2 14 2q47 0 70 -23t23 -57z" />
    <glyph glyph-name="onesuperior" unicode="&#xb9;" horiz-adv-x="399" 
d="M78 314v61h98v224l-82 -48l-35 52l126 75h63v-303h98v-61h-268z" />
    <glyph glyph-name="ordmasculine" unicode="&#xba;" horiz-adv-x="342" 
d="M315 540q0 -54 -38 -95.5t-106 -41.5q-69 0 -106.5 41t-37.5 96t37.5 96.5t106.5 41.5q68 0 106 -41.5t38 -96.5zM171 619q-34 0 -53 -22t-19 -57t19 -56.5t53 -21.5t53 21.5t19 56.5t-19 57t-53 22z" />
    <glyph glyph-name="guillemotright" unicode="&#xbb;" horiz-adv-x="463" 
d="M115 47l-58 41l107 165l-107 166l58 40l150 -206zM280 47l-58 41l107 165l-107 166l58 40l150 -206z" />
    <glyph glyph-name="onequarter" unicode="&#xbc;" horiz-adv-x="894" 
d="M843 79h-58v-79h-69v79h-167v50l169 235h67v-229h58v-56zM716 135v132l-95 -132h95zM727 659l-401 -694l-64 37l401 694zM78 314v61h98v224l-82 -48l-35 52l126 75h63v-303h98v-61h-268z" />
    <glyph glyph-name="onehalf" unicode="&#xbd;" horiz-adv-x="904" 
d="M690 659l-401 -694l-64 37l401 694zM78 314v61h98v224l-82 -48l-35 52l126 75h63v-303h98v-61h-268zM833 258q0 -43 -25.5 -69.5t-70.5 -50.5q-5 -3 -18 -9.5t-19.5 -10.5l-17.5 -11t-17 -13t-11.5 -14.5t-7.5 -17.5h185v-62h-259v22q0 37 8 62.5t34 49.5
q10 10 23.5 19.5t22.5 15t27.5 15.5t24.5 14q49 29 49 62q0 24 -16.5 38.5t-44.5 14.5q-49 0 -91 -51l-47 39q56 71 140 71q57 0 94 -30.5t37 -83.5z" />
    <glyph glyph-name="threequarters" unicode="&#xbe;" horiz-adv-x="857" 
d="M681 659l-401 -694l-64 37l401 694zM806 79h-58v-79h-69v79h-167v50l169 235h67v-229h58v-56zM679 135v132l-95 -132h95zM327 424q0 -54 -39.5 -85t-102.5 -31q-96 0 -140 66l48 41q24 -24 32 -29q32 -18 58 -18q33 0 51 14.5t18 38.5q0 52 -87 52h-31v58h28q18 0 29 1
t25 5t21 14.5t7 27.5q0 19 -13.5 34.5t-42.5 15.5q-44 0 -88 -46l-46 40q22 25 42 38q40 27 93 27q55 0 91 -29.5t36 -75.5q0 -31 -15.5 -51.5t-35.5 -27.5q24 -7 43 -27t19 -53z" />
    <glyph glyph-name="questiondown" unicode="&#xbf;" horiz-adv-x="510" 
d="M33 -14q0 45 23 80t65 73l37.5 31.5t30 26t17.5 20.5t13 27t3 34v29h100v-31q0 -34 -4 -54.5t-20 -42.5t-32 -36l-57 -48q-35 -28 -53 -52.5t-18 -57.5q0 -47 31 -72.5t87 -25.5q23 0 44.5 6t36.5 14.5t29.5 19.5t22 19.5t14.5 17.5l7 8l67 -56q-92 -118 -226 -118
q-96 0 -157 50t-61 138zM205 435q0 28 19.5 47.5t47.5 19.5t47 -19.5t19 -46.5q0 -28 -19 -47.5t-47 -19.5t-47.5 19t-19.5 47z" />
    <glyph glyph-name="Agrave" unicode="&#xc0;" horiz-adv-x="697" 
d="M688 0h-114l-67 163h-320l-67 -163h-111l280 678h118zM474 252l-127 318l-127 -318h254zM342 749l-119 131h115l88 -131h-84z" />
    <glyph glyph-name="Aacute" unicode="&#xc1;" horiz-adv-x="697" 
d="M688 0h-114l-67 163h-320l-67 -163h-111l280 678h118zM474 252l-127 318l-127 -318h254zM472 880l-119 -131h-84l88 131h115z" />
    <glyph glyph-name="Acircumflex" unicode="&#xc2;" horiz-adv-x="697" 
d="M688 0h-114l-67 163h-320l-67 -163h-111l280 678h118zM474 252l-127 318l-127 -318h254zM503 749h-83l-72 81l-72 -81h-83l89 131h132z" />
    <glyph glyph-name="Atilde" unicode="&#xc3;" horiz-adv-x="697" 
d="M688 0h-114l-67 163h-320l-67 -163h-111l280 678h118zM474 252l-127 318l-127 -318h254zM503 869q0 -50 -23 -81t-73 -31q-23 0 -61 19.5t-54 19.5q-17 0 -26 -11t-9 -25h-63q0 45 22.5 78.5t74.5 33.5q25 0 63 -19t52 -19q15 0 25 9.5t10 25.5h62z" />
    <glyph glyph-name="Adieresis" unicode="&#xc4;" horiz-adv-x="697" 
d="M688 0h-114l-67 163h-320l-67 -163h-111l280 678h118zM474 252l-127 318l-127 -318h254zM498 807q0 -24 -16.5 -40.5t-40.5 -16.5t-41 16.5t-17 40.5t17 40.5t41 16.5t40.5 -16.5t16.5 -40.5zM313 807q0 -24 -16.5 -40.5t-40.5 -16.5t-41 16.5t-17 40.5t17 40.5t41 16.5
t40.5 -16.5t16.5 -40.5z" />
    <glyph glyph-name="Aring" unicode="&#xc5;" horiz-adv-x="697" 
d="M688 0h-114l-67 163h-320l-67 -163h-111l280 678h118zM474 252l-127 318l-127 -318h254zM453 816q0 -43 -30.5 -73.5t-74.5 -30.5t-74.5 30.5t-30.5 73.5t30.5 73.5t74.5 30.5t74.5 -30.5t30.5 -73.5zM396 816q0 20 -14 34.5t-34 14.5t-34 -14.5t-14 -34.5t14 -34.5
t34 -14.5t34 14.5t14 34.5z" />
    <glyph glyph-name="AE" unicode="&#xc6;" horiz-adv-x="995" 
d="M950 0h-462v170h-261l-107 -170h-123l432 678h508v-90h-344v-200h319v-88h-319v-209h357v-91zM488 258v339l-209 -339h209z" />
    <glyph glyph-name="Ccedilla" unicode="&#xc7;" horiz-adv-x="692" 
d="M288 -72l37 60q-127 18 -203.5 111t-76.5 240q0 154 90 254.5t250 100.5q61 0 111.5 -14.5t82 -37t47.5 -39t26 -31.5l-68 -60l-4 4q-4 5 -8.5 10t-12.5 12t-17.5 14t-21 14.5t-26 13.5t-30.5 11t-35.5 8t-40.5 3q-115 0 -174.5 -76t-59.5 -187t61 -186.5t172 -75.5
q120 0 209 89l64 -63l-13.5 -15.5t-34 -29.5t-54.5 -35t-75.5 -27t-97.5 -12l-18 -27q6 2 14 2q47 0 70 -23t23 -57q0 -35 -29.5 -60.5t-77.5 -25.5q-61 0 -91 34l33 41q21 -21 55 -21q20 0 31 10t11 24q0 32 -36 32q-23 0 -37 -14z" />
    <glyph glyph-name="Egrave" unicode="&#xc8;" horiz-adv-x="616" 
d="M571 0h-496v678h483v-90h-378v-200h353v-88h-353v-209h391v-91zM318 749l-119 131h115l88 -131h-84z" />
    <glyph glyph-name="Eacute" unicode="&#xc9;" horiz-adv-x="616" 
d="M571 0h-496v678h483v-90h-378v-200h353v-88h-353v-209h391v-91zM448 880l-119 -131h-84l88 131h115z" />
    <glyph glyph-name="Ecircumflex" unicode="&#xca;" horiz-adv-x="616" 
d="M571 0h-496v678h483v-90h-378v-200h353v-88h-353v-209h391v-91zM478 749h-83l-72 81l-72 -81h-83l89 131h132z" />
    <glyph glyph-name="Edieresis" unicode="&#xcb;" horiz-adv-x="616" 
d="M571 0h-496v678h483v-90h-378v-200h353v-88h-353v-209h391v-91zM474 807q0 -24 -16.5 -40.5t-40.5 -16.5t-41 16.5t-17 40.5t17 40.5t41 16.5t40.5 -16.5t16.5 -40.5zM289 807q0 -24 -16.5 -40.5t-40.5 -16.5t-41 16.5t-17 40.5t17 40.5t41 16.5t40.5 -16.5t16.5 -40.5z
" />
    <glyph glyph-name="Igrave" unicode="&#xcc;" horiz-adv-x="255" 
d="M180 0h-105v678h105v-678zM118 749l-119 131h115l88 -131h-84z" />
    <glyph glyph-name="Iacute" unicode="&#xcd;" horiz-adv-x="255" 
d="M180 0h-105v678h105v-678zM256 880l-119 -131h-84l88 131h115z" />
    <glyph glyph-name="Icircumflex" unicode="&#xce;" horiz-adv-x="255" 
d="M180 0h-105v678h105v-678zM283 749h-83l-72 81l-72 -81h-83l89 131h132z" />
    <glyph glyph-name="Idieresis" unicode="&#xcf;" horiz-adv-x="255" 
d="M180 0h-105v678h105v-678zM278 807q0 -24 -16.5 -40.5t-40.5 -16.5t-41 16.5t-17 40.5t17 40.5t41 16.5t40.5 -16.5t16.5 -40.5zM93 807q0 -24 -16.5 -40.5t-40.5 -16.5t-41 16.5t-17 40.5t17 40.5t41 16.5t40.5 -16.5t16.5 -40.5z" />
    <glyph glyph-name="Eth" unicode="&#xd0;" horiz-adv-x="761" 
d="M113 386v292h213q100 0 168.5 -14.5t122.5 -64.5q99 -93 99 -257q0 -161 -99 -254q-33 -31 -71.5 -50.5t-82 -27t-69.5 -9t-68 -1.5h-213v300h-104v86h104zM218 300v-210h103q49 0 76 2t67.5 15t68.5 40q74 68 74 196q0 122 -69 192q-25 25 -62.5 37.5t-65 14.5t-80.5 2
h-112v-203h187v-86h-187z" />
    <glyph glyph-name="Ntilde" unicode="&#xd1;" horiz-adv-x="719" 
d="M644 0h-104l-364 515v-515h-101v678h106l362 -510v510h101v-678zM514 870q0 -50 -23 -81t-73 -31q-23 0 -61 19.5t-54 19.5q-17 0 -26 -11t-9 -25h-63q0 45 22.5 78.5t74.5 33.5q25 0 63 -19t52 -19q15 0 25 9.5t10 25.5h62z" />
    <glyph glyph-name="Ograve" unicode="&#xd2;" horiz-adv-x="780" 
d="M735 339q0 -67 -21.5 -129t-63 -113.5t-109 -82t-151.5 -30.5t-151.5 30.5t-109 82t-63 113.5t-21.5 129t21.5 129t63 113.5t109 82t151.5 30.5t151.5 -30.5t109 -82t63 -113.5t21.5 -129zM626 339q0 110 -61.5 187.5t-174.5 77.5t-174.5 -77.5t-61.5 -187.5
q0 -111 61.5 -188t174.5 -77t174.5 77t61.5 188zM385 749l-119 131h115l88 -131h-84z" />
    <glyph glyph-name="Oacute" unicode="&#xd3;" horiz-adv-x="780" 
d="M735 339q0 -67 -21.5 -129t-63 -113.5t-109 -82t-151.5 -30.5t-151.5 30.5t-109 82t-63 113.5t-21.5 129t21.5 129t63 113.5t109 82t151.5 30.5t151.5 -30.5t109 -82t63 -113.5t21.5 -129zM626 339q0 110 -61.5 187.5t-174.5 77.5t-174.5 -77.5t-61.5 -187.5
q0 -111 61.5 -188t174.5 -77t174.5 77t61.5 188zM513 880l-119 -131h-84l88 131h115z" />
    <glyph glyph-name="Ocircumflex" unicode="&#xd4;" horiz-adv-x="780" 
d="M735 339q0 -67 -21.5 -129t-63 -113.5t-109 -82t-151.5 -30.5t-151.5 30.5t-109 82t-63 113.5t-21.5 129t21.5 129t63 113.5t109 82t151.5 30.5t151.5 -30.5t109 -82t63 -113.5t21.5 -129zM626 339q0 110 -61.5 187.5t-174.5 77.5t-174.5 -77.5t-61.5 -187.5
q0 -111 61.5 -188t174.5 -77t174.5 77t61.5 188zM545 749h-83l-72 81l-72 -81h-83l89 131h132z" />
    <glyph glyph-name="Otilde" unicode="&#xd5;" horiz-adv-x="780" 
d="M735 339q0 -67 -21.5 -129t-63 -113.5t-109 -82t-151.5 -30.5t-151.5 30.5t-109 82t-63 113.5t-21.5 129t21.5 129t63 113.5t109 82t151.5 30.5t151.5 -30.5t109 -82t63 -113.5t21.5 -129zM626 339q0 110 -61.5 187.5t-174.5 77.5t-174.5 -77.5t-61.5 -187.5
q0 -111 61.5 -188t174.5 -77t174.5 77t61.5 188zM543 869q0 -50 -23 -81t-73 -31q-23 0 -61 19.5t-54 19.5q-17 0 -26 -11t-9 -25h-63q0 45 22.5 78.5t74.5 33.5q25 0 63 -19t52 -19q15 0 25 9.5t10 25.5h62z" />
    <glyph glyph-name="Odieresis" unicode="&#xd6;" horiz-adv-x="780" 
d="M735 339q0 -67 -21.5 -129t-63 -113.5t-109 -82t-151.5 -30.5t-151.5 30.5t-109 82t-63 113.5t-21.5 129t21.5 129t63 113.5t109 82t151.5 30.5t151.5 -30.5t109 -82t63 -113.5t21.5 -129zM626 339q0 110 -61.5 187.5t-174.5 77.5t-174.5 -77.5t-61.5 -187.5
q0 -111 61.5 -188t174.5 -77t174.5 77t61.5 188zM539 807q0 -24 -16.5 -40.5t-40.5 -16.5t-41 16.5t-17 40.5t17 40.5t41 16.5t40.5 -16.5t16.5 -40.5zM354 807q0 -24 -16.5 -40.5t-40.5 -16.5t-41 16.5t-17 40.5t17 40.5t41 16.5t40.5 -16.5t16.5 -40.5z" />
    <glyph glyph-name="multiply" unicode="&#xd7;" 
d="M533 83l-64 -64l-169 169l-169 -169l-63 63l169 168l-169 170l64 63l169 -169l169 169l63 -63l-169 -168z" />
    <glyph glyph-name="Oslash" unicode="&#xd8;" horiz-adv-x="782" 
d="M735 339q0 -67 -21.5 -129t-63 -113.5t-109 -82t-151.5 -30.5q-127 0 -212 67l-68 -70l-65 62l70 72q-70 96 -70 224q0 67 21.5 129t63 113.5t109 82t151.5 30.5q124 0 214 -68l69 70l64 -61l-71 -75q69 -93 69 -221zM189 190l348 364q-60 50 -147 50
q-113 0 -174.5 -77.5t-61.5 -187.5q0 -82 35 -149zM626 339q0 84 -35 147l-347 -363q57 -49 146 -49q113 0 174.5 77t61.5 188z" />
    <glyph glyph-name="Ugrave" unicode="&#xd9;" horiz-adv-x="709" 
d="M640 284q0 -73 -13.5 -123.5t-57.5 -94.5q-81 -80 -215 -80t-215 81q-31 31 -47.5 73t-19.5 72.5t-3 73.5v392h105v-379q0 -39 2 -62.5t13 -55.5t33 -54q50 -50 133 -50t130 48q29 29 38.5 67t9.5 97v389h107v-394zM350 749l-119 131h115l88 -131h-84z" />
    <glyph glyph-name="Uacute" unicode="&#xda;" horiz-adv-x="709" 
d="M640 284q0 -73 -13.5 -123.5t-57.5 -94.5q-81 -80 -215 -80t-215 81q-31 31 -47.5 73t-19.5 72.5t-3 73.5v392h105v-379q0 -39 2 -62.5t13 -55.5t33 -54q50 -50 133 -50t130 48q29 29 38.5 67t9.5 97v389h107v-394zM478 880l-119 -131h-84l88 131h115z" />
    <glyph glyph-name="Ucircumflex" unicode="&#xdb;" horiz-adv-x="709" 
d="M640 284q0 -73 -13.5 -123.5t-57.5 -94.5q-81 -80 -215 -80t-215 81q-31 31 -47.5 73t-19.5 72.5t-3 73.5v392h105v-379q0 -39 2 -62.5t13 -55.5t33 -54q50 -50 133 -50t130 48q29 29 38.5 67t9.5 97v389h107v-394zM510 749h-83l-72 81l-72 -81h-83l89 131h132z" />
    <glyph glyph-name="Udieresis" unicode="&#xdc;" horiz-adv-x="709" 
d="M640 284q0 -73 -13.5 -123.5t-57.5 -94.5q-81 -80 -215 -80t-215 81q-31 31 -47.5 73t-19.5 72.5t-3 73.5v392h105v-379q0 -39 2 -62.5t13 -55.5t33 -54q50 -50 133 -50t130 48q29 29 38.5 67t9.5 97v389h107v-394zM504 807q0 -24 -16.5 -40.5t-40.5 -16.5t-41 16.5
t-17 40.5t17 40.5t41 16.5t40.5 -16.5t16.5 -40.5zM319 807q0 -24 -16.5 -40.5t-40.5 -16.5t-41 16.5t-17 40.5t17 40.5t41 16.5t40.5 -16.5t16.5 -40.5z" />
    <glyph glyph-name="Yacute" unicode="&#xdd;" horiz-adv-x="621" 
d="M612 678l-250 -387v-291h-105v291l-248 387h121l183 -293l182 293h117zM433 880l-119 -131h-84l88 131h115z" />
    <glyph glyph-name="Thorn" unicode="&#xde;" horiz-adv-x="624" 
d="M603 356q0 -88 -51 -143q-66 -70 -219 -70h-153v-143h-105v678h105v-120h122q92 0 145 -9.5t92 -45.5q64 -57 64 -147zM497 353q0 50 -27 77q-24 25 -64.5 33.5t-105.5 8.5h-120v-241h143q106 0 148 43q26 28 26 79z" />
    <glyph glyph-name="germandbls" unicode="&#xdf;" horiz-adv-x="573" 
d="M534 192q0 -100 -65.5 -152t-159.5 -52q-74 0 -109 23l30 76q30 -15 72 -15q55 0 93 31.5t38 90.5q0 49 -31 78q-39 39 -147 39h-34v85h37q85 0 118 35q27 29 27 71q0 46 -34.5 76.5t-87.5 30.5q-58 0 -92 -34q-21 -22 -26.5 -47.5t-5.5 -75.5v-452h-100v451q0 65 11 108
t44 75q60 59 167 59q100 0 161 -49.5t61 -132.5q0 -62 -35 -101.5t-68 -49.5q16 -2 36 -11t44 -27t40 -52t16 -78z" />
    <glyph glyph-name="agrave" unicode="&#xe0;" horiz-adv-x="519" 
d="M462 0h-91l-3 60l-7.5 -10t-19 -18t-31 -21t-44 -16t-58.5 -7q-72 0 -120.5 38.5t-48.5 112.5q0 62 39 101q56 56 167 56h120v2q0 48 -22 74q-27 34 -92 34q-74 0 -139 -65l-58 58l10 12.5t24.5 22.5t40 26.5t56 20.5t72.5 9q102 0 155 -53q32 -33 41 -73t9 -110v-254z
M365 222h-81q-30 0 -49 -2t-44.5 -9t-38.5 -25t-13 -46q0 -36 24.5 -54t62.5 -18q62 0 103 37q34 32 36 105v12zM255 547l-119 131h115l88 -131h-84z" />
    <glyph glyph-name="aacute" unicode="&#xe1;" horiz-adv-x="519" 
d="M462 0h-91l-3 60l-7.5 -10t-19 -18t-31 -21t-44 -16t-58.5 -7q-72 0 -120.5 38.5t-48.5 112.5q0 62 39 101q56 56 167 56h120v2q0 48 -22 74q-27 34 -92 34q-74 0 -139 -65l-58 58l10 12.5t24.5 22.5t40 26.5t56 20.5t72.5 9q102 0 155 -53q32 -33 41 -73t9 -110v-254z
M365 222h-81q-30 0 -49 -2t-44.5 -9t-38.5 -25t-13 -46q0 -36 24.5 -54t62.5 -18q62 0 103 37q34 32 36 105v12zM384 678l-119 -131h-84l88 131h115z" />
    <glyph glyph-name="acircumflex" unicode="&#xe2;" horiz-adv-x="519" 
d="M462 0h-91l-3 60l-7.5 -10t-19 -18t-31 -21t-44 -16t-58.5 -7q-72 0 -120.5 38.5t-48.5 112.5q0 62 39 101q56 56 167 56h120v2q0 48 -22 74q-27 34 -92 34q-74 0 -139 -65l-58 58l10 12.5t24.5 22.5t40 26.5t56 20.5t72.5 9q102 0 155 -53q32 -33 41 -73t9 -110v-254z
M365 222h-81q-30 0 -49 -2t-44.5 -9t-38.5 -25t-13 -46q0 -36 24.5 -54t62.5 -18q62 0 103 37q34 32 36 105v12zM414 547h-83l-72 81l-72 -81h-83l89 131h132z" />
    <glyph glyph-name="atilde" unicode="&#xe3;" horiz-adv-x="519" 
d="M462 0h-91l-3 60l-7.5 -10t-19 -18t-31 -21t-44 -16t-58.5 -7q-72 0 -120.5 38.5t-48.5 112.5q0 62 39 101q56 56 167 56h120v2q0 48 -22 74q-27 34 -92 34q-74 0 -139 -65l-58 58l10 12.5t24.5 22.5t40 26.5t56 20.5t72.5 9q102 0 155 -53q32 -33 41 -73t9 -110v-254z
M365 222h-81q-30 0 -49 -2t-44.5 -9t-38.5 -25t-13 -46q0 -36 24.5 -54t62.5 -18q62 0 103 37q34 32 36 105v12zM413 667q0 -50 -23 -81t-73 -31q-23 0 -61 19.5t-54 19.5q-17 0 -26 -11t-9 -25h-63q0 45 22.5 78.5t74.5 33.5q25 0 63 -19t52 -19q15 0 25 9.5t10 25.5h62z
" />
    <glyph glyph-name="adieresis" unicode="&#xe4;" horiz-adv-x="519" 
d="M462 0h-91l-3 60l-7.5 -10t-19 -18t-31 -21t-44 -16t-58.5 -7q-72 0 -120.5 38.5t-48.5 112.5q0 62 39 101q56 56 167 56h120v2q0 48 -22 74q-27 34 -92 34q-74 0 -139 -65l-58 58l10 12.5t24.5 22.5t40 26.5t56 20.5t72.5 9q102 0 155 -53q32 -33 41 -73t9 -110v-254z
M365 222h-81q-30 0 -49 -2t-44.5 -9t-38.5 -25t-13 -46q0 -36 24.5 -54t62.5 -18q62 0 103 37q34 32 36 105v12zM409 604q0 -24 -16.5 -40.5t-40.5 -16.5t-41 16.5t-17 40.5t17 40.5t41 16.5t40.5 -16.5t16.5 -40.5zM224 604q0 -24 -16.5 -40.5t-40.5 -16.5t-41 16.5
t-17 40.5t17 40.5t41 16.5t40.5 -16.5t16.5 -40.5z" />
    <glyph glyph-name="aring" unicode="&#xe5;" horiz-adv-x="519" 
d="M462 0h-91l-3 60l-7.5 -10t-19 -18t-31 -21t-44 -16t-58.5 -7q-72 0 -120.5 38.5t-48.5 112.5q0 62 39 101q56 56 167 56h120v2q0 48 -22 74q-27 34 -92 34q-74 0 -139 -65l-58 58l10 12.5t24.5 22.5t40 26.5t56 20.5t72.5 9q102 0 155 -53q32 -33 41 -73t9 -110v-254z
M365 222h-81q-30 0 -49 -2t-44.5 -9t-38.5 -25t-13 -46q0 -36 24.5 -54t62.5 -18q62 0 103 37q34 32 36 105v12zM364 626q0 -43 -30.5 -73.5t-74.5 -30.5t-74.5 30.5t-30.5 73.5t30.5 73.5t74.5 30.5t74.5 -30.5t30.5 -73.5zM307 626q0 20 -14 34.5t-34 14.5t-34 -14.5
t-14 -34.5t14 -34.5t34 -14.5t34 14.5t14 34.5z" />
    <glyph glyph-name="ae" unicode="&#xe6;" horiz-adv-x="868" 
d="M729 289q0 42 -33 82t-96 40q-66 0 -101 -42t-35 -80h265zM365 217h-88q-138 0 -138 -78q0 -36 24.5 -53.5t62.5 -17.5q64 0 103 37q23 21 29.5 47t6.5 65zM365 292v6q0 48 -22 74q-27 34 -92 34q-74 0 -139 -65l-58 58l10 12.5t24.5 22.5t40 26.5t56 20.5t72.5 9
q120 0 168 -75q67 75 177 75q97 0 156 -59q71 -70 71 -219h-367q0 -58 37 -101t107 -43q89 0 150 66l59 -52q-79 -96 -212 -96q-128 0 -193 93q-70 -92 -197 -92q-75 0 -124.5 38t-49.5 113q0 67 47 106q59 48 176 48h103z" />
    <glyph glyph-name="ccedilla" unicode="&#xe7;" horiz-adv-x="525" 
d="M212 -72l38 61q-93 9 -152 76.5t-59 172.5t66 178.5t188 73.5q45 0 83.5 -11.5t63 -30t36.5 -30t20 -23.5l-64 -54q-55 65 -138 65q-72 0 -111.5 -49.5t-39.5 -119.5q0 -69 38.5 -117t110.5 -48q88 0 143 66l62 -53l-9 -12t-22 -23t-36 -27.5t-52 -23t-67 -12.5l-20 -30
q6 2 14 2q47 0 70 -23t23 -57q0 -35 -29.5 -60.5t-77.5 -25.5q-61 0 -91 34l33 41q21 -21 55 -21q20 0 31 10t11 24q0 32 -36 32q-23 0 -37 -14z" />
    <glyph glyph-name="egrave" unicode="&#xe8;" horiz-adv-x="549" 
d="M510 206h-368q0 -54 38.5 -96t106.5 -42q89 0 150 66l59 -52q-79 -96 -212 -96q-116 0 -180.5 70.5t-64.5 179.5q0 108 66 181t178 73q97 0 156 -59q43 -43 57 -97t14 -128zM410 283q0 44 -33 86t-96 42q-66 0 -101 -44.5t-35 -83.5h265zM275 547l-119 131h115l88 -131
h-84z" />
    <glyph glyph-name="eacute" unicode="&#xe9;" horiz-adv-x="549" 
d="M510 206h-368q0 -54 38.5 -96t106.5 -42q89 0 150 66l59 -52q-79 -96 -212 -96q-116 0 -180.5 70.5t-64.5 179.5q0 108 66 181t178 73q97 0 156 -59q43 -43 57 -97t14 -128zM410 283q0 44 -33 86t-96 42q-66 0 -101 -44.5t-35 -83.5h265zM394 678l-119 -131h-84l88 131
h115z" />
    <glyph glyph-name="ecircumflex" unicode="&#xea;" horiz-adv-x="549" 
d="M510 206h-368q0 -54 38.5 -96t106.5 -42q89 0 150 66l59 -52q-79 -96 -212 -96q-116 0 -180.5 70.5t-64.5 179.5q0 108 66 181t178 73q97 0 156 -59q43 -43 57 -97t14 -128zM410 283q0 44 -33 86t-96 42q-66 0 -101 -44.5t-35 -83.5h265zM429 547h-83l-72 81l-72 -81h-83
l89 131h132z" />
    <glyph glyph-name="edieresis" unicode="&#xeb;" horiz-adv-x="549" 
d="M510 206h-368q0 -54 38.5 -96t106.5 -42q89 0 150 66l59 -52q-79 -96 -212 -96q-116 0 -180.5 70.5t-64.5 179.5q0 108 66 181t178 73q97 0 156 -59q43 -43 57 -97t14 -128zM410 283q0 44 -33 86t-96 42q-66 0 -101 -44.5t-35 -83.5h265zM427 604q0 -24 -16.5 -40.5
t-40.5 -16.5t-41 16.5t-17 40.5t17 40.5t41 16.5t40.5 -16.5t16.5 -40.5zM242 604q0 -24 -16.5 -40.5t-40.5 -16.5t-41 16.5t-17 40.5t17 40.5t41 16.5t40.5 -16.5t16.5 -40.5z" />
    <glyph glyph-name="igrave" unicode="&#xec;" horiz-adv-x="224" 
d="M163 0h-100v475h100v-475zM118 547l-119 131h115l88 -131h-84z" />
    <glyph glyph-name="iacute" unicode="&#xed;" horiz-adv-x="224" 
d="M163 0h-100v475h100v-475zM235 678l-119 -131h-84l88 131h115z" />
    <glyph glyph-name="icircumflex" unicode="&#xee;" horiz-adv-x="224" 
d="M163 0h-100v475h100v-475zM267 547h-83l-72 81l-72 -81h-83l89 131h132z" />
    <glyph glyph-name="idieresis" unicode="&#xef;" horiz-adv-x="224" 
d="M163 0h-100v475h100v-475zM262 613q0 -24 -16.5 -40.5t-40.5 -16.5t-41 16.5t-17 40.5t17 40.5t41 16.5t40.5 -16.5t16.5 -40.5zM77 613q0 -24 -16.5 -40.5t-40.5 -16.5t-41 16.5t-17 40.5t17 40.5t41 16.5t40.5 -16.5t16.5 -40.5z" />
    <glyph glyph-name="eth" unicode="&#xf0;" horiz-adv-x="550" 
d="M511 243q0 -109 -60.5 -183t-176.5 -74q-110 0 -172.5 64t-62.5 165q0 103 66.5 163t157.5 60q57 0 101 -31q-41 60 -117 125l-69 -65l-55 51l67 65l-74 63l65 64l79 -62l64 61l54 -50l-62 -61q40 -37 67.5 -67.5t60 -77t50 -100t17.5 -110.5zM408 211q0 61 -35.5 101.5
t-95.5 40.5q-62 0 -98 -36.5t-36 -101.5q0 -68 34 -106.5t97 -38.5q61 0 97.5 40.5t36.5 100.5z" />
    <glyph glyph-name="ntilde" unicode="&#xf1;" horiz-adv-x="555" 
d="M498 0h-100v266q0 81 -29 108t-80 27q-52 0 -88 -35q-25 -26 -31.5 -60.5t-6.5 -93.5v-212h-100v475h95l2 -64q3 5 8 11t19.5 19t31.5 23t44.5 18t57.5 8q79 0 129 -51q48 -49 48 -158v-281zM432 667q0 -50 -23 -81t-73 -31q-23 0 -61 19.5t-54 19.5q-17 0 -26 -11
t-9 -25h-63q0 45 22.5 78.5t74.5 33.5q25 0 63 -19t52 -19q15 0 25 9.5t10 25.5h62z" />
    <glyph glyph-name="ograve" unicode="&#xf2;" horiz-adv-x="589" 
d="M550 238q0 -102 -66 -177t-189 -75q-84 0 -143.5 38t-86 93.5t-26.5 120.5q0 101 66.5 176.5t189.5 75.5t189 -75.5t66 -176.5zM446 238q0 82 -47 129q-39 39 -104 39q-66 0 -105 -39q-47 -49 -47 -129q0 -79 47 -128q39 -39 105 -39q65 0 104 39q47 47 47 128zM295 547
l-119 131h115l88 -131h-84z" />
    <glyph glyph-name="oacute" unicode="&#xf3;" horiz-adv-x="589" 
d="M550 238q0 -102 -66 -177t-189 -75q-84 0 -143.5 38t-86 93.5t-26.5 120.5q0 101 66.5 176.5t189.5 75.5t189 -75.5t66 -176.5zM446 238q0 82 -47 129q-39 39 -104 39q-66 0 -105 -39q-47 -49 -47 -129q0 -79 47 -128q39 -39 105 -39q65 0 104 39q47 47 47 128zM414 678
l-119 -131h-84l88 131h115z" />
    <glyph glyph-name="ocircumflex" unicode="&#xf4;" horiz-adv-x="589" 
d="M550 238q0 -102 -66 -177t-189 -75q-84 0 -143.5 38t-86 93.5t-26.5 120.5q0 101 66.5 176.5t189.5 75.5t189 -75.5t66 -176.5zM446 238q0 82 -47 129q-39 39 -104 39q-66 0 -105 -39q-47 -49 -47 -129q0 -79 47 -128q39 -39 105 -39q65 0 104 39q47 47 47 128zM449 547
h-83l-72 81l-72 -81h-83l89 131h132z" />
    <glyph glyph-name="otilde" unicode="&#xf5;" horiz-adv-x="589" 
d="M550 238q0 -102 -66 -177t-189 -75q-84 0 -143.5 38t-86 93.5t-26.5 120.5q0 101 66.5 176.5t189.5 75.5t189 -75.5t66 -176.5zM446 238q0 82 -47 129q-39 39 -104 39q-66 0 -105 -39q-47 -49 -47 -129q0 -79 47 -128q39 -39 105 -39q65 0 104 39q47 47 47 128zM449 667
q0 -50 -23 -81t-73 -31q-23 0 -61 19.5t-54 19.5q-17 0 -26 -11t-9 -25h-63q0 45 22.5 78.5t74.5 33.5q25 0 63 -19t52 -19q15 0 25 9.5t10 25.5h62z" />
    <glyph glyph-name="odieresis" unicode="&#xf6;" horiz-adv-x="589" 
d="M550 238q0 -102 -66 -177t-189 -75q-84 0 -143.5 38t-86 93.5t-26.5 120.5q0 101 66.5 176.5t189.5 75.5t189 -75.5t66 -176.5zM446 238q0 82 -47 129q-39 39 -104 39q-66 0 -105 -39q-47 -49 -47 -129q0 -79 47 -128q39 -39 105 -39q65 0 104 39q47 47 47 128zM444 604
q0 -24 -16.5 -40.5t-40.5 -16.5t-41 16.5t-17 40.5t17 40.5t41 16.5t40.5 -16.5t16.5 -40.5zM259 604q0 -24 -16.5 -40.5t-40.5 -16.5t-41 16.5t-17 40.5t17 40.5t41 16.5t40.5 -16.5t16.5 -40.5z" />
    <glyph glyph-name="divide" unicode="&#xf7;" 
d="M558 208h-515v88h515v-88zM370 54q0 -28 -19.5 -47.5t-47.5 -19.5t-47 19.5t-19 46.5q0 28 19 47.5t47 19.5t47.5 -19t19.5 -47zM370 448q0 -28 -19.5 -47.5t-47.5 -19.5t-47 19.5t-19 46.5q0 28 19 47.5t47 19.5t47.5 -19t19.5 -47z" />
    <glyph glyph-name="oslash" unicode="&#xf8;" horiz-adv-x="593" 
d="M432 318l-224 -223q34 -24 88 -24q65 0 104 39q47 47 47 128q0 58 -15 80zM142 30l-46 -46l-57 56l48 46q-47 63 -47 152q0 101 66.5 176.5t189.5 75.5q92 0 153 -44l47 46l58 -56l-49 -48q16 -19 31 -59t15 -91q0 -102 -66 -177t-189 -75q-91 0 -154 44zM160 157
l225 223q-33 26 -89 26q-66 0 -105 -39q-47 -49 -47 -129q0 -49 16 -81z" />
    <glyph glyph-name="ugrave" unicode="&#xf9;" horiz-adv-x="552" 
d="M489 0h-92l-2 64q-59 -78 -158 -78q-83 0 -129 46q-30 30 -40.5 67.5t-10.5 92.5v283h100v-271q0 -74 27 -100q29 -29 81 -29q51 0 86 35q34 32 37 104q1 18 1 56v205h100v-475zM274 547l-119 131h115l88 -131h-84z" />
    <glyph glyph-name="uacute" unicode="&#xfa;" horiz-adv-x="552" 
d="M489 0h-92l-2 64q-59 -78 -158 -78q-83 0 -129 46q-30 30 -40.5 67.5t-10.5 92.5v283h100v-271q0 -74 27 -100q29 -29 81 -29q51 0 86 35q34 32 37 104q1 18 1 56v205h100v-475zM393 678l-119 -131h-84l88 131h115z" />
    <glyph glyph-name="ucircumflex" unicode="&#xfb;" horiz-adv-x="552" 
d="M489 0h-92l-2 64q-59 -78 -158 -78q-83 0 -129 46q-30 30 -40.5 67.5t-10.5 92.5v283h100v-271q0 -74 27 -100q29 -29 81 -29q51 0 86 35q34 32 37 104q1 18 1 56v205h100v-475zM428 547h-83l-72 81l-72 -81h-83l89 131h132z" />
    <glyph glyph-name="udieresis" unicode="&#xfc;" horiz-adv-x="552" 
d="M489 0h-92l-2 64q-59 -78 -158 -78q-83 0 -129 46q-30 30 -40.5 67.5t-10.5 92.5v283h100v-271q0 -74 27 -100q29 -29 81 -29q51 0 86 35q34 32 37 104q1 18 1 56v205h100v-475zM423 604q0 -24 -16.5 -40.5t-40.5 -16.5t-41 16.5t-17 40.5t17 40.5t41 16.5t40.5 -16.5
t16.5 -40.5zM238 604q0 -24 -16.5 -40.5t-40.5 -16.5t-41 16.5t-17 40.5t17 40.5t41 16.5t40.5 -16.5t16.5 -40.5z" />
    <glyph glyph-name="yacute" unicode="&#xfd;" horiz-adv-x="514" 
d="M511 475l-236 -557q-50 -118 -163 -118q-48 0 -81 18l28 76q21 -9 43 -9q56 0 84 64l23 52l-206 474h107l149 -360l148 360h104zM394 678l-119 -131h-84l88 131h115z" />
    <glyph glyph-name="thorn" unicode="&#xfe;" 
d="M458 235q0 83 -40.5 126.5t-105.5 43.5q-62 0 -106.5 -45t-44.5 -124q0 -77 43 -121t106 -44q64 0 106 45t42 119zM562 237q0 -103 -64.5 -177t-175.5 -74q-49 0 -87.5 16.5t-51.5 29.5t-20 24v-242h-100v864h100v-267q6 8 14.5 16.5t30 25t55 27t73.5 10.5t77.5 -13.5
t72 -41.5t55.5 -79t21 -119z" />
    <glyph glyph-name="ydieresis" unicode="&#xff;" horiz-adv-x="514" 
d="M511 475l-236 -557q-50 -118 -163 -118q-48 0 -81 18l28 76q21 -9 43 -9q56 0 84 64l23 52l-206 474h107l149 -360l148 360h104zM407 604q0 -24 -16.5 -40.5t-40.5 -16.5t-41 16.5t-17 40.5t17 40.5t41 16.5t40.5 -16.5t16.5 -40.5zM222 604q0 -24 -16.5 -40.5
t-40.5 -16.5t-41 16.5t-17 40.5t17 40.5t41 16.5t40.5 -16.5t16.5 -40.5z" />
    <glyph glyph-name="Idotaccent" unicode="&#x130;" horiz-adv-x="255" 
d="M180 0h-105v678h105v-678zM185 825q0 -24 -16.5 -40.5t-40.5 -16.5t-41 16.5t-17 40.5t17 40.5t41 16.5t40.5 -16.5t16.5 -40.5z" />
    <glyph glyph-name="dotlessi" unicode="&#x131;" horiz-adv-x="224" 
d="M162 0h-100v475h100v-475z" />
    <glyph glyph-name="Lslash" unicode="&#x141;" horiz-adv-x="583" 
d="M574 0h-467v245l-51 -49l-59 61l110 103v318h105v-236l96 90l59 -62l-155 -147v-232h362v-91z" />
    <glyph glyph-name="lslash" unicode="&#x142;" horiz-adv-x="318" 
d="M321 427l-112 -105v-322h-100v246l-52 -50l-59 61l111 104v317h100v-240l53 50z" />
    <glyph glyph-name="OE" unicode="&#x152;" horiz-adv-x="1136" 
d="M1091 0h-462v91q-80 -107 -241 -107q-84 0 -151 30.5t-108.5 82t-63 113.5t-21.5 129t21.5 129t63 113.5t108.5 82t151 30.5q93 0 152 -33t89 -74v91h449v-90h-350v-200h325v-88h-323v-209h361v-91zM625 339q0 110 -61.5 187.5t-174.5 77.5t-174.5 -77.5t-61.5 -187.5
q0 -111 61.5 -188t174.5 -77t174.5 77t61.5 188z" />
    <glyph glyph-name="oe" unicode="&#x153;" horiz-adv-x="942" 
d="M435 238q0 70 -37.5 118.5t-107.5 48.5q-71 0 -109 -48t-38 -119q0 -73 38 -120t109 -47t108 47.5t37 119.5zM803 283q0 44 -33 86t-96 42q-66 0 -101 -44.5t-35 -83.5h265zM677 -14q-132 0 -194 91q-66 -91 -194 -91q-121 0 -185.5 75t-64.5 177t65.5 177t186.5 75
q128 0 193 -93q63 93 192 93q97 0 156 -59q42 -43 56.5 -97t14.5 -128h-368q0 -54 38.5 -96t106.5 -42q89 0 150 66l59 -52q-79 -96 -212 -96z" />
    <glyph glyph-name="Scaron" unicode="&#x160;" horiz-adv-x="647" 
d="M590 189q0 -95 -75.5 -150t-201.5 -55q-184 0 -280 122l67 65l8 -9q9 -10 16.5 -16.5l21 -18t29.5 -20t36.5 -16.5t46.5 -12.5t54 -4.5q79 0 124 28.5t45 83.5q0 33 -23.5 54.5t-61.5 32.5t-83.5 20t-91 22.5t-83.5 33.5t-61.5 58.5t-23.5 93.5q0 80 69.5 136.5
t187.5 56.5q179 0 273 -118l-67 -62q-83 92 -205 92q-70 0 -110 -26t-40 -75q0 -34 23.5 -56t61.5 -33t84 -19.5t91.5 -21t83.5 -32t61.5 -59t23.5 -95.5zM159 880h83l72 -81l72 81h83l-89 -131h-132z" />
    <glyph glyph-name="scaron" unicode="&#x161;" horiz-adv-x="489" 
d="M450 135q0 -65 -57.5 -107t-156.5 -42q-139 0 -209 82l54 61q7 -9 21.5 -20.5t53.5 -27t82 -15.5q50 0 81 17.5t31 47.5q0 31 -32 46t-78 21t-92 16t-78 42t-32 88q0 62 54.5 104t144.5 42q137 0 203 -84l-57 -54q-58 58 -143 58q-44 0 -73 -16.5t-29 -46.5t32 -44
t78 -19.5t92 -15.5t78 -43t32 -90zM89 678h83l72 -81l72 81h83l-89 -131h-132z" />
    <glyph glyph-name="Ydieresis" unicode="&#x178;" horiz-adv-x="621" 
d="M612 678l-250 -387v-291h-105v291l-248 387h121l183 -293l182 293h117zM463 807q0 -24 -16.5 -40.5t-40.5 -16.5t-41 16.5t-17 40.5t17 40.5t41 16.5t40.5 -16.5t16.5 -40.5zM278 807q0 -24 -16.5 -40.5t-40.5 -16.5t-41 16.5t-17 40.5t17 40.5t41 16.5t40.5 -16.5
t16.5 -40.5z" />
    <glyph glyph-name="Zcaron" unicode="&#x17d;" horiz-adv-x="636" 
d="M591 0h-546v89l403 499h-390v90h520v-88l-403 -499h416v-91zM163 880h83l72 -81l72 81h83l-89 -131h-132z" />
    <glyph glyph-name="zcaron" unicode="&#x17e;" horiz-adv-x="484" 
d="M451 0h-418v82l283 310h-273v83h398v-81l-281 -309h291v-85zM88 678h83l72 -81l72 81h83l-89 -131h-132z" />
    <glyph glyph-name="florin" unicode="&#x192;" 
d="M597 666l-31 -76q-39 15 -69 15q-20 0 -35.5 -8t-24.5 -18t-16 -28t-9 -27.5l-6 -27.5l-10 -46h149v-83h-166l-84 -392q-21 -99 -69 -138q-46 -37 -113 -37q-59 0 -109 26l31 76q39 -15 69 -15q32 0 54 19q11 9 19 24.5t11 27.5t8 38l80 371h-99v83h116l14 67
q23 101 68 137q48 39 113 39q57 0 109 -27z" />
    <glyph glyph-name="circumflex" unicode="&#x2c6;" horiz-adv-x="346" 
d="M328 547h-83l-72 81l-72 -81h-83l89 131h132z" />
    <glyph glyph-name="caron" unicode="&#x2c7;" horiz-adv-x="346" 
d="M18 678h83l72 -81l72 81h83l-89 -131h-132z" />
    <glyph glyph-name="breve" unicode="&#x2d8;" horiz-adv-x="346" 
d="M323 678q0 -62 -41.5 -98.5t-108.5 -36.5t-108.5 36.5t-41.5 98.5h70q2 -31 23.5 -49.5t56.5 -18.5q34 0 56 18.5t23 49.5h71z" />
    <glyph glyph-name="dotaccent" unicode="&#x2d9;" horiz-adv-x="346" 
d="M230 622q0 -24 -16.5 -40.5t-40.5 -16.5t-41 16.5t-17 40.5t17 40.5t41 16.5t40.5 -16.5t16.5 -40.5z" />
    <glyph glyph-name="ring" unicode="&#x2da;" horiz-adv-x="346" 
d="M278 626q0 -43 -30.5 -73.5t-74.5 -30.5t-74.5 30.5t-30.5 73.5t30.5 73.5t74.5 30.5t74.5 -30.5t30.5 -73.5zM221 626q0 20 -14 34.5t-34 14.5t-34 -14.5t-14 -34.5t14 -34.5t34 -14.5t34 14.5t14 34.5z" />
    <glyph glyph-name="ogonek" unicode="&#x2db;" horiz-adv-x="352" 
d="M273 -164q-38 -36 -93 -36q-42 0 -71.5 23t-29.5 69q0 64 73 111h116q-15 -6 -29.5 -14t-35 -22t-33 -33.5t-12.5 -41.5q0 -14 10 -22.5t24 -8.5q22 0 45 17z" />
    <glyph glyph-name="tilde" unicode="&#x2dc;" horiz-adv-x="346" 
d="M328 667q0 -50 -23 -81t-73 -31q-23 0 -61 19.5t-54 19.5q-17 0 -26 -11t-9 -25h-63q0 45 22.5 78.5t74.5 33.5q25 0 63 -19t52 -19q15 0 25 9.5t10 25.5h62z" />
    <glyph glyph-name="hungarumlaut" unicode="&#x2dd;" horiz-adv-x="346" 
d="M193 678l-120 -131h-81l88 131h113zM354 678l-120 -131h-81l88 131h113z" />
    <glyph glyph-name="Omega" unicode="&#x3a9;" horiz-adv-x="781" 
d="M737 0h-286v85q67 23 120.5 90.5t53.5 171.5q0 110 -60.5 183.5t-173.5 73.5t-174 -73.5t-61 -183.5q0 -103 53.5 -171.5t120.5 -90.5v-85h-286v91h137q-17 11 -34.5 27t-42.5 47.5t-41 80.5t-16 106q0 141 89 241.5t253 100.5q111 0 191 -50t117 -125.5t37 -165.5
q0 -57 -16.5 -107t-41 -81t-43.5 -48t-35 -26h139v-91z" />
    <glyph glyph-name="pi" unicode="&#x3c0;" 
d="M567 475v-83h-74v-240q0 -40 14 -54q15 -14 58 -14v-84h-24q-80 0 -114 34q-33 33 -33 107v251h-186v-392h-100v392h-74v83h533z" />
    <glyph glyph-name="figuredash" unicode="&#x2012;" 
d="M558 208h-515v88h515v-88z" />
    <glyph glyph-name="endash" unicode="&#x2013;" horiz-adv-x="605" 
d="M560 208h-515v88h515v-88z" />
    <glyph glyph-name="emdash" unicode="&#x2014;" horiz-adv-x="958" 
d="M889 208h-820v88h820v-88z" />
    <glyph glyph-name="quoteleft" unicode="&#x2018;" horiz-adv-x="256" 
d="M45 441l99 237h67l-46 -237h-120z" />
    <glyph glyph-name="quoteright" unicode="&#x2019;" horiz-adv-x="256" 
d="M211 678l-99 -237h-67l46 237h120z" />
    <glyph glyph-name="quotesinglbase" unicode="&#x201a;" horiz-adv-x="244" 
d="M205 114l-99 -237h-67l46 237h120z" />
    <glyph glyph-name="quotedblleft" unicode="&#x201c;" horiz-adv-x="412" 
d="M33 441l99 237h67l-46 -237h-120zM213 441l99 237h67l-46 -237h-120z" />
    <glyph glyph-name="quotedblright" unicode="&#x201d;" horiz-adv-x="412" 
d="M379 678l-99 -237h-67l46 237h120zM199 678l-99 -237h-67l46 237h120z" />
    <glyph glyph-name="quotedblbase" unicode="&#x201e;" horiz-adv-x="423" 
d="M205 114l-99 -237h-67l46 237h120zM384 114l-99 -237h-67l46 237h120z" />
    <glyph glyph-name="dagger" unicode="&#x2020;" 
d="M560 386h-209v-502h-100v502h-209v89h209v203h100v-203h209v-89z" />
    <glyph glyph-name="daggerdbl" unicode="&#x2021;" 
d="M560 141h-209v-257h-100v257h-209v89h209v156h-209v89h209v203h100v-203h209v-89h-209v-156h209v-89z" />
    <glyph glyph-name="bullet" unicode="&#x2022;" horiz-adv-x="350" 
d="M275 254q0 -42 -29.5 -71t-70.5 -29q-42 0 -71 29t-29 71q0 41 29 70.5t71 29.5q41 0 70.5 -29.5t29.5 -70.5z" />
    <glyph glyph-name="ellipsis" unicode="&#x2026;" horiz-adv-x="895" 
d="M194 57q0 -28 -19.5 -47.5t-47.5 -19.5t-47 19.5t-19 46.5q0 28 19 47.5t47 19.5t47.5 -19t19.5 -47zM514 57q0 -28 -19.5 -47.5t-47.5 -19.5t-47 19.5t-19 46.5q0 28 19 47.5t47 19.5t47.5 -19t19.5 -47zM834 57q0 -28 -19.5 -47.5t-47.5 -19.5t-47 19.5t-19 46.5
q0 28 19 47.5t47 19.5t47.5 -19t19.5 -47z" />
    <glyph glyph-name="perthousand" unicode="&#x2030;" horiz-adv-x="1255" 
d="M190 308q-72 0 -110.5 52t-38.5 138q0 85 39 137.5t111 52.5t111 -52.5t39 -137.5t-39.5 -137.5t-111.5 -52.5zM191 628q-76 0 -76 -130q0 -129 75 -129q76 0 76 129q0 130 -75 130zM666 659l-401 -694l-64 37l401 694zM682 -8q-72 0 -110.5 52t-38.5 138q0 85 39 137.5
t111 52.5t111 -52.5t39 -137.5t-39.5 -137.5t-111.5 -52.5zM683 312q-76 0 -76 -130q0 -129 75 -129q76 0 76 129q0 130 -75 130zM1063 -8q-72 0 -110.5 52t-38.5 138q0 85 39 137.5t111 52.5t111 -52.5t39 -137.5t-39.5 -137.5t-111.5 -52.5zM1064 312q-76 0 -76 -130
q0 -129 75 -129q76 0 76 129q0 130 -75 130z" />
    <glyph glyph-name="guilsinglleft" unicode="&#x2039;" horiz-adv-x="298" 
d="M241 88l-58 -41l-150 206l150 206l58 -40l-107 -166z" />
    <glyph glyph-name="guilsinglright" unicode="&#x203a;" horiz-adv-x="298" 
d="M115 47l-58 41l107 165l-107 166l58 40l150 -206z" />
    <glyph glyph-name="fraction" unicode="&#x2044;" horiz-adv-x="123" 
d="M294 659l-401 -694l-64 37l401 694z" />
    <glyph glyph-name="zerosuperior" unicode="&#x2070;" horiz-adv-x="382" 
d="M190 308q-72 0 -110.5 52t-38.5 138q0 85 39 137.5t111 52.5t111 -52.5t39 -137.5t-39.5 -137.5t-111.5 -52.5zM191 628q-76 0 -76 -130q0 -129 75 -129q76 0 76 129q0 130 -75 130z" />
    <glyph glyph-name="foursuperior" unicode="&#x2074;" horiz-adv-x="386" 
d="M335 393h-58v-79h-69v79h-167v50l169 235h67v-229h58v-56zM208 449v132l-95 -132h95z" />
    <glyph glyph-name="fivesuperior" unicode="&#x2075;" horiz-adv-x="385" 
d="M173 306q-84 0 -132 58l44 43q40 -42 87 -42q36 0 55.5 18t19.5 52q0 30 -18.5 45.5t-46.5 15.5q-46 0 -71 -42l-56 22l23 202h221v-60h-166l-10 -86q23 22 72 22q55 0 90.5 -31.5t35.5 -86.5q0 -59 -40.5 -94.5t-107.5 -35.5z" />
    <glyph glyph-name="sixsuperior" unicode="&#x2076;" horiz-adv-x="373" 
d="M192 308q-55 0 -90.5 29t-48 68.5t-12.5 86.5q0 32 6 61.5t21.5 62t49 52.5t81.5 20q88 0 129 -62l-45 -37q-36 41 -82 41t-68.5 -37t-22.5 -85q24 51 96 51q55 0 90 -33.5t35 -87.5q0 -56 -39 -93t-100 -37zM194 500q-32 0 -51.5 -19.5t-19.5 -48.5q0 -30 18 -48.5
t51 -18.5q29 0 48 20t19 49t-17.5 47.5t-47.5 18.5z" />
    <glyph glyph-name="sevensuperior" unicode="&#x2077;" horiz-adv-x="403" 
d="M183 314h-80l157 302h-201v62h280v-52z" />
    <glyph glyph-name="eightsuperior" unicode="&#x2078;" horiz-adv-x="373" 
d="M186 308q-61 0 -103 29.5t-42 81.5q0 33 19.5 56t42.5 28q-21 6 -36 28t-15 51q0 50 38.5 78t95.5 28t96 -28t39 -78q0 -29 -15 -50.5t-36 -27.5q24 -7 42.5 -30t18.5 -55q0 -52 -42 -81.5t-103 -29.5zM186 633q-27 0 -45.5 -14.5t-18.5 -38.5t18 -37.5t46 -13.5t46 13
t18 38q0 24 -18 38.5t-46 14.5zM186 476q-30 0 -51 -15.5t-21 -41.5q0 -24 20.5 -39.5t51.5 -15.5t51.5 15t20.5 40q0 26 -21 41.5t-51 15.5z" />
    <glyph glyph-name="ninesuperior" unicode="&#x2079;" horiz-adv-x="373" 
d="M180 688q55 0 90.5 -29t48 -68.5t12.5 -86.5q0 -32 -6 -61.5t-21.5 -62t-49 -52.5t-81.5 -20q-88 0 -129 62l45 37q36 -41 82 -41t68.5 37t22.5 85q-24 -51 -96 -51q-55 0 -90 33.5t-35 87.5q0 56 39 93t100 37zM178 496q32 0 51.5 19.5t19.5 48.5q0 30 -18 48.5
t-51 18.5q-29 0 -48 -20t-19 -49t17.5 -47.5t47.5 -18.5z" />
    <glyph glyph-name="parenleftsuperior" unicode="&#x207d;" horiz-adv-x="237" 
d="M199 227q-68 42 -113 111.5t-45 158.5q0 87 46.5 160t112.5 112l40 -48q-125 -95 -125 -223t125 -223z" />
    <glyph glyph-name="parenrightsuperior" unicode="&#x207e;" horiz-adv-x="237" 
d="M38 227l-41 48q125 95 125 223t-125 223l40 48q66 -39 112.5 -112t46.5 -160q0 -89 -45 -158.5t-113 -111.5z" />
    <glyph glyph-name="zeroinferior" unicode="&#x2080;" horiz-adv-x="382" 
d="M190 -8q-72 0 -110.5 52t-38.5 138q0 85 39 137.5t111 52.5t111 -52.5t39 -137.5t-39.5 -137.5t-111.5 -52.5zM191 312q-76 0 -76 -130q0 -129 75 -129q76 0 76 129q0 130 -75 130z" />
    <glyph glyph-name="oneinferior" unicode="&#x2081;" horiz-adv-x="399" 
d="M78 0v61h98v224l-82 -48l-35 52l126 75h63v-303h98v-61h-268z" />
    <glyph glyph-name="twoinferior" unicode="&#x2082;" horiz-adv-x="393" 
d="M322 260q0 -43 -26 -70.5t-70 -51.5q-5 -3 -18 -9.5t-19.5 -10.5l-17.5 -11t-17 -13t-11.5 -14.5t-7.5 -17.5h185v-62h-259v22q0 37 8 62.5t34 49.5q10 10 23.5 19.5t22.5 15t27.5 15.5t24.5 14q49 29 49 64q0 24 -16.5 38.5t-44.5 14.5q-49 0 -91 -51l-47 39
q56 71 140 71q57 0 94 -30.5t37 -83.5z" />
    <glyph glyph-name="threeinferior" unicode="&#x2083;" horiz-adv-x="390" 
d="M327 108q0 -54 -39.5 -85t-102.5 -31q-96 0 -140 66l48 41q24 -24 32 -29q31 -18 58 -18q33 0 51 14.5t18 38.5q0 52 -87 52h-31v58h28q18 0 29 1t25 5t21 14.5t7 27.5q0 19 -13.5 34.5t-42.5 15.5q-44 0 -88 -46l-46 40q22 25 42 38q40 27 93 27q55 0 91 -29.5t36 -75.5
q0 -31 -15.5 -51.5t-35.5 -27.5q24 -7 43 -27t19 -53z" />
    <glyph glyph-name="fourinferior" unicode="&#x2084;" horiz-adv-x="386" 
d="M335 79h-58v-79h-69v79h-167v50l169 235h67v-229h58v-56zM208 135v132l-95 -132h95z" />
    <glyph glyph-name="fiveinferior" unicode="&#x2085;" horiz-adv-x="385" 
d="M173 -8q-84 0 -132 58l44 43q40 -42 87 -42q36 0 55.5 18t19.5 52q0 30 -18.5 45.5t-46.5 15.5q-46 0 -71 -42l-56 22l23 202h221v-60h-166l-10 -86q23 22 72 22q55 0 90.5 -31.5t35.5 -86.5q0 -59 -40.5 -94.5t-107.5 -35.5z" />
    <glyph glyph-name="sixinferior" unicode="&#x2086;" horiz-adv-x="373" 
d="M192 -8q-55 0 -90.5 29t-48 68.5t-12.5 86.5q0 32 6 61.5t21.5 62t49 52.5t81.5 20q88 0 129 -62l-45 -37q-36 41 -82 41t-68.5 -37t-22.5 -85q24 51 96 51q55 0 90 -33.5t35 -87.5q0 -56 -39 -93t-100 -37zM194 184q-32 0 -51.5 -19.5t-19.5 -48.5q0 -30 18 -48.5
t51 -18.5q29 0 48 20t19 49t-17.5 47.5t-47.5 18.5z" />
    <glyph glyph-name="seveninferior" unicode="&#x2087;" horiz-adv-x="403" 
d="M183 0h-80l157 302h-201v62h280v-52z" />
    <glyph glyph-name="eightinferior" unicode="&#x2088;" horiz-adv-x="373" 
d="M186 -8q-61 0 -103 29.5t-42 81.5q0 33 19.5 56t42.5 28q-21 6 -36 28t-15 51q0 50 38.5 78t95.5 28t96 -28t39 -78q0 -29 -15 -50.5t-36 -27.5q24 -7 42.5 -30t18.5 -55q0 -52 -42 -81.5t-103 -29.5zM186 317q-27 0 -45.5 -14.5t-18.5 -38.5t18 -37.5t46 -13.5t46 13
t18 38q0 24 -18 38.5t-46 14.5zM186 160q-30 0 -51 -15.5t-21 -41.5q0 -24 20.5 -39.5t51.5 -15.5t51.5 15t20.5 40q0 26 -21 41.5t-51 15.5z" />
    <glyph glyph-name="nineinferior" unicode="&#x2089;" horiz-adv-x="373" 
d="M180 372q55 0 90.5 -29t48 -68.5t12.5 -86.5q0 -32 -6 -61.5t-21.5 -62t-49 -52.5t-81.5 -20q-88 0 -129 62l45 37q36 -41 82 -41t68.5 37t22.5 85q-24 -51 -96 -51q-55 0 -90 33.5t-35 87.5q0 56 39 93t100 37zM178 180q32 0 51.5 19.5t19.5 48.5q0 30 -18 48.5
t-51 18.5q-29 0 -48 -20t-19 -49t17.5 -47.5t47.5 -18.5z" />
    <glyph glyph-name="parenleftinferior" unicode="&#x208d;" horiz-adv-x="237" 
d="M199 -88q-68 42 -113 111.5t-45 158.5q0 87 46.5 160t112.5 112l40 -48q-125 -95 -125 -223t125 -223z" />
    <glyph glyph-name="parenrightinferior" unicode="&#x208e;" horiz-adv-x="237" 
d="M38 -88l-41 48q125 95 125 223t-125 223l40 48q66 -39 112.5 -112t46.5 -160q0 -89 -45 -158.5t-113 -111.5z" />
    <glyph glyph-name="franc" unicode="&#x20a3;" horiz-adv-x="0" 
 />
    <glyph glyph-name="lira" unicode="&#x20a4;" horiz-adv-x="0" 
 />
    <glyph glyph-name="peseta" unicode="&#x20a7;" horiz-adv-x="0" 
 />
    <glyph glyph-name="Euro" unicode="&#x20ac;" 
d="M579 95q-76 -111 -220 -111q-57 0 -104 20t-74.5 48.5t-47.5 63.5t-27.5 60t-9.5 43h-83v82h77q-2 18 -2 35q0 18 2 38h-77v83h85q4 29 14 59t30.5 63t48 58t70.5 41t94 16q142 0 217 -111l-68 -51l-8 10q-8 10 -12 14l-14 13.5t-20 14.5t-24 11t-31 9t-36 3
q-41 0 -72.5 -17t-48.5 -44t-25 -48t-12 -41h226v-83h-234q-2 -18 -2 -38q0 -17 2 -35h234v-82h-228q1 -15 10 -36.5t27 -48t51 -45t75 -18.5q94 0 148 75z" />
    <glyph glyph-name="afii61352" unicode="&#x2116;" horiz-adv-x="1308" 
 />
    <glyph glyph-name="trademark" unicode="&#x2122;" horiz-adv-x="813" 
d="M756 298h-70v261l-96 -261h-63l-95 261v-261h-72v380h96l103 -281l104 281h93v-380zM310 611h-112v-313h-77v313h-112v67h301v-67z" />
    <glyph glyph-name="onethird" unicode="&#x2153;" horiz-adv-x="899" 
d="M78 314v61h98v224l-82 -48l-35 52l126 75h63v-303h98v-61h-268zM690 659l-401 -694l-64 37l401 694zM836 108q0 -54 -39.5 -85t-102.5 -31q-96 0 -140 66l48 41q24 -24 32 -29q32 -18 58 -18q33 0 51 14.5t18 38.5q0 52 -87 52h-31v58h28q18 0 29 1t25 5t21 14.5t7 27.5
q0 19 -13.5 34.5t-42.5 15.5q-44 0 -88 -46l-46 40q22 25 42 38q41 27 93 27q55 0 91 -29.5t36 -75.5q0 -31 -15.5 -51.5t-35.5 -27.5q24 -7 43 -27t19 -53z" />
    <glyph glyph-name="twothirds" unicode="&#x2154;" horiz-adv-x="892" 
d="M682 659l-401 -694l-64 37l401 694zM322 574q0 -43 -26 -70.5t-70 -51.5q-5 -3 -18 -9.5t-19.5 -10.5l-17.5 -11t-17 -13t-11.5 -14.5t-7.5 -17.5h185v-62h-259v22q0 37 8 62.5t34 49.5q10 10 23.5 19.5t22.5 15t27.5 15.5t24.5 14q49 29 49 64q0 24 -16.5 38.5
t-44.5 14.5q-49 0 -91 -51l-47 39q56 71 140 71q57 0 94 -30.5t37 -83.5zM829 108q0 -54 -39.5 -85t-102.5 -31q-96 0 -140 66l48 41q24 -24 32 -29q31 -18 58 -18q33 0 51 14.5t18 38.5q0 52 -87 52h-31v58h28q18 0 29 1t25 5t21 14.5t7 27.5q0 19 -13.5 34.5t-42.5 15.5
q-44 0 -88 -46l-46 40q22 25 42 38q40 27 93 27q55 0 91 -29.5t36 -75.5q0 -31 -15.5 -51.5t-35.5 -27.5q24 -7 43 -27t19 -53z" />
    <glyph glyph-name="oneeighth" unicode="&#x215b;" horiz-adv-x="881" 
d="M694 659l-401 -694l-64 37l401 694zM694 -8q-61 0 -103 29.5t-42 81.5q0 33 19.5 56t42.5 28q-21 6 -36 28t-15 51q0 50 38.5 78t95.5 28t96 -28t39 -78q0 -29 -15 -50.5t-36 -27.5q24 -7 42.5 -30t18.5 -55q0 -52 -42 -81.5t-103 -29.5zM694 317q-27 0 -45.5 -14.5
t-18.5 -38.5t18 -37.5t46 -13.5t46 13t18 38q0 24 -18 38.5t-46 14.5zM694 160q-30 0 -51 -15.5t-21 -41.5q0 -24 20.5 -39.5t51.5 -15.5t51.5 15t20.5 40q0 26 -21 41.5t-51 15.5zM78 314v61h98v224l-82 -48l-35 52l126 75h63v-303h98v-61h-268z" />
    <glyph glyph-name="threeeighths" unicode="&#x215c;" horiz-adv-x="861" 
d="M674 659l-401 -694l-64 37l401 694zM674 -8q-61 0 -103 29.5t-42 81.5q0 33 19.5 56t42.5 28q-21 6 -36 28t-15 51q0 50 38.5 78t95.5 28t96 -28t39 -78q0 -29 -15 -50.5t-36 -27.5q24 -7 42.5 -30t18.5 -55q0 -52 -42 -81.5t-103 -29.5zM674 317q-27 0 -45.5 -14.5
t-18.5 -38.5t18 -37.5t46 -13.5t46 13t18 38q0 24 -18 38.5t-46 14.5zM674 160q-30 0 -51 -15.5t-21 -41.5q0 -24 20.5 -39.5t51.5 -15.5t51.5 15t20.5 40q0 26 -21 41.5t-51 15.5zM327 424q0 -54 -39.5 -85t-102.5 -31q-96 0 -140 66l48 41q24 -24 32 -29q32 -18 58 -18
q33 0 51 14.5t18 38.5q0 52 -87 52h-31v58h28q18 0 29 1t25 5t21 14.5t7 27.5q0 19 -13.5 34.5t-42.5 15.5q-44 0 -88 -46l-46 40q22 25 42 38q40 27 93 27q55 0 91 -29.5t36 -75.5q0 -31 -15.5 -51.5t-35.5 -27.5q24 -7 43 -27t19 -53z" />
    <glyph glyph-name="fiveeighths" unicode="&#x215d;" horiz-adv-x="841" 
d="M654 659l-401 -694l-64 37l401 694zM654 -8q-61 0 -103 29.5t-42 81.5q0 33 19.5 56t42.5 28q-21 6 -36 28t-15 51q0 50 38.5 78t95.5 28t96 -28t39 -78q0 -29 -15 -50.5t-36 -27.5q24 -7 42.5 -30t18.5 -55q0 -52 -42 -81.5t-103 -29.5zM654 317q-27 0 -45.5 -14.5
t-18.5 -38.5t18 -37.5t46 -13.5t46 13t18 38q0 24 -18 38.5t-46 14.5zM654 160q-30 0 -51 -15.5t-21 -41.5q0 -24 20.5 -39.5t51.5 -15.5t51.5 15t20.5 40q0 26 -21 41.5t-51 15.5zM173 306q-84 0 -132 58l44 43q40 -42 87 -42q36 0 55.5 18t19.5 52q0 30 -18.5 45.5
t-46.5 15.5q-46 0 -71 -42l-56 22l23 202h221v-60h-166l-10 -86q23 22 72 22q55 0 90.5 -31.5t35.5 -86.5q0 -59 -40.5 -94.5t-107.5 -35.5z" />
    <glyph glyph-name="seveneighths" unicode="&#x215e;" horiz-adv-x="808" 
d="M621 659l-401 -694l-64 37l401 694zM621 -8q-61 0 -103 29.5t-42 81.5q0 33 19.5 56t42.5 28q-21 6 -36 28t-15 51q0 50 38.5 78t95.5 28t96 -28t39 -78q0 -29 -15 -50.5t-36 -27.5q24 -7 42.5 -30t18.5 -55q0 -52 -42 -81.5t-103 -29.5zM621 317q-27 0 -45.5 -14.5
t-18.5 -38.5t18 -37.5t46 -13.5t46 13t18 38q0 24 -18 38.5t-46 14.5zM621 160q-30 0 -51 -15.5t-21 -41.5q0 -24 20.5 -39.5t51.5 -15.5t51.5 15t20.5 40q0 26 -21 41.5t-51 15.5zM183 314h-80l157 302h-201v62h280v-52z" />
    <glyph glyph-name="partialdiff" unicode="&#x2202;" 
d="M53 223q0 98 60.5 158.5t157.5 60.5q43 0 79.5 -12.5t59 -32.5t32.5 -32t17 -23v15q0 62 -15.5 115t-58.5 94t-108 41q-90 0 -148 -73l-66 55q67 105 218 105q67 0 118 -25.5t80 -63.5t47 -89.5t24 -96.5t6 -93q0 -66 -13 -123.5t-41 -108t-81 -80t-125 -29.5
q-109 0 -176 67.5t-67 170.5zM436 209q0 63 -40.5 104.5t-106.5 41.5q-61 0 -97.5 -39.5t-36.5 -101.5q0 -63 38 -104.5t100 -41.5q66 0 104.5 39.5t38.5 101.5z" />
    <glyph glyph-name="Delta" unicode="&#x2206;" 
d="M613 0h-625l260 678h102zM471 93l-172 459l-171 -459h343z" />
    <glyph glyph-name="product" unicode="&#x220f;" horiz-adv-x="683" 
d="M662 588h-75v-588h-105v588h-281v-588h-105v588h-75v90h641v-90z" />
    <glyph glyph-name="summation" unicode="&#x2211;" horiz-adv-x="620" 
d="M587 0h-542v91l264 256l-250 240v91h515v-90h-374l250 -241l-265 -256h402v-91z" />
    <glyph glyph-name="minus" unicode="&#x2212;" 
d="M558 208h-515v88h515v-88z" />
    <glyph glyph-name="radical" unicode="&#x221a;" 
d="M573 665l-210 -665h-95l-124 303h-93v88h150l110 -281l177 584z" />
    <glyph glyph-name="infinity" unicode="&#x221e;" horiz-adv-x="734" 
d="M677 341q0 -70 -41 -122t-113 -52q-88 0 -151 106q-61 -106 -155 -106q-74 0 -117 50t-43 122q0 71 42.5 121.5t115.5 50.5q48 0 93 -34q29 -21 61 -66q11 19 18.5 28.5t27 30.5t46.5 31.5t60 10.5q72 0 114 -51t42 -120zM601 342q0 40 -23 66.5t-63 26.5q-41 0 -74 -42
q-21 -26 -32 -50q38 -70 69 -90q19 -12 38 -12q41 0 63 29.5t22 71.5zM331 345q-10 20 -40 50q-38 42 -78 42q-39 0 -59 -30.5t-20 -70.5q0 -39 21.5 -67.5t61.5 -28.5q38 0 76 45q23 28 38 60z" />
    <glyph glyph-name="integral" unicode="&#x222b;" 
d="M536 674l-28 -78q-30 12 -63 12q-46 0 -71 -25q-23 -23 -23 -99v-476q0 -58 -11.5 -97t-44.5 -68q-47 -43 -130 -43q-62 0 -100 19l28 78q30 -12 63 -12q47 0 71 24q16 16 20 38.5t4 63.5v474q0 59 11 97.5t44 67.5q47 43 130 43q62 0 100 -19z" />
    <glyph glyph-name="approxequal" unicode="&#x2248;" 
d="M558 374q-59 -95 -155 -95q-45 0 -102 21q-3 1 -22 8t-25.5 9t-21 4.5t-26.5 2.5q-49 0 -92 -56l-70 51q61 95 150 95q51 0 108 -22q63 -23 87 -23q32 0 53.5 13.5t45.5 42.5zM558 185q-59 -95 -155 -95q-45 0 -102 21q-3 1 -22 8t-25.5 9t-21 4.5t-26.5 2.5
q-49 0 -92 -56l-70 51q61 95 150 95q51 0 108 -22q63 -23 87 -23q32 0 53.5 13.5t45.5 42.5z" />
    <glyph glyph-name="notequal" unicode="&#x2260;" 
d="M558 114h-302l-87 -125l-69 46l55 79h-112v88h173l71 102h-244v88h304l89 127l68 -47l-55 -80h109v-88h-169l-72 -102h241v-88z" />
    <glyph glyph-name="lessequal" unicode="&#x2264;" 
d="M558 0h-515v88h515v-88zM558 133l-515 206v95l515 206v-97l-408 -157l408 -156v-97z" />
    <glyph glyph-name="greaterequal" unicode="&#x2265;" 
d="M558 0h-515v88h515v-88zM558 339l-515 -206v97l408 156l-408 157v97l515 -206v-95z" />
    <glyph glyph-name="lozenge" unicode="&#x25ca;" 
d="M584 339l-233 -339h-101l-233 339l234 339h100zM480 339l-179 259l-179 -259l179 -260z" />
    <glyph glyph-name="Euro.fitted" unicode="&#xe002;" 
d="M579 95q-76 -111 -220 -111q-57 0 -104 20t-74.5 48.5t-47.5 63.5t-27.5 60t-9.5 43h-83v82h77q-2 18 -2 35q0 18 2 38h-77v83h85q4 29 14 59t30.5 63t48 58t70.5 41t94 16q142 0 217 -111l-68 -51l-8 10q-8 10 -12 14l-14 13.5t-20 14.5t-24 11t-31 9t-36 3
q-41 0 -72.5 -17t-48.5 -44t-25 -48t-12 -41h226v-83h-234q-2 -18 -2 -38q0 -17 2 -35h234v-82h-228q1 -15 10 -36.5t27 -48t51 -45t75 -18.5q94 0 148 75z" />
    <glyph glyph-name="parenleft.dnom" unicode="&#xf62c;" horiz-adv-x="237" 
d="M199 -88q-68 42 -113 111.5t-45 158.5q0 87 46.5 160t112.5 112l40 -48q-125 -95 -125 -223t125 -223z" />
    <glyph glyph-name="parenright.dnom" unicode="&#xf62d;" horiz-adv-x="237" 
d="M38 -88l-41 48q125 95 125 223t-125 223l40 48q66 -39 112.5 -112t46.5 -160q0 -89 -45 -158.5t-113 -111.5z" />
    <glyph glyph-name="zero.fitted" unicode="&#xf639;" 
d="M560 339q0 -161 -68 -257.5t-192 -96.5q-125 0 -192 96t-67 258q0 161 68 258t192 97q125 0 192 -96.5t67 -258.5zM453 339q0 267 -152 267q-47 0 -79.5 -26t-47.5 -69.5t-20.5 -84t-5.5 -87.5q0 -266 152 -266q47 0 79.5 25.5t47.5 69t20.5 84t5.5 87.5z" />
    <glyph glyph-name="two.fitted" unicode="&#xf63a;" 
d="M527 489q0 -54 -25 -97.5t-63 -69.5t-82.5 -53t-83.5 -48.5t-66 -55.5t-29 -75h346v-90h-451v18q0 73 14.5 122t60.5 95q33 33 87 66.5t92.5 54t68 55.5t29.5 78q0 55 -35.5 86.5t-92.5 31.5q-98 0 -170 -90l-64 58q92 119 237 119q101 0 164 -55t63 -150z" />
    <glyph glyph-name="three.fitted" unicode="&#xf63b;" 
d="M526 189q0 -93 -67 -148.5t-178 -55.5q-54 0 -99.5 13.5t-74.5 35.5t-41.5 34.5t-21.5 24.5l64 59q68 -80 168 -80q66 0 105.5 30t39.5 88q0 37 -16 61.5t-46 35t-56.5 14t-63.5 3.5h-45v88h40q36 0 60.5 3t52.5 12.5t42.5 32.5t14.5 58q0 42 -28.5 75.5t-90.5 33.5
q-92 0 -162 -79l-62 59q10 12 21.5 23.5t40.5 34t72 36t92 13.5q97 0 158 -52.5t61 -134.5q0 -36 -12 -66t-31 -48t-35 -28t-31 -15q16 -4 34.5 -13.5t41.5 -27t38 -49.5t15 -71z" />
    <glyph glyph-name="four.fitted" unicode="&#xf63c;" 
d="M565 153h-106v-153h-99v153h-323v85l318 440h104v-441h106v-84zM360 237v306l-223 -306h223z" />
    <glyph glyph-name="five.fitted" unicode="&#xf63d;" 
d="M539 222q0 -108 -70.5 -172.5t-189.5 -64.5q-42 0 -80 9.5t-62 22t-43.5 28t-27 23.5t-9.5 12l61 63q71 -71 159 -71q72 0 114.5 38.5t42.5 109.5q0 65 -39.5 98t-97.5 33q-96 0 -138 -74l-80 33l39 368h379v-86h-303l-24 -210q56 54 150 54q97 0 158 -57.5t61 -156.5z
" />
    <glyph glyph-name="six.fitted" unicode="&#xf63e;" 
d="M556 223q0 -103 -67 -170.5t-176 -67.5q-72 0 -125 29.5t-81 80t-41 108t-13 123.5q0 48 6 93t24 96.5t47 89.5t80 63.5t118 25.5q151 0 218 -105l-66 -55q-58 73 -148 73q-65 0 -108 -41t-58.5 -94t-15.5 -115v-15q7 11 17 23t32.5 32t59 32.5t79.5 12.5
q97 0 157.5 -60.5t60.5 -158.5zM173 209q0 -62 38.5 -101.5t104.5 -39.5q62 0 100 41.5t38 104.5q0 62 -36.5 101.5t-97.5 39.5q-66 0 -106.5 -41.5t-40.5 -104.5z" />
    <glyph glyph-name="seven.fitted" unicode="&#xf63f;" 
d="M544 596l-282 -596h-116l287 589h-376v89h487v-82z" />
    <glyph glyph-name="eight.fitted" unicode="&#xf640;" 
d="M553 184q0 -92 -72 -146t-180 -54q-109 0 -181 53.5t-72 145.5q0 38 14.5 70t36.5 51t41 29.5t34 14.5q-36 13 -71 51.5t-35 103.5q0 90 65.5 140.5t166.5 50.5q102 0 167.5 -50t65.5 -140q0 -65 -35 -103.5t-71 -51.5q15 -4 34 -14.5t41 -29.5t36.5 -51t14.5 -70z
M300 610q-56 0 -94 -27.5t-38 -82.5q0 -56 38 -84t94 -28q57 0 95 28t38 84q0 54 -38.5 82t-94.5 28zM448 185q0 59 -43 91t-105 32q-61 0 -104.5 -32t-43.5 -91q0 -56 43.5 -86.5t104.5 -30.5q62 0 105 30.5t43 86.5z" />
    <glyph glyph-name="nine.fitted" unicode="&#xf641;" 
d="M45 456q0 103 67 170.5t176 67.5q72 0 125 -29.5t81 -80t41 -108t13 -123.5q0 -48 -6 -93t-24 -96.5t-47 -89.5t-80 -63.5t-118 -25.5q-151 0 -218 105l66 55q58 -73 148 -73q65 0 108 41t58.5 94t15.5 115v15q-7 -11 -17 -23t-32.5 -32t-59 -32.5t-79.5 -12.5
q-97 0 -157.5 60.5t-60.5 158.5zM428 470q0 62 -38.5 101.5t-104.5 39.5q-62 0 -100 -41.5t-38 -104.5q0 -62 36.5 -101.5t97.5 -39.5q66 0 106.5 41.5t40.5 104.5z" />
    <glyph glyph-name="zero.taboldstyle" unicode="&#xf643;" horiz-adv-x="539" 
d="M504 303q0 -143 -61.5 -230t-173.5 -87q-111 0 -172 87t-61 230q0 142 62 229.5t173 87.5t172 -87t61 -230zM400 303q0 31 -2.5 59.5t-11 61t-22 56t-38 39t-56.5 15.5q-39 0 -66.5 -22t-40.5 -59.5t-18 -73.5t-5 -76q0 -41 5 -76.5t17.5 -73t40 -59.5t67.5 -22
q39 0 66.5 22t40.5 59.5t18 73t5 76.5z" />
    <glyph glyph-name="one.taboldstyle" unicode="&#xf644;" horiz-adv-x="539" 
d="M503 0h-417v85h158v412l-137 -87l-48 74l194 122h93v-521h157v-85z" />
    <glyph glyph-name="two.taboldstyle" unicode="&#xf645;" horiz-adv-x="539" 
d="M473 435q0 -38 -12.5 -69.5t-37.5 -56t-47.5 -40t-57.5 -35.5q-85 -47 -114 -76q-30 -30 -34 -71h300v-87h-403v30q0 61 13 103t53 82q21 21 45.5 38t61.5 39l50 30q41 26 62 51.5t21 62.5q0 45 -29 71.5t-77 26.5q-80 0 -148 -80l-62 55q78 111 213 111q89 0 146 -49.5
t57 -135.5z" />
    <glyph glyph-name="three.taboldstyle" unicode="&#xf646;" horiz-adv-x="539" 
d="M472 174q0 -87 -60 -137.5t-159 -50.5q-121 0 -193 77q-10 11 -21 26l63 56q63 -73 147 -73q56 0 88.5 26t32.5 75q0 40 -22 62q-33 33 -128 33h-47v84h42q30 0 51 2.5t44 11t35 28t12 49.5q0 35 -24 63.5t-76 28.5q-81 0 -142 -71l-60 56q29 41 82 70.5t122 29.5
q86 0 141 -48t55 -122q0 -55 -31.5 -93.5t-60.5 -44.5q36 -7 72.5 -42.5t36.5 -95.5z" />
    <glyph glyph-name="four.taboldstyle" unicode="&#xf647;" horiz-adv-x="539" 
d="M504 135h-93v-135h-98v135h-282v78l283 393h97v-389h93v-82zM313 217v250l-180 -250h180z" />
    <glyph glyph-name="five.taboldstyle" unicode="&#xf648;" horiz-adv-x="539" 
d="M484 201q0 -98 -62.5 -156.5t-168.5 -58.5q-115 0 -183 70q-6 6 -18 21l60 60q59 -65 139 -65q61 0 96 32.5t35 93.5q0 54 -32 83t-81 29q-80 0 -119 -68l-78 33l35 331h341v-84h-267l-18 -172q20 20 55 32t71 12q86 0 140.5 -52t54.5 -141z" />
    <glyph glyph-name="six.taboldstyle" unicode="&#xf649;" horiz-adv-x="539" 
d="M498 201q0 -93 -60 -154t-156 -61q-65 0 -112 27t-73 72.5t-37.5 97t-11.5 109.5q0 41 5 81t21.5 86.5t42 80.5t71.5 57t105 23q129 0 196 -95l-60 -55q-60 65 -133 65q-54 0 -90.5 -37t-49.5 -83t-13 -95q52 79 160 79q87 0 141 -55t54 -143zM398 193q0 53 -30 86.5
t-82 33.5q-55 0 -88.5 -35t-33.5 -89q0 -53 31.5 -86.5t87.5 -33.5q51 0 83 35.5t32 88.5z" />
    <glyph glyph-name="seven.taboldstyle" unicode="&#xf64a;" horiz-adv-x="539" 
d="M487 529l-248 -529h-111l251 520h-327v86h435v-77z" />
    <glyph glyph-name="eight.taboldstyle" unicode="&#xf64b;" horiz-adv-x="539" 
d="M495 167q0 -83 -64.5 -132t-160.5 -49t-160.5 49t-64.5 132q0 60 34.5 97.5t70.5 47.5q-31 9 -59.5 45t-28.5 90q0 82 59 127.5t149 45.5q89 0 148.5 -45.5t59.5 -126.5q0 -54 -28 -90t-60 -45q39 -11 72 -50.5t33 -95.5zM381 444q0 46 -32 70.5t-79 24.5t-79 -24.5
t-32 -70.5q0 -47 31.5 -70.5t79.5 -23.5q47 0 79 24t32 70zM394 168q0 49 -36 76.5t-88 27.5t-88 -27t-36 -77q0 -47 36 -73.5t88 -26.5t88 26.5t36 73.5z" />
    <glyph glyph-name="nine.taboldstyle" unicode="&#xf64c;" horiz-adv-x="539" 
d="M41 405q0 93 60 154t156 61q65 0 112 -27t73 -72.5t37.5 -97t11.5 -109.5q0 -41 -5 -81t-21.5 -86.5t-42 -80.5t-71.5 -57t-105 -23q-129 0 -196 95l60 55q60 -65 133 -65q54 0 90.5 37t49.5 83t13 95q-52 -79 -160 -79q-87 0 -141 55t-54 143zM141 413q0 -53 30 -86.5
t82 -33.5q55 0 88.5 35t33.5 89q0 53 -31.5 86.5t-87.5 33.5q-51 0 -83 -35.5t-32 -88.5z" />
    <glyph glyph-name="Euro.taboldstyle" unicode="&#xf64e;" horiz-adv-x="539" 
d="M520 89q-62 -103 -198 -103q-61 0 -108 23.5t-72.5 60t-38.5 66t-17 54.5h-72v80h70q-2 16 -2 30q0 12 2 30h-70v80h74q4 34 18.5 68t40.5 67t70.5 54t100.5 21q131 0 196 -104q-5 -4 -29 -21.5t-36 -27.5q-48 68 -128 68q-33 0 -59 -13.5t-41 -35.5t-22.5 -40t-11.5 -36
h199v-80h-206q-2 -18 -2 -30q0 -14 2 -30h206v-80h-200q6 -37 40.5 -78t97.5 -41q85 0 130 68z" />
    <glyph glyph-name="florin.taboldstyle" unicode="&#xf64f;" 
d="M597 666l-31 -76q-39 15 -69 15q-20 0 -35.5 -8t-24.5 -18t-16 -28t-9 -27.5l-6 -27.5l-10 -46h149v-83h-166l-84 -392q-21 -99 -69 -138q-46 -37 -113 -37q-59 0 -109 26l31 76q39 -15 69 -15q32 0 54 19q11 9 19 24.5t11 27.5t8 38l80 371h-99v83h116l14 67
q23 101 68 137q48 39 113 39q57 0 109 -27z" />
    <glyph glyph-name="sterling.taboldstyle" unicode="&#xf651;" horiz-adv-x="539" 
d="M500 518l-64 -53q-55 69 -132 69q-48 0 -76 -30.5t-28 -70.5q0 -42 19 -91h169v-81h-152q4 -28 4 -35q0 -98 -56 -141h303v-85h-432v77q88 41 88 139q0 22 -5 45h-83v81h64q-18 50 -18 88q0 82 56 136t142 54q125 0 201 -102z" />
    <glyph glyph-name="yen.taboldstyle" unicode="&#xf652;" horiz-adv-x="539" 
d="M519 606l-154 -264h126v-81h-173v-62h167v-80h-167v-119h-97v119h-166v80h166v62h-172v81h125l-155 264h110l143 -265l142 265h105z" />
    <glyph glyph-name="dollar.taboldstyle" unicode="&#xf653;" horiz-adv-x="539" 
d="M491 168q0 -73 -50.5 -121.5t-134.5 -57.5v-81h-77v81q-39 4 -73 18t-57 33t-35.5 33t-21.5 28l64 54q45 -65 123 -79v184q-36 9 -60.5 19t-53 30t-43.5 53t-15 78q0 70 48 120t124 59v79h77v-79q54 -6 98 -31.5t60 -44.5t21 -30l-61 -55q-54 66 -117 73v-188
q38 -8 64.5 -18t57 -29t46.5 -51.5t16 -76.5zM229 362v171q-77 -18 -77 -92q0 -59 77 -79zM396 164q0 35 -23 52t-66 28v-170q89 11 89 90z" />
    <glyph glyph-name="cent.taboldstyle" unicode="&#xf654;" horiz-adv-x="539" 
d="M487 71q-3 -6 -7 -11.5t-19 -21t-32 -27t-45.5 -22.5t-61.5 -14v-78h-75v78q-96 11 -145.5 77t-49.5 156q0 89 49.5 153t145.5 78v77h75v-76q53 -4 97 -31t67 -63l-65 -52q-39 48 -99 59v-291q57 8 101 62zM247 64v287q-46 -13 -70.5 -52t-24.5 -92q0 -54 24 -92t71 -51z
" />
    <glyph glyph-name="zero.dnom" unicode="&#xf655;" horiz-adv-x="382" 
d="M190 -8q-72 0 -110.5 52t-38.5 138q0 85 39 137.5t111 52.5t111 -52.5t39 -137.5t-39.5 -137.5t-111.5 -52.5zM191 312q-76 0 -76 -130q0 -129 75 -129q76 0 76 129q0 130 -75 130z" />
    <glyph glyph-name="one.dnom" unicode="&#xf656;" horiz-adv-x="399" 
d="M78 0v61h98v224l-82 -48l-35 52l126 75h63v-303h98v-61h-268z" />
    <glyph glyph-name="two.dnom" unicode="&#xf657;" horiz-adv-x="393" 
d="M322 260q0 -43 -26 -70.5t-70 -51.5q-5 -3 -18 -9.5t-19.5 -10.5l-17.5 -11t-17 -13t-11.5 -14.5t-7.5 -17.5h185v-62h-259v22q0 37 8 62.5t34 49.5q10 10 23.5 19.5t22.5 15t27.5 15.5t24.5 14q49 29 49 64q0 24 -16.5 38.5t-44.5 14.5q-49 0 -91 -51l-47 39
q56 71 140 71q57 0 94 -30.5t37 -83.5z" />
    <glyph glyph-name="three.dnom" unicode="&#xf658;" horiz-adv-x="390" 
d="M327 108q0 -54 -39.5 -85t-102.5 -31q-96 0 -140 66l48 41q24 -24 32 -29q31 -18 58 -18q33 0 51 14.5t18 38.5q0 52 -87 52h-31v58h28q18 0 29 1t25 5t21 14.5t7 27.5q0 19 -13.5 34.5t-42.5 15.5q-44 0 -88 -46l-46 40q22 25 42 38q40 27 93 27q55 0 91 -29.5t36 -75.5
q0 -31 -15.5 -51.5t-35.5 -27.5q24 -7 43 -27t19 -53z" />
    <glyph glyph-name="four.dnom" unicode="&#xf659;" horiz-adv-x="386" 
d="M335 79h-58v-79h-69v79h-167v50l169 235h67v-229h58v-56zM208 135v132l-95 -132h95z" />
    <glyph glyph-name="five.dnom" unicode="&#xf65a;" horiz-adv-x="385" 
d="M173 -8q-84 0 -132 58l44 43q40 -42 87 -42q36 0 55.5 18t19.5 52q0 30 -18.5 45.5t-46.5 15.5q-46 0 -71 -42l-56 22l23 202h221v-60h-166l-10 -86q23 22 72 22q55 0 90.5 -31.5t35.5 -86.5q0 -59 -40.5 -94.5t-107.5 -35.5z" />
    <glyph glyph-name="six.dnom" unicode="&#xf65b;" horiz-adv-x="373" 
d="M192 -8q-55 0 -90.5 29t-48 68.5t-12.5 86.5q0 32 6 61.5t21.5 62t49 52.5t81.5 20q88 0 129 -62l-45 -37q-36 41 -82 41t-68.5 -37t-22.5 -85q24 51 96 51q55 0 90 -33.5t35 -87.5q0 -56 -39 -93t-100 -37zM194 184q-32 0 -51.5 -19.5t-19.5 -48.5q0 -30 18 -48.5
t51 -18.5q29 0 48 20t19 49t-17.5 47.5t-47.5 18.5z" />
    <glyph glyph-name="seven.dnom" unicode="&#xf65c;" horiz-adv-x="403" 
d="M183 0h-80l157 302h-201v62h280v-52z" />
    <glyph glyph-name="eight.dnom" unicode="&#xf65d;" horiz-adv-x="373" 
d="M186 -8q-61 0 -103 29.5t-42 81.5q0 33 19.5 56t42.5 28q-21 6 -36 28t-15 51q0 50 38.5 78t95.5 28t96 -28t39 -78q0 -29 -15 -50.5t-36 -27.5q24 -7 42.5 -30t18.5 -55q0 -52 -42 -81.5t-103 -29.5zM186 317q-27 0 -45.5 -14.5t-18.5 -38.5t18 -37.5t46 -13.5t46 13
t18 38q0 24 -18 38.5t-46 14.5zM186 160q-30 0 -51 -15.5t-21 -41.5q0 -24 20.5 -39.5t51.5 -15.5t51.5 15t20.5 40q0 26 -21 41.5t-51 15.5z" />
    <glyph glyph-name="nine.dnom" unicode="&#xf65e;" horiz-adv-x="373" 
d="M180 372q55 0 90.5 -29t48 -68.5t12.5 -86.5q0 -32 -6 -61.5t-21.5 -62t-49 -52.5t-81.5 -20q-88 0 -129 62l45 37q36 -41 82 -41t68.5 37t22.5 85q-24 -51 -96 -51q-55 0 -90 33.5t-35 87.5q0 56 39 93t100 37zM178 180q32 0 51.5 19.5t19.5 48.5q0 30 -18 48.5
t-51 18.5q-29 0 -48 -20t-19 -49t17.5 -47.5t47.5 -18.5z" />
    <glyph glyph-name="zero.numr" unicode="&#xf661;" horiz-adv-x="382" 
d="M190 308q-72 0 -110.5 52t-38.5 138q0 85 39 137.5t111 52.5t111 -52.5t39 -137.5t-39.5 -137.5t-111.5 -52.5zM191 628q-76 0 -76 -130q0 -129 75 -129q76 0 76 129q0 130 -75 130z" />
    <glyph glyph-name="one.numr" unicode="&#xf662;" horiz-adv-x="399" 
d="M78 314v61h98v224l-82 -48l-35 52l126 75h63v-303h98v-61h-268z" />
    <glyph glyph-name="two.numr" unicode="&#xf663;" horiz-adv-x="393" 
d="M322 574q0 -43 -26 -70.5t-70 -51.5q-5 -3 -18 -9.5t-19.5 -10.5l-17.5 -11t-17 -13t-11.5 -14.5t-7.5 -17.5h185v-62h-259v22q0 37 8 62.5t34 49.5q10 10 23.5 19.5t22.5 15t27.5 15.5t24.5 14q49 29 49 64q0 24 -16.5 38.5t-44.5 14.5q-49 0 -91 -51l-47 39
q56 71 140 71q57 0 94 -30.5t37 -83.5z" />
    <glyph glyph-name="three.numr" unicode="&#xf664;" horiz-adv-x="390" 
d="M327 424q0 -54 -39.5 -85t-102.5 -31q-96 0 -140 66l48 41q24 -24 32 -29q32 -18 58 -18q33 0 51 14.5t18 38.5q0 52 -87 52h-31v58h28q18 0 29 1t25 5t21 14.5t7 27.5q0 19 -13.5 34.5t-42.5 15.5q-44 0 -88 -46l-46 40q22 25 42 38q40 27 93 27q55 0 91 -29.5t36 -75.5
q0 -31 -15.5 -51.5t-35.5 -27.5q24 -7 43 -27t19 -53z" />
    <glyph glyph-name="four.numr" unicode="&#xf665;" horiz-adv-x="386" 
d="M335 393h-58v-79h-69v79h-167v50l169 235h67v-229h58v-56zM208 449v132l-95 -132h95z" />
    <glyph glyph-name="five.numr" unicode="&#xf666;" horiz-adv-x="385" 
d="M173 306q-84 0 -132 58l44 43q40 -42 87 -42q36 0 55.5 18t19.5 52q0 30 -18.5 45.5t-46.5 15.5q-46 0 -71 -42l-56 22l23 202h221v-60h-166l-10 -86q23 22 72 22q55 0 90.5 -31.5t35.5 -86.5q0 -59 -40.5 -94.5t-107.5 -35.5z" />
    <glyph glyph-name="six.numr" unicode="&#xf667;" horiz-adv-x="373" 
d="M192 308q-55 0 -90.5 29t-48 68.5t-12.5 86.5q0 32 6 61.5t21.5 62t49 52.5t81.5 20q88 0 129 -62l-45 -37q-36 41 -82 41t-68.5 -37t-22.5 -85q24 51 96 51q55 0 90 -33.5t35 -87.5q0 -56 -39 -93t-100 -37zM194 500q-32 0 -51.5 -19.5t-19.5 -48.5q0 -30 18 -48.5
t51 -18.5q29 0 48 20t19 49t-17.5 47.5t-47.5 18.5z" />
    <glyph glyph-name="seven.numr" unicode="&#xf668;" horiz-adv-x="403" 
d="M183 314h-80l157 302h-201v62h280v-52z" />
    <glyph glyph-name="eight.numr" unicode="&#xf669;" horiz-adv-x="373" 
d="M186 308q-61 0 -103 29.5t-42 81.5q0 33 19.5 56t42.5 28q-21 6 -36 28t-15 51q0 50 38.5 78t95.5 28t96 -28t39 -78q0 -29 -15 -50.5t-36 -27.5q24 -7 42.5 -30t18.5 -55q0 -52 -42 -81.5t-103 -29.5zM186 633q-27 0 -45.5 -14.5t-18.5 -38.5t18 -37.5t46 -13.5t46 13
t18 38q0 24 -18 38.5t-46 14.5zM186 476q-30 0 -51 -15.5t-21 -41.5q0 -24 20.5 -39.5t51.5 -15.5t51.5 15t20.5 40q0 26 -21 41.5t-51 15.5z" />
    <glyph glyph-name="nine.numr" unicode="&#xf66a;" horiz-adv-x="373" 
d="M180 688q55 0 90.5 -29t48 -68.5t12.5 -86.5q0 -32 -6 -61.5t-21.5 -62t-49 -52.5t-81.5 -20q-88 0 -129 62l45 37q36 -41 82 -41t68.5 37t22.5 85q-24 -51 -96 -51q-55 0 -90 33.5t-35 87.5q0 56 39 93t100 37zM178 496q32 0 51.5 19.5t19.5 48.5q0 30 -18 48.5
t-51 18.5q-29 0 -48 -20t-19 -49t17.5 -47.5t47.5 -18.5z" />
    <glyph glyph-name="parenleft.numr" unicode="&#xf66b;" horiz-adv-x="237" 
d="M199 227q-68 42 -113 111.5t-45 158.5q0 87 46.5 160t112.5 112l40 -48q-125 -95 -125 -223t125 -223z" />
    <glyph glyph-name="parenright.numr" unicode="&#xf66c;" horiz-adv-x="237" 
d="M38 227l-41 48q125 95 125 223t-125 223l40 48q66 -39 112.5 -112t46.5 -160q0 -89 -45 -158.5t-113 -111.5z" />
    <glyph glyph-name="one.fitted" unicode="&#xf6dc;" 
d="M560 0h-465v88h182v483l-162 -101l-49 74l216 134h98v-590h180v-88z" />
    <glyph glyph-name="Lslashsmall" unicode="&#xf6f9;" horiz-adv-x="503" 
d="M499 0h-416v209l-40 -39l-59 60l99 93v283h103v-202l78 74l58 -59l-136 -129v-202h313v-88z" />
    <glyph glyph-name="OEsmall" unicode="&#xf6fa;" horiz-adv-x="1011" 
d="M972 0h-416v73q-73 -87 -209 -87q-75 0 -135.5 27.5t-97.5 73t-56 101.5t-19 116t19 115t56 100.5t97.5 73t135.5 27.5q136 0 209 -88v74h404v-88h-309v-168h287v-86h-285v-176h319v-88zM552 304q0 95 -53.5 161.5t-150.5 66.5t-151 -67t-54 -161q0 -96 53.5 -163
t151.5 -67t151 67t53 163z" />
    <glyph glyph-name="Scaronsmall" unicode="&#xf6fd;" horiz-adv-x="573" 
d="M522 171q0 -87 -67.5 -136t-179.5 -49q-168 0 -249 109l65 64q80 -86 183 -86q67 0 104 25t37 70q0 37 -38.5 57.5t-93 31t-109 26t-93 55.5t-38.5 107q0 73 62.5 124t167.5 51q74 0 139 -26t103 -81l-65 -60q-24 32 -71.5 57t-105.5 25q-59 0 -92 -22.5t-33 -63.5
q0 -33 27.5 -53t69.5 -27.5t90 -19.5t90 -27.5t69.5 -54t27.5 -96.5zM119 808h83l72 -81l72 81h83l-89 -131h-132z" />
    <glyph glyph-name="Zcaronsmall" unicode="&#xf6ff;" horiz-adv-x="565" 
d="M525 0h-486v83l348 435h-337v88h464v-83l-348 -435h359v-88zM127 808h83l72 -81l72 81h83l-89 -131h-132z" />
    <glyph glyph-name="ampersandsmall" unicode="&#xf726;" horiz-adv-x="588" 
d="M588 0h-114l-56 63q-71 -77 -187 -77q-89 0 -146.5 45t-57.5 127q0 66 36 107.5t104 79.5q-24 26 -34 39.5t-21.5 40t-11.5 55.5q0 61 46.5 100.5t121.5 39.5q64 0 109.5 -35t45.5 -96q0 -56 -32.5 -93.5t-89.5 -70.5l113 -127q23 41 29 103h85q-5 -98 -55 -171zM335 484
q0 25 -18 42t-51 17t-53 -16t-20 -44q0 -9 1.5 -17t5.5 -16.5l6.5 -14t9.5 -14l10 -12t12 -13t11 -12.5q2 1 13.5 8.5l15.5 10t14 9.5t14 11.5l11 12.5t10 14.5t5.5 15.5t2.5 18zM361 126l-140 157q-33 -20 -48.5 -31t-32 -35.5t-16.5 -54.5q0 -41 32 -67t80 -26
q75 0 125 57z" />
    <glyph glyph-name="zerooldstyle" unicode="&#xf730;" horiz-adv-x="539" 
d="M504 303q0 -143 -61.5 -230t-173.5 -87q-111 0 -172 87t-61 230q0 142 62 229.5t173 87.5t172 -87t61 -230zM400 303q0 31 -2.5 59.5t-11 61t-22 56t-38 39t-56.5 15.5q-39 0 -66.5 -22t-40.5 -59.5t-18 -73.5t-5 -76q0 -41 5 -76.5t17.5 -73t40 -59.5t67.5 -22
q39 0 66.5 22t40.5 59.5t18 73t5 76.5z" />
    <glyph glyph-name="oneoldstyle" unicode="&#xf731;" horiz-adv-x="539" 
d="M503 0h-417v85h158v412l-137 -87l-48 74l194 122h93v-521h157v-85z" />
    <glyph glyph-name="twooldstyle" unicode="&#xf732;" horiz-adv-x="539" 
d="M473 435q0 -38 -12.5 -69.5t-37.5 -56t-47.5 -40t-57.5 -35.5q-85 -47 -114 -76q-30 -30 -34 -71h300v-87h-403v30q0 61 13 103t53 82q21 21 45.5 38t61.5 39l50 30q41 26 62 51.5t21 62.5q0 45 -29 71.5t-77 26.5q-80 0 -148 -80l-62 55q78 111 213 111q89 0 146 -49.5
t57 -135.5z" />
    <glyph glyph-name="threeoldstyle" unicode="&#xf733;" horiz-adv-x="539" 
d="M472 174q0 -87 -60 -137.5t-159 -50.5q-121 0 -193 77q-10 11 -21 26l63 56q63 -73 147 -73q56 0 88.5 26t32.5 75q0 40 -22 62q-33 33 -128 33h-47v84h42q30 0 51 2.5t44 11t35 28t12 49.5q0 35 -24 63.5t-76 28.5q-81 0 -142 -71l-60 56q29 41 82 70.5t122 29.5
q86 0 141 -48t55 -122q0 -55 -31.5 -93.5t-60.5 -44.5q36 -7 72.5 -42.5t36.5 -95.5z" />
    <glyph glyph-name="fouroldstyle" unicode="&#xf734;" horiz-adv-x="539" 
d="M504 135h-93v-135h-98v135h-282v78l283 393h97v-389h93v-82zM313 217v250l-180 -250h180z" />
    <glyph glyph-name="fiveoldstyle" unicode="&#xf735;" horiz-adv-x="539" 
d="M484 201q0 -98 -62.5 -156.5t-168.5 -58.5q-115 0 -183 70q-6 6 -18 21l60 60q59 -65 139 -65q61 0 96 32.5t35 93.5q0 54 -32 83t-81 29q-80 0 -119 -68l-78 33l35 331h341v-84h-267l-18 -172q20 20 55 32t71 12q86 0 140.5 -52t54.5 -141z" />
    <glyph glyph-name="sixoldstyle" unicode="&#xf736;" horiz-adv-x="539" 
d="M498 201q0 -93 -60 -154t-156 -61q-65 0 -112 27t-73 72.5t-37.5 97t-11.5 109.5q0 41 5 81t21.5 86.5t42 80.5t71.5 57t105 23q129 0 196 -95l-60 -55q-60 65 -133 65q-54 0 -90.5 -37t-49.5 -83t-13 -95q52 79 160 79q87 0 141 -55t54 -143zM398 193q0 53 -30 86.5
t-82 33.5q-55 0 -88.5 -35t-33.5 -89q0 -53 31.5 -86.5t87.5 -33.5q51 0 83 35.5t32 88.5z" />
    <glyph glyph-name="sevenoldstyle" unicode="&#xf737;" horiz-adv-x="539" 
d="M487 529l-248 -529h-111l251 520h-327v86h435v-77z" />
    <glyph glyph-name="eightoldstyle" unicode="&#xf738;" horiz-adv-x="539" 
d="M495 167q0 -83 -64.5 -132t-160.5 -49t-160.5 49t-64.5 132q0 60 34.5 97.5t70.5 47.5q-31 9 -59.5 45t-28.5 90q0 82 59 127.5t149 45.5q89 0 148.5 -45.5t59.5 -126.5q0 -54 -28 -90t-60 -45q39 -11 72 -50.5t33 -95.5zM381 444q0 46 -32 70.5t-79 24.5t-79 -24.5
t-32 -70.5q0 -47 31.5 -70.5t79.5 -23.5q47 0 79 24t32 70zM394 168q0 49 -36 76.5t-88 27.5t-88 -27t-36 -77q0 -47 36 -73.5t88 -26.5t88 26.5t36 73.5z" />
    <glyph glyph-name="nineoldstyle" unicode="&#xf739;" horiz-adv-x="539" 
d="M41 405q0 93 60 154t156 61q65 0 112 -27t73 -72.5t37.5 -97t11.5 -109.5q0 -41 -5 -81t-21.5 -86.5t-42 -80.5t-71.5 -57t-105 -23q-129 0 -196 95l60 55q60 -65 133 -65q54 0 90.5 37t49.5 83t13 95q-52 -79 -160 -79q-87 0 -141 55t-54 143zM141 413q0 -53 30 -86.5
t82 -33.5q55 0 88.5 35t33.5 89q0 53 -31.5 86.5t-87.5 33.5q-51 0 -83 -35.5t-32 -88.5z" />
    <glyph glyph-name="Asmall" unicode="&#xf761;" horiz-adv-x="617" 
d="M614 0h-110l-59 142h-276l-59 -142h-107l251 606h108zM412 230l-105 262l-104 -262h209z" />
    <glyph glyph-name="Bsmall" unicode="&#xf762;" horiz-adv-x="595" 
d="M556 178q0 -68 -39 -114q-34 -41 -89 -52.5t-141 -11.5h-218v606h222q51 0 79.5 -2t64.5 -13.5t58 -33.5q41 -43 41 -103q0 -55 -27 -92t-59 -46q53 -12 80.5 -50.5t27.5 -87.5zM430 436q0 24 -8.5 41t-20.5 25.5t-32.5 13t-35.5 5.5t-39 1h-123v-172h127q64 0 98 16.5
t34 69.5zM451 179q0 29 -11.5 47.5t-36 26.5t-46 10t-57.5 2h-129v-178h146q49 0 78 10q56 18 56 82z" />
    <glyph glyph-name="Csmall" unicode="&#xf763;" horiz-adv-x="616" 
d="M529 156l61 -60q-32 -41 -97 -75.5t-151 -34.5q-144 0 -223.5 89t-79.5 228q0 137 80 227t223 90q139 0 220 -87q14 -15 21 -27l-65 -57q-8 10 -15 17q-61 66 -158 66q-98 0 -148.5 -65.5t-50.5 -163.5q0 -96 51.5 -162.5t146.5 -66.5q108 0 185 82z" />
    <glyph glyph-name="Dsmall" unicode="&#xf764;" horiz-adv-x="646" 
d="M607 306q0 -145 -88 -227q-74 -70 -199 -77q-42 -2 -60 -2h-191v606h191q42 0 70.5 -2t65 -8.5t67 -21.5t56.5 -39q88 -82 88 -229zM500 307q0 107 -60 166q-21 21 -53 32t-55 13t-63 2h-97v-433h82q41 0 65.5 2t58.5 13.5t58 33.5q64 60 64 171z" />
    <glyph glyph-name="Esmall" unicode="&#xf765;" horiz-adv-x="551" 
d="M512 0h-443v606h432v-88h-329v-168h307v-86h-307v-176h340v-88z" />
    <glyph glyph-name="Fsmall" unicode="&#xf766;" horiz-adv-x="504" 
d="M489 518h-317v-171h295v-86h-295v-261h-103v606h420v-88z" />
    <glyph glyph-name="Gsmall" unicode="&#xf767;" horiz-adv-x="662" 
d="M605 0h-82l-2 68q-26 -39 -79.5 -60.5t-114.5 -21.5q-136 0 -212 88.5t-76 228.5q0 136 82 226.5t225 90.5q45 0 85.5 -10.5t65.5 -23.5t47 -31t29.5 -27.5l14.5 -18.5q-2 -2 -64 -58q-75 81 -177 81q-97 0 -149 -67t-52 -163q0 -100 49.5 -164.5t146.5 -64.5q46 0 81 15
t54 39.5t28 50t9 50.5v17h-177v86h268v-331z" />
    <glyph glyph-name="Hsmall" unicode="&#xf768;" horiz-adv-x="645" 
d="M576 0h-103v263h-301v-263h-103v606h103v-255h301v255h103v-606z" />
    <glyph glyph-name="Ismall" unicode="&#xf769;" horiz-adv-x="241" 
d="M172 0h-103v606h103v-606z" />
    <glyph glyph-name="Jsmall" unicode="&#xf76a;" horiz-adv-x="460" 
d="M397 221q0 -59 -10.5 -101t-43.5 -76q-58 -58 -157 -58q-129 0 -189 103l69 55q18 -26 38 -42q34 -29 81 -29q56 0 85 38q22 28 22 116v379h105v-385z" />
    <glyph glyph-name="Ksmall" unicode="&#xf76b;" horiz-adv-x="576" 
d="M579 0h-133l-274 281v-281h-103v606h103v-270l272 270h126l-298 -293z" />
    <glyph glyph-name="Lsmall" unicode="&#xf76c;" horiz-adv-x="488" 
d="M485 0h-416v606h103v-518h313v-88z" />
    <glyph glyph-name="Msmall" unicode="&#xf76d;" horiz-adv-x="777" 
d="M708 0h-95v471l-181 -471h-88l-181 471v-471h-94v606h137l183 -476l183 476h136v-606z" />
    <glyph glyph-name="Nsmall" unicode="&#xf76e;" horiz-adv-x="645" 
d="M576 0h-98l-311 443v-443h-98v606h100l309 -440v440h98v-606z" />
    <glyph glyph-name="Osmall" unicode="&#xf76f;" horiz-adv-x="694" 
d="M655 303q0 -60 -19.5 -115.5t-56 -101t-97 -73t-135.5 -27.5t-135.5 27.5t-97 73t-56 101t-19.5 115.5t19.5 115.5t56 101t97 73t135.5 27.5t135.5 -27.5t97 -73t56 -101t19.5 -115.5zM548 303q0 95 -52 162t-149 67t-149 -67t-52 -162t52 -162t149 -67t149 67t52 162z
" />
    <glyph glyph-name="Psmall" unicode="&#xf770;" horiz-adv-x="555" 
d="M540 422q0 -79 -46 -128q-59 -63 -195 -63h-127v-231h-103v606h203q53 0 83.5 -2t66.5 -13.5t61 -34.5q57 -53 57 -134zM436 420q0 44 -24 68q-35 34 -143 34h-97v-207h114q69 0 109.5 21.5t40.5 83.5z" />
    <glyph glyph-name="Qsmall" unicode="&#xf771;" horiz-adv-x="694" 
d="M655 303q0 -57 -17.5 -108.5t-34 -76t-34.5 -43.5l81 -74l-59 -61l-92 82q-63 -36 -152 -36q-75 0 -135.5 27.5t-97 73t-56 101t-19.5 115.5t19.5 115.5t56 101t97 73t135.5 27.5t135.5 -27.5t97 -73t56 -101t19.5 -115.5zM548 303q0 95 -52 162t-149 67t-149 -67
t-52 -162q0 -96 52 -162.5t149 -66.5q48 0 80 16l-87 77l60 62l96 -87q52 58 52 161z" />
    <glyph glyph-name="Rsmall" unicode="&#xf772;" horiz-adv-x="596" 
d="M581 0h-120q-170 241 -171 241h-118v-241h-103v606h224q69 0 116 -10.5t82 -44.5q51 -52 51 -124q0 -68 -39 -113t-104 -62zM439 424q0 42 -23 65q-15 15 -39 22.5t-42.5 9t-50.5 1.5h-112v-197h104q37 0 61 3t50 12t39 30t13 54z" />
    <glyph glyph-name="Ssmall" unicode="&#xf773;" horiz-adv-x="574" 
d="M523 171q0 -87 -67.5 -136t-179.5 -49q-168 0 -249 109l65 64q80 -86 183 -86q67 0 104 25t37 70q0 37 -38.5 57.5t-93 31t-109 26t-93 55.5t-38.5 107q0 73 62.5 124t167.5 51q74 0 139 -26t103 -81l-65 -60q-24 32 -71.5 57t-105.5 25q-59 0 -92 -22.5t-33 -63.5
q0 -33 27.5 -53t69.5 -27.5t90 -19.5t90 -27.5t69.5 -54t27.5 -96.5z" />
    <glyph glyph-name="Tsmall" unicode="&#xf774;" horiz-adv-x="511" 
d="M508 518h-201v-518h-103v518h-201v88h505v-88z" />
    <glyph glyph-name="Usmall" unicode="&#xf775;" horiz-adv-x="635" 
d="M572 253q0 -65 -12 -110t-52 -84q-73 -73 -191 -73t-191 73q-28 28 -43 66t-17.5 64.5t-2.5 65.5v351h103v-356q0 -94 39 -134q42 -42 113 -42q66 0 110 41q25 23 33 56t8 83v352h103v-353z" />
    <glyph glyph-name="Vsmall" unicode="&#xf776;" horiz-adv-x="594" 
d="M591 606l-242 -606h-104l-242 606h113l183 -480l184 480h108z" />
    <glyph glyph-name="Wsmall" unicode="&#xf777;" horiz-adv-x="883" 
d="M874 606l-184 -606h-106l-143 452l-141 -452h-106l-185 606h108l136 -451l140 451h99l143 -451l135 451h104z" />
    <glyph glyph-name="Xsmall" unicode="&#xf778;" horiz-adv-x="547" 
d="M544 0h-118l-154 232l-155 -232h-114l212 316l-195 290h118l138 -209l139 209h111l-194 -289z" />
    <glyph glyph-name="Ysmall" unicode="&#xf779;" horiz-adv-x="553" 
d="M550 606l-223 -346v-260h-103v260l-221 346h118l158 -253l157 253h114z" />
    <glyph glyph-name="Zsmall" unicode="&#xf77a;" horiz-adv-x="565" 
d="M525 0h-486v83l348 435h-337v88h464v-83l-348 -435h359v-88z" />
    <glyph glyph-name="Agravesmall" unicode="&#xf7e0;" horiz-adv-x="617" 
d="M614 0h-110l-59 142h-276l-59 -142h-107l251 606h108zM412 230l-105 262l-104 -262h209zM302 677l-119 131h115l88 -131h-84z" />
    <glyph glyph-name="Aacutesmall" unicode="&#xf7e1;" horiz-adv-x="617" 
d="M614 0h-110l-59 142h-276l-59 -142h-107l251 606h108zM412 230l-105 262l-104 -262h209zM433 808l-119 -131h-84l88 131h115z" />
    <glyph glyph-name="Acircumflexsmall" unicode="&#xf7e2;" horiz-adv-x="617" 
d="M614 0h-110l-59 142h-276l-59 -142h-107l251 606h108zM412 230l-105 262l-104 -262h209zM463 677h-83l-72 81l-72 -81h-83l89 131h132z" />
    <glyph glyph-name="Atildesmall" unicode="&#xf7e3;" horiz-adv-x="617" 
d="M614 0h-110l-59 142h-276l-59 -142h-107l251 606h108zM412 230l-105 262l-104 -262h209zM463 797q0 -50 -23 -81t-73 -31q-23 0 -61 19.5t-54 19.5q-17 0 -26 -11t-9 -25h-63q0 45 22.5 78.5t74.5 33.5q25 0 63 -19t52 -19q15 0 25 9.5t10 25.5h62z" />
    <glyph glyph-name="Adieresissmall" unicode="&#xf7e4;" horiz-adv-x="617" 
d="M614 0h-110l-59 142h-276l-59 -142h-107l251 606h108zM412 230l-105 262l-104 -262h209zM457 744q0 -24 -16.5 -40.5t-40.5 -16.5t-41 16.5t-17 40.5t17 40.5t41 16.5t40.5 -16.5t16.5 -40.5zM272 744q0 -24 -16.5 -40.5t-40.5 -16.5t-41 16.5t-17 40.5t17 40.5t41 16.5
t40.5 -16.5t16.5 -40.5z" />
    <glyph glyph-name="Aringsmall" unicode="&#xf7e5;" horiz-adv-x="617" 
d="M614 0h-110l-59 142h-276l-59 -142h-107l251 606h108zM412 230l-105 262l-104 -262h209zM412 751q0 -43 -30.5 -73.5t-74.5 -30.5t-74.5 30.5t-30.5 73.5t30.5 73.5t74.5 30.5t74.5 -30.5t30.5 -73.5zM355 751q0 20 -14 34.5t-34 14.5t-34 -14.5t-14 -34.5t14 -34.5
t34 -14.5t34 14.5t14 34.5z" />
    <glyph glyph-name="AEsmall" unicode="&#xf7e6;" horiz-adv-x="936" 
d="M897 0h-418v150h-226l-94 -150h-116l388 606h455v-88h-304v-168h284v-86h-284v-176h315v-88zM479 236v287l-176 -287h176z" />
    <glyph glyph-name="Ccedillasmall" unicode="&#xf7e7;" horiz-adv-x="616" 
d="M256 -72l38 61q-116 14 -185.5 98t-69.5 216q0 137 80 227t223 90q139 0 220 -87q14 -15 21 -27l-65 -57q-8 10 -15 17q-61 66 -158 66q-98 0 -148.5 -65.5t-50.5 -163.5q0 -96 51.5 -162.5t146.5 -66.5q108 0 185 82l61 -60q-32 -40 -94.5 -74t-141.5 -35l-19 -30
q6 2 14 2q47 0 70 -23t23 -57q0 -35 -29.5 -60.5t-77.5 -25.5q-61 0 -91 34l33 41q21 -21 55 -21q20 0 31 10t11 24q0 32 -36 32q-23 0 -37 -14z" />
    <glyph glyph-name="Egravesmall" unicode="&#xf7e8;" horiz-adv-x="551" 
d="M512 0h-443v606h432v-88h-329v-168h307v-86h-307v-176h340v-88zM284 677l-119 131h115l88 -131h-84z" />
    <glyph glyph-name="Eacutesmall" unicode="&#xf7e9;" horiz-adv-x="551" 
d="M512 0h-443v606h432v-88h-329v-168h307v-86h-307v-176h340v-88zM415 808l-119 -131h-84l88 131h115z" />
    <glyph glyph-name="Ecircumflexsmall" unicode="&#xf7ea;" horiz-adv-x="551" 
d="M512 0h-443v606h432v-88h-329v-168h307v-86h-307v-176h340v-88zM444 677h-83l-72 81l-72 -81h-83l89 131h132z" />
    <glyph glyph-name="Edieresissmall" unicode="&#xf7eb;" horiz-adv-x="551" 
d="M512 0h-443v606h432v-88h-329v-168h307v-86h-307v-176h340v-88zM439 744q0 -24 -16.5 -40.5t-40.5 -16.5t-41 16.5t-17 40.5t17 40.5t41 16.5t40.5 -16.5t16.5 -40.5zM254 744q0 -24 -16.5 -40.5t-40.5 -16.5t-41 16.5t-17 40.5t17 40.5t41 16.5t40.5 -16.5t16.5 -40.5z
" />
    <glyph glyph-name="Igravesmall" unicode="&#xf7ec;" horiz-adv-x="241" 
d="M172 0h-103v606h103v-606zM110 677l-119 131h115l88 -131h-84z" />
    <glyph glyph-name="Iacutesmall" unicode="&#xf7ed;" horiz-adv-x="241" 
d="M172 0h-103v606h103v-606zM249 808l-119 -131h-84l88 131h115z" />
    <glyph glyph-name="Icircumflexsmall" unicode="&#xf7ee;" horiz-adv-x="241" 
d="M172 0h-103v606h103v-606zM275 677h-83l-72 81l-72 -81h-83l89 131h132z" />
    <glyph glyph-name="Idieresissmall" unicode="&#xf7ef;" horiz-adv-x="241" 
d="M172 0h-103v606h103v-606zM270 744q0 -24 -16.5 -40.5t-40.5 -16.5t-41 16.5t-17 40.5t17 40.5t41 16.5t40.5 -16.5t16.5 -40.5zM85 744q0 -24 -16.5 -40.5t-40.5 -16.5t-41 16.5t-17 40.5t17 40.5t41 16.5t40.5 -16.5t16.5 -40.5z" />
    <glyph glyph-name="Ethsmall" unicode="&#xf7f0;" horiz-adv-x="656" 
d="M79 349v257h191q42 0 70.5 -2t65 -8.5t67 -21.5t56.5 -39q88 -82 88 -229q0 -145 -88 -227q-74 -70 -199 -77q-42 -2 -60 -2h-191v264h-91v85h91zM182 264v-177h82q41 0 65.5 2t58.5 13.5t58 33.5q64 60 64 171q0 107 -60 166q-21 21 -53 32t-55 13t-63 2h-97v-171h161
v-85h-161z" />
    <glyph glyph-name="Ntildesmall" unicode="&#xf7f1;" horiz-adv-x="645" 
d="M576 0h-98l-311 443v-443h-98v606h100l309 -440v440h98v-606zM477 797q0 -50 -23 -81t-73 -31q-23 0 -61 19.5t-54 19.5q-17 0 -26 -11t-9 -25h-63q0 45 22.5 78.5t74.5 33.5q25 0 63 -19t52 -19q15 0 25 9.5t10 25.5h62z" />
    <glyph glyph-name="Ogravesmall" unicode="&#xf7f2;" horiz-adv-x="694" 
d="M655 303q0 -60 -19.5 -115.5t-56 -101t-97 -73t-135.5 -27.5t-135.5 27.5t-97 73t-56 101t-19.5 115.5t19.5 115.5t56 101t97 73t135.5 27.5t135.5 -27.5t97 -73t56 -101t19.5 -115.5zM548 303q0 95 -52 162t-149 67t-149 -67t-52 -162t52 -162t149 -67t149 67t52 162z
M340 677l-119 131h115l88 -131h-84z" />
    <glyph glyph-name="Oacutesmall" unicode="&#xf7f3;" horiz-adv-x="694" 
d="M655 303q0 -60 -19.5 -115.5t-56 -101t-97 -73t-135.5 -27.5t-135.5 27.5t-97 73t-56 101t-19.5 115.5t19.5 115.5t56 101t97 73t135.5 27.5t135.5 -27.5t97 -73t56 -101t19.5 -115.5zM548 303q0 95 -52 162t-149 67t-149 -67t-52 -162t52 -162t149 -67t149 67t52 162z
M472 808l-119 -131h-84l88 131h115z" />
    <glyph glyph-name="Ocircumflexsmall" unicode="&#xf7f4;" horiz-adv-x="694" 
d="M655 303q0 -60 -19.5 -115.5t-56 -101t-97 -73t-135.5 -27.5t-135.5 27.5t-97 73t-56 101t-19.5 115.5t19.5 115.5t56 101t97 73t135.5 27.5t135.5 -27.5t97 -73t56 -101t19.5 -115.5zM548 303q0 95 -52 162t-149 67t-149 -67t-52 -162t52 -162t149 -67t149 67t52 162z
M502 677h-83l-72 81l-72 -81h-83l89 131h132z" />
    <glyph glyph-name="Otildesmall" unicode="&#xf7f5;" horiz-adv-x="694" 
d="M655 303q0 -60 -19.5 -115.5t-56 -101t-97 -73t-135.5 -27.5t-135.5 27.5t-97 73t-56 101t-19.5 115.5t19.5 115.5t56 101t97 73t135.5 27.5t135.5 -27.5t97 -73t56 -101t19.5 -115.5zM548 303q0 95 -52 162t-149 67t-149 -67t-52 -162t52 -162t149 -67t149 67t52 162z
M500 795q0 -50 -23 -81t-73 -31q-23 0 -61 19.5t-54 19.5q-17 0 -26 -11t-9 -25h-63q0 45 22.5 78.5t74.5 33.5q25 0 63 -19t52 -19q15 0 25 9.5t10 25.5h62z" />
    <glyph glyph-name="Odieresissmall" unicode="&#xf7f6;" horiz-adv-x="694" 
d="M655 303q0 -60 -19.5 -115.5t-56 -101t-97 -73t-135.5 -27.5t-135.5 27.5t-97 73t-56 101t-19.5 115.5t19.5 115.5t56 101t97 73t135.5 27.5t135.5 -27.5t97 -73t56 -101t19.5 -115.5zM548 303q0 95 -52 162t-149 67t-149 -67t-52 -162t52 -162t149 -67t149 67t52 162z
M496 742q0 -24 -16.5 -40.5t-40.5 -16.5t-41 16.5t-17 40.5t17 40.5t41 16.5t40.5 -16.5t16.5 -40.5zM311 742q0 -24 -16.5 -40.5t-40.5 -16.5t-41 16.5t-17 40.5t17 40.5t41 16.5t40.5 -16.5t16.5 -40.5z" />
    <glyph glyph-name="Oslashsmall" unicode="&#xf7f8;" horiz-adv-x="696" 
d="M347 -14q-118 0 -189 61l-60 -62l-59 56l61 64q-61 85 -61 198q0 60 19.5 115.5t56 101t97 73t135.5 27.5q116 0 190 -61l60 63l60 -56l-63 -66q61 -83 61 -197q0 -60 -19.5 -115.5t-56 -101t-97 -73t-135.5 -27.5zM347 532q-97 0 -149 -67t-52 -162q0 -76 27 -124
l299 311q-46 42 -125 42zM521 427l-298 -311q49 -42 124 -42q97 0 149 67t52 162q0 72 -27 124z" />
    <glyph glyph-name="Ugravesmall" unicode="&#xf7f9;" horiz-adv-x="635" 
d="M572 253q0 -65 -12 -110t-52 -84q-73 -73 -191 -73t-191 73q-28 28 -43 66t-17.5 64.5t-2.5 65.5v351h103v-356q0 -94 39 -134q42 -42 113 -42q66 0 110 41q25 23 33 56t8 83v352h103v-353zM312 677l-119 131h115l88 -131h-84z" />
    <glyph glyph-name="Uacutesmall" unicode="&#xf7fa;" horiz-adv-x="635" 
d="M572 253q0 -65 -12 -110t-52 -84q-73 -73 -191 -73t-191 73q-28 28 -43 66t-17.5 64.5t-2.5 65.5v351h103v-356q0 -94 39 -134q42 -42 113 -42q66 0 110 41q25 23 33 56t8 83v352h103v-353zM442 808l-119 -131h-84l88 131h115z" />
    <glyph glyph-name="Ucircumflexsmall" unicode="&#xf7fb;" horiz-adv-x="635" 
d="M572 253q0 -65 -12 -110t-52 -84q-73 -73 -191 -73t-191 73q-28 28 -43 66t-17.5 64.5t-2.5 65.5v351h103v-356q0 -94 39 -134q42 -42 113 -42q66 0 110 41q25 23 33 56t8 83v352h103v-353zM473 677h-83l-72 81l-72 -81h-83l89 131h132z" />
    <glyph glyph-name="Udieresissmall" unicode="&#xf7fc;" horiz-adv-x="635" 
d="M572 253q0 -65 -12 -110t-52 -84q-73 -73 -191 -73t-191 73q-28 28 -43 66t-17.5 64.5t-2.5 65.5v351h103v-356q0 -94 39 -134q42 -42 113 -42q66 0 110 41q25 23 33 56t8 83v352h103v-353zM467 744q0 -24 -16.5 -40.5t-40.5 -16.5t-41 16.5t-17 40.5t17 40.5t41 16.5
t40.5 -16.5t16.5 -40.5zM282 744q0 -24 -16.5 -40.5t-40.5 -16.5t-41 16.5t-17 40.5t17 40.5t41 16.5t40.5 -16.5t16.5 -40.5z" />
    <glyph glyph-name="Yacutesmall" unicode="&#xf7fd;" horiz-adv-x="553" 
d="M550 606l-223 -346v-260h-103v260l-221 346h118l158 -253l157 253h114zM400 808l-119 -131h-84l88 131h115z" />
    <glyph glyph-name="Thornsmall" unicode="&#xf7fe;" horiz-adv-x="555" 
d="M540 330q0 -79 -46 -128q-59 -63 -195 -63h-127v-139h-103v606h103v-92h100q53 0 83.5 -2t66.5 -13.5t61 -34.5q57 -53 57 -134zM436 328q0 44 -24 68q-35 34 -143 34h-97v-207h114q69 0 109.5 21.5t40.5 83.5z" />
    <glyph glyph-name="Ydieresissmall" unicode="&#xf7ff;" horiz-adv-x="553" 
d="M550 606l-223 -346v-260h-103v260l-221 346h118l158 -253l157 253h114zM428 744q0 -24 -16.5 -40.5t-40.5 -16.5t-41 16.5t-17 40.5t17 40.5t41 16.5t40.5 -16.5t16.5 -40.5zM243 744q0 -24 -16.5 -40.5t-40.5 -16.5t-41 16.5t-17 40.5t17 40.5t41 16.5t40.5 -16.5
t16.5 -40.5z" />
    <glyph glyph-name="apple" unicode="&#xf8ff;" horiz-adv-x="902" 
d="M857 386q0 -168 -117.5 -285t-288.5 -117q-170 0 -288 117.5t-118 284.5q0 168 118.5 285.5t287.5 117.5q170 0 288 -117.5t118 -285.5zM779 386q0 134 -96.5 230.5t-231.5 96.5q-134 0 -231 -96.5t-97 -229.5q0 -103 59.5 -187t154.5 -119v229h-106v69h106v30
q0 52 10 85t37 60q45 45 125 45q27 0 51.5 -5t34.5 -9.5t14 -7.5l-24 -61q-36 13 -67 13q-49 0 -76 -27q-25 -25 -25 -93v-30h170v-69h-170v-248q22 -2 34 -2q134 0 231 96.5t97 229.5z" />
    <glyph glyph-name="ff" horiz-adv-x="735" 
d="M439 392h-231v-392h-100v392h-105v83h105v27q0 94 49 143q48 48 133 48q68 0 117 -33l-11.5 -22t-13 -25.5l-10.5 -22.5q-38 19 -72 19q-40 0 -63 -21q-29 -26 -29 -91v-22h231v27q0 94 49 143q48 48 133 48q67 0 117 -33l-11.5 -22t-13 -25.5l-10.5 -22.5q-38 19 -72 19
q-40 0 -63 -21q-29 -26 -29 -91v-22h168v-83h-168v-392h-100v392z" />
    <glyph glyph-name="ffi" horiz-adv-x="932" 
d="M439 392h-231v-392h-100v392h-105v83h105v27q0 94 49 143q48 48 133 48q68 0 117 -33l-11.5 -22t-13 -25.5l-10.5 -22.5q-38 19 -72 19q-39 0 -63 -21q-29 -26 -29 -91v-22h231v27q0 94 49 143q48 48 133 48q67 0 117 -33l-11.5 -22t-13 -25.5l-10.5 -22.5q-38 19 -72 19
q-39 0 -63 -21q-29 -26 -29 -91v-22h168v-83h-168v-392h-100v392zM881 622q0 -26 -17 -43t-44 -17q-26 0 -43.5 17t-17.5 43q0 25 17.5 42.5t43.5 17.5t43.5 -17.5t17.5 -42.5zM870 0h-100v475h100v-475z" />
    <glyph glyph-name="ffl" horiz-adv-x="933" 
d="M439 392h-231v-392h-100v392h-105v83h105v27q0 94 49 143q48 48 133 48q68 0 117 -33l-11.5 -22t-13 -25.5l-10.5 -22.5q-38 19 -72 19q-39 0 -63 -21q-29 -26 -29 -91v-22h231v27q0 94 49 143q48 48 133 48q67 0 117 -33l-11.5 -22t-13 -25.5l-10.5 -22.5q-38 19 -72 19
q-39 0 -63 -21q-29 -26 -29 -91v-22h168v-83h-168v-392h-100v392zM870 0h-100v678h100v-678z" />
    <glyph glyph-name="US" horiz-adv-x="767" 
 />
    <glyph glyph-name="fj" 
d="M407 660l-11.5 -22t-13 -25.5l-10.5 -22.5q-38 19 -72 19q-39 0 -63 -21q-29 -26 -29 -91v-22h168v-83h-168v-392h-100v392h-105v83h105v27q0 94 49 143q48 48 133 48q68 0 117 -33zM539 23v1q0 -42 -2 -65.5t-12.5 -54t-31.5 -52.5q-52 -52 -135 -52q-76 0 -118 33
l40 71q28 -19 70 -19q44 0 66 29q23 27 23 97v464h100v-452zM550 622q0 -26 -17 -43t-44 -17q-26 0 -43.5 17t-17.5 43q0 25 17.5 42.5t43.5 17.5t43.5 -17.5t17.5 -42.5z" />
    <glyph glyph-name="Grave" horiz-adv-x="346" 
d="M165 749l-119 131h115l88 -131h-84z" />
    <glyph glyph-name="Circumflex" horiz-adv-x="346" 
d="M328 749h-83l-72 81l-72 -81h-83l89 131h132z" />
    <glyph glyph-name="Tilde" horiz-adv-x="346" 
d="M328 869q0 -50 -23 -81t-73 -31q-23 0 -61 19.5t-54 19.5q-17 0 -26 -11t-9 -25h-63q0 45 22.5 78.5t74.5 33.5q25 0 63 -19t52 -19q15 0 25 9.5t10 25.5h62z" />
    <glyph glyph-name="Dieresis" horiz-adv-x="360" 
d="M330 807q0 -24 -16.5 -40.5t-40.5 -16.5t-41 16.5t-17 40.5t17 40.5t41 16.5t40.5 -16.5t16.5 -40.5zM145 807q0 -24 -16.5 -40.5t-40.5 -16.5t-41 16.5t-17 40.5t17 40.5t41 16.5t40.5 -16.5t16.5 -40.5z" />
    <glyph glyph-name="Macron" horiz-adv-x="346" 
d="M318 779h-290v73h290v-73z" />
    <glyph glyph-name="Acute" horiz-adv-x="360" 
d="M314 880l-119 -131h-84l88 131h115z" />
    <glyph glyph-name="Cedilla" horiz-adv-x="343" 
d="M272 -121q0 -35 -29.5 -60.5t-77.5 -25.5q-61 0 -91 34l33 41q21 -21 55 -21q20 0 31 10t11 24q0 32 -36 32q-23 0 -37 -14l-45 29l45 73h63l-29 -44q6 2 14 2q47 0 70 -23t23 -57z" />
    <glyph glyph-name="Breve" horiz-adv-x="346" 
d="M323 882q0 -62 -41.5 -98.5t-108.5 -36.5t-108.5 36.5t-41.5 98.5h70q2 -31 23.5 -49.5t56.5 -18.5q34 0 56 18.5t23 49.5h71z" />
    <glyph glyph-name="Dotaccent" horiz-adv-x="346" 
d="M230 807q0 -24 -16.5 -40.5t-40.5 -16.5t-41 16.5t-17 40.5t17 40.5t41 16.5t40.5 -16.5t16.5 -40.5z" />
    <glyph glyph-name="Ring" horiz-adv-x="346" 
d="M278 816q0 -43 -30.5 -73.5t-74.5 -30.5t-74.5 30.5t-30.5 73.5t30.5 73.5t74.5 30.5t74.5 -30.5t30.5 -73.5zM221 816q0 20 -14 34.5t-34 14.5t-34 -14.5t-14 -34.5t14 -34.5t34 -14.5t34 14.5t14 34.5z" />
    <glyph glyph-name="Hungarumlaut" horiz-adv-x="346" 
d="M193 880l-120 -131h-81l88 131h113zM354 880l-120 -131h-81l88 131h113z" />
    <glyph glyph-name="Ogonek" horiz-adv-x="352" 
d="M273 -164q-38 -36 -93 -36q-42 0 -71.5 23t-29.5 69q0 64 73 111h116q-15 -6 -29.5 -14t-35 -22t-33 -33.5t-12.5 -41.5q0 -14 10 -22.5t24 -8.5q22 0 45 17z" />
    <glyph glyph-name="Caron" horiz-adv-x="346" 
d="M18 880h83l72 -81l72 81h83l-89 -131h-132z" />
    <glyph glyph-name="commaaccent.cap" horiz-adv-x="500" 
 />
    <glyph glyph-name="commaaccent" horiz-adv-x="0" 
 />
    <glyph glyph-name="germandbls.small" horiz-adv-x="1148" 
d="M523 171q0 -87 -67.5 -136t-179.5 -49q-168 0 -249 109l65 64q80 -86 183 -86q67 0 104 25t37 70q0 37 -38.5 57.5t-93 31t-109 26t-93 55.5t-38.5 107q0 73 62.5 124t167.5 51q74 0 139 -26t103 -81l-65 -60q-24 32 -71.5 57t-105.5 25q-59 0 -92 -22.5t-33 -63.5
q0 -33 27.5 -53t69.5 -27.5t90 -19.5t90 -27.5t69.5 -54t27.5 -96.5zM1097 171q0 -87 -67.5 -136t-179.5 -49q-168 0 -249 109l65 64q80 -86 183 -86q67 0 104 25t37 70q0 37 -38.5 57.5t-93 31t-109 26t-93 55.5t-38.5 107q0 73 62.5 124t167.5 51q74 0 139 -26t103 -81
l-65 -60q-24 32 -71.5 57t-105.5 25q-59 0 -92 -22.5t-33 -63.5q0 -33 27.5 -53t69.5 -27.5t90 -19.5t90 -27.5t69.5 -54t27.5 -96.5z" />
    <glyph glyph-name="f_i" horiz-adv-x="628" 
d="M407 660l-11.5 -22t-13 -25.5l-10.5 -22.5q-38 19 -72 19q-39 0 -63 -21q-29 -26 -29 -91v-22h168v-83h-168v-392h-100v392h-105v83h105v27q0 94 49 143q48 48 133 48q68 0 117 -33zM577 622q0 -26 -17 -43t-44 -17q-26 0 -43.5 17t-17.5 43q0 25 17.5 42.5t43.5 17.5
t43.5 -17.5t17.5 -42.5zM566 0h-100v475h100v-475z" />
    <glyph glyph-name="dollar.fitted" 
d="M551 185q0 -81 -58 -134.5t-153 -63.5v-91h-84v91q-42 4 -79 17.5t-59.5 29t-41 33.5t-25 27.5t-9.5 15.5l69 54q7 -11 19 -24t47.5 -34.5t78.5 -29.5v219q-41 10 -68.5 21t-60.5 33t-50 59t-17 87q0 77 55 133t141 65v89h84v-89q39 -4 74 -17t57 -27.5t39 -31
t24.5 -26.5t8.5 -14l-67 -55q-59 71 -136 83v-224q45 -10 75 -21t65 -32.5t53 -57.5t18 -85zM256 398v206q-40 -9 -67.5 -36.5t-27.5 -73.5q0 -25 10 -43.5t29 -29.5t29 -15t27 -8zM449 182q0 72 -109 98v-206q109 18 109 108z" />
    <glyph glyph-name="cent.fitted" 
d="M477 140l66 -53q-1 -3 -6.5 -10.5t-21 -23t-35.5 -29t-52 -25.5t-68 -15v-88h-84v89q-107 12 -163.5 85t-56.5 174q0 99 57 171.5t163 86.5v87h84v-86q34 -3 64.5 -14t50.5 -23.5t35.5 -27t22.5 -23t9 -12.5l-66 -53l-6 6l-10 11.5t-15.5 13.5t-21.5 14t-28 12t-35 9
v-345q74 12 117 69zM276 73v341q-55 -12 -85.5 -60t-30.5 -111q0 -65 29 -110.5t87 -59.5z" />
    <glyph glyph-name="sterling.fitted" 
d="M560 584l-66 -54q-64 77 -150 77q-56 0 -89.5 -36.5t-33.5 -84.5q0 -45 20 -107h199v-83h-181q5 -25 5 -45q0 -104 -67 -163h350v-88h-484v80q101 48 101 160q0 32 -7 56h-94v83h74q-20 60 -20 105q0 91 62 150.5t158 59.5q50 0 93 -14t70 -36t40 -35.5t20 -24.5z" />
    <glyph glyph-name="florin.fitted" 
d="M597 666l-31 -76q-39 15 -69 15q-20 0 -35.5 -8t-24.5 -18t-16 -28t-9 -27.5l-6 -27.5l-10 -46h149v-83h-166l-84 -392q-21 -99 -69 -138q-46 -37 -113 -37q-59 0 -109 26l31 76q39 -15 69 -15q32 0 54 19q11 9 19 24.5t11 27.5t8 38l80 371h-99v83h116l14 67
q23 101 68 137q48 39 113 39q57 0 109 -27z" />
    <glyph glyph-name="yen.fitted" 
d="M577 678l-177 -299h149v-83h-198v-73h192v-82h-192v-141h-100v141h-190v82h190v73h-196v83h146l-176 299h113l166 -300l164 300h109z" />
    <glyph glyph-name="centoldstyle" horiz-adv-x="539" 
d="M487 71q-3 -6 -7 -11.5t-19 -21t-32 -27t-45.5 -22.5t-61.5 -14v-78h-75v78q-96 11 -145.5 77t-49.5 156q0 89 49.5 153t145.5 78v77h75v-76q53 -4 97 -31t67 -63l-65 -52q-39 48 -99 59v-291q57 8 101 62zM247 64v287q-46 -13 -70.5 -52t-24.5 -92q0 -54 24 -92t71 -51z
" />
    <glyph glyph-name="sterlingoldstyle" horiz-adv-x="539" 
d="M500 518l-64 -53q-55 69 -132 69q-48 0 -76 -30.5t-28 -70.5q0 -42 19 -91h169v-81h-152q4 -28 4 -35q0 -98 -56 -141h303v-85h-432v77q88 41 88 139q0 22 -5 45h-83v81h64q-18 50 -18 88q0 82 56 136t142 54q125 0 201 -102z" />
    <glyph glyph-name="florinoldstyle" 
d="M597 666l-31 -76q-39 15 -69 15q-20 0 -35.5 -8t-24.5 -18t-16 -28t-9 -27.5l-6 -27.5l-10 -46h149v-83h-166l-84 -392q-21 -99 -69 -138q-46 -37 -113 -37q-59 0 -109 26l31 76q39 -15 69 -15q32 0 54 19q11 9 19 24.5t11 27.5t8 38l80 371h-99v83h116l14 67
q23 101 68 137q48 39 113 39q57 0 109 -27z" />
    <glyph glyph-name="yenoldstyle" horiz-adv-x="539" 
d="M519 606l-154 -264h126v-81h-173v-62h167v-80h-167v-119h-97v119h-166v80h166v62h-172v81h125l-155 264h110l143 -265l142 265h105z" />
    <glyph glyph-name="Commaaccent" horiz-adv-x="0" 
 />
    <glyph glyph-name="germandblssmall" horiz-adv-x="1148" 
d="M523 171q0 -87 -67.5 -136t-179.5 -49q-168 0 -249 109l65 64q80 -86 183 -86q67 0 104 25t37 70q0 37 -38.5 57.5t-93 31t-109 26t-93 55.5t-38.5 107q0 73 62.5 124t167.5 51q74 0 139 -26t103 -81l-65 -60q-24 32 -71.5 57t-105.5 25q-59 0 -92 -22.5t-33 -63.5
q0 -33 27.5 -53t69.5 -27.5t90 -19.5t90 -27.5t69.5 -54t27.5 -96.5zM1097 171q0 -87 -67.5 -136t-179.5 -49q-168 0 -249 109l65 64q80 -86 183 -86q67 0 104 25t37 70q0 37 -38.5 57.5t-93 31t-109 26t-93 55.5t-38.5 107q0 73 62.5 124t167.5 51q74 0 139 -26t103 -81
l-65 -60q-24 32 -71.5 57t-105.5 25q-59 0 -92 -22.5t-33 -63.5q0 -33 27.5 -53t69.5 -27.5t90 -19.5t90 -27.5t69.5 -54t27.5 -96.5z" />
    <glyph glyph-name="dotlessismall" horiz-adv-x="241" 
d="M172 0h-103v606h103v-606z" />
    <glyph glyph-name="Eurooldstyle" horiz-adv-x="539" 
d="M520 89q-62 -103 -198 -103q-61 0 -108 23.5t-72.5 60t-38.5 66t-17 54.5h-72v80h70q-2 16 -2 30q0 12 2 30h-70v80h74q4 34 18.5 68t40.5 67t70.5 54t100.5 21q131 0 196 -104q-5 -4 -29 -21.5t-36 -27.5q-48 68 -128 68q-33 0 -59 -13.5t-41 -35.5t-22.5 -40t-11.5 -36
h199v-80h-206q-2 -18 -2 -30q0 -14 2 -30h206v-80h-200q6 -37 40.5 -78t97.5 -41q85 0 130 68z" />
    <glyph glyph-name="dollaroldstyle" horiz-adv-x="539" 
d="M491 168q0 -73 -50.5 -121.5t-134.5 -57.5v-81h-77v81q-39 4 -73 18t-57 33t-35.5 33t-21.5 28l64 54q45 -65 123 -79v184q-36 9 -60.5 19t-53 30t-43.5 53t-15 78q0 70 48 120t124 59v79h77v-79q54 -6 98 -31.5t60 -44.5t21 -30l-61 -55q-54 66 -117 73v-188
q38 -8 64.5 -18t57 -29t46.5 -51.5t16 -76.5zM229 362v171q-77 -18 -77 -92q0 -59 77 -79zM396 164q0 35 -23 52t-66 28v-170q89 11 89 90z" />
    </font>
</defs>
</svg>
