<?xml version="1.0" standalone="no"?>
<!DOCTYPE svg PUBLIC "-//W3C//DTD SVG 1.1//EN" "http://www.w3.org/Graphics/SVG/1.1/DTD/svg11.dtd" >
<svg>
<metadata>
Created by FontForge 20090622 at Fri Oct  7 20:22:37 2016
 By deploy user
Copyright (c) (c) The Foundry, London, 2005. All rights reserved.
</metadata>
<defs>
<font id="FoundryContext-Demi" horiz-adv-x="609" >
  <font-face 
    font-family="Foundry Context Demi"
    font-weight="600"
    font-stretch="normal"
    units-per-em="1000"
    panose-1="2 0 0 0 0 0 0 0 0 0"
    ascent="800"
    descent="-200"
    x-height="478"
    cap-height="678"
    bbox="-175 -218 1219 922"
    underline-thickness="50"
    underline-position="-50"
    unicode-range="U+0020-U+FB04"
  />
<missing-glyph horiz-adv-x="660" 
d="M600 -186h-540v864h540v-864zM187 575v-658h286v658h-286z" />
    <glyph glyph-name="f_j" unicode="fj" horiz-adv-x="623" 
d="M413 665l-37 -84q-30 15 -64 15q-38 0 -60 -19q-28 -25 -28 -82v-17h167v-97h-167v-381h-120v381h-104v97h104v20q0 94 50 144q52 52 145 52q63 0 114 -29zM575 618q0 -29 -20 -48.5t-50 -19.5t-50 19.5t-20 48.5t20 48.5t50 19.5t50 -19.5t20 -48.5zM565 33
q0 -41 -2 -66t-13 -56t-33 -54q-57 -57 -149 -57q-81 0 -123 33l45 84q31 -17 68 -17q48 0 68 32q19 27 19 95v451h120v-445z" />
    <glyph glyph-name="f_f" unicode="ff" horiz-adv-x="765" 
d="M224 478h221v20q0 94 51 145t145 51q32 0 63 -8.5t43.5 -15t17.5 -10.5l-37 -83q-43 19 -75 19q-34 0 -56 -17q-32 -24 -32 -84v-17h167v-97h-167v-381h-120v381h-221v-381h-120v381h-104v97h104v20q0 94 50 144q52 52 145 52q63 0 114 -29l-37 -84q-30 15 -64 15
q-38 0 -60 -19q-28 -25 -28 -82v-17z" />
    <glyph glyph-name="fi" unicode="fi" horiz-adv-x="623" 
d="M413 665l-37 -84q-30 15 -64 15q-38 0 -60 -19q-28 -25 -28 -82v-17h167v-97h-167v-381h-120v381h-104v97h104v20q0 94 50 144q52 52 145 52q63 0 114 -29zM575 618q0 -29 -20 -48.5t-50 -19.5t-50 19.5t-20 48.5t20 48.5t50 19.5t50 -19.5t20 -48.5zM565 0h-120v478h120
v-478z" />
    <glyph glyph-name="fl" unicode="fl" horiz-adv-x="625" 
d="M565 0h-120v678h120v-678zM413 665l-37 -84q-30 15 -64 15q-38 0 -60 -19q-28 -25 -28 -82v-17h167v-97h-167v-381h-120v381h-104v97h104v20q0 94 50 144q52 52 145 52q63 0 114 -29z" />
    <glyph glyph-name="f_f_i" unicode="ffi" horiz-adv-x="964" 
d="M224 381v-381h-120v381h-104v97h104v20q0 94 50 144q52 52 145 52q63 0 114 -29l-37 -84q-30 15 -64 15q-38 0 -60 -19q-28 -25 -28 -82v-17h221v20q0 94 50 144q52 52 145 52q63 0 114 -29l-37 -84q-30 15 -64 15q-38 0 -60 -19q-28 -25 -28 -82v-17h167v-97h-167v-381
h-120v381h-221zM916 618q0 -29 -20 -48.5t-50 -19.5t-50 19.5t-20 48.5t20 48.5t50 19.5t50 -19.5t20 -48.5zM906 0h-120v478h120v-478z" />
    <glyph glyph-name="f_f_l" unicode="ffl" horiz-adv-x="966" 
d="M906 0h-120v678h120v-678zM224 381v-381h-120v381h-104v97h104v20q0 94 50 144q52 52 145 52q63 0 114 -29l-37 -84q-30 15 -64 15q-38 0 -60 -19q-28 -25 -28 -82v-17h221v20q0 94 50 144q52 52 145 52q63 0 114 -29l-37 -84q-30 15 -64 15q-38 0 -60 -19
q-28 -25 -28 -82v-17h167v-97h-167v-381h-120v381h-221z" />
    <glyph glyph-name="f_t" unicode="ft" horiz-adv-x="775" 
d="M445 478v149h120v-149h169v-97h-169v-179q0 -68 22 -91q24 -24 71 -24q36 0 68 13l31 -88q-54 -27 -123 -27q-91 0 -138 42q-29 26 -40 59t-11 86v209h-221v-381h-120v381h-104v97h104v20q0 94 50 144q52 52 145 52q63 0 114 -29l-37 -84q-30 15 -64 15q-38 0 -60 -19
q-28 -25 -28 -82v-17h221z" />
    <glyph glyph-name=".notdef" horiz-adv-x="660" 
d="M600 -186h-540v864h540v-864zM187 575v-658h286v658h-286z" />
    <glyph glyph-name=".null" horiz-adv-x="0" 
 />
    <glyph glyph-name="nonmarkingreturn" horiz-adv-x="333" 
 />
    <glyph glyph-name="space" unicode=" " horiz-adv-x="254" 
 />
    <glyph glyph-name="exclam" unicode="!" horiz-adv-x="282" 
d="M204 678l-3 -484h-120l-3 484h126zM216 63q0 -31 -21.5 -52.5t-53.5 -21.5t-53.5 21.5t-21.5 52.5q0 32 21.5 53t53.5 21t53.5 -21t21.5 -53z" />
    <glyph glyph-name="quotedbl" unicode="&#x22;" horiz-adv-x="444" 
d="M194 678l-28 -289h-78l-28 289h134zM384 678l-28 -289h-78l-28 289h134z" />
    <glyph glyph-name="numbersign" unicode="#" 
d="M569 460h-102l-26 -107h83v-87h-103l-33 -133h-94l33 133h-111l-33 -133h-94l33 133h-82v87h103l26 107h-84v86h103l33 132h94l-33 -132h111l33 132h94l-33 -132h82v-86zM374 460h-112l-26 -107h112z" />
    <glyph glyph-name="dollar" unicode="$" 
d="M561 189q0 -82 -58.5 -136t-151.5 -66v-91h-100v91q-42 5 -79 19t-59 28.5t-40 31.5t-24 25.5t-9 14.5l77 71q50 -67 134 -84v193q-39 10 -66.5 21t-60.5 33.5t-50.5 61t-17.5 90.5q0 80 55 134.5t140 65.5v90h100v-90q40 -4 74.5 -17t56.5 -27t38.5 -29.5t23 -24.5
t8.5 -13l-74 -69q-53 63 -127 76v-199q35 -8 57.5 -15.5t54.5 -23t51 -35t33 -52.5t14 -74zM251 408v179q-78 -21 -78 -95q0 -22 8 -38t23.5 -25.5t23.5 -13t23 -7.5zM443 184q0 62 -92 85v-178q37 6 64.5 28t27.5 65z" />
    <glyph glyph-name="percent" unicode="%" horiz-adv-x="880" 
d="M673 659l-402 -695l-69 40l402 694zM188 308q-72 0 -111 53t-39 137q0 85 39.5 137.5t111.5 52.5t111.5 -52.5t39.5 -137.5q0 -84 -40 -137t-112 -53zM189 623q-68 0 -68 -124t67 -124q69 0 69 124t-68 124zM690 -8q-72 0 -111 53t-39 137q0 85 39.5 137.5t111.5 52.5
t111.5 -52.5t39.5 -137.5q0 -84 -40 -137t-112 -53zM691 307q-68 0 -68 -124t67 -124q69 0 69 124t-68 124z" />
    <glyph glyph-name="ampersand" unicode="&#x26;" horiz-adv-x="658" 
d="M664 0h-137l-60 68q-83 -83 -205 -83q-101 0 -166.5 50t-65.5 144q0 73 40.5 120.5t114.5 87.5q-25 29 -37.5 45.5t-24 44.5t-11.5 57q0 71 54 115.5t138 44.5q74 0 126 -39.5t52 -108.5q0 -61 -35.5 -103t-97.5 -81l115 -129q8 16 16 51.5t8 51.5h109q-1 -50 -19 -105
t-40 -86zM375 540q0 29 -20 46t-51 17q-33 0 -55.5 -16.5t-22.5 -45.5q0 -14 4 -27.5t12.5 -26l13.5 -19.5t17 -18.5t13 -13.5q3 2 15.5 9.5l18 11t16 11.5t16 14.5t12 15.5t9 19.5t2.5 22.5zM399 145l-148 167q-33 -20 -50 -33.5t-32.5 -38.5t-15.5 -56q0 -44 32 -71.5
t81 -27.5q76 0 133 60z" />
    <glyph glyph-name="quotesingle" unicode="'" horiz-adv-x="254" 
d="M194 678l-28 -289h-78l-28 289h134z" />
    <glyph glyph-name="parenleft" unicode="(" horiz-adv-x="363" 
d="M357 -123l-78 -78q-104 76 -170.5 191t-66.5 256q0 138 67 255.5t170 193.5l78 -77q-85 -71 -139 -165.5t-54 -205.5q0 -209 193 -370z" />
    <glyph glyph-name="parenright" unicode=")" horiz-adv-x="363" 
d="M84 -201l-78 78q193 161 193 370q0 111 -54 205.5t-139 165.5l78 77q103 -76 170 -193.5t67 -255.5q0 -141 -66.5 -256t-170.5 -191z" />
    <glyph glyph-name="asterisk" unicode="*" horiz-adv-x="428" 
d="M396 520l-115 -39l72 -96l-73 -52l-68 102l-68 -102l-75 52l72 96l-117 39l32 82l112 -42l-1 118h88l-1 -118l112 42z" />
    <glyph glyph-name="plus" unicode="+" 
d="M569 200h-211v-207h-106v207h-212v105h212v206h106v-206h211v-105z" />
    <glyph glyph-name="comma" unicode="," horiz-adv-x="258" 
d="M222 127l-108 -256h-78l45 256h141z" />
    <glyph glyph-name="hyphen" unicode="-" horiz-adv-x="459" 
d="M393 200h-327v105h327v-105z" />
    <glyph glyph-name="period" unicode="." horiz-adv-x="266" 
d="M208 63q0 -31 -21.5 -52.5t-53.5 -21.5t-53.5 21.5t-21.5 52.5q0 32 21.5 53t53.5 21t53.5 -21t21.5 -53z" />
    <glyph glyph-name="slash" unicode="/" horiz-adv-x="424" 
d="M95 -218l-101 32l287 896l101 -32z" />
    <glyph glyph-name="zero" unicode="0" 
d="M571 339q0 -160 -70 -257t-197 -97t-196.5 97t-69.5 257t70 257.5t197 97.5t196.5 -97.5t69.5 -257.5zM443 339q0 251 -138 251q-139 0 -139 -251q0 -249 138 -249q139 0 139 249z" />
    <glyph glyph-name="one" unicode="1" 
d="M571 0h-477v104h177v448l-152 -95l-58 87l215 134h119v-574h176v-104z" />
    <glyph glyph-name="two" unicode="2" 
d="M537 487q0 -53 -24 -96t-60.5 -69t-79.5 -52t-80.5 -46.5t-63.5 -51t-29 -66.5h334v-106h-463q0 32 1 48q2 63 17.5 109t58.5 89q33 33 85 65t89.5 52t66 52.5t28.5 71.5q0 48 -33 76t-83 28q-95 0 -167 -85l-74 69q91 119 244 119q103 0 168 -55.5t65 -151.5z" />
    <glyph glyph-name="three" unicode="3" 
d="M537 186q0 -91 -70 -146t-181 -55q-53 0 -98.5 12.5t-75.5 33t-45 34.5t-26 28l74 70q9 -11 24 -24.5t54.5 -32t83.5 -18.5q63 0 99.5 26t36.5 78q0 42 -27 67q-39 35 -143 35h-42v105h33q35 0 57.5 2.5t49.5 11t41 29t14 53.5q0 39 -27.5 67.5t-81.5 28.5
q-89 0 -156 -74l-73 70q89 107 233 107q97 0 161.5 -52.5t64.5 -136.5q0 -67 -35 -105.5t-72 -51.5q16 -4 34 -13.5t41 -27.5t37.5 -49.5t14.5 -71.5z" />
    <glyph glyph-name="four" unicode="4" 
d="M576 145h-103v-145h-121v145h-318v99l311 434h128v-433h103v-100zM352 245v277l-200 -277h200z" />
    <glyph glyph-name="five" unicode="5" 
d="M547 224q0 -109 -71.5 -174t-194.5 -65q-143 0 -225 91l69 77q71 -65 153 -65q66 0 105.5 34.5t39.5 99.5q0 59 -35.5 89t-88.5 30q-40 0 -71.5 -17t-40.5 -29t-14 -22l-96 38l39 367h388v-102h-297l-20 -182q53 46 142 46q95 0 156.5 -57.5t61.5 -158.5z" />
    <glyph glyph-name="six" unicode="6" 
d="M567 227q0 -104 -68.5 -173t-181.5 -69q-74 0 -128.5 30t-83.5 81.5t-42 108t-13 121.5q0 48 6.5 93.5t25.5 97t49 89.5t81.5 63t118.5 25q153 0 225 -103l-75 -68q-54 69 -143 69q-47 0 -82 -21.5t-53.5 -57t-27 -71.5t-8.5 -73v-11q10 15 28.5 32.5t61 36.5t91.5 19
q97 0 158 -59.5t61 -159.5zM189 212q0 -57 35 -92.5t94 -35.5q57 0 91.5 36.5t34.5 94.5q0 57 -33.5 92.5t-89.5 35.5q-59 0 -95.5 -36.5t-36.5 -94.5z" />
    <glyph glyph-name="seven" unicode="7" 
d="M553 578l-280 -578h-138l286 573h-365v105h497v-100z" />
    <glyph glyph-name="eight" unicode="8" 
d="M564 185q0 -94 -73.5 -147.5t-185.5 -53.5t-186 53t-74 147q0 69 43.5 111.5t82.5 51.5q-36 13 -71 51.5t-35 103.5q0 90 67.5 141t171.5 51t172 -50.5t68 -140.5q0 -65 -35 -104t-71 -51q15 -4 33.5 -14t41 -29t37 -50.5t14.5 -69.5zM304 598q-52 0 -87 -26t-35 -77
q0 -50 35.5 -76t86.5 -26q52 0 87.5 26t35.5 76t-35.5 76.5t-87.5 26.5zM439 187q0 54 -39.5 83.5t-95.5 29.5q-55 0 -95 -29.5t-40 -82.5q0 -51 39.5 -79.5t95.5 -28.5t95.5 28t39.5 79z" />
    <glyph glyph-name="nine" unicode="9" 
d="M42 452q0 104 68.5 173t181.5 69q74 0 128.5 -30t83.5 -81.5t42 -108t13 -121.5q0 -48 -6.5 -93.5t-25.5 -97t-49 -89.5t-81.5 -63t-118.5 -25q-153 0 -225 103l75 68q54 -69 143 -69q47 0 82 21.5t53.5 57t27 71.5t8.5 73v11q-10 -15 -28.5 -32.5t-61 -36.5t-91.5 -19
q-97 0 -158 59.5t-61 159.5zM420 467q0 57 -35 92.5t-94 35.5q-57 0 -91.5 -36.5t-34.5 -94.5q0 -57 33.5 -92.5t89.5 -35.5q59 0 95.5 36.5t36.5 94.5z" />
    <glyph glyph-name="colon" unicode=":" horiz-adv-x="266" 
d="M208 63q0 -31 -21.5 -52.5t-53.5 -21.5t-53.5 21.5t-21.5 52.5q0 32 21.5 53t53.5 21t53.5 -21t21.5 -53zM208 415q0 -31 -21.5 -52.5t-53.5 -21.5t-53.5 21.5t-21.5 52.5q0 32 21.5 53t53.5 21t53.5 -21t21.5 -53z" />
    <glyph glyph-name="semicolon" unicode=";" horiz-adv-x="280" 
d="M225 415q0 -32 -21.5 -53t-54.5 -21t-55 21t-22 53q0 31 22 52.5t55 21.5t54.5 -21.5t21.5 -52.5zM224 127l-108 -256h-78l45 256h141z" />
    <glyph glyph-name="less" unicode="&#x3c;" 
d="M569 -4l-529 201v110l529 202v-113l-396 -144l396 -143v-113z" />
    <glyph glyph-name="equal" unicode="=" 
d="M569 300h-529v105h529v-105zM569 100h-529v105h529v-105z" />
    <glyph glyph-name="greater" unicode="&#x3e;" 
d="M569 197l-529 -201v113l396 143l-396 144v113l529 -202v-110z" />
    <glyph glyph-name="question" unicode="?" horiz-adv-x="520" 
d="M489 504q0 -78 -87 -150l-38 -29.5t-30 -23.5t-16.5 -18t-12 -24t-2.5 -30v-35h-120v31q0 65 20.5 97t89.5 83q23 17 35 28t23 30.5t11 42.5q0 38 -26.5 60t-76.5 22q-79 0 -148 -82l-80 67q92 121 235 121q98 0 160.5 -51t62.5 -139zM318 63q0 -31 -21.5 -52.5
t-53.5 -21.5t-53.5 21.5t-21.5 52.5q0 32 21.5 53t53.5 21t53.5 -21t21.5 -53z" />
    <glyph glyph-name="at" unicode="@" horiz-adv-x="963" 
d="M909 374q0 -129 -71 -218q-66 -82 -162 -82q-42 0 -70 21.5t-32 56.5q-62 -77 -160 -77q-65 0 -110.5 41.5t-45.5 118.5q0 103 67.5 180.5t173.5 77.5q65 0 106 -51l10 36h96l-52 -234q-8 -35 -8 -46q0 -36 32 -36q34 0 66 32q63 63 63 174q0 110 -80 174t-208 64
q-164 0 -266.5 -98.5t-102.5 -247.5q0 -132 90.5 -218t240.5 -86q173 0 294 100l60 -62q-140 -126 -356 -126q-191 0 -310.5 110.5t-119.5 282.5q0 184 128.5 308.5t332.5 124.5q171 0 282.5 -86t111.5 -234zM574 326q0 40 -21.5 61t-52.5 21q-59 0 -98.5 -53t-39.5 -113
q0 -39 19 -59t52 -20q61 0 101 50.5t40 112.5z" />
    <glyph glyph-name="A" unicode="A" horiz-adv-x="706" 
d="M700 0h-136l-61 147h-304l-61 -147h-132l279 678h136zM466 252l-115 293l-114 -293h229z" />
    <glyph glyph-name="B" unicode="B" horiz-adv-x="676" 
d="M634 197q0 -79 -44 -127q-38 -43 -102 -56.5t-163 -13.5h-253v678h256q46 0 69.5 -1t58.5 -5.5t60 -16.5t45 -31q46 -46 46 -112q0 -118 -106 -159q52 -12 92.5 -50.5t40.5 -105.5zM480 486q0 25 -9.5 42t-21 26t-33.5 13.5t-37 5t-40 0.5h-141v-178h139q27 0 45 1.5
t38 6.5t32 14.5t20 27t8 41.5zM504 202q0 31 -12.5 50.5t-39.5 27.5t-48.5 10t-60.5 2h-145v-186h137q33 0 50 0.5t43.5 5.5t40 14.5t24.5 28.5t11 47z" />
    <glyph glyph-name="C" unicode="C" horiz-adv-x="700" 
d="M671 102q-8 -10 -14.5 -16.5t-34 -28t-56 -35t-76 -26t-99.5 -12.5q-165 0 -257 100t-92 255q0 153 93 254t257 101q61 0 112.5 -14.5t83.5 -37.5t47.5 -38t25.5 -29l-78 -73q-72 84 -187 84q-109 0 -166 -71t-57 -175q0 -105 59.5 -176t162.5 -71q117 0 202 85z" />
    <glyph glyph-name="D" unicode="D" horiz-adv-x="731" 
d="M689 342q0 -161 -102 -254q-34 -31 -73.5 -50.5t-84 -27t-71.5 -9t-70 -1.5h-216v678h216q103 0 173.5 -14.5t125.5 -64.5q102 -93 102 -257zM558 343q0 115 -64 180q-32 32 -72.5 40.5t-108.5 8.5h-114v-465h96q46 0 71 2t61.5 14.5t63.5 37.5q67 63 67 182z" />
    <glyph glyph-name="E" unicode="E" horiz-adv-x="620" 
d="M578 0h-506v678h493v-107h-366v-175h341v-105h-341v-183h379v-108z" />
    <glyph glyph-name="F" unicode="F" horiz-adv-x="571" 
d="M553 571h-354v-182h328v-105h-328v-284h-127v678h481v-107z" />
    <glyph glyph-name="G" unicode="G" horiz-adv-x="753" 
d="M693 0h-99l-2 77q-4 -6 -11 -14t-27 -23t-43 -26.5t-60.5 -20.5t-79.5 -9q-154 0 -241.5 100t-87.5 255q0 153 94 254t258 101q51 0 96.5 -11.5t74 -25.5t52.5 -33.5t33 -29t15 -18.5l-78 -73q-75 83 -190 83q-108 0 -166 -71t-58 -175q0 -107 56.5 -177.5t162.5 -70.5
q95 0 144 54t49 117v9h-197v102h305v-374z" />
    <glyph glyph-name="H" unicode="H" horiz-adv-x="726" 
d="M654 0h-127v291h-328v-291h-127v678h127v-280h328v280h127v-678z" />
    <glyph glyph-name="I" unicode="I" horiz-adv-x="271" 
d="M199 0h-127v678h127v-678z" />
    <glyph glyph-name="J" unicode="J" horiz-adv-x="525" 
d="M459 246q0 -66 -10.5 -111.5t-48.5 -83.5q-67 -67 -186 -67q-47 0 -87.5 13t-66 33t-38.5 34.5t-21 27.5l82 72q55 -73 129 -73q56 0 88 30q15 13 22.5 37t8.5 41t1 48v431h127v-432z" />
    <glyph glyph-name="K" unicode="K" horiz-adv-x="659" 
d="M659 0h-162l-298 307v-307h-127v678h127v-293l297 293h153l-334 -328z" />
    <glyph glyph-name="L" unicode="L" horiz-adv-x="555" 
d="M549 0h-477v678h127v-570h350v-108z" />
    <glyph glyph-name="M" unicode="M" horiz-adv-x="882" 
d="M810 0h-117v537l-196 -537h-113l-196 537v-537h-116v678h178l192 -523l192 523h176v-678z" />
    <glyph glyph-name="N" unicode="N" horiz-adv-x="726" 
d="M654 0h-125l-336 479v-479h-121v678h128l333 -475v475h121v-678z" />
    <glyph glyph-name="O" unicode="O" horiz-adv-x="786" 
d="M744 339q0 -67 -22 -129t-64 -113.5t-110.5 -82t-154.5 -30.5t-154.5 30.5t-110.5 82t-64 113.5t-22 129t22 129t64 113.5t110.5 82t154.5 30.5t154.5 -30.5t110.5 -82t64 -113.5t22 -129zM613 339q0 104 -57 176.5t-163 72.5q-105 0 -162.5 -72.5t-57.5 -176.5
t57.5 -176t162.5 -72q106 0 163 72t57 176z" />
    <glyph glyph-name="P" unicode="P" horiz-adv-x="630" 
d="M612 470q0 -87 -48 -139q-69 -78 -229 -78h-136v-253h-127v678h231q91 0 144 -9t93 -43q72 -60 72 -156zM485 468q0 42 -24 69q-22 24 -59.5 31t-96.5 7h-106v-219h131q95 0 132 41q23 25 23 71z" />
    <glyph glyph-name="Q" unicode="Q" horiz-adv-x="786" 
d="M744 339q0 -84 -30 -150.5t-66 -103.5l91 -86l-74 -74l-101 97q-73 -38 -171 -38q-86 0 -154.5 30.5t-110.5 82t-64 113.5t-22 129t22 129t64 113.5t110.5 82t154.5 30.5t154.5 -30.5t110.5 -82t64 -113.5t22 -129zM613 339q0 104 -57 176.5t-163 72.5
q-105 0 -162.5 -72.5t-57.5 -176.5t57.5 -176t162.5 -72q47 0 85 15l-94 89l73 74l104 -99q52 63 52 169z" />
    <glyph glyph-name="R" unicode="R" horiz-adv-x="672" 
d="M654 0h-147l-189 265h-119v-265h-127v678h260q52 0 84.5 -2.5t73 -17t68.5 -42.5q57 -58 57 -141q0 -92 -69 -150q-36 -29 -94 -46zM488 473q0 43 -25 68q-16 16 -42 24t-45 9t-54 1h-123v-207h112q31 0 51.5 1t46.5 7t41.5 16.5t26.5 31t11 49.5z" />
    <glyph glyph-name="S" unicode="S" horiz-adv-x="657" 
d="M603 193q0 -97 -78.5 -153t-206.5 -56q-183 0 -288 114l75 82l7 -7t11 -10.5t14.5 -12t19 -13.5t22.5 -13.5t28 -13t31.5 -10.5t37 -7.5t41.5 -2.5q73 0 115 25t42 73q0 30 -23.5 50t-61 30t-82.5 18.5t-90 21.5t-82.5 33.5t-61 60t-23.5 94.5q0 84 72 141t193 57
q55 0 103.5 -11t77 -24t53.5 -32t32 -27l15 -18l-76 -77q-76 85 -205 85q-64 0 -100.5 -23.5t-36.5 -65.5q0 -31 23.5 -50t61 -28.5t82.5 -17.5t90.5 -20.5t83 -33t61 -61t23.5 -97.5z" />
    <glyph glyph-name="T" unicode="T" horiz-adv-x="593" 
d="M587 571h-227v-571h-127v571h-227v107h581v-107z" />
    <glyph glyph-name="U" unicode="U" horiz-adv-x="718" 
d="M652 285q0 -72 -14.5 -123t-58.5 -95q-83 -82 -220 -82t-221 84q-43 43 -57.5 96.5t-14.5 120.5v392h127v-375q0 -38 1.5 -59t12 -52t30.5 -51q45 -47 123 -47t121 45q27 27 35.5 64t8.5 93v382h127v-393z" />
    <glyph glyph-name="V" unicode="V" horiz-adv-x="683" 
d="M677 678l-270 -678h-131l-270 678h139l199 -528l200 528h133z" />
    <glyph glyph-name="W" unicode="W" horiz-adv-x="1010" 
d="M998 678l-206 -678h-129l-157 508l-157 -508h-129l-208 678h133l149 -501l153 501h118l157 -501l146 501h130z" />
    <glyph glyph-name="X" unicode="X" horiz-adv-x="643" 
d="M631 0h-148l-163 250l-166 -250h-142l239 354l-219 324h146l147 -225l149 225h136l-217 -323z" />
    <glyph glyph-name="Y" unicode="Y" horiz-adv-x="632" 
d="M626 678l-247 -393v-285h-127v285l-246 393h145l167 -279l169 279h139z" />
    <glyph glyph-name="Z" unicode="Z" horiz-adv-x="644" 
d="M602 0h-560v104l386 467h-372v107h533v-103l-386 -467h399v-108z" />
    <glyph glyph-name="bracketleft" unicode="[" horiz-adv-x="327" 
d="M309 -186h-249v864h249v-103h-122v-658h122v-103z" />
    <glyph glyph-name="backslash" unicode="\" horiz-adv-x="400" 
d="M394 -186l-101 -32l-287 896l101 32z" />
    <glyph glyph-name="bracketright" unicode="]" horiz-adv-x="327" 
d="M267 -186h-249v103h122v658h-122v103h249v-864z" />
    <glyph glyph-name="asciicircum" unicode="^" 
d="M569 168h-116l-149 380l-148 -380h-116l209 510h111z" />
    <glyph glyph-name="underscore" unicode="_" horiz-adv-x="574" 
d="M574 -186h-574v105h574v-105z" />
    <glyph glyph-name="grave" unicode="`" horiz-adv-x="346" 
d="M268 545h-97l-122 133h128z" />
    <glyph glyph-name="a" unicode="a" horiz-adv-x="528" 
d="M474 0h-108l-3 54q-57 -66 -158 -66q-71 0 -120 39t-49 113q0 61 39 100q59 59 171 59h112v6q0 95 -105 95q-75 0 -136 -61l-64 68q4 5 10 11.5t25 21.5t41 26t57.5 20t73.5 9q107 0 162 -55q34 -34 43 -75.5t9 -113.5v-251zM358 217h-70q-22 0 -35.5 -0.5t-34.5 -4.5
t-33.5 -11.5t-22 -22t-9.5 -35.5q0 -32 22 -49t57 -17q58 0 93 33q30 27 33 75v32z" />
    <glyph glyph-name="b" unicode="b" horiz-adv-x="611" 
d="M575 239q0 -102 -64 -177.5t-175 -75.5q-31 0 -58.5 7t-44.5 16t-31.5 20.5t-19.5 17t-8 10.5l-3 -57h-111v678h120v-259q9 11 22.5 24.5t56 32.5t92.5 19q39 0 77 -14t72 -43t54.5 -80.5t20.5 -118.5zM451 238q0 74 -37 115.5t-98 41.5q-59 0 -98.5 -42.5t-39.5 -114.5
q0 -70 38.5 -112t98.5 -42t98 42.5t38 111.5z" />
    <glyph glyph-name="c" unicode="c" horiz-adv-x="533" 
d="M507 86q-3 -5 -9.5 -13.5t-25 -25t-41 -29.5t-59.5 -23t-78 -10q-121 0 -189.5 72.5t-68.5 182.5q0 106 68 180.5t193 74.5q40 0 75.5 -9.5t57.5 -21.5t40.5 -28t25 -24t9.5 -13l-73 -64l-7 7l-13 12.5t-18.5 13.5t-25 14t-30.5 10t-37 4q-68 0 -104.5 -46t-36.5 -111
t36 -110t103 -45q83 0 136 64z" />
    <glyph glyph-name="d" unicode="d" horiz-adv-x="611" 
d="M551 0h-111l-3 63q-60 -77 -176 -77q-39 0 -76.5 13.5t-72 41.5t-55.5 80t-21 121q0 101 63 177t175 76q100 0 157 -70v253h120v-678zM433 242q0 71 -38.5 113t-98.5 42q-61 0 -98.5 -43.5t-37.5 -111.5q0 -75 37 -116t98 -41q59 0 98.5 42t39.5 115z" />
    <glyph glyph-name="e" unicode="e" horiz-adv-x="555" 
d="M519 202h-360q0 -46 34.5 -84t99.5 -38q86 0 145 63l67 -62q-83 -96 -216 -96q-123 0 -188 72.5t-65 180.5q0 107 66 182t185 75q99 0 160 -61q44 -44 58 -99.5t14 -132.5zM401 288q0 21 -9 45.5t-37.5 47.5t-70.5 23q-33 0 -59 -14t-38.5 -34t-19 -37.5t-6.5 -30.5h240z
" />
    <glyph glyph-name="f" unicode="f" horiz-adv-x="424" 
d="M424 660l-37 -83q-43 19 -75 19q-34 0 -56 -17q-32 -24 -32 -84v-17h167v-97h-167v-381h-120v381h-104v97h104v20q0 94 51 145t145 51q32 0 63 -8.5t43.5 -15t17.5 -10.5z" />
    <glyph glyph-name="g" unicode="g" horiz-adv-x="601" 
d="M541 61q0 -67 -10.5 -111.5t-46.5 -81.5q-66 -68 -201 -68q-44 0 -82.5 9t-61.5 19.5t-43 26t-26 22l-12 13.5l68 72q5 -6 13.5 -13.5t27.5 -20.5t48 -21.5t61 -8.5q88 0 122 50q23 28 23 91v37q-4 -4 -9 -9.5t-20.5 -18t-33 -21.5t-46 -16.5t-58.5 -7.5q-37 0 -73.5 13
t-70 40.5t-54 77t-20.5 115.5q0 45 14.5 87.5t41.5 78.5t72.5 58t101.5 22q43 0 81 -17.5t53.5 -32.5t25.5 -29l2 62h113v-417zM423 249q0 70 -37 110t-93 40q-65 0 -99 -44t-34 -108q0 -70 34.5 -109.5t92.5 -39.5q55 0 95 39.5t41 111.5z" />
    <glyph glyph-name="h" unicode="h" horiz-adv-x="567" 
d="M513 0h-120v269q0 76 -29 99q-25 23 -70 23q-48 0 -80 -32q-22 -22 -28 -55.5t-6 -88.5v-215h-120v678h120v-253q60 70 155 70q80 0 131 -51q47 -48 47 -155v-289z" />
    <glyph glyph-name="i" unicode="i" horiz-adv-x="236" 
d="M188 618q0 -29 -20 -48.5t-50 -19.5t-50 19.5t-20 48.5t20 48.5t50 19.5t50 -19.5t20 -48.5zM178 0h-120v478h120v-478z" />
    <glyph glyph-name="j" unicode="j" horiz-adv-x="254" 
d="M206 618q0 -29 -20 -48.5t-50 -19.5t-50 19.5t-20 48.5t20 48.5t50 19.5t50 -19.5t20 -48.5zM196 33q0 -41 -2 -66t-13 -56t-33 -54q-57 -57 -149 -57q-81 0 -123 33l45 84q31 -17 68 -17q48 0 68 32q19 27 19 95v451h120v-445z" />
    <glyph glyph-name="k" unicode="k" horiz-adv-x="532" 
d="M532 0h-151l-201 223v-223h-120v678h120v-403l201 203h146l-230 -226z" />
    <glyph glyph-name="l" unicode="l" horiz-adv-x="240" 
d="M180 0h-120v678h120v-678z" />
    <glyph glyph-name="m" unicode="m" horiz-adv-x="831" 
d="M777 0h-120v270q0 79 -25 101q-22 20 -58 20q-39 0 -66 -25q-29 -28 -29 -95v-271h-120v266q0 42 -5 66.5t-21 38.5q-20 20 -58 20q-39 0 -66 -25q-29 -28 -29 -95v-271h-120v478h114l2 -56q51 73 141 73q35 0 63 -10.5t43.5 -26.5t22.5 -25.5t10 -16.5q6 10 18.5 24.5
t51.5 34.5t86 20q72 0 118 -47q30 -31 38.5 -71t8.5 -97v-280z" />
    <glyph glyph-name="n" unicode="n" horiz-adv-x="567" 
d="M513 0h-120v269q0 76 -29 99q-25 23 -70 23q-48 0 -80 -32q-22 -22 -28 -55.5t-6 -88.5v-215h-120v478h114l2 -60q64 77 160 77q79 0 130 -51q47 -48 47 -155v-289z" />
    <glyph glyph-name="o" unicode="o" horiz-adv-x="597" 
d="M561 240q0 -102 -67.5 -178.5t-194.5 -76.5q-66 0 -118 22.5t-82.5 59.5t-46.5 81.5t-16 91.5t16 91.5t46.5 81.5t82.5 59.5t118 22.5q127 0 194.5 -76.5t67.5 -178.5zM437 240q0 77 -43 120q-36 36 -95 36q-61 0 -95 -36q-44 -46 -44 -120t44 -120q34 -36 95 -36
q59 0 95 36q43 45 43 120z" />
    <glyph glyph-name="p" unicode="p" horiz-adv-x="611" 
d="M451 237q0 75 -37 117t-98 42q-59 0 -98.5 -43.5t-39.5 -114.5q0 -70 38.5 -112t98.5 -42q61 0 98.5 42.5t37.5 110.5zM575 238q0 -102 -64 -177.5t-175 -75.5q-46 0 -83.5 15t-50.5 27t-22 24v-237h-120v664h114l2 -63l9 11t21 19.5t34 23.5t47.5 18t62.5 8q40 0 78 -14
t72 -43t54.5 -80.5t20.5 -119.5z" />
    <glyph glyph-name="q" unicode="q" horiz-adv-x="611" 
d="M551 -186h-120v241q-60 -70 -170 -70q-41 0 -79.5 14.5t-72 44t-53.5 80.5t-20 116q0 101 63 178t175 77q107 0 162 -77l2 60h113v-664zM433 241q0 70 -38.5 112.5t-98.5 42.5q-61 0 -98.5 -43.5t-37.5 -111.5q0 -74 37 -115.5t98 -41.5q59 0 98.5 42.5t39.5 114.5z" />
    <glyph glyph-name="r" unicode="r" horiz-adv-x="366" 
d="M366 375q-16 2 -33 2q-67 0 -105 -35q-48 -44 -48 -137v-205h-120v478h113l2 -83q26 43 74 71.5t98 28.5q13 0 19 -1v-119z" />
    <glyph glyph-name="s" unicode="s" horiz-adv-x="498" 
d="M462 141q0 -71 -60.5 -113.5t-159.5 -42.5q-41 0 -78.5 8t-60.5 18t-42 23t-26 19.5t-10 10.5l58 73q8 -8 21 -18t54 -26t85 -16q49 0 74.5 16t25.5 40q0 27 -31.5 40t-76.5 19.5t-90.5 17t-77 44t-31.5 89.5q0 66 56.5 109t149.5 43q143 0 210 -82l-62 -65
q-55 55 -143 55q-41 0 -66.5 -15t-25.5 -41t31.5 -38t76.5 -18t90.5 -16.5t77 -43.5t31.5 -90z" />
    <glyph glyph-name="t" unicode="t" horiz-adv-x="428" 
d="M410 12q-54 -27 -123 -27q-91 0 -138 42q-29 26 -40 59t-11 86v209h-104v97h104v149h120v-149h169v-97h-169v-179q0 -68 22 -91q24 -24 71 -24q35 0 68 13z" />
    <glyph glyph-name="u" unicode="u" horiz-adv-x="565" 
d="M505 0h-111l-3 62q-2 -4 -7 -10t-19 -18.5t-30.5 -22.5t-43.5 -17.5t-57 -7.5q-81 0 -129 46q-31 31 -41 70t-10 96v280h120v-271q0 -67 25 -91q26 -26 73 -26q48 0 79 31q30 30 33 102q1 18 1 55v200h120v-478z" />
    <glyph glyph-name="v" unicode="v" horiz-adv-x="529" 
d="M529 478l-206 -478h-116l-207 478h131l137 -334l135 334h126z" />
    <glyph glyph-name="w" unicode="w" horiz-adv-x="793" 
d="M787 478l-161 -478h-120l-109 318l-110 -318h-119l-162 478h125l103 -327l113 327h101l115 -327l104 327h120z" />
    <glyph glyph-name="x" unicode="x" horiz-adv-x="534" 
d="M522 0h-138l-121 163l-121 -163h-130l187 242l-180 236h136l114 -155l118 155h128l-181 -233z" />
    <glyph glyph-name="y" unicode="y" horiz-adv-x="526" 
d="M526 478l-227 -540q-25 -61 -66.5 -99.5t-117.5 -38.5q-57 0 -91 23l34 87q22 -10 46 -10q30 0 48 13.5t32 41.5q3 6 21 48l-205 475h128l137 -340l137 340h124z" />
    <glyph glyph-name="z" unicode="z" horiz-adv-x="493" 
d="M463 0h-433v95l273 286h-263v97h413v-94l-270 -284h280v-100z" />
    <glyph glyph-name="braceleft" unicode="{" horiz-adv-x="323" 
d="M305 -186h-60q-91 0 -129 31t-45 97q-1 11 -1 34v151q0 34 -16 51q-21 21 -60 21v107q38 0 60 21q16 16 16 53v137q0 22 1 33q7 66 45 97q40 31 129 31h60v-103h-28q-51 0 -66 -15q-14 -14 -14 -74v-97q0 -45 -3 -66q-10 -61 -84 -70q74 -10 84 -70q3 -19 3 -59v-141
q0 -36 15 -51t68 -15h25v-103z" />
    <glyph glyph-name="bar" unicode="|" horiz-adv-x="271" 
d="M199 -186h-127v986h127v-986z" />
    <glyph glyph-name="braceright" unicode="}" horiz-adv-x="323" 
d="M78 -186h-60v103h25q53 0 68 15t15 51v141q0 40 3 59q10 60 84 70q-74 9 -84 70q-3 21 -3 66v97q0 60 -14 74q-15 15 -66 15h-28v103h60q89 0 129 -31q38 -31 45 -97q1 -11 1 -33v-137q0 -37 16 -53q22 -21 60 -21v-107q-39 0 -60 -21q-16 -17 -16 -51v-151q0 -23 -1 -34
q-7 -66 -45 -97t-129 -31z" />
    <glyph glyph-name="asciitilde" unicode="~" 
d="M566 277q-64 -101 -160 -101q-45 0 -103 21.5t-86 21.5q-48 0 -90 -55l-83 62q64 102 157 102q47 0 103 -21.5t83 -21.5q51 0 95 54z" />
    <glyph glyph-name="exclamdown" unicode="&#xa1;" horiz-adv-x="282" 
d="M201 298l3 -484h-126l3 484h120zM216 429q0 -32 -21.5 -53t-53.5 -21t-53.5 21t-21.5 53q0 31 21.5 52.5t53.5 21.5t53.5 -21.5t21.5 -52.5z" />
    <glyph glyph-name="cent" unicode="&#xa2;" 
d="M477 150l77 -63l-8 -11.5t-21 -22.5t-36 -29t-51 -24.5t-67 -15.5v-88h-92v89q-107 11 -166 84.5t-59 174.5q0 99 59 171t166 86v88h92v-87q52 -4 97 -29t61.5 -42.5t22.5 -27.5l-77 -63q-43 50 -104 61v-315q66 10 106 64zM279 89v309q-48 -12 -74.5 -55t-26.5 -100
q0 -58 26 -99t75 -55z" />
    <glyph glyph-name="sterling" unicode="&#xa3;" 
d="M570 582l-77 -64q-58 73 -141 73q-54 0 -83 -32.5t-29 -77.5q0 -39 16 -94h182v-97h-161q4 -20 4 -35q0 -94 -61 -151h337v-104h-496v95q100 44 100 149q0 11 -5 46h-95v97h72q-17 49 -17 98q0 90 64 149.5t162 59.5q52 0 96 -14.5t72 -37.5t40 -36t20 -24z" />
    <glyph glyph-name="currency" unicode="&#xa4;" horiz-adv-x="620" 
d="M586 564l-90 -89q45 -67 45 -132q0 -72 -44 -134l86 -89l-51 -51l-88 88q-71 -45 -138 -45q-69 0 -132 45l-89 -89l-51 52l88 89q-43 65 -43 132q0 70 45 134l-89 89l51 51l90 -89q65 46 134 46t135 -46l89 90zM460 344q0 63 -44.5 106.5t-108.5 43.5q-60 0 -104 -44.5
t-44 -106.5q0 -63 44.5 -107.5t106.5 -44.5q63 0 106.5 44.5t43.5 108.5z" />
    <glyph glyph-name="yen" unicode="&#xa5;" 
d="M588 678l-165 -291h135v-97h-193v-65h187v-97h-187v-128h-120v128h-185v97h185v65h-192v97h133l-164 291h135l151 -291l149 291h131z" />
    <glyph glyph-name="brokenbar" unicode="&#xa6;" horiz-adv-x="271" 
d="M199 441h-127v359h127v-359zM199 -186h-127v358h127v-358z" />
    <glyph glyph-name="section" unicode="&#xa7;" horiz-adv-x="590" 
d="M543 -1q0 -92 -73 -145.5t-186 -53.5q-51 0 -96 12t-71.5 26.5t-49 34.5t-28.5 28l-11 15l76 70q69 -86 182 -86q59 0 100 23t41 70q0 35 -39 53t-94.5 27.5t-110.5 24.5t-94 56.5t-39 110.5q0 74 52 117q-53 39 -53 121q0 84 65 137.5t172 53.5q49 0 93 -11.5t70 -26
t47.5 -33t28.5 -27.5t11 -15l-75 -68q-68 80 -175 80q-51 0 -86.5 -22t-35.5 -63q0 -27 21 -43.5t54 -25t73.5 -15.5t80.5 -18.5t73 -29.5t54 -53.5t21 -86.5q0 -75 -48 -117q50 -40 50 -120zM428 226v-1q0 29 -25.5 48t-56 27t-80 18.5t-74.5 18.5q-28 -25 -28 -63
q0 -23 13 -39t39.5 -25.5t53 -15.5l66.5 -14.5t67 -16.5q25 22 25 63z" />
    <glyph glyph-name="dieresis" unicode="&#xa8;" horiz-adv-x="374" 
d="M154 618q0 -26 -18.5 -44t-44.5 -18t-44.5 18t-18.5 44t18.5 44t44.5 18t44.5 -18t18.5 -44zM347 618q0 -26 -18.5 -44t-44.5 -18t-44.5 18t-18.5 44t18.5 44t44.5 18t44.5 -18t18.5 -44z" />
    <glyph glyph-name="copyright" unicode="&#xa9;" horiz-adv-x="816" 
d="M762 339q0 -147 -103.5 -251t-250.5 -104t-250.5 104t-103.5 251t103.5 251t250.5 104t250.5 -104t103.5 -251zM679 339q0 113 -79.5 193.5t-191.5 80.5t-191.5 -80.5t-79.5 -193.5t79.5 -193.5t191.5 -80.5t191.5 80.5t79.5 193.5zM584 228v1q-61 -92 -171 -92
q-94 0 -143.5 60t-49.5 142t49.5 142t144.5 60q103 0 167 -89l-60 -47q-28 32 -38 38q-31 20 -69 20q-52 0 -79 -35.5t-27 -88.5t27 -88.5t78 -35.5q55 0 93 38q4 4 10 11.5t8 9.5z" />
    <glyph glyph-name="ordfeminine" unicode="&#xaa;" horiz-adv-x="340" 
d="M297 415h-68l-1 24q-30 -30 -79 -30q-40 0 -68 21t-28 61q0 33 22 55q31 29 106 29h44v6q-1 37 -51 37q-42 0 -72 -30l-41 42q42 48 117 48q57 0 89 -30q19 -19 24.5 -41.5t5.5 -59.5v-132zM225 520v6h-39q-60 0 -60 -34q0 -29 36 -29q29 0 46 15q17 14 17 42z" />
    <glyph glyph-name="guillemotleft" unicode="&#xab;" horiz-adv-x="477" 
d="M250 92l-66 -45l-154 208l154 208l66 -45l-106 -163zM423 92l-66 -45l-154 208l154 208l66 -45l-106 -163z" />
    <glyph glyph-name="logicalnot" unicode="&#xac;" 
d="M569 95h-104v205h-425v105h529v-310z" />
    <glyph glyph-name="registered" unicode="&#xae;" horiz-adv-x="470" 
d="M440 489q0 -85 -60 -145t-145 -60t-145 60t-60 145t60 145t145 60t145 -60t60 -145zM235 639q-62 0 -106.5 -44t-44.5 -106q0 -63 44 -107.5t107 -44.5q62 0 106.5 44.5t44.5 106.5q0 63 -44.5 107t-106.5 44zM332 393h-55l-44 77h-23v-77h-49v202h79q38 0 54 -12
q25 -21 25 -51q0 -18 -11 -34t-28 -20zM272 531q0 15 -9 20q-7 4 -33 4h-20v-47h19q43 0 43 23z" />
    <glyph glyph-name="macron" unicode="&#xaf;" horiz-adv-x="346" 
d="M323 575h-299v81h299v-81z" />
    <glyph glyph-name="degree" unicode="&#xb0;" horiz-adv-x="370" 
d="M346 533q0 -67 -47 -114t-114 -47t-114 47t-47 114t47 114t114 47t114 -47t47 -114zM269 533q0 35 -24.5 60t-59.5 25t-59.5 -25t-24.5 -60t24.5 -60t59.5 -25t59.5 25t24.5 60z" />
    <glyph glyph-name="plusminus" unicode="&#xb1;" 
d="M569 330h-211v-180h-106v180h-212v105h212v179h106v-179h211v-105zM569 0h-529v105h529v-105z" />
    <glyph glyph-name="twosuperior" unicode="&#xb2;" horiz-adv-x="388" 
d="M320 574q0 -42 -23.5 -68t-65.5 -50q-7 -4 -22.5 -12t-23.5 -13t-18.5 -12.5t-16.5 -16t-8 -17.5h176v-69h-260v23q0 38 8 64.5t34 51.5q9 9 22 18.5t22.5 15l26 15l23.5 13.5q47 28 47 58q0 21 -15 34.5t-39 13.5q-47 0 -89 -49l-50 44q61 70 140 70q57 0 94.5 -31
t37.5 -83z" />
    <glyph glyph-name="threesuperior" unicode="&#xb3;" horiz-adv-x="385" 
d="M325 424q0 -54 -40 -85t-102 -31q-94 0 -141 65l51 45q21 -21 31 -27q25 -17 55 -17q31 0 48 13t17 35q0 21 -15 32.5t-29 13t-36 1.5h-30v64h25q17 0 26.5 1t23.5 4.5t20.5 13.5t6.5 26q0 17 -13 30.5t-39 13.5q-43 0 -83 -42l-49 44q23 26 41 38q39 26 93 26
q55 0 91.5 -29t36.5 -76q0 -32 -16 -53.5t-34 -26.5q22 -7 41.5 -26t19.5 -53z" />
    <glyph glyph-name="acute" unicode="&#xb4;" horiz-adv-x="374" 
d="M326 678l-122 -133h-97l90 133h129z" />
    <glyph glyph-name="mu" unicode="&#xb5;" horiz-adv-x="571" 
d="M391 478h120v-478h-112l-3 63q-6 -12 -20.5 -27.5t-48.5 -32t-74 -16.5q-53 0 -77 18v-191h-116v664h120v-271q0 -67 25 -91q26 -26 73 -26q48 0 79 31q30 30 33 102q1 18 1 55v200z" />
    <glyph glyph-name="paragraph" unicode="&#xb6;" horiz-adv-x="639" 
d="M567 -116h-108v689h-73v-689h-109v369q-131 4 -195 75q-52 58 -52 142q0 96 71 156q28 24 69 36t72 14t88 2h237v-794z" />
    <glyph glyph-name="periodcentered" unicode="&#xb7;" horiz-adv-x="266" 
d="M208 257q0 -31 -21.5 -52.5t-53.5 -21.5t-53.5 21.5t-21.5 52.5q0 32 21.5 53t53.5 21t53.5 -21t21.5 -53z" />
    <glyph glyph-name="cedilla" unicode="&#xb8;" horiz-adv-x="340" 
d="M276 -122q0 -39 -31.5 -63.5t-79.5 -24.5q-60 0 -95 35l35 44q26 -22 56 -22q41 0 41 32t-36 32q-21 0 -36 -15l-48 30l45 72l65 -3l-14.5 -21l-11.5 -17q6 2 14 2q46 0 71 -22.5t25 -58.5z" />
    <glyph glyph-name="onesuperior" unicode="&#xb9;" horiz-adv-x="395" 
d="M76 314v67h95v211l-76 -46l-39 58l123 74h72v-297h94v-67h-269z" />
    <glyph glyph-name="ordmasculine" unicode="&#xba;" horiz-adv-x="336" 
d="M312 542q0 -54 -38 -95.5t-106 -41.5t-106 41t-38 95t38 95.5t106 41.5t106 -41t38 -95zM168 616q-32 0 -50 -20.5t-18 -53.5q0 -34 18 -54.5t50 -20.5t50 20.5t18 53.5q0 34 -18 54.5t-50 20.5z" />
    <glyph glyph-name="guillemotright" unicode="&#xbb;" horiz-adv-x="477" 
d="M293 47l-66 45l106 163l-106 163l66 45l154 -208zM120 47l-66 45l106 163l-106 163l66 45l154 -208z" />
    <glyph glyph-name="onequarter" unicode="&#xbc;" horiz-adv-x="905" 
d="M345 314h-269v67h95v211l-76 -47l-39 58l123 75h72v-297h94v-67zM857 75h-56v-75h-75v75h-167v57l165 232h77v-226h56v-63zM726 138v124l-89 -124h89zM733 659l-402 -695l-69 40l402 694z" />
    <glyph glyph-name="onehalf" unicode="&#xbd;" horiz-adv-x="911" 
d="M345 314h-269v67h95v211l-76 -47l-39 58l123 75h72v-297h94v-67zM843 258q0 -42 -23.5 -68t-65.5 -50q-7 -4 -22.5 -12t-23.5 -13t-18.5 -12.5t-16.5 -16t-8 -17.5h176v-69h-260v23q0 38 8 64.5t34 51.5q9 9 22 18.5t22.5 15l26 15l23.5 13.5q47 28 47 58q0 21 -15 34.5
t-39 13.5q-47 0 -89 -49l-50 44q61 70 140 70q57 0 94.5 -31t37.5 -83zM700 659l-402 -695l-69 40l402 694z" />
    <glyph glyph-name="threequarters" unicode="&#xbe;" horiz-adv-x="861" 
d="M813 75h-56v-75h-75v75h-167v57l165 232h77v-226h56v-63zM682 138v124l-89 -124h89zM325 424q0 -54 -40 -85t-102 -31q-94 0 -141 65l51 45q21 -21 31 -27q25 -17 55 -17q31 0 48 13t17 35q0 21 -15 32.5t-29 13t-36 1.5h-30v64h25q17 0 26.5 1t23.5 4.5t20.5 13.5
t6.5 26q0 17 -13 30.5t-39 13.5q-43 0 -83 -42l-49 44q23 26 41 38q39 26 93 26q55 0 91.5 -29t36.5 -76q0 -32 -16 -53.5t-34 -26.5q22 -7 41.5 -26t19.5 -53zM683 659l-402 -695l-69 40l402 694z" />
    <glyph glyph-name="questiondown" unicode="&#xbf;" horiz-adv-x="520" 
d="M31 -13q0 78 87 150l38 29.5t30 23.5t16.5 18t12 24t2.5 30v35h120v-31q0 -65 -20.5 -97t-89.5 -83q-23 -17 -35 -28t-23 -30.5t-11 -42.5q0 -38 26.5 -60t76.5 -22q79 0 148 82l80 -67q-92 -121 -235 -121q-98 0 -160.5 51t-62.5 139zM202 428q0 31 21.5 52.5t53.5 21.5
t53.5 -21.5t21.5 -52.5q0 -32 -21.5 -53t-53.5 -21t-53.5 21t-21.5 53z" />
    <glyph glyph-name="Agrave" unicode="&#xc0;" horiz-adv-x="706" 
d="M700 0h-136l-61 147h-304l-61 -147h-132l279 678h136zM466 252l-115 293l-114 -293h229zM439 747h-97l-122 133h128z" />
    <glyph glyph-name="Aacute" unicode="&#xc1;" horiz-adv-x="706" 
d="M700 0h-136l-61 147h-304l-61 -147h-132l279 678h136zM466 252l-115 293l-114 -293h229zM485 880l-122 -133h-97l90 133h129z" />
    <glyph glyph-name="Acircumflex" unicode="&#xc2;" horiz-adv-x="706" 
d="M700 0h-136l-61 147h-304l-61 -147h-132l279 678h136zM466 252l-115 293l-114 -293h229zM513 747h-95l-65 73l-66 -73h-95l91 133h140z" />
    <glyph glyph-name="Atilde" unicode="&#xc3;" horiz-adv-x="706" 
d="M700 0h-136l-61 147h-304l-61 -147h-132l279 678h136zM466 252l-115 293l-114 -293h229zM511 873q0 -16 -2 -24q-4 -47 -29 -72t-68 -25q-24 0 -62 19t-53 19q-32 0 -32 -35h-71q0 54 25 87.5t76 33.5q26 0 63.5 -18.5t51.5 -18.5q32 0 32 34h69z" />
    <glyph glyph-name="Adieresis" unicode="&#xc4;" horiz-adv-x="706" 
d="M700 0h-136l-61 147h-304l-61 -147h-132l279 678h136zM466 252l-115 293l-114 -293h229zM319 815q0 -26 -18.5 -44t-44.5 -18t-44.5 18t-18.5 44t18.5 44t44.5 18t44.5 -18t18.5 -44zM512 815q0 -26 -18.5 -44t-44.5 -18t-44.5 18t-18.5 44t18.5 44t44.5 18t44.5 -18
t18.5 -44z" />
    <glyph glyph-name="Aring" unicode="&#xc5;" horiz-adv-x="706" 
d="M700 0h-136l-61 147h-304l-61 -147h-132l279 678h136zM466 252l-115 293l-114 -293h229zM458 816q0 -44 -31.5 -74.5t-75.5 -30.5t-75 30.5t-31 74.5t31 75t75 31t75.5 -31t31.5 -75zM397 816q0 20 -13.5 33.5t-32.5 13.5t-32 -13.5t-13 -33.5q0 -19 13 -32.5t32 -13.5
t32.5 13.5t13.5 32.5z" />
    <glyph glyph-name="AE" unicode="&#xc6;" horiz-adv-x="1010" 
d="M968 0h-470v158h-256l-100 -158h-148l435 678h527v-107h-333v-175h310v-105h-310v-183h345v-108zM498 263v318l-195 -318h195z" />
    <glyph glyph-name="Ccedilla" unicode="&#xc7;" horiz-adv-x="700" 
d="M289 -74l40 63q-127 15 -207 109t-80 241q0 153 93 254t257 101q61 0 112.5 -14.5t83.5 -37.5t47.5 -38t25.5 -29l-78 -73q-72 84 -187 84q-109 0 -166 -71t-57 -175q0 -105 59.5 -176t162.5 -71q117 0 202 85l74 -76l-14.5 -16t-34 -28.5t-56 -35.5t-76 -26t-98.5 -12
l-19 -27q6 2 14 2q46 0 71 -22.5t25 -58.5q0 -39 -31.5 -63.5t-79.5 -24.5q-60 0 -95 35l35 44q26 -22 56 -22q41 0 41 32t-36 32q-21 0 -36 -15z" />
    <glyph glyph-name="Egrave" unicode="&#xc8;" horiz-adv-x="620" 
d="M578 0h-506v678h493v-107h-366v-175h341v-105h-341v-183h379v-108zM413 747h-97l-122 133h128z" />
    <glyph glyph-name="Eacute" unicode="&#xc9;" horiz-adv-x="620" 
d="M578 0h-506v678h493v-107h-366v-175h341v-105h-341v-183h379v-108zM459 880l-122 -133h-97l90 133h129z" />
    <glyph glyph-name="Ecircumflex" unicode="&#xca;" horiz-adv-x="620" 
d="M578 0h-506v678h493v-107h-366v-175h341v-105h-341v-183h379v-108zM485 747h-95l-65 73l-66 -73h-95l91 133h140z" />
    <glyph glyph-name="Edieresis" unicode="&#xcb;" horiz-adv-x="620" 
d="M578 0h-506v678h493v-107h-366v-175h341v-105h-341v-183h379v-108zM293 815q0 -26 -18.5 -44t-44.5 -18t-44.5 18t-18.5 44t18.5 44t44.5 18t44.5 -18t18.5 -44zM486 815q0 -26 -18.5 -44t-44.5 -18t-44.5 18t-18.5 44t18.5 44t44.5 18t44.5 -18t18.5 -44z" />
    <glyph glyph-name="Igrave" unicode="&#xcc;" horiz-adv-x="271" 
d="M199 0h-127v678h127v-678zM214 747h-97l-122 133h128z" />
    <glyph glyph-name="Iacute" unicode="&#xcd;" horiz-adv-x="271" 
d="M199 0h-127v678h127v-678zM276 880l-122 -133h-97l90 133h129z" />
    <glyph glyph-name="Icircumflex" unicode="&#xce;" horiz-adv-x="271" 
d="M199 0h-127v678h127v-678zM296 747h-95l-65 73l-66 -73h-95l91 133h140z" />
    <glyph glyph-name="Idieresis" unicode="&#xcf;" horiz-adv-x="271" 
d="M199 0h-127v678h127v-678zM102 815q0 -26 -18.5 -44t-44.5 -18t-44.5 18t-18.5 44t18.5 44t44.5 18t44.5 -18t18.5 -44zM295 815q0 -26 -18.5 -44t-44.5 -18t-44.5 18t-18.5 44t18.5 44t44.5 18t44.5 -18t18.5 -44z" />
    <glyph glyph-name="Eth" unicode="&#xd0;" horiz-adv-x="769" 
d="M727 342q0 -161 -102 -254q-34 -31 -73.5 -50.5t-84 -27t-71.5 -9t-70 -1.5h-216v292h-104v103h104v283h216q103 0 173.5 -14.5t125.5 -64.5q102 -93 102 -257zM596 343q0 115 -64 180q-32 32 -73 40.5t-107 8.5h-115v-177h182v-103h-182v-185h96q46 0 71 2t61.5 14.5
t63.5 37.5q67 63 67 182z" />
    <glyph glyph-name="Ntilde" unicode="&#xd1;" horiz-adv-x="726" 
d="M654 0h-125l-336 479v-479h-121v678h128l333 -475v475h121v-678zM523 874q0 -16 -2 -24q-4 -47 -29 -72t-68 -25q-24 0 -62 19t-53 19q-32 0 -32 -35h-71q0 54 25 87.5t76 33.5q26 0 63.5 -18.5t51.5 -18.5q32 0 32 34h69z" />
    <glyph glyph-name="Ograve" unicode="&#xd2;" horiz-adv-x="786" 
d="M744 339q0 -67 -22 -129t-64 -113.5t-110.5 -82t-154.5 -30.5t-154.5 30.5t-110.5 82t-64 113.5t-22 129t22 129t64 113.5t110.5 82t154.5 30.5t154.5 -30.5t110.5 -82t64 -113.5t22 -129zM613 339q0 104 -57 176.5t-163 72.5q-105 0 -162.5 -72.5t-57.5 -176.5
t57.5 -176t162.5 -72q106 0 163 72t57 176zM482 747h-97l-122 133h128z" />
    <glyph glyph-name="Oacute" unicode="&#xd3;" horiz-adv-x="786" 
d="M744 339q0 -67 -22 -129t-64 -113.5t-110.5 -82t-154.5 -30.5t-154.5 30.5t-110.5 82t-64 113.5t-22 129t22 129t64 113.5t110.5 82t154.5 30.5t154.5 -30.5t110.5 -82t64 -113.5t22 -129zM613 339q0 104 -57 176.5t-163 72.5q-105 0 -162.5 -72.5t-57.5 -176.5
t57.5 -176t162.5 -72q106 0 163 72t57 176zM524 880l-122 -133h-97l90 133h129z" />
    <glyph glyph-name="Ocircumflex" unicode="&#xd4;" horiz-adv-x="786" 
d="M744 339q0 -67 -22 -129t-64 -113.5t-110.5 -82t-154.5 -30.5t-154.5 30.5t-110.5 82t-64 113.5t-22 129t22 129t64 113.5t110.5 82t154.5 30.5t154.5 -30.5t110.5 -82t64 -113.5t22 -129zM613 339q0 104 -57 176.5t-163 72.5q-105 0 -162.5 -72.5t-57.5 -176.5
t57.5 -176t162.5 -72q106 0 163 72t57 176zM553 747h-95l-65 73l-66 -73h-95l91 133h140z" />
    <glyph glyph-name="Otilde" unicode="&#xd5;" horiz-adv-x="786" 
d="M744 339q0 -67 -22 -129t-64 -113.5t-110.5 -82t-154.5 -30.5t-154.5 30.5t-110.5 82t-64 113.5t-22 129t22 129t64 113.5t110.5 82t154.5 30.5t154.5 -30.5t110.5 -82t64 -113.5t22 -129zM613 339q0 104 -57 176.5t-163 72.5q-105 0 -162.5 -72.5t-57.5 -176.5
t57.5 -176t162.5 -72q106 0 163 72t57 176zM551 873q0 -16 -2 -24q-4 -47 -29 -72t-68 -25q-24 0 -62 19t-53 19q-32 0 -32 -35h-71q0 54 25 87.5t76 33.5q26 0 63.5 -18.5t51.5 -18.5q32 0 32 34h69z" />
    <glyph glyph-name="Odieresis" unicode="&#xd6;" horiz-adv-x="786" 
d="M744 339q0 -67 -22 -129t-64 -113.5t-110.5 -82t-154.5 -30.5t-154.5 30.5t-110.5 82t-64 113.5t-22 129t22 129t64 113.5t110.5 82t154.5 30.5t154.5 -30.5t110.5 -82t64 -113.5t22 -129zM613 339q0 104 -57 176.5t-163 72.5q-105 0 -162.5 -72.5t-57.5 -176.5
t57.5 -176t162.5 -72q106 0 163 72t57 176zM359 815q0 -26 -18.5 -44t-44.5 -18t-44.5 18t-18.5 44t18.5 44t44.5 18t44.5 -18t18.5 -44zM552 815q0 -26 -18.5 -44t-44.5 -18t-44.5 18t-18.5 44t18.5 44t44.5 18t44.5 -18t18.5 -44z" />
    <glyph glyph-name="multiply" unicode="&#xd7;" 
d="M549 83l-75 -75l-170 169l-169 -169l-75 74l169 169l-169 170l75 75l170 -170l170 170l74 -75l-169 -169z" />
    <glyph glyph-name="Oslash" unicode="&#xd8;" horiz-adv-x="791" 
d="M744 339q0 -67 -22 -129t-64 -113.5t-110.5 -82t-154.5 -30.5q-125 0 -209 63l-67 -69l-75 72l69 69q-69 94 -69 220q0 67 22 129t64 113.5t110.5 82t154.5 30.5q120 0 214 -64l69 69l73 -70l-71 -74q66 -92 66 -216zM201 210l324 335q-50 43 -132 43
q-105 0 -162.5 -72.5t-57.5 -176.5q0 -73 28 -129zM613 339q0 72 -26 124l-322 -331q50 -41 128 -41q106 0 163 72t57 176z" />
    <glyph glyph-name="Ugrave" unicode="&#xd9;" horiz-adv-x="718" 
d="M652 285q0 -72 -14.5 -123t-58.5 -95q-83 -82 -220 -82t-221 84q-43 43 -57.5 96.5t-14.5 120.5v392h127v-375q0 -38 1.5 -59t12 -52t30.5 -51q45 -47 123 -47t121 45q27 27 35.5 64t8.5 93v382h127v-393zM447 747h-97l-122 133h128z" />
    <glyph glyph-name="Uacute" unicode="&#xda;" horiz-adv-x="718" 
d="M652 285q0 -72 -14.5 -123t-58.5 -95q-83 -82 -220 -82t-221 84q-43 43 -57.5 96.5t-14.5 120.5v392h127v-375q0 -38 1.5 -59t12 -52t30.5 -51q45 -47 123 -47t121 45q27 27 35.5 64t8.5 93v382h127v-393zM490 880l-122 -133h-97l90 133h129z" />
    <glyph glyph-name="Ucircumflex" unicode="&#xdb;" horiz-adv-x="718" 
d="M652 285q0 -72 -14.5 -123t-58.5 -95q-83 -82 -220 -82t-221 84q-43 43 -57.5 96.5t-14.5 120.5v392h127v-375q0 -38 1.5 -59t12 -52t30.5 -51q45 -47 123 -47t121 45q27 27 35.5 64t8.5 93v382h127v-393zM520 747h-95l-65 73l-66 -73h-95l91 133h140z" />
    <glyph glyph-name="Udieresis" unicode="&#xdc;" horiz-adv-x="718" 
d="M652 285q0 -72 -14.5 -123t-58.5 -95q-83 -82 -220 -82t-221 84q-43 43 -57.5 96.5t-14.5 120.5v392h127v-375q0 -38 1.5 -59t12 -52t30.5 -51q45 -47 123 -47t121 45q27 27 35.5 64t8.5 93v382h127v-393zM325 815q0 -26 -18.5 -44t-44.5 -18t-44.5 18t-18.5 44t18.5 44
t44.5 18t44.5 -18t18.5 -44zM518 815q0 -26 -18.5 -44t-44.5 -18t-44.5 18t-18.5 44t18.5 44t44.5 18t44.5 -18t18.5 -44z" />
    <glyph glyph-name="Yacute" unicode="&#xdd;" horiz-adv-x="632" 
d="M626 678l-247 -393v-285h-127v285l-246 393h145l167 -279l169 279h139zM447 880l-122 -133h-97l90 133h129z" />
    <glyph glyph-name="Thorn" unicode="&#xde;" horiz-adv-x="630" 
d="M612 354q0 -87 -48 -139q-69 -78 -229 -78h-136v-137h-127v678h127v-116h104q91 0 144 -9t93 -43q72 -60 72 -156zM485 352q0 42 -24 69q-22 24 -59.5 31t-96.5 7h-106v-219h131q95 0 132 41q23 25 23 71z" />
    <glyph glyph-name="germandbls" unicode="&#xdf;" horiz-adv-x="577" 
d="M551 192q0 -52 -19.5 -92t-52.5 -63.5t-72.5 -35.5t-83.5 -12q-64 0 -106 21l30 90q26 -13 64 -13q50 0 85 28t35 81q0 44 -28 72q-36 34 -135 34h-30v98h26q82 0 113 35q23 25 23 65q0 43 -31.5 70t-80.5 27q-54 0 -84 -31q-19 -19 -24.5 -44.5t-5.5 -68.5v-453h-120
v452q0 129 60 185q61 57 171 57q105 0 168 -48.5t63 -133.5q0 -65 -36 -104t-70 -45q16 -2 36.5 -11t45.5 -27.5t42 -53t17 -79.5z" />
    <glyph glyph-name="agrave" unicode="&#xe0;" horiz-adv-x="528" 
d="M474 0h-108l-3 54q-57 -66 -158 -66q-71 0 -120 39t-49 113q0 61 39 100q59 59 171 59h112v6q0 95 -105 95q-75 0 -136 -61l-64 68q4 5 10 11.5t25 21.5t41 26t57.5 20t73.5 9q107 0 162 -55q34 -34 43 -75.5t9 -113.5v-251zM358 217h-70q-22 0 -35.5 -0.5t-34.5 -4.5
t-33.5 -11.5t-22 -22t-9.5 -35.5q0 -32 22 -49t57 -17q58 0 93 33q30 27 33 75v32zM353 545h-97l-122 133h128z" />
    <glyph glyph-name="aacute" unicode="&#xe1;" horiz-adv-x="528" 
d="M474 0h-108l-3 54q-57 -66 -158 -66q-71 0 -120 39t-49 113q0 61 39 100q59 59 171 59h112v6q0 95 -105 95q-75 0 -136 -61l-64 68q4 5 10 11.5t25 21.5t41 26t57.5 20t73.5 9q107 0 162 -55q34 -34 43 -75.5t9 -113.5v-251zM358 217h-70q-22 0 -35.5 -0.5t-34.5 -4.5
t-33.5 -11.5t-22 -22t-9.5 -35.5q0 -32 22 -49t57 -17q58 0 93 33q30 27 33 75v32zM397 678l-122 -133h-97l90 133h129z" />
    <glyph glyph-name="acircumflex" unicode="&#xe2;" horiz-adv-x="528" 
d="M474 0h-108l-3 54q-57 -66 -158 -66q-71 0 -120 39t-49 113q0 61 39 100q59 59 171 59h112v6q0 95 -105 95q-75 0 -136 -61l-64 68q4 5 10 11.5t25 21.5t41 26t57.5 20t73.5 9q107 0 162 -55q34 -34 43 -75.5t9 -113.5v-251zM358 217h-70q-22 0 -35.5 -0.5t-34.5 -4.5
t-33.5 -11.5t-22 -22t-9.5 -35.5q0 -32 22 -49t57 -17q58 0 93 33q30 27 33 75v32zM424 545h-95l-65 73l-66 -73h-95l91 133h140z" />
    <glyph glyph-name="atilde" unicode="&#xe3;" horiz-adv-x="528" 
d="M474 0h-108l-3 54q-57 -66 -158 -66q-71 0 -120 39t-49 113q0 61 39 100q59 59 171 59h112v6q0 95 -105 95q-75 0 -136 -61l-64 68q4 5 10 11.5t25 21.5t41 26t57.5 20t73.5 9q107 0 162 -55q34 -34 43 -75.5t9 -113.5v-251zM358 217h-70q-22 0 -35.5 -0.5t-34.5 -4.5
t-33.5 -11.5t-22 -22t-9.5 -35.5q0 -32 22 -49t57 -17q58 0 93 33q30 27 33 75v32zM422 671q0 -16 -2 -24q-4 -47 -29 -72t-68 -25q-24 0 -62 19t-53 19q-32 0 -32 -35h-71q0 54 25 87.5t76 33.5q26 0 63.5 -18.5t51.5 -18.5q32 0 32 34h69z" />
    <glyph glyph-name="adieresis" unicode="&#xe4;" horiz-adv-x="528" 
d="M474 0h-108l-3 54q-57 -66 -158 -66q-71 0 -120 39t-49 113q0 61 39 100q59 59 171 59h112v6q0 95 -105 95q-75 0 -136 -61l-64 68q4 5 10 11.5t25 21.5t41 26t57.5 20t73.5 9q107 0 162 -55q34 -34 43 -75.5t9 -113.5v-251zM358 217h-70q-22 0 -35.5 -0.5t-34.5 -4.5
t-33.5 -11.5t-22 -22t-9.5 -35.5q0 -32 22 -49t57 -17q58 0 93 33q30 27 33 75v32zM230 612q0 -26 -18.5 -44t-44.5 -18t-44.5 18t-18.5 44t18.5 44t44.5 18t44.5 -18t18.5 -44zM423 612q0 -26 -18.5 -44t-44.5 -18t-44.5 18t-18.5 44t18.5 44t44.5 18t44.5 -18t18.5 -44z
" />
    <glyph glyph-name="aring" unicode="&#xe5;" horiz-adv-x="528" 
d="M474 0h-108l-3 54q-57 -66 -158 -66q-71 0 -120 39t-49 113q0 61 39 100q59 59 171 59h112v6q0 95 -105 95q-75 0 -136 -61l-64 68q4 5 10 11.5t25 21.5t41 26t57.5 20t73.5 9q107 0 162 -55q34 -34 43 -75.5t9 -113.5v-251zM358 217h-70q-22 0 -35.5 -0.5t-34.5 -4.5
t-33.5 -11.5t-22 -22t-9.5 -35.5q0 -32 22 -49t57 -17q58 0 93 33q30 27 33 75v32zM370 626q0 -44 -31.5 -74.5t-75.5 -30.5t-75 30.5t-31 74.5t31 75t75 31t75.5 -31t31.5 -75zM309 626q0 20 -13.5 33.5t-32.5 13.5t-32 -13.5t-13 -33.5q0 -19 13 -32.5t32 -13.5t32.5 13.5
t13.5 32.5z" />
    <glyph glyph-name="ae" unicode="&#xe6;" horiz-adv-x="869" 
d="M716 292q0 36 -28.5 74t-89.5 38q-62 0 -92.5 -39.5t-30.5 -72.5h241zM358 214h-85q-120 0 -120 -72q0 -32 22 -48.5t57 -16.5q58 0 93 33q30 28 32 72q1 10 1 32zM425 425q67 70 176 70q100 0 160 -61q43 -42 57.5 -97t14.5 -130h-359q0 -50 33.5 -88.5t99.5 -38.5
q82 0 145 63l67 -62q-83 -96 -215 -96q-128 0 -195 90q-70 -90 -197 -90q-76 0 -126 39.5t-50 114.5q0 62 40 100q60 57 187 57h95v9q0 95 -105 95q-75 0 -136 -61l-64 68q4 5 10 11.5t25 21.5t41 26t57.5 20t73.5 9q120 0 165 -70z" />
    <glyph glyph-name="ccedilla" unicode="&#xe7;" horiz-adv-x="533" 
d="M212 -74l39 62q-95 11 -155 79t-60 173q0 106 68 180.5t193 74.5q40 0 75.5 -9.5t57.5 -21.5t40.5 -28t25 -24t9.5 -13l-73 -64l-7 7l-13 12.5t-18.5 13.5t-25 14t-30.5 10t-37 4q-68 0 -104.5 -46t-36.5 -111t36 -110t103 -45q83 0 136 64l72 -62q-3 -5 -9 -12.5
t-22.5 -23t-36.5 -28t-53 -23.5t-70 -13l-20 -29q6 2 14 2q46 0 71 -22.5t25 -58.5q0 -39 -31.5 -63.5t-79.5 -24.5q-60 0 -95 35l35 44q26 -22 56 -22q41 0 41 32t-36 32q-21 0 -36 -15z" />
    <glyph glyph-name="egrave" unicode="&#xe8;" horiz-adv-x="555" 
d="M519 202h-360q0 -46 34.5 -84t99.5 -38q86 0 145 63l67 -62q-83 -96 -216 -96q-123 0 -188 72.5t-65 180.5q0 107 66 182t185 75q99 0 160 -61q44 -44 58 -99.5t14 -132.5zM401 288q0 21 -9 45.5t-37.5 47.5t-70.5 23q-33 0 -59 -14t-38.5 -34t-19 -37.5t-6.5 -30.5h240z
M376 545h-97l-122 133h128z" />
    <glyph glyph-name="eacute" unicode="&#xe9;" horiz-adv-x="555" 
d="M519 202h-360q0 -46 34.5 -84t99.5 -38q86 0 145 63l67 -62q-83 -96 -216 -96q-123 0 -188 72.5t-65 180.5q0 107 66 182t185 75q99 0 160 -61q44 -44 58 -99.5t14 -132.5zM401 288q0 21 -9 45.5t-37.5 47.5t-70.5 23q-33 0 -59 -14t-38.5 -34t-19 -37.5t-6.5 -30.5h240z
M399 678l-122 -133h-97l90 133h129z" />
    <glyph glyph-name="ecircumflex" unicode="&#xea;" horiz-adv-x="555" 
d="M519 202h-360q0 -46 34.5 -84t99.5 -38q86 0 145 63l67 -62q-83 -96 -216 -96q-123 0 -188 72.5t-65 180.5q0 107 66 182t185 75q99 0 160 -61q44 -44 58 -99.5t14 -132.5zM401 288q0 21 -9 45.5t-37.5 47.5t-70.5 23q-33 0 -59 -14t-38.5 -34t-19 -37.5t-6.5 -30.5h240z
M438 545h-95l-65 73l-66 -73h-95l91 133h140z" />
    <glyph glyph-name="edieresis" unicode="&#xeb;" horiz-adv-x="555" 
d="M519 202h-360q0 -46 34.5 -84t99.5 -38q86 0 145 63l67 -62q-83 -96 -216 -96q-123 0 -188 72.5t-65 180.5q0 107 66 182t185 75q99 0 160 -61q44 -44 58 -99.5t14 -132.5zM401 288q0 21 -9 45.5t-37.5 47.5t-70.5 23q-33 0 -59 -14t-38.5 -34t-19 -37.5t-6.5 -30.5h240z
M246 612q0 -26 -18.5 -44t-44.5 -18t-44.5 18t-18.5 44t18.5 44t44.5 18t44.5 -18t18.5 -44zM439 612q0 -26 -18.5 -44t-44.5 -18t-44.5 18t-18.5 44t18.5 44t44.5 18t44.5 -18t18.5 -44z" />
    <glyph glyph-name="igrave" unicode="&#xec;" horiz-adv-x="236" 
d="M178 0h-120v478h120v-478zM228 545h-97l-122 133h128z" />
    <glyph glyph-name="iacute" unicode="&#xed;" horiz-adv-x="236" 
d="M178 0h-120v478h120v-478zM249 678l-122 -133h-97l90 133h129z" />
    <glyph glyph-name="icircumflex" unicode="&#xee;" horiz-adv-x="236" 
d="M178 0h-120v478h120v-478zM278 545h-95l-65 73l-66 -73h-95l91 133h140z" />
    <glyph glyph-name="idieresis" unicode="&#xef;" horiz-adv-x="236" 
d="M178 0h-120v478h120v-478zM85 612q0 -26 -18.5 -44t-44.5 -18t-44.5 18t-18.5 44t18.5 44t44.5 18t44.5 -18t18.5 -44zM278 612q0 -26 -18.5 -44t-44.5 -18t-44.5 18t-18.5 44t18.5 44t44.5 18t44.5 -18t18.5 -44z" />
    <glyph glyph-name="eth" unicode="&#xf0;" horiz-adv-x="562" 
d="M526 245q0 -110 -63 -185t-183 -75q-116 0 -180 65t-64 167q0 105 68.5 165.5t162.5 60.5q42 0 80 -21q-40 52 -106 108l-67 -64l-64 57l65 63l-76 63l76 74q51 -37 80 -61l63 61l63 -57l-60 -60q42 -38 72 -70.5t63.5 -79t51.5 -100.5t18 -111zM403 215q0 56 -32 93.5
t-89 37.5q-58 0 -90 -34.5t-32 -93.5q0 -61 31.5 -97.5t88.5 -36.5t90 38t33 93z" />
    <glyph glyph-name="ntilde" unicode="&#xf1;" horiz-adv-x="567" 
d="M513 0h-120v269q0 76 -29 99q-25 23 -70 23q-48 0 -80 -32q-22 -22 -28 -55.5t-6 -88.5v-215h-120v478h114l2 -60q64 77 160 77q79 0 130 -51q47 -48 47 -155v-289zM442 671q0 -16 -2 -24q-4 -47 -29 -72t-68 -25q-24 0 -62 19t-53 19q-32 0 -32 -35h-71q0 54 25 87.5
t76 33.5q26 0 63.5 -18.5t51.5 -18.5q32 0 32 34h69z" />
    <glyph glyph-name="ograve" unicode="&#xf2;" horiz-adv-x="597" 
d="M561 240q0 -102 -67.5 -178.5t-194.5 -76.5q-66 0 -118 22.5t-82.5 59.5t-46.5 81.5t-16 91.5t16 91.5t46.5 81.5t82.5 59.5t118 22.5q127 0 194.5 -76.5t67.5 -178.5zM437 240q0 77 -43 120q-36 36 -95 36q-61 0 -95 -36q-44 -46 -44 -120t44 -120q34 -36 95 -36
q59 0 95 36q43 45 43 120zM397 545h-97l-122 133h128z" />
    <glyph glyph-name="oacute" unicode="&#xf3;" horiz-adv-x="597" 
d="M561 240q0 -102 -67.5 -178.5t-194.5 -76.5q-66 0 -118 22.5t-82.5 59.5t-46.5 81.5t-16 91.5t16 91.5t46.5 81.5t82.5 59.5t118 22.5q127 0 194.5 -76.5t67.5 -178.5zM437 240q0 77 -43 120q-36 36 -95 36q-61 0 -95 -36q-44 -46 -44 -120t44 -120q34 -36 95 -36
q59 0 95 36q43 45 43 120zM420 678l-122 -133h-97l90 133h129z" />
    <glyph glyph-name="ocircumflex" unicode="&#xf4;" horiz-adv-x="597" 
d="M561 240q0 -102 -67.5 -178.5t-194.5 -76.5q-66 0 -118 22.5t-82.5 59.5t-46.5 81.5t-16 91.5t16 91.5t46.5 81.5t82.5 59.5t118 22.5q127 0 194.5 -76.5t67.5 -178.5zM437 240q0 77 -43 120q-36 36 -95 36q-61 0 -95 -36q-44 -46 -44 -120t44 -120q34 -36 95 -36
q59 0 95 36q43 45 43 120zM459 545h-95l-65 73l-66 -73h-95l91 133h140z" />
    <glyph glyph-name="otilde" unicode="&#xf5;" horiz-adv-x="597" 
d="M561 240q0 -102 -67.5 -178.5t-194.5 -76.5q-66 0 -118 22.5t-82.5 59.5t-46.5 81.5t-16 91.5t16 91.5t46.5 81.5t82.5 59.5t118 22.5q127 0 194.5 -76.5t67.5 -178.5zM437 240q0 77 -43 120q-36 36 -95 36q-61 0 -95 -36q-44 -46 -44 -120t44 -120q34 -36 95 -36
q59 0 95 36q43 45 43 120zM457 671q0 -16 -2 -24q-4 -47 -29 -72t-68 -25q-24 0 -62 19t-53 19q-32 0 -32 -35h-71q0 54 25 87.5t76 33.5q26 0 63.5 -18.5t51.5 -18.5q32 0 32 34h69z" />
    <glyph glyph-name="odieresis" unicode="&#xf6;" horiz-adv-x="597" 
d="M561 240q0 -102 -67.5 -178.5t-194.5 -76.5q-66 0 -118 22.5t-82.5 59.5t-46.5 81.5t-16 91.5t16 91.5t46.5 81.5t82.5 59.5t118 22.5q127 0 194.5 -76.5t67.5 -178.5zM437 240q0 77 -43 120q-36 36 -95 36q-61 0 -95 -36q-44 -46 -44 -120t44 -120q34 -36 95 -36
q59 0 95 36q43 45 43 120zM265 612q0 -26 -18.5 -44t-44.5 -18t-44.5 18t-18.5 44t18.5 44t44.5 18t44.5 -18t18.5 -44zM458 612q0 -26 -18.5 -44t-44.5 -18t-44.5 18t-18.5 44t18.5 44t44.5 18t44.5 -18t18.5 -44z" />
    <glyph glyph-name="divide" unicode="&#xf7;" 
d="M569 200h-529v105h529v-105zM386 55q0 -31 -21.5 -52.5t-53.5 -21.5t-53.5 21.5t-21.5 52.5q0 32 21.5 53t53.5 21t53.5 -21t21.5 -53zM386 447q0 -31 -21.5 -52.5t-53.5 -21.5t-53.5 21.5t-21.5 52.5q0 32 21.5 53t53.5 21t53.5 -21t21.5 -53z" />
    <glyph glyph-name="oslash" unicode="&#xf8;" horiz-adv-x="604" 
d="M503 499l65 -62l-49 -47q45 -68 45 -150q0 -102 -67.5 -178.5t-194.5 -76.5q-96 0 -156 44l-47 -47l-63 61l49 46q-46 65 -46 151q0 102 67.5 178.5t194.5 76.5q92 0 155 -43zM378 375q-32 21 -76 21q-62 0 -97 -38q-42 -45 -42 -118q0 -33 11 -64zM440 240q0 42 -10 64
l-205 -199q30 -21 76 -21q63 0 97 37q42 44 42 119z" />
    <glyph glyph-name="ugrave" unicode="&#xf9;" horiz-adv-x="565" 
d="M505 0h-111l-3 62q-2 -4 -7 -10t-19 -18.5t-30.5 -22.5t-43.5 -17.5t-57 -7.5q-81 0 -129 46q-31 31 -41 70t-10 96v280h120v-271q0 -67 25 -91q26 -26 73 -26q48 0 79 31q30 30 33 102q1 18 1 55v200h120v-478zM379 545h-97l-122 133h128z" />
    <glyph glyph-name="uacute" unicode="&#xfa;" horiz-adv-x="565" 
d="M505 0h-111l-3 62q-2 -4 -7 -10t-19 -18.5t-30.5 -22.5t-43.5 -17.5t-57 -7.5q-81 0 -129 46q-31 31 -41 70t-10 96v280h120v-271q0 -67 25 -91q26 -26 73 -26q48 0 79 31q30 30 33 102q1 18 1 55v200h120v-478zM402 678l-122 -133h-97l90 133h129z" />
    <glyph glyph-name="ucircumflex" unicode="&#xfb;" horiz-adv-x="565" 
d="M505 0h-111l-3 62q-2 -4 -7 -10t-19 -18.5t-30.5 -22.5t-43.5 -17.5t-57 -7.5q-81 0 -129 46q-31 31 -41 70t-10 96v280h120v-271q0 -67 25 -91q26 -26 73 -26q48 0 79 31q30 30 33 102q1 18 1 55v200h120v-478zM441 545h-95l-65 73l-66 -73h-95l91 133h140z" />
    <glyph glyph-name="udieresis" unicode="&#xfc;" horiz-adv-x="565" 
d="M505 0h-111l-3 62q-2 -4 -7 -10t-19 -18.5t-30.5 -22.5t-43.5 -17.5t-57 -7.5q-81 0 -129 46q-31 31 -41 70t-10 96v280h120v-271q0 -67 25 -91q26 -26 73 -26q48 0 79 31q30 30 33 102q1 18 1 55v200h120v-478zM247 612q0 -26 -18.5 -44t-44.5 -18t-44.5 18t-18.5 44
t18.5 44t44.5 18t44.5 -18t18.5 -44zM440 612q0 -26 -18.5 -44t-44.5 -18t-44.5 18t-18.5 44t18.5 44t44.5 18t44.5 -18t18.5 -44z" />
    <glyph glyph-name="yacute" unicode="&#xfd;" horiz-adv-x="526" 
d="M526 478l-227 -540q-25 -61 -66.5 -99.5t-117.5 -38.5q-57 0 -91 23l34 87q22 -10 46 -10q30 0 48 13.5t32 41.5q3 6 21 48l-205 475h128l137 -340l137 340h124zM409 678l-122 -133h-97l90 133h129z" />
    <glyph glyph-name="thorn" unicode="&#xfe;" horiz-adv-x="611" 
d="M451 237q0 75 -37 117t-98 42q-59 0 -98.5 -43.5t-39.5 -114.5q0 -70 38.5 -112t98.5 -42q61 0 98.5 42.5t37.5 110.5zM575 238q0 -102 -64 -177.5t-175 -75.5q-46 0 -83.5 15t-50.5 27t-22 24v-237h-120v864h120v-258q7 10 21 23.5t56.5 32.5t92.5 19q40 0 78 -14
t72 -43t54.5 -80.5t20.5 -119.5z" />
    <glyph glyph-name="ydieresis" unicode="&#xff;" horiz-adv-x="526" 
d="M526 478l-227 -540q-25 -61 -66.5 -99.5t-117.5 -38.5q-57 0 -91 23l34 87q22 -10 46 -10q30 0 48 13.5t32 41.5q3 6 21 48l-205 475h128l137 -340l137 340h124zM230 612q0 -26 -18.5 -44t-44.5 -18t-44.5 18t-18.5 44t18.5 44t44.5 18t44.5 -18t18.5 -44zM423 612
q0 -26 -18.5 -44t-44.5 -18t-44.5 18t-18.5 44t18.5 44t44.5 18t44.5 -18t18.5 -44z" />
    <glyph glyph-name="Idotaccent" unicode="&#x130;" horiz-adv-x="271" 
d="M199 0h-127v678h127v-678zM199 818q0 -26 -18 -44t-44 -18t-45 18t-19 44t18.5 44t44.5 18t44.5 -18t18.5 -44z" />
    <glyph glyph-name="dotlessi" unicode="&#x131;" horiz-adv-x="240" 
d="M180 0h-120v478h120v-478z" />
    <glyph glyph-name="Lslash" unicode="&#x141;" horiz-adv-x="595" 
d="M589 0h-477v231l-47 -45l-71 72l118 108v312h127v-211l86 81l71 -74l-157 -147v-219h350v-108z" />
    <glyph glyph-name="lslash" unicode="&#x142;" horiz-adv-x="349" 
d="M355 433l-120 -112v-321h-120v231l-49 -47l-71 72l120 110v312h120v-219l50 48z" />
    <glyph glyph-name="OE" unicode="&#x152;" horiz-adv-x="1134" 
d="M1092 0h-470v83q-81 -99 -232 -99q-85 0 -153 30.5t-109.5 82t-63.5 113.5t-22 129t22 129t63.5 113.5t109.5 82t153 30.5q152 0 232 -99v83h458v-107h-340v-175h317v-105h-317v-183h352v-108zM613 339q0 104 -57 176.5t-163 72.5q-105 0 -162.5 -72.5t-57.5 -176.5
t57.5 -176t162.5 -72q106 0 163 72t57 176z" />
    <glyph glyph-name="oe" unicode="&#x153;" horiz-adv-x="940" 
d="M786 288q0 21 -9 45.5t-37.5 47.5t-70.5 23q-33 0 -59 -14t-38.5 -34t-19 -37.5t-6.5 -30.5h240zM423 240q0 65 -34 110.5t-97 45.5q-64 0 -98 -45t-34 -111q0 -67 34.5 -111.5t98.5 -44.5q63 0 96.5 44.5t33.5 111.5zM674 -15q-127 0 -192 83q-68 -83 -190 -83
q-125 0 -190.5 76.5t-65.5 178.5t66 178.5t191 76.5q120 0 189 -85q65 85 190 85q99 0 160 -61q44 -44 58 -99.5t14 -132.5h-360q0 -46 34.5 -84t99.5 -38q86 0 145 63l67 -62q-83 -96 -216 -96z" />
    <glyph glyph-name="Scaron" unicode="&#x160;" horiz-adv-x="657" 
d="M603 193q0 -97 -78.5 -153t-206.5 -56q-183 0 -288 114l75 82l7 -7t11 -10.5t14.5 -12t19 -13.5t22.5 -13.5t28 -13t31.5 -10.5t37 -7.5t41.5 -2.5q73 0 115 25t42 73q0 30 -23.5 50t-61 30t-82.5 18.5t-90 21.5t-82.5 33.5t-61 60t-23.5 94.5q0 84 72 141t193 57
q55 0 103.5 -11t77 -24t53.5 -32t32 -27l15 -18l-76 -77q-76 85 -205 85q-64 0 -100.5 -23.5t-36.5 -65.5q0 -31 23.5 -50t61 -28.5t82.5 -17.5t90.5 -20.5t83 -33t61 -61t23.5 -97.5zM384 880h95l-90 -133h-140l-91 133h95l66 -73z" />
    <glyph glyph-name="scaron" unicode="&#x161;" horiz-adv-x="498" 
d="M462 141q0 -71 -60.5 -113.5t-159.5 -42.5q-41 0 -78.5 8t-60.5 18t-42 23t-26 19.5t-10 10.5l58 73q8 -8 21 -18t54 -26t85 -16q49 0 74.5 16t25.5 40q0 27 -31.5 40t-76.5 19.5t-90.5 17t-77 44t-31.5 89.5q0 66 56.5 109t149.5 43q143 0 210 -82l-62 -65
q-55 55 -143 55q-41 0 -66.5 -15t-25.5 -41t31.5 -38t76.5 -18t90.5 -16.5t77 -43.5t31.5 -90zM312 678h95l-90 -133h-140l-91 133h95l66 -73z" />
    <glyph glyph-name="Ydieresis" unicode="&#x178;" horiz-adv-x="632" 
d="M626 678l-247 -393v-285h-127v285l-246 393h145l167 -279l169 279h139zM284 815q0 -26 -18.5 -44t-44.5 -18t-44.5 18t-18.5 44t18.5 44t44.5 18t44.5 -18t18.5 -44zM477 815q0 -26 -18.5 -44t-44.5 -18t-44.5 18t-18.5 44t18.5 44t44.5 18t44.5 -18t18.5 -44z" />
    <glyph glyph-name="Zcaron" unicode="&#x17d;" horiz-adv-x="644" 
d="M602 0h-560v104l386 467h-372v107h533v-103l-386 -467h399v-108zM387 880h95l-90 -133h-140l-91 133h95l66 -73z" />
    <glyph glyph-name="zcaron" unicode="&#x17e;" horiz-adv-x="493" 
d="M463 0h-433v95l273 286h-263v97h413v-94l-270 -284h280v-100zM312 678h95l-90 -133h-140l-91 133h95l66 -73z" />
    <glyph glyph-name="florin" unicode="&#x192;" 
d="M604 670l-33 -91q-34 13 -64 13q-27 0 -48 -15q-25 -18 -38 -79l-10 -44h145v-97h-165l-82 -386q-21 -99 -78 -137q-47 -34 -120 -34q-59 0 -107 22l33 91q36 -13 64 -13q31 0 50 15q26 18 39 79l77 363h-96v97h116l15 67q21 98 77 137q50 36 118 36q55 0 107 -24z" />
    <glyph glyph-name="circumflex" unicode="&#x2c6;" horiz-adv-x="346" 
d="M334 545h-95l-65 73l-66 -73h-95l91 133h140z" />
    <glyph glyph-name="caron" unicode="&#x2c7;" horiz-adv-x="346" 
d="M238 678h95l-90 -133h-140l-91 133h95l66 -73z" />
    <glyph glyph-name="breve" unicode="&#x2d8;" horiz-adv-x="346" 
d="M328 678q0 -65 -42 -101t-113 -36t-112.5 36.5t-41.5 100.5h79q2 -28 21.5 -46.5t53.5 -18.5t53.5 18t21.5 47h80z" />
    <glyph glyph-name="dotaccent" unicode="&#x2d9;" horiz-adv-x="346" 
d="M236 618q0 -26 -18 -44t-44 -18t-45 18t-19 44t18.5 44t44.5 18t44.5 -18t18.5 -44z" />
    <glyph glyph-name="ring" unicode="&#x2da;" horiz-adv-x="346" 
d="M280 626q0 -44 -31.5 -74.5t-75.5 -30.5t-75 30.5t-31 74.5t31 75t75 31t75.5 -31t31.5 -75zM219 626q0 20 -13.5 33.5t-32.5 13.5t-32 -13.5t-13 -33.5q0 -19 13 -32.5t32 -13.5t32.5 13.5t13.5 32.5z" />
    <glyph glyph-name="ogonek" unicode="&#x2db;" horiz-adv-x="358" 
d="M283 -164q-41 -36 -98 -36q-45 0 -77.5 23t-32.5 72q0 60 65 107h138l-23 -10t-35 -19t-38.5 -32.5t-14.5 -38.5q0 -15 9.5 -24.5t24.5 -9.5q22 0 43 16z" />
    <glyph glyph-name="tilde" unicode="&#x2dc;" horiz-adv-x="346" 
d="M332 671q0 -16 -2 -24q-4 -47 -29 -72t-68 -25q-24 0 -62 19t-53 19q-32 0 -32 -35h-71q0 54 25 87.5t76 33.5q26 0 63.5 -18.5t51.5 -18.5q32 0 32 34h69z" />
    <glyph glyph-name="hungarumlaut" unicode="&#x2dd;" horiz-adv-x="346" 
d="M368 678l-122 -133h-93l91 133h124zM194 678l-122 -133h-93l91 133h124z" />
    <glyph glyph-name="Omega" unicode="&#x3a9;" horiz-adv-x="790" 
d="M749 0h-294v102q24 7 49 23.5t50.5 44.5t42 74t16.5 101q0 105 -56 173.5t-162 68.5t-162 -68.5t-56 -173.5q0 -55 16 -101t42 -74t50.5 -44.5t48.5 -23.5v-102h-293v108h121q-116 96 -116 247q0 66 22 126t63.5 108t109.5 76.5t153 28.5t153 -28.5t110 -76.5t64.5 -108
t22.5 -126q0 -150 -117 -247h122v-108z" />
    <glyph glyph-name="pi" unicode="&#x3c0;" horiz-adv-x="605" 
d="M575 478v-97h-73v-215q0 -40 14 -54q14 -13 57 -13v-99h-30q-88 0 -125 37q-35 35 -35 113v231h-157v-381h-120v381h-76v97h545z" />
    <glyph glyph-name="Euro.taboldstyle" unicode="&#xf64;" horiz-adv-x="546" 
d="M532 91q-69 -105 -204 -105q-55 0 -100.5 20.5t-73 52.5t-43.5 63.5t-22 60.5h-75v90h71q-2 14 -2 27q0 10 2 26h-71v91h76q14 80 74 141.5t160 61.5q117 0 182 -78q8 -9 20 -27l-76 -59q-25 33 -53 48.5t-68 15.5q-51 0 -79.5 -32t-40.5 -71h180v-91h-190q-2 -14 -2 -26
q0 -13 2 -27h190v-90h-180q8 -33 38.5 -65t84.5 -32q75 0 124 65z" />
    <glyph glyph-name="figuredash" unicode="&#x2012;" 
d="M563 200h-517v105h517v-105z" />
    <glyph glyph-name="endash" unicode="&#x2013;" horiz-adv-x="601" 
d="M559 200h-517v105h517v-105z" />
    <glyph glyph-name="emdash" unicode="&#x2014;" horiz-adv-x="952" 
d="M886 200h-820v105h820v-105z" />
    <glyph glyph-name="quoteleft" unicode="&#x2018;" horiz-adv-x="270" 
d="M42 422l108 256h78l-45 -256h-141z" />
    <glyph glyph-name="quoteright" unicode="&#x2019;" horiz-adv-x="270" 
d="M228 678l-108 -256h-78l45 256h141z" />
    <glyph glyph-name="quotesinglbase" unicode="&#x201a;" horiz-adv-x="258" 
d="M222 127l-108 -256h-78l45 256h141z" />
    <glyph glyph-name="quotedblleft" unicode="&#x201c;" horiz-adv-x="443" 
d="M30 422l108 256h78l-45 -256h-141zM227 422l108 256h78l-45 -256h-141z" />
    <glyph glyph-name="quotedblright" unicode="&#x201d;" horiz-adv-x="443" 
d="M413 678l-108 -256h-78l45 256h141zM216 678l-108 -256h-78l45 256h141z" />
    <glyph glyph-name="quotedblbase" unicode="&#x201e;" horiz-adv-x="455" 
d="M222 127l-108 -256h-78l45 256h141zM419 127l-108 -256h-78l45 256h141z" />
    <glyph glyph-name="dagger" unicode="&#x2020;" 
d="M569 373h-204v-489h-120v489h-205v105h205v200h120v-200h204v-105z" />
    <glyph glyph-name="daggerdbl" unicode="&#x2021;" 
d="M569 136h-204v-252h-120v252h-205v105h205v132h-205v105h205v200h120v-200h204v-105h-204v-132h204v-105z" />
    <glyph glyph-name="bullet" unicode="&#x2022;" horiz-adv-x="364" 
d="M292 254q0 -46 -32 -78t-78 -32t-78 32t-32 78t32 78t78 32t78 -32t32 -78z" />
    <glyph glyph-name="ellipsis" unicode="&#x2026;" horiz-adv-x="914" 
d="M208 63q0 -31 -21.5 -52.5t-53.5 -21.5t-53.5 21.5t-21.5 52.5q0 32 21.5 53t53.5 21t53.5 -21t21.5 -53zM856 63q0 -31 -21.5 -52.5t-53.5 -21.5t-53.5 21.5t-21.5 52.5q0 32 21.5 53t53.5 21t53.5 -21t21.5 -53zM532 63q0 -31 -21.5 -52.5t-53.5 -21.5t-53.5 21.5
t-21.5 52.5q0 32 21.5 53t53.5 21t53.5 -21t21.5 -53z" />
    <glyph glyph-name="perthousand" unicode="&#x2030;" horiz-adv-x="1257" 
d="M673 659l-402 -695l-69 40l402 694zM188 308q-72 0 -111 53t-39 137q0 85 39.5 137.5t111.5 52.5t111.5 -52.5t39.5 -137.5q0 -84 -40 -137t-112 -53zM189 623q-68 0 -68 -124t67 -124q69 0 69 124t-68 124zM1067 -8q-72 0 -111 53t-39 137q0 85 39.5 137.5t111.5 52.5
t111.5 -52.5t39.5 -137.5q0 -84 -40 -137t-112 -53zM1068 307q-68 0 -68 -124t67 -124q69 0 69 124t-68 124zM690 -8q-72 0 -111 53t-39 137q0 85 39.5 137.5t111.5 52.5t111.5 -52.5t39.5 -137.5q0 -84 -40 -137t-112 -53zM691 307q-68 0 -68 -124t67 -124q69 0 69 124
t-68 124z" />
    <glyph glyph-name="guilsinglleft" unicode="&#x2039;" horiz-adv-x="304" 
d="M250 92l-66 -45l-154 208l154 208l66 -45l-106 -163z" />
    <glyph glyph-name="guilsinglright" unicode="&#x203a;" horiz-adv-x="304" 
d="M120 47l-66 45l106 163l-106 163l66 45l154 -208z" />
    <glyph glyph-name="fraction" unicode="&#x2044;" horiz-adv-x="121" 
d="M296 659l-402 -695l-69 40l402 694z" />
    <glyph glyph-name="zerosuperior" unicode="&#x2070;" horiz-adv-x="378" 
d="M188 308q-72 0 -111 53t-39 137q0 85 39.5 137.5t111.5 52.5t111.5 -52.5t39.5 -137.5q0 -84 -40 -137t-112 -53zM189 623q-68 0 -68 -124t67 -124q69 0 69 124t-68 124z" />
    <glyph glyph-name="foursuperior" unicode="&#x2074;" horiz-adv-x="384" 
d="M336 389h-56v-75h-75v75h-167v57l165 232h77v-226h56v-63zM205 452v124l-89 -124h89z" />
    <glyph glyph-name="fivesuperior" unicode="&#x2075;" horiz-adv-x="376" 
d="M168 306q-82 0 -130 55l45 49q40 -38 84 -38q68 0 68 63q0 29 -16 43t-42 14q-42 0 -65 -39l-62 24l23 201h221v-66h-160l-9 -76q23 20 68 20q54 0 88.5 -31.5t34.5 -86.5q0 -59 -40.5 -95.5t-107.5 -36.5z" />
    <glyph glyph-name="sixsuperior" unicode="&#x2076;" horiz-adv-x="367" 
d="M189 308q-42 0 -72.5 16.5t-47 44.5t-24 58.5t-7.5 64.5q0 32 6.5 62.5t22.5 62.5t49 51.5t80 19.5q93 0 129 -59l-48 -43q-35 38 -78 38q-42 0 -63 -33t-21 -75q23 44 91 44q54 0 88.5 -32.5t34.5 -87.5q0 -56 -39 -94t-101 -38zM190 495q-29 0 -46.5 -17.5t-17.5 -44.5
t17 -44t46 -17q27 0 44 17.5t17 44.5t-16.5 44t-43.5 17z" />
    <glyph glyph-name="sevensuperior" unicode="&#x2077;" horiz-adv-x="396" 
d="M184 314h-89l154 296h-193v68h280v-60z" />
    <glyph glyph-name="eightsuperior" unicode="&#x2078;" horiz-adv-x="367" 
d="M184 308q-62 0 -104 29.5t-42 81.5q0 32 19 55t42 29q-20 7 -35 28t-15 51q0 50 38.5 78t96.5 28q57 0 96 -28t39 -78q0 -29 -15 -50.5t-35 -27.5q23 -7 41.5 -29.5t18.5 -55.5q0 -52 -42 -81.5t-103 -29.5zM184 628q-26 0 -42.5 -13.5t-16.5 -36.5q0 -22 16.5 -34.5
t42.5 -12.5t42.5 12.5t16.5 34.5q0 23 -16.5 36.5t-42.5 13.5zM183 473q-27 0 -46 -14t-19 -39q0 -23 19 -37t46 -14q28 0 47 14t19 37q0 25 -19 39t-47 14z" />
    <glyph glyph-name="ninesuperior" unicode="&#x2079;" horiz-adv-x="367" 
d="M178 688q42 0 72.5 -16.5t47 -44.5t24 -58.5t7.5 -64.5q0 -32 -6.5 -62.5t-22.5 -62.5t-49 -51.5t-80 -19.5q-93 0 -129 59l48 43q35 -38 78 -38q42 0 63 33t21 75q-23 -44 -91 -44q-54 0 -88.5 32.5t-34.5 87.5q0 56 39 94t101 38zM177 501q29 0 46.5 17.5t17.5 44.5
t-16.5 44t-46.5 17q-27 0 -44 -17.5t-17 -44.5t16.5 -44t43.5 -17z" />
    <glyph glyph-name="parenleftsuperior" unicode="&#x207d;" horiz-adv-x="235" 
d="M190 227q-72 47 -115 116.5t-43 153.5t45.5 157.5t114.5 114.5l43 -51q-120 -95 -120 -220q0 -124 120 -219z" />
    <glyph glyph-name="parenrightsuperior" unicode="&#x207e;" horiz-adv-x="235" 
d="M45 227l-45 52q120 95 120 219q0 125 -120 220l43 51q69 -41 114.5 -114.5t45.5 -157.5t-43 -153.5t-115 -116.5z" />
    <glyph glyph-name="zeroinferior" unicode="&#x2080;" horiz-adv-x="378" 
d="M188 -8q-72 0 -111 53t-39 137q0 85 39.5 137.5t111.5 52.5t111.5 -52.5t39.5 -137.5q0 -84 -40 -137t-112 -53zM189 307q-68 0 -68 -124t67 -124q69 0 69 124t-68 124z" />
    <glyph glyph-name="oneinferior" unicode="&#x2081;" horiz-adv-x="395" 
d="M76 0v67h95v211l-76 -46l-39 58l123 74h72v-297h94v-67h-269z" />
    <glyph glyph-name="twoinferior" unicode="&#x2082;" horiz-adv-x="388" 
d="M320 258q0 -42 -23.5 -68t-65.5 -50q-7 -4 -22.5 -12t-23.5 -13t-18.5 -12.5t-16.5 -16t-8 -17.5h176v-69h-260v23q0 38 8 64.5t34 51.5q9 9 22 18.5t22.5 15l26 15l23.5 13.5q47 28 47 58q0 21 -15 34.5t-39 13.5q-47 0 -89 -49l-50 44q61 70 140 70q57 0 94.5 -31
t37.5 -83z" />
    <glyph glyph-name="threeinferior" unicode="&#x2083;" horiz-adv-x="385" 
d="M325 108q0 -54 -40 -85t-102 -31q-94 0 -141 65l51 45q21 -21 31 -27q25 -17 55 -17q31 0 48 13t17 35q0 21 -15 32.5t-29 13t-36 1.5h-30v64h25q17 0 26.5 1t23.5 4.5t20.5 13.5t6.5 26q0 17 -13 30.5t-39 13.5q-43 0 -83 -42l-49 44q23 26 41 38q39 26 93 26
q55 0 91.5 -29t36.5 -76q0 -32 -16 -53.5t-34 -26.5q22 -7 41.5 -26t19.5 -53z" />
    <glyph glyph-name="fourinferior" unicode="&#x2084;" horiz-adv-x="384" 
d="M336 75h-56v-75h-75v75h-167v57l165 232h77v-226h56v-63zM205 138v124l-89 -124h89z" />
    <glyph glyph-name="fiveinferior" unicode="&#x2085;" horiz-adv-x="376" 
d="M168 -8q-82 0 -130 55l45 49q40 -38 84 -38q68 0 68 63q0 29 -16 43t-42 14q-42 0 -65 -39l-62 24l23 201h221v-66h-160l-9 -76q23 20 68 20q54 0 88.5 -31.5t34.5 -86.5q0 -59 -40.5 -95.5t-107.5 -36.5z" />
    <glyph glyph-name="sixinferior" unicode="&#x2086;" horiz-adv-x="367" 
d="M189 -8q-42 0 -72.5 16.5t-47 44.5t-24 58.5t-7.5 64.5q0 32 6.5 62.5t22.5 62.5t49 51.5t80 19.5q93 0 129 -59l-48 -43q-35 38 -78 38q-42 0 -63 -33t-21 -75q23 44 91 44q54 0 88.5 -32.5t34.5 -87.5q0 -56 -39 -94t-101 -38zM190 179q-29 0 -46.5 -17.5t-17.5 -44.5
t17 -44t46 -17q27 0 44 17.5t17 44.5t-16.5 44t-43.5 17z" />
    <glyph glyph-name="seveninferior" unicode="&#x2087;" horiz-adv-x="394" 
d="M182 0h-89l154 296h-193v68h280v-60z" />
    <glyph glyph-name="eightinferior" unicode="&#x2088;" horiz-adv-x="367" 
d="M184 -8q-62 0 -104 29.5t-42 81.5q0 32 19 55t42 29q-20 7 -35 28t-15 51q0 50 38.5 78t96.5 28q57 0 96 -28t39 -78q0 -29 -15 -50.5t-35 -27.5q23 -7 41.5 -29.5t18.5 -55.5q0 -52 -42 -81.5t-103 -29.5zM184 312q-26 0 -42.5 -13.5t-16.5 -36.5q0 -22 16.5 -34.5
t42.5 -12.5t42.5 12.5t16.5 34.5q0 23 -16.5 36.5t-42.5 13.5zM183 157q-27 0 -46 -14t-19 -39q0 -23 19 -37t46 -14q28 0 47 14t19 37q0 25 -19 39t-47 14z" />
    <glyph glyph-name="nineinferior" unicode="&#x2089;" horiz-adv-x="367" 
d="M178 372q42 0 72.5 -16.5t47 -44.5t24 -58.5t7.5 -64.5q0 -32 -6.5 -62.5t-22.5 -62.5t-49 -51.5t-80 -19.5q-93 0 -129 59l48 43q35 -38 78 -38q42 0 63 33t21 75q-23 -44 -91 -44q-54 0 -88.5 32.5t-34.5 87.5q0 56 39 94t101 38zM177 185q29 0 46.5 17.5t17.5 44.5
t-16.5 44t-46.5 17q-27 0 -44 -17.5t-17 -44.5t16.5 -44t43.5 -17z" />
    <glyph glyph-name="parenleftinferior" unicode="&#x208d;" horiz-adv-x="235" 
d="M190 -88q-72 47 -115 116.5t-43 153.5t45.5 157.5t114.5 114.5l43 -51q-120 -95 -120 -220q0 -124 120 -219z" />
    <glyph glyph-name="parenrightinferior" unicode="&#x208e;" horiz-adv-x="235" 
d="M45 -88l-45 52q120 95 120 219q0 125 -120 220l43 51q69 -41 114.5 -114.5t45.5 -157.5t-43 -153.5t-115 -116.5z" />
    <glyph glyph-name="franc" unicode="&#x20a3;" horiz-adv-x="0" 
 />
    <glyph glyph-name="lira" unicode="&#x20a4;" horiz-adv-x="0" 
 />
    <glyph glyph-name="peseta" unicode="&#x20a7;" horiz-adv-x="0" 
 />
    <glyph glyph-name="Euro" unicode="&#x20ac;" 
d="M587 95q-78 -111 -225 -111q-64 0 -115.5 24t-81.5 61t-46.5 71t-22.5 65h-87v97h77q-2 16 -2 34q0 16 2 34h-77v97h88q7 40 25.5 78t49 72.5t79 55.5t108.5 21q144 0 222 -111l-79 -61q-15 18 -27 29.5t-43 26t-68 14.5q-34 0 -61.5 -13.5t-43.5 -35t-25 -40t-13 -36.5
h205v-97h-216q-2 -18 -2 -34q0 -18 2 -34h216v-97h-206q10 -38 46.5 -78.5t100.5 -40.5q85 0 141 71z" />
    <glyph glyph-name="afii61352" unicode="&#x2116;" horiz-adv-x="1323" 
 />
    <glyph glyph-name="trademark" unicode="&#x2122;" horiz-adv-x="813" 
d="M759 298h-77v263l-89 -263h-68l-88 265v-265h-79v380h108l93 -273l93 273h107v-380zM312 605h-111v-307h-84v307h-111v73h306v-73z" />
    <glyph glyph-name="onethird" unicode="&#x2153;" horiz-adv-x="906" 
d="M846 108q0 -54 -40 -85t-102 -31q-94 0 -141 65l51 45q21 -21 31 -27q25 -17 55 -17q31 0 48 13t17 35q0 21 -15 32.5t-29 13t-36 1.5h-30v64h25q17 0 26.5 1t23.5 4.5t20.5 13.5t6.5 26q0 17 -13 30.5t-39 13.5q-43 0 -83 -42l-49 44q23 26 41 38q39 26 93 26
q55 0 91.5 -29t36.5 -76q0 -32 -16 -53.5t-34 -26.5q22 -7 41.5 -26t19.5 -53zM700 659l-402 -695l-69 40l402 694zM345 314h-269v67h95v211l-76 -47l-39 58l123 75h72v-297h94v-67z" />
    <glyph glyph-name="twothirds" unicode="&#x2154;" horiz-adv-x="891" 
d="M831 108q0 -54 -40 -85t-102 -31q-94 0 -141 65l51 45q21 -21 31 -27q25 -17 55 -17q31 0 48 13t17 35q0 21 -15 32.5t-29 13t-36 1.5h-30v64h25q17 0 26.5 1t23.5 4.5t20.5 13.5t6.5 26q0 17 -13 30.5t-39 13.5q-43 0 -83 -42l-49 44q23 26 41 38q39 26 93 26
q55 0 91.5 -29t36.5 -76q0 -32 -16 -53.5t-34 -26.5q22 -7 41.5 -26t19.5 -53zM685 659l-402 -695l-69 40l402 694zM320 574q0 -42 -23.5 -68t-65.5 -50q-7 -4 -22.5 -12t-23.5 -13t-18.5 -12.5t-16.5 -16t-8 -17.5h176v-69h-260v23q0 38 8 64.5t34 51.5q9 9 22 18.5
t22.5 15l26 15l23.5 13.5q47 28 47 58q0 21 -15 34.5t-39 13.5q-47 0 -89 -49l-50 44q61 70 140 70q57 0 94.5 -31t37.5 -83z" />
    <glyph glyph-name="oneeighth" unicode="&#x215b;" horiz-adv-x="892" 
d="M709 -8q-62 0 -104 29.5t-42 81.5q0 32 19 55t42 29q-20 7 -35 28t-15 51q0 50 38.5 78t96.5 28q57 0 96 -28t39 -78q0 -29 -15 -50.5t-35 -27.5q23 -7 41.5 -29.5t18.5 -55.5q0 -52 -42 -81.5t-103 -29.5zM709 312q-26 0 -42.5 -13.5t-16.5 -36.5q0 -22 16.5 -34.5
t42.5 -12.5t42.5 12.5t16.5 34.5q0 23 -16.5 36.5t-42.5 13.5zM708 157q-27 0 -46 -14t-19 -39q0 -23 19 -37t46 -14q28 0 47 14t19 37q0 25 -19 39t-47 14zM709 659l-402 -695l-69 40l402 694zM345 314h-269v67h95v211l-76 -47l-39 58l123 75h72v-297h94v-67z" />
    <glyph glyph-name="threeeighths" unicode="&#x215c;" horiz-adv-x="851" 
d="M325 424q0 -54 -40 -85t-102 -31q-94 0 -141 65l51 45q21 -21 31 -27q25 -17 55 -17q31 0 48 13t17 35q0 21 -15 32.5t-29 13t-36 1.5h-30v64h25q17 0 26.5 1t23.5 4.5t20.5 13.5t6.5 26q0 17 -13 30.5t-39 13.5q-43 0 -83 -42l-49 44q23 26 41 38q39 26 93 26
q55 0 91.5 -29t36.5 -76q0 -32 -16 -53.5t-34 -26.5q22 -7 41.5 -26t19.5 -53zM668 -8q-62 0 -104 29.5t-42 81.5q0 32 19 55t42 29q-20 7 -35 28t-15 51q0 50 38.5 78t96.5 28q57 0 96 -28t39 -78q0 -29 -15 -50.5t-35 -27.5q23 -7 41.5 -29.5t18.5 -55.5q0 -52 -42 -81.5
t-103 -29.5zM668 312q-26 0 -42.5 -13.5t-16.5 -36.5q0 -22 16.5 -34.5t42.5 -12.5t42.5 12.5t16.5 34.5q0 23 -16.5 36.5t-42.5 13.5zM667 157q-27 0 -46 -14t-19 -39q0 -23 19 -37t46 -14q28 0 47 14t19 37q0 25 -19 39t-47 14zM668 659l-402 -695l-69 40l402 694z" />
    <glyph glyph-name="fiveeighths" unicode="&#x215d;" horiz-adv-x="838" 
d="M655 -8q-62 0 -104 29.5t-42 81.5q0 32 19 55t42 29q-20 7 -35 28t-15 51q0 50 38.5 78t96.5 28q57 0 96 -28t39 -78q0 -29 -15 -50.5t-35 -27.5q23 -7 41.5 -29.5t18.5 -55.5q0 -52 -42 -81.5t-103 -29.5zM655 312q-26 0 -42.5 -13.5t-16.5 -36.5q0 -22 16.5 -34.5
t42.5 -12.5t42.5 12.5t16.5 34.5q0 23 -16.5 36.5t-42.5 13.5zM654 157q-27 0 -46 -14t-19 -39q0 -23 19 -37t46 -14q28 0 47 14t19 37q0 25 -19 39t-47 14zM655 659l-402 -695l-69 40l402 694zM168 306q-82 0 -130 55l45 49q40 -38 84 -38q68 0 68 63q0 29 -16 43t-42 14
q-42 0 -65 -39l-62 24l23 201h221v-66h-160l-9 -76q23 20 68 20q54 0 88.5 -31.5t34.5 -86.5q0 -59 -40.5 -95.5t-107.5 -36.5z" />
    <glyph glyph-name="seveneighths" unicode="&#x215e;" horiz-adv-x="808" 
d="M625 -8q-62 0 -104 29.5t-42 81.5q0 32 19 55t42 29q-20 7 -35 28t-15 51q0 50 38.5 78t96.5 28q57 0 96 -28t39 -78q0 -29 -15 -50.5t-35 -27.5q23 -7 41.5 -29.5t18.5 -55.5q0 -52 -42 -81.5t-103 -29.5zM625 312q-26 0 -42.5 -13.5t-16.5 -36.5q0 -22 16.5 -34.5
t42.5 -12.5t42.5 12.5t16.5 34.5q0 23 -16.5 36.5t-42.5 13.5zM624 157q-27 0 -46 -14t-19 -39q0 -23 19 -37t46 -14q28 0 47 14t19 37q0 25 -19 39t-47 14zM625 659l-402 -695l-69 40l402 694zM184 314h-89l154 296h-193v68h280v-60z" />
    <glyph glyph-name="partialdiff" unicode="&#x2202;" horiz-adv-x="605" 
d="M50 227q0 100 61 159.5t158 59.5q49 0 91.5 -19t61 -36.5t28.5 -32.5v11q0 37 -8.5 73t-27 71.5t-53.5 57t-82 21.5q-89 0 -143 -69l-75 68q72 103 225 103q67 0 118.5 -25t81.5 -63t49 -89.5t25.5 -97t6.5 -93.5q0 -65 -13 -121.5t-42 -108t-83.5 -81.5t-128.5 -30
q-113 0 -181.5 69t-68.5 173zM428 212q0 58 -36.5 94.5t-95.5 36.5q-56 0 -89.5 -35.5t-33.5 -92.5q0 -58 34.5 -94.5t91.5 -36.5q59 0 94 35.5t35 92.5z" />
    <glyph glyph-name="Delta" unicode="&#x2206;" horiz-adv-x="624" 
d="M630 0h-636l259 678h114zM467 108l-157 420l-155 -420h312z" />
    <glyph glyph-name="product" unicode="&#x220f;" horiz-adv-x="700" 
d="M682 571h-75v-571h-127v571h-259v-571h-127v571h-76v107h664v-107z" />
    <glyph glyph-name="summation" unicode="&#x2211;" horiz-adv-x="619" 
d="M589 0h-553v108l242 241l-227 222v107h525v-107h-361l228 -222l-243 -241h389v-108z" />
    <glyph glyph-name="minus" unicode="&#x2212;" 
d="M569 200h-529v105h529v-105z" />
    <glyph glyph-name="radical" unicode="&#x221a;" horiz-adv-x="597" 
d="M579 660l-208 -660h-110l-121 300h-100v105h169l102 -267l167 556z" />
    <glyph glyph-name="infinity" unicode="&#x221e;" horiz-adv-x="728" 
d="M674 341q0 -69 -42 -121.5t-115 -52.5q-86 0 -148 100q-60 -100 -152 -100q-75 0 -119 50t-44 122q0 70 44 121t117 51q44 0 81 -24q36 -23 70 -70q61 95 149 95q72 0 115.5 -51t43.5 -120zM590 342q0 38 -21.5 63t-59.5 25q-35 0 -65 -35q-24 -31 -34 -52
q1 -1 7.5 -12.5l11.5 -20t15 -21t19.5 -21t22 -15t24.5 -6.5q38 0 59 27.5t21 67.5zM324 345q-5 13 -38 47q-37 40 -73 40t-54.5 -28.5t-18.5 -67.5q0 -37 20.5 -63.5t56.5 -26.5q39 0 75 48q12 15 32 51z" />
    <glyph glyph-name="integral" unicode="&#x222b;" 
d="M545 676l-31 -92q-28 11 -60 11q-46 0 -68 -23q-21 -22 -21 -90v-474q0 -115 -64 -167q-51 -41 -136 -41q-62 0 -101 18l31 92q27 -11 60 -11q44 0 67 22t23 96v469q0 116 63 167q51 41 136 41q62 0 101 -18z" />
    <glyph glyph-name="approxequal" unicode="&#x2248;" 
d="M566 377q-64 -101 -160 -101q-45 0 -103 21.5t-86 21.5q-48 0 -90 -55l-83 62q64 102 157 102q47 0 103 -21.5t83 -21.5q51 0 95 54zM566 178q-64 -101 -160 -101q-45 0 -103 21.5t-86 21.5q-48 0 -90 -55l-83 62q64 102 157 102q47 0 103 -21.5t83 -21.5q51 0 95 54z
" />
    <glyph glyph-name="notequal" unicode="&#x2260;" 
d="M569 100h-310l-87 -125l-79 54l50 71h-103v105h175l66 95h-241v105h313l88 126l78 -54l-50 -72h100v-105h-171l-67 -95h238v-105z" />
    <glyph glyph-name="lessequal" unicode="&#x2264;" 
d="M569 0h-529v105h529v-105zM569 143l-529 201v110l529 202v-113l-396 -144l396 -143v-113z" />
    <glyph glyph-name="greaterequal" unicode="&#x2265;" 
d="M569 0h-529v105h529v-105zM569 344l-529 -201v113l396 143l-396 144v113l529 -202v-110z" />
    <glyph glyph-name="lozenge" unicode="&#x25ca;" 
d="M593 340l-228 -340h-120l-229 340l229 338h120zM470 340l-165 241l-165 -241l165 -243z" />
    <glyph glyph-name="Euro.fitted" unicode="&#xe002;" 
d="M587 95q-78 -111 -225 -111q-64 0 -115.5 24t-81.5 61t-46.5 71t-22.5 65h-87v97h77q-2 16 -2 34q0 16 2 34h-77v97h88q7 40 25.5 78t49 72.5t79 55.5t108.5 21q144 0 222 -111l-79 -61q-15 18 -27 29.5t-43 26t-68 14.5q-34 0 -61.5 -13.5t-43.5 -35t-25 -40t-13 -36.5
h205v-97h-216q-2 -18 -2 -34q0 -18 2 -34h216v-97h-206q10 -38 46.5 -78.5t100.5 -40.5q85 0 141 71z" />
    <glyph glyph-name="parenleft.dnom" unicode="&#xf62c;" horiz-adv-x="235" 
d="M190 -88q-72 47 -115 116.5t-43 153.5t45.5 157.5t114.5 114.5l43 -51q-120 -95 -120 -220q0 -124 120 -219z" />
    <glyph glyph-name="parenright.dnom" unicode="&#xf62d;" horiz-adv-x="235" 
d="M45 -88l-45 52q120 95 120 219q0 125 -120 220l43 51q69 -41 114.5 -114.5t45.5 -157.5t-43 -153.5t-115 -116.5z" />
    <glyph glyph-name="zero.fitted" unicode="&#xf639;" 
d="M571 339q0 -160 -70 -257t-197 -97t-196.5 97t-69.5 257t70 257.5t197 97.5t196.5 -97.5t69.5 -257.5zM443 339q0 251 -138 251q-139 0 -139 -251q0 -249 138 -249q139 0 139 249z" />
    <glyph glyph-name="two.fitted" unicode="&#xf63a;" 
d="M537 487q0 -53 -24 -96t-60.5 -69t-79.5 -52t-80.5 -46.5t-63.5 -51t-29 -66.5h334v-106h-463q0 32 1 48q2 63 17.5 109t58.5 89q33 33 85 65t89.5 52t66 52.5t28.5 71.5q0 48 -33 76t-83 28q-95 0 -167 -85l-74 69q91 119 244 119q103 0 168 -55.5t65 -151.5z" />
    <glyph glyph-name="three.fitted" unicode="&#xf63b;" 
d="M537 186q0 -91 -70 -146t-181 -55q-53 0 -98.5 12.5t-75.5 33t-45 34.5t-26 28l74 70q9 -11 24 -24.5t54.5 -32t83.5 -18.5q63 0 99.5 26t36.5 78q0 42 -27 67q-39 35 -143 35h-42v105h33q35 0 57.5 2.5t49.5 11t41 29t14 53.5q0 39 -27.5 67.5t-81.5 28.5
q-89 0 -156 -74l-73 70q89 107 233 107q97 0 161.5 -52.5t64.5 -136.5q0 -67 -35 -105.5t-72 -51.5q16 -4 34 -13.5t41 -27.5t37.5 -49.5t14.5 -71.5z" />
    <glyph glyph-name="four.fitted" unicode="&#xf63c;" 
d="M576 145h-103v-145h-121v145h-318v99l311 434h128v-433h103v-100zM352 245v277l-200 -277h200z" />
    <glyph glyph-name="five.fitted" unicode="&#xf63d;" 
d="M547 224q0 -109 -71.5 -174t-194.5 -65q-143 0 -225 91l69 77q71 -65 153 -65q66 0 105.5 34.5t39.5 99.5q0 59 -35.5 89t-88.5 30q-40 0 -71.5 -17t-40.5 -29t-14 -22l-96 38l39 367h388v-102h-297l-20 -182q53 46 142 46q95 0 156.5 -57.5t61.5 -158.5z" />
    <glyph glyph-name="six.fitted" unicode="&#xf63e;" 
d="M567 227q0 -104 -68.5 -173t-181.5 -69q-74 0 -128.5 30t-83.5 81.5t-42 108t-13 121.5q0 48 6.5 93.5t25.5 97t49 89.5t81.5 63t118.5 25q153 0 225 -103l-75 -68q-54 69 -143 69q-47 0 -82 -21.5t-53.5 -57t-27 -71.5t-8.5 -73v-11q10 15 28.5 32.5t61 36.5t91.5 19
q97 0 158 -59.5t61 -159.5zM189 212q0 -57 35 -92.5t94 -35.5q57 0 91.5 36.5t34.5 94.5q0 57 -33.5 92.5t-89.5 35.5q-59 0 -95.5 -36.5t-36.5 -94.5z" />
    <glyph glyph-name="seven.fitted" unicode="&#xf63f;" 
d="M553 578l-280 -578h-138l286 573h-365v105h497v-100z" />
    <glyph glyph-name="eight.fitted" unicode="&#xf640;" 
d="M564 185q0 -94 -73.5 -147.5t-185.5 -53.5t-186 53t-74 147q0 69 43.5 111.5t82.5 51.5q-36 13 -71 51.5t-35 103.5q0 90 67.5 141t171.5 51t172 -50.5t68 -140.5q0 -65 -35 -104t-71 -51q15 -4 33.5 -14t41 -29t37 -50.5t14.5 -69.5zM304 598q-52 0 -87 -26t-35 -77
q0 -50 35.5 -76t86.5 -26q52 0 87.5 26t35.5 76t-35.5 76.5t-87.5 26.5zM439 187q0 54 -39.5 83.5t-95.5 29.5q-55 0 -95 -29.5t-40 -82.5q0 -51 39.5 -79.5t95.5 -28.5t95.5 28t39.5 79z" />
    <glyph glyph-name="nine.fitted" unicode="&#xf641;" 
d="M42 452q0 104 68.5 173t181.5 69q74 0 128.5 -30t83.5 -81.5t42 -108t13 -121.5q0 -48 -6.5 -93.5t-25.5 -97t-49 -89.5t-81.5 -63t-118.5 -25q-153 0 -225 103l75 68q54 -69 143 -69q47 0 82 21.5t53.5 57t27 71.5t8.5 73v11q-10 -15 -28.5 -32.5t-61 -36.5t-91.5 -19
q-97 0 -158 59.5t-61 159.5zM420 467q0 57 -35 92.5t-94 35.5q-57 0 -91.5 -36.5t-34.5 -94.5q0 -57 33.5 -92.5t89.5 -35.5q59 0 95.5 36.5t36.5 94.5z" />
    <glyph glyph-name="zero.taboldstyle" unicode="&#xf643;" horiz-adv-x="546" 
d="M514 303q0 -141 -63.5 -229t-177.5 -88t-177.5 88t-63.5 229t64 229t178 88t177 -87.5t63 -229.5zM389 303q0 215 -115 215q-36 0 -60.5 -21t-36 -56t-16 -68t-4.5 -70q0 -215 116 -215t116 215z" />
    <glyph glyph-name="one.taboldstyle" unicode="&#xf644;" horiz-adv-x="546" 
d="M509 0h-428v101h153v376l-126 -81l-58 88l194 122h112v-505h153v-101z" />
    <glyph glyph-name="two.taboldstyle" unicode="&#xf645;" horiz-adv-x="546" 
d="M482 433q0 -72 -40.5 -116.5t-111.5 -84.5q-8 -5 -28.5 -16.5l-30.5 -17t-24 -15.5t-23 -19q-28 -26 -32 -61h287v-103h-414v36q1 62 14.5 105.5t53.5 84.5q15 16 36 31.5t36 25t41.5 25l38.5 22.5q40 25 60 48t20 56q0 39 -26.5 62t-67.5 23q-76 0 -146 -77l-71 67
q82 111 219 111q91 0 150 -50.5t59 -136.5z" />
    <glyph glyph-name="three.taboldstyle" unicode="&#xf646;" horiz-adv-x="546" 
d="M488 176q0 -88 -63 -139t-162 -51q-145 0 -221 104l73 67q61 -70 141 -70q53 0 82.5 23t29.5 65q0 36 -21 55q-30 29 -115 29h-47v99h37q28 0 46.5 2t40.5 9.5t33.5 25t11.5 45.5q0 31 -22.5 55.5t-66.5 24.5q-76 0 -137 -68l-70 68q33 39 62 57q66 43 148 43
q86 0 144.5 -47.5t58.5 -124.5q0 -55 -30.5 -93.5t-57.5 -44.5q13 -3 29 -11.5t34 -23.5t30 -41t12 -58z" />
    <glyph glyph-name="four.taboldstyle" unicode="&#xf647;" horiz-adv-x="546" 
d="M513 127h-90v-127h-119v127h-278v92l276 387h121v-381h90v-98zM304 225v217l-156 -217h156z" />
    <glyph glyph-name="five.taboldstyle" unicode="&#xf648;" horiz-adv-x="546" 
d="M493 204q0 -98 -64 -158t-173 -60q-113 0 -185 68l-11.5 12t-7.5 8l67 74q60 -60 135 -60q55 0 87 28.5t32 82.5q0 51 -28.5 76t-72.5 25q-72 0 -107 -63l-93 38l35 331h349v-100h-260l-16 -145q40 37 118 37q85 0 140 -51.5t55 -142.5z" />
    <glyph glyph-name="six.taboldstyle" unicode="&#xf649;" horiz-adv-x="546" 
d="M509 205q0 -94 -61.5 -156.5t-160.5 -62.5q-66 0 -115 27.5t-75 74t-37.5 97t-11.5 107.5q0 41 5.5 81.5t22.5 86.5t43.5 80.5t72.5 57t106 22.5q72 0 124.5 -26.5t78.5 -67.5l-71 -65q-51 60 -127 60q-49 0 -82 -31t-45.5 -71.5t-13.5 -85.5q21 32 62 51t89 19
q87 0 141.5 -54t54.5 -144zM390 195q0 48 -27 77.5t-74 29.5q-49 0 -78 -30.5t-29 -79.5t27.5 -78t77.5 -29q46 0 74.5 31t28.5 79z" />
    <glyph glyph-name="seven.taboldstyle" unicode="&#xf64a;" horiz-adv-x="546" 
d="M495 513l-245 -513h-133l249 504h-315v102h444v-93z" />
    <glyph glyph-name="eight.taboldstyle" unicode="&#xf64b;" horiz-adv-x="546" 
d="M505 169q0 -85 -66.5 -134t-165.5 -49t-165 49t-66 134q0 57 33 94t69 48q-31 10 -58 46.5t-27 88.5q0 82 61 128t153 46t153.5 -46t61.5 -128q0 -52 -27.5 -88.5t-58.5 -45.5q38 -12 70.5 -50t32.5 -93zM375 440q0 42 -29 64.5t-73 22.5q-43 0 -72 -22.5t-29 -64.5
q0 -41 29 -63t72 -22t72.5 22t29.5 63zM384 171q0 44 -32 69t-79 25t-79 -24.5t-32 -69.5q0 -42 32.5 -66.5t78.5 -24.5q47 0 79 24t32 67z" />
    <glyph glyph-name="nine.taboldstyle" unicode="&#xf64c;" horiz-adv-x="546" 
d="M37 401q0 94 61.5 156.5t160.5 62.5q66 0 115 -27.5t75 -74t37.5 -97t11.5 -107.5q0 -41 -5.5 -81.5t-22.5 -86.5t-43.5 -80.5t-72.5 -57t-106 -22.5q-72 0 -124.5 26.5t-78.5 67.5l71 65q51 -60 127 -60q49 0 82 31t45.5 71.5t13.5 85.5q-21 -32 -62 -51t-89 -19
q-87 0 -141.5 54t-54.5 144zM156 411q0 -48 27 -77.5t74 -29.5q49 0 78 30.5t29 79.5t-27.5 78t-77.5 29q-46 0 -74.5 -31t-28.5 -79z" />
    <glyph glyph-name="florin.taboldstyle" unicode="&#xf64f;" 
d="M604 670l-33 -91q-34 13 -64 13q-27 0 -48 -15q-25 -18 -38 -79l-10 -44h145v-97h-165l-82 -386q-21 -99 -78 -137q-47 -34 -120 -34q-59 0 -107 22l33 91q36 -13 64 -13q31 0 50 15q26 18 39 79l77 363h-96v97h116l15 67q21 98 77 137q50 36 118 36q55 0 107 -24z" />
    <glyph glyph-name="sterling.taboldstyle" unicode="&#xf651;" horiz-adv-x="546" 
d="M507 515l-75 -63q-52 67 -125 67q-45 0 -68.5 -27.5t-23.5 -64.5q0 -30 15 -75h157v-98h-137q2 -10 2 -24q0 -85 -48 -129h289v-101h-443v91q87 38 87 129q0 19 -3 34h-84v98h62q-15 47 -15 78q0 81 58 135.5t145 54.5q113 0 186 -80q15 -17 21 -25z" />
    <glyph glyph-name="yen.taboldstyle" unicode="&#xf652;" horiz-adv-x="546" 
d="M529 606l-143 -254h113v-98h-167v-55h161v-96h-161v-103h-118v103h-161v96h161v55h-167v98h112l-143 254h130l129 -255l129 255h125z" />
    <glyph glyph-name="dollar.taboldstyle" unicode="&#xf653;" horiz-adv-x="543" 
d="M495 172q0 -75 -52 -124.5t-136 -59.5v-80h-79v80q-118 12 -190 110l73 67q17 -24 48 -45.5t69 -28.5v159q-35 9 -60.5 19.5t-55 31t-45 55t-15.5 81.5q0 73 49.5 123.5t126.5 58.5v79h79v-79q41 -3 77 -18t57.5 -33.5t32.5 -31.5t15 -20l-71 -66q-51 57 -110 66v-164
q39 -9 64.5 -18.5t57.5 -29t48.5 -53t16.5 -79.5zM228 370v148q-67 -18 -67 -78q0 -22 12 -37.5t23.5 -21t31.5 -11.5zM386 166q0 22 -12.5 36.5t-26 20t-39.5 12.5v-146q78 11 78 77z" />
    <glyph glyph-name="cent.taboldstyle" unicode="&#xf654;" horiz-adv-x="546" 
d="M495 72q-5 -9 -13.5 -18.5t-28.5 -28.5t-53 -33t-72 -17v-78h-79v78q-97 11 -148.5 77t-51.5 156q0 89 51.5 153.5t148.5 77.5v77h79v-76q89 -8 148 -72q10 -11 18 -23l-76 -62q-15 16 -28 27q-26 20 -62 28v-261q55 11 92 58zM249 80v255q-39 -12 -60.5 -47t-21.5 -81
q0 -47 21 -81t61 -46z" />
    <glyph glyph-name="zero.dnom" unicode="&#xf655;" horiz-adv-x="378" 
d="M188 -8q-72 0 -111 53t-39 137q0 85 39.5 137.5t111.5 52.5t111.5 -52.5t39.5 -137.5q0 -84 -40 -137t-112 -53zM189 307q-68 0 -68 -124t67 -124q69 0 69 124t-68 124z" />
    <glyph glyph-name="one.dnom" unicode="&#xf656;" horiz-adv-x="395" 
d="M76 0v67h95v211l-76 -46l-39 58l123 74h72v-297h94v-67h-269z" />
    <glyph glyph-name="two.dnom" unicode="&#xf657;" horiz-adv-x="388" 
d="M320 258q0 -42 -23.5 -68t-65.5 -50q-7 -4 -22.5 -12t-23.5 -13t-18.5 -12.5t-16.5 -16t-8 -17.5h176v-69h-260v23q0 38 8 64.5t34 51.5q9 9 22 18.5t22.5 15l26 15l23.5 13.5q47 28 47 58q0 21 -15 34.5t-39 13.5q-47 0 -89 -49l-50 44q61 70 140 70q57 0 94.5 -31
t37.5 -83z" />
    <glyph glyph-name="three.dnom" unicode="&#xf658;" horiz-adv-x="385" 
d="M325 108q0 -54 -40 -85t-102 -31q-94 0 -141 65l51 45q21 -21 31 -27q25 -17 55 -17q31 0 48 13t17 35q0 21 -15 32.5t-29 13t-36 1.5h-30v64h25q17 0 26.5 1t23.5 4.5t20.5 13.5t6.5 26q0 17 -13 30.5t-39 13.5q-43 0 -83 -42l-49 44q23 26 41 38q39 26 93 26
q55 0 91.5 -29t36.5 -76q0 -32 -16 -53.5t-34 -26.5q22 -7 41.5 -26t19.5 -53z" />
    <glyph glyph-name="four.dnom" unicode="&#xf659;" horiz-adv-x="384" 
d="M336 75h-56v-75h-75v75h-167v57l165 232h77v-226h56v-63zM205 138v124l-89 -124h89z" />
    <glyph glyph-name="five.dnom" unicode="&#xf65a;" horiz-adv-x="376" 
d="M168 -8q-82 0 -130 55l45 49q40 -38 84 -38q68 0 68 63q0 29 -16 43t-42 14q-42 0 -65 -39l-62 24l23 201h221v-66h-160l-9 -76q23 20 68 20q54 0 88.5 -31.5t34.5 -86.5q0 -59 -40.5 -95.5t-107.5 -36.5z" />
    <glyph glyph-name="six.dnom" unicode="&#xf65b;" horiz-adv-x="367" 
d="M189 -8q-42 0 -72.5 16.5t-47 44.5t-24 58.5t-7.5 64.5q0 32 6.5 62.5t22.5 62.5t49 51.5t80 19.5q93 0 129 -59l-48 -43q-35 38 -78 38q-42 0 -63 -33t-21 -75q23 44 91 44q54 0 88.5 -32.5t34.5 -87.5q0 -56 -39 -94t-101 -38zM190 179q-29 0 -46.5 -17.5t-17.5 -44.5
t17 -44t46 -17q27 0 44 17.5t17 44.5t-16.5 44t-43.5 17z" />
    <glyph glyph-name="seven.dnom" unicode="&#xf65c;" horiz-adv-x="394" 
d="M182 0h-89l154 296h-193v68h280v-60z" />
    <glyph glyph-name="eight.dnom" unicode="&#xf65d;" horiz-adv-x="367" 
d="M184 -8q-62 0 -104 29.5t-42 81.5q0 32 19 55t42 29q-20 7 -35 28t-15 51q0 50 38.5 78t96.5 28q57 0 96 -28t39 -78q0 -29 -15 -50.5t-35 -27.5q23 -7 41.5 -29.5t18.5 -55.5q0 -52 -42 -81.5t-103 -29.5zM184 312q-26 0 -42.5 -13.5t-16.5 -36.5q0 -22 16.5 -34.5
t42.5 -12.5t42.5 12.5t16.5 34.5q0 23 -16.5 36.5t-42.5 13.5zM183 157q-27 0 -46 -14t-19 -39q0 -23 19 -37t46 -14q28 0 47 14t19 37q0 25 -19 39t-47 14z" />
    <glyph glyph-name="nine.dnom" unicode="&#xf65e;" horiz-adv-x="367" 
d="M178 372q42 0 72.5 -16.5t47 -44.5t24 -58.5t7.5 -64.5q0 -32 -6.5 -62.5t-22.5 -62.5t-49 -51.5t-80 -19.5q-93 0 -129 59l48 43q35 -38 78 -38q42 0 63 33t21 75q-23 -44 -91 -44q-54 0 -88.5 32.5t-34.5 87.5q0 56 39 94t101 38zM177 185q29 0 46.5 17.5t17.5 44.5
t-16.5 44t-46.5 17q-27 0 -44 -17.5t-17 -44.5t16.5 -44t43.5 -17z" />
    <glyph glyph-name="zero.numr" unicode="&#xf661;" horiz-adv-x="378" 
d="M188 308q-72 0 -111 53t-39 137q0 85 39.5 137.5t111.5 52.5t111.5 -52.5t39.5 -137.5q0 -84 -40 -137t-112 -53zM189 623q-68 0 -68 -124t67 -124q69 0 69 124t-68 124z" />
    <glyph glyph-name="one.numr" unicode="&#xf662;" horiz-adv-x="395" 
d="M76 314v67h95v211l-76 -46l-39 58l123 74h72v-297h94v-67h-269z" />
    <glyph glyph-name="two.numr" unicode="&#xf663;" horiz-adv-x="388" 
d="M320 574q0 -42 -23.5 -68t-65.5 -50q-7 -4 -22.5 -12t-23.5 -13t-18.5 -12.5t-16.5 -16t-8 -17.5h176v-69h-260v23q0 38 8 64.5t34 51.5q9 9 22 18.5t22.5 15l26 15l23.5 13.5q47 28 47 58q0 21 -15 34.5t-39 13.5q-47 0 -89 -49l-50 44q61 70 140 70q57 0 94.5 -31
t37.5 -83z" />
    <glyph glyph-name="three.numr" unicode="&#xf664;" horiz-adv-x="385" 
d="M325 424q0 -54 -40 -85t-102 -31q-94 0 -141 65l51 45q21 -21 31 -27q25 -17 55 -17q31 0 48 13t17 35q0 21 -15 32.5t-29 13t-36 1.5h-30v64h25q17 0 26.5 1t23.5 4.5t20.5 13.5t6.5 26q0 17 -13 30.5t-39 13.5q-43 0 -83 -42l-49 44q23 26 41 38q39 26 93 26
q55 0 91.5 -29t36.5 -76q0 -32 -16 -53.5t-34 -26.5q22 -7 41.5 -26t19.5 -53z" />
    <glyph glyph-name="four.numr" unicode="&#xf665;" horiz-adv-x="384" 
d="M336 389h-56v-75h-75v75h-167v57l165 232h77v-226h56v-63zM205 452v124l-89 -124h89z" />
    <glyph glyph-name="five.numr" unicode="&#xf666;" horiz-adv-x="376" 
d="M168 306q-82 0 -130 55l45 49q40 -38 84 -38q68 0 68 63q0 29 -16 43t-42 14q-42 0 -65 -39l-62 24l23 201h221v-66h-160l-9 -76q23 20 68 20q54 0 88.5 -31.5t34.5 -86.5q0 -59 -40.5 -95.5t-107.5 -36.5z" />
    <glyph glyph-name="six.numr" unicode="&#xf667;" horiz-adv-x="367" 
d="M189 308q-42 0 -72.5 16.5t-47 44.5t-24 58.5t-7.5 64.5q0 32 6.5 62.5t22.5 62.5t49 51.5t80 19.5q93 0 129 -59l-48 -43q-35 38 -78 38q-42 0 -63 -33t-21 -75q23 44 91 44q54 0 88.5 -32.5t34.5 -87.5q0 -56 -39 -94t-101 -38zM190 495q-29 0 -46.5 -17.5t-17.5 -44.5
t17 -44t46 -17q27 0 44 17.5t17 44.5t-16.5 44t-43.5 17z" />
    <glyph glyph-name="seven.numr" unicode="&#xf668;" horiz-adv-x="396" 
d="M184 314h-89l154 296h-193v68h280v-60z" />
    <glyph glyph-name="eight.numr" unicode="&#xf669;" horiz-adv-x="367" 
d="M184 308q-62 0 -104 29.5t-42 81.5q0 32 19 55t42 29q-20 7 -35 28t-15 51q0 50 38.5 78t96.5 28q57 0 96 -28t39 -78q0 -29 -15 -50.5t-35 -27.5q23 -7 41.5 -29.5t18.5 -55.5q0 -52 -42 -81.5t-103 -29.5zM184 628q-26 0 -42.5 -13.5t-16.5 -36.5q0 -22 16.5 -34.5
t42.5 -12.5t42.5 12.5t16.5 34.5q0 23 -16.5 36.5t-42.5 13.5zM183 473q-27 0 -46 -14t-19 -39q0 -23 19 -37t46 -14q28 0 47 14t19 37q0 25 -19 39t-47 14z" />
    <glyph glyph-name="nine.numr" unicode="&#xf66a;" horiz-adv-x="367" 
d="M178 688q42 0 72.5 -16.5t47 -44.5t24 -58.5t7.5 -64.5q0 -32 -6.5 -62.5t-22.5 -62.5t-49 -51.5t-80 -19.5q-93 0 -129 59l48 43q35 -38 78 -38q42 0 63 33t21 75q-23 -44 -91 -44q-54 0 -88.5 32.5t-34.5 87.5q0 56 39 94t101 38zM177 501q29 0 46.5 17.5t17.5 44.5
t-16.5 44t-46.5 17q-27 0 -44 -17.5t-17 -44.5t16.5 -44t43.5 -17z" />
    <glyph glyph-name="parenleft.numr" unicode="&#xf66b;" horiz-adv-x="235" 
d="M190 227q-72 47 -115 116.5t-43 153.5t45.5 157.5t114.5 114.5l43 -51q-120 -95 -120 -220q0 -124 120 -219z" />
    <glyph glyph-name="parenright.numr" unicode="&#xf66c;" horiz-adv-x="235" 
d="M45 227l-45 52q120 95 120 219q0 125 -120 220l43 51q69 -41 114.5 -114.5t45.5 -157.5t-43 -153.5t-115 -116.5z" />
    <glyph glyph-name="one.fitted" unicode="&#xf6dc;" 
d="M571 0h-477v104h177v448l-152 -95l-58 87l215 134h119v-574h176v-104z" />
    <glyph glyph-name="Lslashsmall" unicode="&#xf6f9;" horiz-adv-x="520" 
d="M520 0h-425v195l-38 -36l-70 72l108 98v277h124v-182l67 64l70 -70l-137 -129v-184h301v-105z" />
    <glyph glyph-name="OEsmall" unicode="&#xf6fa;" horiz-adv-x="1004" 
d="M968 0h-423v61q-75 -75 -197 -75q-76 0 -137 27.5t-98.5 73t-57 101t-19.5 115.5t19.5 115.5t57 101t98.5 73t137 27.5q122 0 197 -75v61h411v-104h-295v-144h274v-103h-274v-150h307v-105zM540 303q0 90 -49.5 153t-139.5 63t-139 -63t-49 -153t49 -152.5t139 -62.5
t139.5 62.5t49.5 152.5z" />
    <glyph glyph-name="Scaronsmall" unicode="&#xf6fd;" horiz-adv-x="581" 
d="M533 176q0 -89 -70.5 -139.5t-183.5 -50.5q-151 0 -235 82q-12 12 -20 22l71 78q78 -79 183 -79q61 0 94.5 22t33.5 60q0 28 -27 46t-68 24.5t-88.5 19.5t-88.5 29t-68 54.5t-27 95.5q0 78 65 129t172 51q149 0 231 -79q6 -6 20 -22l-73 -75q-22 23 -50 41
q-58 35 -128 35q-54 0 -83 -19.5t-29 -53.5q0 -30 27.5 -47.5t68.5 -23.5t88.5 -18t88.5 -28t68.5 -55.5t27.5 -98.5zM345 806h95l-90 -133h-140l-91 133h95l66 -73z" />
    <glyph glyph-name="Zcaronsmall" unicode="&#xf6ff;" horiz-adv-x="572" 
d="M535 0h-499v98l331 404h-319v104h476v-97l-331 -404h342v-105zM350 808h95l-90 -133h-140l-91 133h95l66 -73z" />
    <glyph glyph-name="ampersandsmall" unicode="&#xf726;" horiz-adv-x="594" 
d="M594 0h-131l-51 58q-69 -72 -179 -72q-90 0 -149.5 45.5t-59.5 131.5q0 64 35.5 107.5t99.5 77.5q-21 22 -31 34.5t-21 38t-11 52.5q0 66 49 106.5t125 40.5q66 0 113.5 -36t47.5 -100q0 -56 -32 -94t-86 -68l97 -109q22 42 26 94h97q-3 -102 -55 -173zM328 480
q0 23 -15.5 37.5t-43.5 14.5q-29 0 -46.5 -13t-17.5 -38t12.5 -44.5t37.5 -46.5q22 13 35 23t25.5 28.5t12.5 38.5zM347 131l-127 145q-28 -17 -42 -28.5t-27.5 -33t-13.5 -47.5q0 -37 28 -60.5t72 -23.5q66 0 110 48z" />
    <glyph glyph-name="zerooldstyle" unicode="&#xf730;" horiz-adv-x="546" 
d="M514 303q0 -141 -63.5 -229t-177.5 -88t-177.5 88t-63.5 229t64 229t178 88t177 -87.5t63 -229.5zM389 303q0 215 -115 215q-36 0 -60.5 -21t-36 -56t-16 -68t-4.5 -70q0 -215 116 -215t116 215z" />
    <glyph glyph-name="oneoldstyle" unicode="&#xf731;" horiz-adv-x="546" 
d="M509 0h-428v101h153v376l-126 -81l-58 88l194 122h112v-505h153v-101z" />
    <glyph glyph-name="twooldstyle" unicode="&#xf732;" horiz-adv-x="546" 
d="M482 433q0 -72 -40.5 -116.5t-111.5 -84.5q-8 -5 -28.5 -16.5l-30.5 -17t-24 -15.5t-23 -19q-28 -26 -32 -61h287v-103h-414v36q1 62 14.5 105.5t53.5 84.5q15 16 36 31.5t36 25t41.5 25l38.5 22.5q40 25 60 48t20 56q0 39 -26.5 62t-67.5 23q-76 0 -146 -77l-71 67
q82 111 219 111q91 0 150 -50.5t59 -136.5z" />
    <glyph glyph-name="threeoldstyle" unicode="&#xf733;" horiz-adv-x="546" 
d="M488 176q0 -88 -63 -139t-162 -51q-145 0 -221 104l73 67q61 -70 141 -70q53 0 82.5 23t29.5 65q0 36 -21 55q-30 29 -115 29h-47v99h37q28 0 46.5 2t40.5 9.5t33.5 25t11.5 45.5q0 31 -22.5 55.5t-66.5 24.5q-76 0 -137 -68l-70 68q33 39 62 57q66 43 148 43
q86 0 144.5 -47.5t58.5 -124.5q0 -55 -30.5 -93.5t-57.5 -44.5q13 -3 29 -11.5t34 -23.5t30 -41t12 -58z" />
    <glyph glyph-name="fouroldstyle" unicode="&#xf734;" horiz-adv-x="546" 
d="M513 127h-90v-127h-119v127h-278v92l276 387h121v-381h90v-98zM304 225v217l-156 -217h156z" />
    <glyph glyph-name="fiveoldstyle" unicode="&#xf735;" horiz-adv-x="546" 
d="M493 204q0 -98 -64 -158t-173 -60q-113 0 -185 68l-11.5 12t-7.5 8l67 74q60 -60 135 -60q55 0 87 28.5t32 82.5q0 51 -28.5 76t-72.5 25q-72 0 -107 -63l-93 38l35 331h349v-100h-260l-16 -145q40 37 118 37q85 0 140 -51.5t55 -142.5z" />
    <glyph glyph-name="sixoldstyle" unicode="&#xf736;" horiz-adv-x="546" 
d="M509 205q0 -94 -61.5 -156.5t-160.5 -62.5q-66 0 -115 27.5t-75 74t-37.5 97t-11.5 107.5q0 41 5.5 81.5t22.5 86.5t43.5 80.5t72.5 57t106 22.5q72 0 124.5 -26.5t78.5 -67.5l-71 -65q-51 60 -127 60q-49 0 -82 -31t-45.5 -71.5t-13.5 -85.5q21 32 62 51t89 19
q87 0 141.5 -54t54.5 -144zM390 195q0 48 -27 77.5t-74 29.5q-49 0 -78 -30.5t-29 -79.5t27.5 -78t77.5 -29q46 0 74.5 31t28.5 79z" />
    <glyph glyph-name="sevenoldstyle" unicode="&#xf737;" horiz-adv-x="546" 
d="M495 513l-245 -513h-133l249 504h-315v102h444v-93z" />
    <glyph glyph-name="eightoldstyle" unicode="&#xf738;" horiz-adv-x="546" 
d="M505 169q0 -85 -66.5 -134t-165.5 -49t-165 49t-66 134q0 57 33 94t69 48q-31 10 -58 46.5t-27 88.5q0 82 61 128t153 46t153.5 -46t61.5 -128q0 -52 -27.5 -88.5t-58.5 -45.5q38 -12 70.5 -50t32.5 -93zM375 440q0 42 -29 64.5t-73 22.5q-43 0 -72 -22.5t-29 -64.5
q0 -41 29 -63t72 -22t72.5 22t29.5 63zM384 171q0 44 -32 69t-79 25t-79 -24.5t-32 -69.5q0 -42 32.5 -66.5t78.5 -24.5q47 0 79 24t32 67z" />
    <glyph glyph-name="nineoldstyle" unicode="&#xf739;" horiz-adv-x="546" 
d="M37 401q0 94 61.5 156.5t160.5 62.5q66 0 115 -27.5t75 -74t37.5 -97t11.5 -107.5q0 -41 -5.5 -81.5t-22.5 -86.5t-43.5 -80.5t-72.5 -57t-106 -22.5q-72 0 -124.5 26.5t-78.5 67.5l71 65q51 -60 127 -60q49 0 82 31t45.5 71.5t13.5 85.5q-21 -32 -62 -51t-89 -19
q-87 0 -141.5 54t-54.5 144zM156 411q0 -48 27 -77.5t74 -29.5q49 0 78 30.5t29 79.5t-27.5 78t-77.5 29q-46 0 -74.5 -31t-28.5 -79z" />
    <glyph glyph-name="Asmall" unicode="&#xf761;" horiz-adv-x="626" 
d="M626 0h-131l-53 126h-261l-53 -126h-128l250 606h126zM405 231l-94 236l-92 -236h186z" />
    <glyph glyph-name="Bsmall" unicode="&#xf762;" horiz-adv-x="603" 
d="M567 179q0 -71 -40 -115q-34 -40 -91 -52t-143 -12h-227v606h229q53 0 81 -1.5t65.5 -13t60.5 -34.5q42 -44 42 -103q0 -53 -25.5 -90t-60.5 -47q52 -11 80.5 -49t28.5 -89zM419 432q0 21 -8 35.5t-18 22t-29.5 11t-31.5 4t-34 0.5h-109v-148h111q59 0 89 15t30 60z
M440 183q0 26 -10.5 42t-32 22.5t-40.5 8.5t-51 2h-117v-155h129q49 0 72 8q50 16 50 72z" />
    <glyph glyph-name="Csmall" unicode="&#xf763;" horiz-adv-x="624" 
d="M530 169l70 -73q-7 -10 -24 -26q-91 -84 -229 -84q-147 0 -229 89.5t-82 227.5q0 136 83 226.5t229 90.5q136 0 219 -83q11 -11 25 -29l-75 -70l-15 16q-61 63 -151 63q-91 0 -139 -60.5t-48 -152.5t50 -153t137 -61t159 61q16 14 20 18z" />
    <glyph glyph-name="Dsmall" unicode="&#xf764;" horiz-adv-x="652" 
d="M616 306q0 -145 -90 -227q-74 -68 -202 -77q-44 -2 -64 -2h-194v606h194q60 0 97 -3t85.5 -19.5t83.5 -48.5q90 -83 90 -229zM488 307q0 100 -55 155q-19 19 -48 29t-51 12t-57 2h-87v-401h73q39 0 61.5 2t53 12.5t52.5 31.5q58 54 58 157z" />
    <glyph glyph-name="Esmall" unicode="&#xf765;" horiz-adv-x="554" 
d="M518 0h-452v606h441v-104h-317v-144h295v-103h-295v-150h328v-105z" />
    <glyph glyph-name="Fsmall" unicode="&#xf766;" horiz-adv-x="507" 
d="M495 502h-305v-150h283v-103h-283v-249h-124v606h429v-104z" />
    <glyph glyph-name="Gsmall" unicode="&#xf767;" horiz-adv-x="667" 
d="M613 0h-97l-2 62q-22 -33 -73.5 -54.5t-111.5 -21.5q-137 0 -215 89.5t-78 227.5q0 136 84 226.5t230 90.5q45 0 85.5 -10t66 -23t47.5 -30.5t30.5 -27t15.5 -19.5l-75 -71q-68 78 -168 78q-90 0 -139 -62t-49 -152q0 -94 48 -153.5t136 -59.5q76 0 115.5 40t41.5 94v15
h-166v100h274v-339z" />
    <glyph glyph-name="Hsmall" unicode="&#xf768;" horiz-adv-x="651" 
d="M585 0h-124v255h-271v-255h-124v606h124v-246h271v246h124v-606z" />
    <glyph glyph-name="Ismall" unicode="&#xf769;" horiz-adv-x="256" 
d="M190 0h-124v606h124v-606z" />
    <glyph glyph-name="Jsmall" unicode="&#xf76a;" horiz-adv-x="465" 
d="M405 221q0 -37 -2.5 -61.5t-15 -56.5t-35.5 -56q-61 -61 -165 -61q-121 0 -192 100l78 68q15 -21 34 -37q33 -28 79 -28q55 0 79 41q16 26 16 92v384h124v-385z" />
    <glyph glyph-name="Ksmall" unicode="&#xf76b;" horiz-adv-x="593" 
d="M599 0h-155l-254 273v-273h-124v606h124v-261l254 261h146l-286 -291z" />
    <glyph glyph-name="Lsmall" unicode="&#xf76c;" horiz-adv-x="491" 
d="M491 0h-425v606h124v-501h301v-105z" />
    <glyph glyph-name="Msmall" unicode="&#xf76d;" horiz-adv-x="791" 
d="M725 0h-114v452l-164 -452h-104l-165 452v-452h-112v606h168l162 -446l164 446h165v-606z" />
    <glyph glyph-name="Nsmall" unicode="&#xf76e;" horiz-adv-x="651" 
d="M585 0h-119l-280 402v-402h-120v606h121l278 -399v399h120v-606z" />
    <glyph glyph-name="Osmall" unicode="&#xf76f;" horiz-adv-x="699" 
d="M663 303q0 -60 -19.5 -115.5t-57 -101t-99 -73t-137.5 -27.5q-149 0 -231.5 95t-82.5 222t82.5 222t231.5 95q76 0 137.5 -27.5t99 -73t57 -101t19.5 -115.5zM535 303q0 90 -48 152t-137 62t-137.5 -62.5t-48.5 -151.5t48.5 -151t137.5 -62t137 62t48 151z" />
    <glyph glyph-name="Psmall" unicode="&#xf770;" horiz-adv-x="560" 
d="M548 417q0 -77 -43 -126q-62 -70 -204 -70h-111v-221h-124v606h207q79 0 126.5 -8.5t83.5 -38.5q65 -55 65 -142zM424 415q0 40 -23 61q-31 31 -127 31h-84v-186h95q64 0 101.5 19.5t37.5 74.5z" />
    <glyph glyph-name="Qsmall" unicode="&#xf771;" horiz-adv-x="699" 
d="M663 303q0 -131 -83 -224l78 -74l-70 -70l-89 84q-66 -33 -149 -33q-149 0 -231.5 95t-82.5 222t82.5 222t231.5 95q76 0 137.5 -27.5t99 -73t57 -101t19.5 -115.5zM535 303q0 90 -48 152t-137 62t-137.5 -62.5t-48.5 -151.5t48.5 -151t137.5 -62q39 0 66 11l-83 77
l71 71l91 -86q40 55 40 140z" />
    <glyph glyph-name="Rsmall" unicode="&#xf772;" horiz-adv-x="604" 
d="M592 0h-142l-164 232h-96v-232h-124v606h232q45 0 74 -2.5t65.5 -16t61.5 -38.5q53 -53 53 -127q0 -66 -37.5 -111t-100.5 -64zM429 420q0 36 -21 57q-30 30 -117 30h-101v-175h92q32 0 53.5 2.5t45.5 10.5t36 27t12 48z" />
    <glyph glyph-name="Ssmall" unicode="&#xf773;" horiz-adv-x="581" 
d="M533 176q0 -89 -70.5 -139.5t-183.5 -50.5q-151 0 -235 82q-12 12 -20 22l71 78q78 -79 183 -79q61 0 94.5 22t33.5 60q0 28 -27 46t-68 24.5t-88.5 19.5t-88.5 29t-68 54.5t-27 95.5q0 78 65 129t172 51q149 0 231 -79q6 -6 20 -22l-73 -75q-22 23 -50 41
q-58 35 -128 35q-54 0 -83 -19.5t-29 -53.5q0 -30 27.5 -47.5t68.5 -23.5t88.5 -18t88.5 -28t68.5 -55.5t27.5 -98.5z" />
    <glyph glyph-name="Tsmall" unicode="&#xf774;" horiz-adv-x="518" 
d="M518 502h-197v-502h-124v502h-197v104h518v-104z" />
    <glyph glyph-name="Usmall" unicode="&#xf775;" horiz-adv-x="643" 
d="M583 255q0 -63 -13.5 -109.5t-52.5 -85.5q-74 -74 -196 -74t-197 75q-39 39 -51.5 86.5t-12.5 108.5v350h124v-347q0 -30 1.5 -47.5t9.5 -41.5t24 -40q39 -39 103 -39q67 0 103 40q17 20 24 43q10 31 10 86v346h124v-351z" />
    <glyph glyph-name="Vsmall" unicode="&#xf776;" horiz-adv-x="606" 
d="M606 606l-241 -606h-123l-242 606h136l170 -453l171 453h129z" />
    <glyph glyph-name="Wsmall" unicode="&#xf777;" horiz-adv-x="896" 
d="M890 606l-185 -606h-125l-131 428l-131 -428h-126l-186 606h130l126 -423l131 423h114l132 -423l125 423h126z" />
    <glyph glyph-name="Xsmall" unicode="&#xf778;" horiz-adv-x="561" 
d="M561 0h-141l-140 216l-143 -216h-137l213 316l-195 290h140l126 -194l127 194h132l-193 -289z" />
    <glyph glyph-name="Ysmall" unicode="&#xf779;" horiz-adv-x="564" 
d="M564 606l-220 -352v-254h-124v254l-220 352h141l143 -239l145 239h135z" />
    <glyph glyph-name="Zsmall" unicode="&#xf77a;" horiz-adv-x="572" 
d="M535 0h-499v98l331 404h-319v104h476v-97l-331 -404h342v-105z" />
    <glyph glyph-name="Agravesmall" unicode="&#xf7e0;" horiz-adv-x="626" 
d="M626 0h-131l-53 126h-261l-53 -126h-128l250 606h126zM405 231l-94 236l-92 -236h186zM399 675h-97l-122 133h128z" />
    <glyph glyph-name="Aacutesmall" unicode="&#xf7e1;" horiz-adv-x="626" 
d="M626 0h-131l-53 126h-261l-53 -126h-128l250 606h126zM405 231l-94 236l-92 -236h186zM446 808l-122 -133h-97l90 133h129z" />
    <glyph glyph-name="Acircumflexsmall" unicode="&#xf7e2;" horiz-adv-x="626" 
d="M626 0h-131l-53 126h-261l-53 -126h-128l250 606h126zM405 231l-94 236l-92 -236h186zM472 675h-95l-65 73l-66 -73h-95l91 133h140z" />
    <glyph glyph-name="Atildesmall" unicode="&#xf7e3;" horiz-adv-x="626" 
d="M626 0h-131l-53 126h-261l-53 -126h-128l250 606h126zM405 231l-94 236l-92 -236h186zM471 801q0 -16 -2 -24q-4 -47 -29 -72t-68 -25q-24 0 -62 19t-53 19q-32 0 -32 -35h-71q0 54 25 87.5t76 33.5q26 0 63.5 -18.5t51.5 -18.5q32 0 32 34h69z" />
    <glyph glyph-name="Adieresissmall" unicode="&#xf7e4;" horiz-adv-x="626" 
d="M626 0h-131l-53 126h-261l-53 -126h-128l250 606h126zM405 231l-94 236l-92 -236h186zM279 743q0 -26 -18.5 -44t-44.5 -18t-44.5 18t-18.5 44t18.5 44t44.5 18t44.5 -18t18.5 -44zM472 743q0 -26 -18.5 -44t-44.5 -18t-44.5 18t-18.5 44t18.5 44t44.5 18t44.5 -18
t18.5 -44z" />
    <glyph glyph-name="Aringsmall" unicode="&#xf7e5;" horiz-adv-x="626" 
d="M626 0h-131l-53 126h-261l-53 -126h-128l250 606h126zM405 231l-94 236l-92 -236h186zM418 759q0 -44 -31.5 -74.5t-75.5 -30.5t-75 30.5t-31 74.5t31 75t75 31t75.5 -31t31.5 -75zM357 759q0 20 -13.5 33.5t-32.5 13.5t-32 -13.5t-13 -33.5q0 -19 13 -32.5t32 -13.5
t32.5 13.5t13.5 32.5z" />
    <glyph glyph-name="AEsmall" unicode="&#xf7e6;" horiz-adv-x="950" 
d="M914 0h-428v140h-219l-87 -140h-140l387 606h476v-104h-293v-144h273v-103h-273v-150h304v-105zM486 243v265l-160 -265h160z" />
    <glyph glyph-name="Ccedillasmall" unicode="&#xf7e7;" horiz-adv-x="624" 
d="M254 -74l40 64q-115 13 -186.5 97t-71.5 216q0 136 83 226.5t229 90.5q136 0 219 -83q11 -11 25 -29l-75 -70l-15 16q-61 63 -151 63q-91 0 -139 -60.5t-48 -152.5t50 -153t137 -61t159 61q16 14 20 18l70 -73q-7 -10 -24 -26q-87 -80 -218 -84l-20 -29q6 2 14 2
q46 0 71 -22.5t25 -58.5q0 -39 -31.5 -63.5t-79.5 -24.5q-60 0 -95 35l35 44q26 -22 56 -22q41 0 41 32t-36 32q-21 0 -36 -15z" />
    <glyph glyph-name="Egravesmall" unicode="&#xf7e8;" horiz-adv-x="554" 
d="M518 0h-452v606h441v-104h-317v-144h295v-103h-295v-150h328v-105zM379 675h-97l-122 133h128z" />
    <glyph glyph-name="Eacutesmall" unicode="&#xf7e9;" horiz-adv-x="554" 
d="M518 0h-452v606h441v-104h-317v-144h295v-103h-295v-150h328v-105zM425 808l-122 -133h-97l90 133h129z" />
    <glyph glyph-name="Ecircumflexsmall" unicode="&#xf7ea;" horiz-adv-x="554" 
d="M518 0h-452v606h441v-104h-317v-144h295v-103h-295v-150h328v-105zM451 675h-95l-65 73l-66 -73h-95l91 133h140z" />
    <glyph glyph-name="Edieresissmall" unicode="&#xf7eb;" horiz-adv-x="554" 
d="M518 0h-452v606h441v-104h-317v-144h295v-103h-295v-150h328v-105zM258 743q0 -26 -18.5 -44t-44.5 -18t-44.5 18t-18.5 44t18.5 44t44.5 18t44.5 -18t18.5 -44zM451 743q0 -26 -18.5 -44t-44.5 -18t-44.5 18t-18.5 44t18.5 44t44.5 18t44.5 -18t18.5 -44z" />
    <glyph glyph-name="Igravesmall" unicode="&#xf7ec;" horiz-adv-x="256" 
d="M190 0h-124v606h124v-606zM207 675h-97l-122 133h128z" />
    <glyph glyph-name="Iacutesmall" unicode="&#xf7ed;" horiz-adv-x="256" 
d="M190 0h-124v606h124v-606zM268 808l-122 -133h-97l90 133h129z" />
    <glyph glyph-name="Icircumflexsmall" unicode="&#xf7ee;" horiz-adv-x="256" 
d="M190 0h-124v606h124v-606zM288 675h-95l-65 73l-66 -73h-95l91 133h140z" />
    <glyph glyph-name="Idieresissmall" unicode="&#xf7ef;" horiz-adv-x="256" 
d="M190 0h-124v606h124v-606zM94 743q0 -26 -18.5 -44t-44.5 -18t-44.5 18t-18.5 44t18.5 44t44.5 18t44.5 -18t18.5 -44zM287 743q0 -26 -18.5 -44t-44.5 -18t-44.5 18t-18.5 44t18.5 44t44.5 18t44.5 -18t18.5 -44z" />
    <glyph glyph-name="Ethsmall" unicode="&#xf7f0;" horiz-adv-x="672" 
d="M86 357v249h194q60 0 97 -3t85.5 -19.5t83.5 -48.5q90 -83 90 -229q0 -145 -90 -227q-74 -68 -202 -77q-44 -2 -64 -2h-194v257h-91v100h91zM210 257v-153h73q39 0 61.5 2t53 12.5t52.5 31.5q58 54 58 157q0 100 -55 155q-19 19 -48 29t-51 12t-57 2h-87v-148h153v-100
h-153z" />
    <glyph glyph-name="Ntildesmall" unicode="&#xf7f1;" horiz-adv-x="651" 
d="M585 0h-119l-280 402v-402h-120v606h121l278 -399v399h120v-606zM485 801q0 -16 -2 -24q-4 -47 -29 -72t-68 -25q-24 0 -62 19t-53 19q-32 0 -32 -35h-71q0 54 25 87.5t76 33.5q26 0 63.5 -18.5t51.5 -18.5q32 0 32 34h69z" />
    <glyph glyph-name="Ogravesmall" unicode="&#xf7f2;" horiz-adv-x="699" 
d="M663 303q0 -60 -19.5 -115.5t-57 -101t-99 -73t-137.5 -27.5q-149 0 -231.5 95t-82.5 222t82.5 222t231.5 95q76 0 137.5 -27.5t99 -73t57 -101t19.5 -115.5zM535 303q0 90 -48 152t-137 62t-137.5 -62.5t-48.5 -151.5t48.5 -151t137.5 -62t137 62t48 151zM438 673h-97
l-122 133h128z" />
    <glyph glyph-name="Oacutesmall" unicode="&#xf7f3;" horiz-adv-x="699" 
d="M663 303q0 -60 -19.5 -115.5t-57 -101t-99 -73t-137.5 -27.5q-149 0 -231.5 95t-82.5 222t82.5 222t231.5 95q76 0 137.5 -27.5t99 -73t57 -101t19.5 -115.5zM535 303q0 90 -48 152t-137 62t-137.5 -62.5t-48.5 -151.5t48.5 -151t137.5 -62t137 62t48 151zM481 808
l-122 -133h-97l90 133h129z" />
    <glyph glyph-name="Ocircumflexsmall" unicode="&#xf7f4;" horiz-adv-x="699" 
d="M663 303q0 -60 -19.5 -115.5t-57 -101t-99 -73t-137.5 -27.5q-149 0 -231.5 95t-82.5 222t82.5 222t231.5 95q76 0 137.5 -27.5t99 -73t57 -101t19.5 -115.5zM535 303q0 90 -48 152t-137 62t-137.5 -62.5t-48.5 -151.5t48.5 -151t137.5 -62t137 62t48 151zM510 675h-95
l-65 73l-66 -73h-95l91 133h140z" />
    <glyph glyph-name="Otildesmall" unicode="&#xf7f5;" horiz-adv-x="699" 
d="M663 303q0 -60 -19.5 -115.5t-57 -101t-99 -73t-137.5 -27.5q-149 0 -231.5 95t-82.5 222t82.5 222t231.5 95q76 0 137.5 -27.5t99 -73t57 -101t19.5 -115.5zM535 303q0 90 -48 152t-137 62t-137.5 -62.5t-48.5 -151.5t48.5 -151t137.5 -62t137 62t48 151zM507 799
q0 -16 -2 -24q-4 -47 -29 -72t-68 -25q-24 0 -62 19t-53 19q-32 0 -32 -35h-71q0 54 25 87.5t76 33.5q26 0 63.5 -18.5t51.5 -18.5q32 0 32 34h69z" />
    <glyph glyph-name="Odieresissmall" unicode="&#xf7f6;" horiz-adv-x="699" 
d="M663 303q0 -60 -19.5 -115.5t-57 -101t-99 -73t-137.5 -27.5q-149 0 -231.5 95t-82.5 222t82.5 222t231.5 95q76 0 137.5 -27.5t99 -73t57 -101t19.5 -115.5zM535 303q0 90 -48 152t-137 62t-137.5 -62.5t-48.5 -151.5t48.5 -151t137.5 -62t137 62t48 151zM316 741
q0 -26 -18.5 -44t-44.5 -18t-44.5 18t-18.5 44t18.5 44t44.5 18t44.5 -18t18.5 -44zM509 741q0 -26 -18.5 -44t-44.5 -18t-44.5 18t-18.5 44t18.5 44t44.5 18t44.5 -18t18.5 -44z" />
    <glyph glyph-name="Oslashsmall" unicode="&#xf7f8;" horiz-adv-x="701" 
d="M350 -14q-61 0 -110.5 17.5t-77.5 39.5l-58 -61l-67 65l59 62q-60 82 -60 194q0 127 82.5 222t231.5 95q117 0 189 -58l60 62l68 -64l-62 -64q58 -85 58 -193q0 -60 -19.5 -115.5t-57 -101t-99 -73t-137.5 -27.5zM350 517q-89 0 -137.5 -62.5t-48.5 -151.5q0 -75 21 -105
l276 283q-44 36 -111 36zM515 407l-274 -282q41 -35 109 -35q89 1 137 62.5t48 150.5q0 64 -20 104z" />
    <glyph glyph-name="Ugravesmall" unicode="&#xf7f9;" horiz-adv-x="643" 
d="M583 255q0 -63 -13.5 -109.5t-52.5 -85.5q-74 -74 -196 -74t-197 75q-39 39 -51.5 86.5t-12.5 108.5v350h124v-347q0 -30 1.5 -47.5t9.5 -41.5t24 -40q39 -39 103 -39q67 0 103 40q17 20 24 43q10 31 10 86v346h124v-351zM410 675h-97l-122 133h128z" />
    <glyph glyph-name="Uacutesmall" unicode="&#xf7fa;" horiz-adv-x="643" 
d="M583 255q0 -63 -13.5 -109.5t-52.5 -85.5q-74 -74 -196 -74t-197 75q-39 39 -51.5 86.5t-12.5 108.5v350h124v-347q0 -30 1.5 -47.5t9.5 -41.5t24 -40q39 -39 103 -39q67 0 103 40q17 20 24 43q10 31 10 86v346h124v-351zM453 808l-122 -133h-97l90 133h129z" />
    <glyph glyph-name="Ucircumflexsmall" unicode="&#xf7fb;" horiz-adv-x="643" 
d="M583 255q0 -63 -13.5 -109.5t-52.5 -85.5q-74 -74 -196 -74t-197 75q-39 39 -51.5 86.5t-12.5 108.5v350h124v-347q0 -30 1.5 -47.5t9.5 -41.5t24 -40q39 -39 103 -39q67 0 103 40q17 20 24 43q10 31 10 86v346h124v-351zM482 675h-95l-65 73l-66 -73h-95l91 133h140z
" />
    <glyph glyph-name="Udieresissmall" unicode="&#xf7fc;" horiz-adv-x="643" 
d="M583 255q0 -63 -13.5 -109.5t-52.5 -85.5q-74 -74 -196 -74t-197 75q-39 39 -51.5 86.5t-12.5 108.5v350h124v-347q0 -30 1.5 -47.5t9.5 -41.5t24 -40q39 -39 103 -39q67 0 103 40q17 20 24 43q10 31 10 86v346h124v-351zM288 743q0 -26 -18.5 -44t-44.5 -18t-44.5 18
t-18.5 44t18.5 44t44.5 18t44.5 -18t18.5 -44zM481 743q0 -26 -18.5 -44t-44.5 -18t-44.5 18t-18.5 44t18.5 44t44.5 18t44.5 -18t18.5 -44z" />
    <glyph glyph-name="Yacutesmall" unicode="&#xf7fd;" horiz-adv-x="564" 
d="M564 606l-220 -352v-254h-124v254l-220 352h141l143 -239l145 239h135zM413 808l-122 -133h-97l90 133h129z" />
    <glyph glyph-name="Thornsmall" unicode="&#xf7fe;" horiz-adv-x="560" 
d="M548 325q0 -77 -43 -126q-62 -70 -204 -70h-111v-129h-124v606h124v-92h83q79 0 126.5 -8.5t83.5 -38.5q65 -55 65 -142zM424 323q0 40 -23 61q-31 31 -127 31h-84v-186h95q64 0 101.5 19.5t37.5 74.5z" />
    <glyph glyph-name="Ydieresissmall" unicode="&#xf7ff;" horiz-adv-x="564" 
d="M564 606l-220 -352v-254h-124v254l-220 352h141l143 -239l145 239h135zM250 743q0 -26 -18.5 -44t-44.5 -18t-44.5 18t-18.5 44t18.5 44t44.5 18t44.5 -18t18.5 -44zM443 743q0 -26 -18.5 -44t-44.5 -18t-44.5 18t-18.5 44t18.5 44t44.5 18t44.5 -18t18.5 -44z" />
    <glyph glyph-name="apple" unicode="&#xf8ff;" horiz-adv-x="896" 
d="M854 386q0 -168 -117.5 -285t-288.5 -117q-170 0 -288 117.5t-118 284.5q0 168 118.5 285.5t287.5 117.5q170 0 288 -117.5t118 -285.5zM776 386q0 134 -96.5 230.5t-231.5 96.5q-134 0 -231 -96.5t-97 -229.5q0 -103 59.5 -187t154.5 -119v229h-106v69h106v30
q0 52 10 85t37 60q45 45 125 45q27 0 51.5 -5t34.5 -9.5t14 -7.5l-24 -61q-36 13 -67 13q-49 0 -76 -27q-25 -25 -25 -93v-30h170v-69h-170v-248q22 -2 34 -2q134 0 231 96.5t97 229.5z" />
    <glyph glyph-name="fj" horiz-adv-x="623" 
d="M413 665l-37 -84q-30 15 -64 15q-38 0 -60 -19q-28 -25 -28 -82v-17h167v-97h-167v-381h-120v381h-104v97h104v20q0 94 50 144q52 52 145 52q63 0 114 -29zM575 618q0 -29 -20 -48.5t-50 -19.5t-50 19.5t-20 48.5t20 48.5t50 19.5t50 -19.5t20 -48.5zM565 33
q0 -41 -2 -66t-13 -56t-33 -54q-57 -57 -149 -57q-81 0 -123 33l45 84q31 -17 68 -17q48 0 68 32q19 27 19 95v451h120v-445z" />
    <glyph glyph-name="ff" horiz-adv-x="765" 
d="M224 478h221v20q0 94 51 145t145 51q32 0 63 -8.5t43.5 -15t17.5 -10.5l-37 -83q-43 19 -75 19q-34 0 -56 -17q-32 -24 -32 -84v-17h167v-97h-167v-381h-120v381h-221v-381h-120v381h-104v97h104v20q0 94 50 144q52 52 145 52q63 0 114 -29l-37 -84q-30 15 -64 15
q-38 0 -60 -19q-28 -25 -28 -82v-17z" />
    <glyph glyph-name="ffi" horiz-adv-x="964" 
 />
    <glyph glyph-name="ffl" horiz-adv-x="966" 
d="M906 0h-120v678h120v-678zM224 381v-381h-120v381h-104v97h104v20q0 94 50 144q52 52 145 52q63 0 114 -29l-37 -84q-30 15 -64 15q-38 0 -60 -19q-28 -25 -28 -82v-17h221v20q0 94 50 144q52 52 145 52q63 0 114 -29l-37 -84q-30 15 -64 15q-38 0 -60 -19
q-28 -25 -28 -82v-17h167v-97h-167v-381h-120v381h-221z" />
    <glyph glyph-name="US" horiz-adv-x="500" 
 />
    <glyph glyph-name="Grave" horiz-adv-x="346" 
d="M268 747h-97l-122 133h128z" />
    <glyph glyph-name="Circumflex" horiz-adv-x="346" 
d="M334 747h-95l-65 73l-66 -73h-95l91 133h140z" />
    <glyph glyph-name="Tilde" horiz-adv-x="346" 
d="M332 873q0 -16 -2 -24q-4 -47 -29 -72t-68 -25q-24 0 -62 19t-53 19q-32 0 -32 -35h-71q0 54 25 87.5t76 33.5q26 0 63.5 -18.5t51.5 -18.5q32 0 32 34h69z" />
    <glyph glyph-name="Dieresis" horiz-adv-x="374" 
d="M154 815q0 -26 -18.5 -44t-44.5 -18t-44.5 18t-18.5 44t18.5 44t44.5 18t44.5 -18t18.5 -44zM347 815q0 -26 -18.5 -44t-44.5 -18t-44.5 18t-18.5 44t18.5 44t44.5 18t44.5 -18t18.5 -44z" />
    <glyph glyph-name="Macron" horiz-adv-x="346" 
d="M323 775h-299v81h299v-81z" />
    <glyph glyph-name="Acute" horiz-adv-x="374" 
d="M326 880l-122 -133h-97l90 133h129z" />
    <glyph glyph-name="Cedilla" horiz-adv-x="340" 
d="M276 -122q0 -39 -31.5 -63.5t-79.5 -24.5q-60 0 -95 35l35 44q26 -22 56 -22q41 0 41 32t-36 32q-21 0 -36 -15l-48 30l45 72l65 -3l-14.5 -21l-11.5 -17q6 2 14 2q46 0 71 -22.5t25 -58.5z" />
    <glyph glyph-name="Breve" horiz-adv-x="346" 
d="M328 880q0 -65 -42 -101t-113 -36t-112.5 36.5t-41.5 100.5h79q2 -28 21.5 -46.5t53.5 -18.5t53.5 18t21.5 47h80z" />
    <glyph glyph-name="Dotaccent" horiz-adv-x="346" 
d="M236 815q0 -26 -18.5 -44t-44.5 -18t-44.5 18t-18.5 44t18.5 44t44.5 18t44.5 -18t18.5 -44z" />
    <glyph glyph-name="Ring" horiz-adv-x="346" 
d="M280 816q0 -44 -31.5 -74.5t-75.5 -30.5t-75 30.5t-31 74.5t31 75t75 31t75.5 -31t31.5 -75zM219 816q0 20 -13.5 33.5t-32.5 13.5t-32 -13.5t-13 -33.5q0 -19 13 -32.5t32 -13.5t32.5 13.5t13.5 32.5z" />
    <glyph glyph-name="Hungarumlaut" horiz-adv-x="346" 
d="M368 880l-122 -133h-93l91 133h124zM194 880l-122 -133h-93l91 133h124z" />
    <glyph glyph-name="Ogonek" horiz-adv-x="358" 
d="M283 -164q-41 -36 -98 -36q-45 0 -77.5 23t-32.5 72q0 60 65 107h138l-23 -10t-35 -19t-38.5 -32.5t-14.5 -38.5q0 -15 9.5 -24.5t24.5 -9.5q22 0 43 16z" />
    <glyph glyph-name="Caron" horiz-adv-x="346" 
d="M12 880h95l65 -73l66 73h95l-91 -133h-140z" />
    <glyph glyph-name="commaaccent.cap" horiz-adv-x="500" 
 />
    <glyph glyph-name="commaaccent" horiz-adv-x="0" 
 />
    <glyph glyph-name="germandbls.small" horiz-adv-x="1162" 
d="M533 176q0 -89 -70.5 -139.5t-183.5 -50.5q-151 0 -235 82q-12 12 -20 22l71 78q78 -79 183 -79q61 0 94.5 22t33.5 60q0 28 -27 46t-68 24.5t-88.5 19.5t-88.5 29t-68 54.5t-27 95.5q0 78 65 129t172 51q149 0 231 -79q6 -6 20 -22l-73 -75q-22 23 -50 41
q-58 35 -128 35q-54 0 -83 -19.5t-29 -53.5q0 -30 27.5 -47.5t68.5 -23.5t88.5 -18t88.5 -28t68.5 -55.5t27.5 -98.5zM1114 176q0 -89 -70.5 -139.5t-183.5 -50.5q-151 0 -235 82q-12 12 -20 22l71 78q78 -79 183 -79q61 0 94.5 22t33.5 60q0 28 -27 46t-68 24.5t-88.5 19.5
t-88.5 29t-68 54.5t-27 95.5q0 78 65 129t172 51q149 0 231 -79q6 -6 20 -22l-73 -75q-22 23 -50 41q-58 35 -128 35q-54 0 -83 -19.5t-29 -53.5q0 -30 27.5 -47.5t68.5 -23.5t88.5 -18t88.5 -28t68.5 -55.5t27.5 -98.5z" />
    <glyph glyph-name="f_i" horiz-adv-x="660" 
d="M424 660l-37 -83q-43 19 -75 19q-34 0 -56 -17q-32 -24 -32 -84v-17h167v-97h-167v-381h-120v381h-104v97h104v20q0 94 51 145t145 51q32 0 63 -8.5t43.5 -15t17.5 -10.5zM612 618q0 -29 -20 -48.5t-50 -19.5t-50 19.5t-20 48.5t20 48.5t50 19.5t50 -19.5t20 -48.5z
M602 0h-120v478h120v-478z" />
    <glyph glyph-name="dollar.fitted" 
d="M561 189q0 -82 -58.5 -136t-151.5 -66v-91h-100v91q-42 5 -79 19t-59 28.5t-40 31.5t-24 25.5t-9 14.5l77 71q50 -67 134 -84v193q-39 10 -66.5 21t-60.5 33.5t-50.5 61t-17.5 90.5q0 80 55 134.5t140 65.5v90h100v-90q40 -4 74.5 -17t56.5 -27t38.5 -29.5t23 -24.5
t8.5 -13l-74 -69q-53 63 -127 76v-199q35 -8 57.5 -15.5t54.5 -23t51 -35t33 -52.5t14 -74zM251 408v179q-78 -21 -78 -95q0 -22 8 -38t23.5 -25.5t23.5 -13t23 -7.5zM443 184q0 62 -92 85v-178q37 6 64.5 28t27.5 65z" />
    <glyph glyph-name="cent.fitted" 
d="M477 150l77 -63l-8 -11.5t-21 -22.5t-36 -29t-51 -24.5t-67 -15.5v-88h-92v89q-107 11 -166 84.5t-59 174.5q0 99 59 171t166 86v88h92v-87q52 -4 97 -29t61.5 -42.5t22.5 -27.5l-77 -63q-43 50 -104 61v-315q66 10 106 64zM279 89v309q-48 -12 -74.5 -55t-26.5 -100
q0 -58 26 -99t75 -55z" />
    <glyph glyph-name="sterling.fitted" 
d="M570 582l-77 -64q-58 73 -141 73q-54 0 -83 -32.5t-29 -77.5q0 -39 16 -94h182v-97h-161q4 -20 4 -35q0 -94 -61 -151h337v-104h-496v95q100 44 100 149q0 11 -5 46h-95v97h72q-17 49 -17 98q0 90 64 149.5t162 59.5q52 0 96 -14.5t72 -37.5t40 -36t20 -24z" />
    <glyph glyph-name="florin.fitted" 
d="M604 670l-33 -91q-34 13 -64 13q-27 0 -48 -15q-25 -18 -38 -79l-10 -44h145v-97h-165l-82 -386q-21 -99 -78 -137q-47 -34 -120 -34q-59 0 -107 22l33 91q36 -13 64 -13q31 0 50 15q26 18 39 79l77 363h-96v97h116l15 67q21 98 77 137q50 36 118 36q55 0 107 -24z" />
    <glyph glyph-name="yen.fitted" 
d="M588 678l-165 -291h135v-97h-193v-65h187v-97h-187v-128h-120v128h-185v97h185v65h-192v97h133l-164 291h135l151 -291l149 291h131z" />
    <glyph glyph-name="Commaaccent" horiz-adv-x="0" 
 />
    <glyph glyph-name="germandblssmall" horiz-adv-x="1162" 
d="M533 176q0 -89 -70.5 -139.5t-183.5 -50.5q-151 0 -235 82q-12 12 -20 22l71 78q78 -79 183 -79q61 0 94.5 22t33.5 60q0 28 -27 46t-68 24.5t-88.5 19.5t-88.5 29t-68 54.5t-27 95.5q0 78 65 129t172 51q149 0 231 -79q6 -6 20 -22l-73 -75q-22 23 -50 41
q-58 35 -128 35q-54 0 -83 -19.5t-29 -53.5q0 -30 27.5 -47.5t68.5 -23.5t88.5 -18t88.5 -28t68.5 -55.5t27.5 -98.5zM1114 176q0 -89 -70.5 -139.5t-183.5 -50.5q-151 0 -235 82q-12 12 -20 22l71 78q78 -79 183 -79q61 0 94.5 22t33.5 60q0 28 -27 46t-68 24.5t-88.5 19.5
t-88.5 29t-68 54.5t-27 95.5q0 78 65 129t172 51q149 0 231 -79q6 -6 20 -22l-73 -75q-22 23 -50 41q-58 35 -128 35q-54 0 -83 -19.5t-29 -53.5q0 -30 27.5 -47.5t68.5 -23.5t88.5 -18t88.5 -28t68.5 -55.5t27.5 -98.5z" />
    <glyph glyph-name="dotlessismall" horiz-adv-x="256" 
d="M190 0h-124v606h124v-606z" />
    <glyph glyph-name="Eurooldstyle" horiz-adv-x="546" 
d="M532 91q-69 -105 -204 -105q-55 0 -100.5 20.5t-73 52.5t-43.5 63.5t-22 60.5h-75v90h71q-2 14 -2 27q0 10 2 26h-71v91h76q14 80 74 141.5t160 61.5q117 0 182 -78q8 -9 20 -27l-76 -59q-25 33 -53 48.5t-68 15.5q-51 0 -79.5 -32t-40.5 -71h180v-91h-190q-2 -14 -2 -26
q0 -13 2 -27h190v-90h-180q8 -33 38.5 -65t84.5 -32q75 0 124 65z" />
    <glyph glyph-name="dollaroldstyle" horiz-adv-x="543" 
d="M495 172q0 -75 -52 -124.5t-136 -59.5v-80h-79v80q-118 12 -190 110l73 67q17 -24 48 -45.5t69 -28.5v159q-35 9 -60.5 19.5t-55 31t-45 55t-15.5 81.5q0 73 49.5 123.5t126.5 58.5v79h79v-79q41 -3 77 -18t57.5 -33.5t32.5 -31.5t15 -20l-71 -66q-51 57 -110 66v-164
q39 -9 64.5 -18.5t57.5 -29t48.5 -53t16.5 -79.5zM228 370v148q-67 -18 -67 -78q0 -22 12 -37.5t23.5 -21t31.5 -11.5zM386 166q0 22 -12.5 36.5t-26 20t-39.5 12.5v-146q78 11 78 77z" />
    <glyph glyph-name="centoldstyle" horiz-adv-x="546" 
d="M495 72q-5 -9 -13.5 -18.5t-28.5 -28.5t-53 -33t-72 -17v-78h-79v78q-97 11 -148.5 77t-51.5 156q0 89 51.5 153.5t148.5 77.5v77h79v-76q89 -8 148 -72q10 -11 18 -23l-76 -62q-15 16 -28 27q-26 20 -62 28v-261q55 11 92 58zM249 80v255q-39 -12 -60.5 -47t-21.5 -81
q0 -47 21 -81t61 -46z" />
    <glyph glyph-name="sterlingoldstyle" horiz-adv-x="546" 
d="M507 515l-75 -63q-52 67 -125 67q-45 0 -68.5 -27.5t-23.5 -64.5q0 -30 15 -75h157v-98h-137q2 -10 2 -24q0 -85 -48 -129h289v-101h-443v91q87 38 87 129q0 19 -3 34h-84v98h62q-15 47 -15 78q0 81 58 135.5t145 54.5q113 0 186 -80q15 -17 21 -25z" />
    <glyph glyph-name="florinoldstyle" 
d="M604 670l-33 -91q-34 13 -64 13q-27 0 -48 -15q-25 -18 -38 -79l-10 -44h145v-97h-165l-82 -386q-21 -99 -78 -137q-47 -34 -120 -34q-59 0 -107 22l33 91q36 -13 64 -13q31 0 50 15q26 18 39 79l77 363h-96v97h116l15 67q21 98 77 137q50 36 118 36q55 0 107 -24z" />
    <glyph glyph-name="yenoldstyle" horiz-adv-x="546" 
d="M529 606l-143 -254h113v-98h-167v-55h161v-96h-161v-103h-118v103h-161v96h161v55h-167v98h112l-143 254h130l129 -255l129 255h125z" />
    </font>
</defs>
</svg>
