<?xml version="1.0" standalone="no"?>
<!DOCTYPE svg PUBLIC "-//W3C//DTD SVG 1.1//EN" "http://www.w3.org/Graphics/SVG/1.1/DTD/svg11.dtd" >
<svg>
<metadata>
Created by FontForge 20090622 at Fri Oct  7 20:23:07 2016
 By deploy user
Copyright (c) (c) The Foundry, London, 2005. All rights reserved.
</metadata>
<defs>
<font id="FoundryContext-ExtraBold" horiz-adv-x="624" >
  <font-face 
    font-family="Foundry Context Extra Bold"
    font-weight="800"
    font-stretch="normal"
    units-per-em="1000"
    panose-1="2 0 6 0 2 0 0 2 0 4"
    ascent="800"
    descent="-200"
    x-height="484"
    cap-height="678"
    bbox="-182 -228 1227 925"
    underline-thickness="50"
    underline-position="-50"
    unicode-range="U+0020-U+FB04"
  />
<missing-glyph horiz-adv-x="660" 
d="M600 -186h-540v864h540v-864zM187 575v-658h286v658h-286z" />
    <glyph glyph-name="f_j" unicode="fj" horiz-adv-x="684" 
d="M342 570q-80 0 -80 -80v-6h163v-126h-163v-358h-160v358h-102v126h102v6q0 94 54 148q58 58 168 58q37 0 71 -9.5t47 -16.5l-42 -111q-26 11 -58 11zM630 610q0 -36 -24.5 -60t-63.5 -24t-63.5 24t-24.5 60t24.5 60t63.5 24t63.5 -24t24.5 -60zM622 51q0 -38 -2.5 -62.5
t-11 -56t-28.5 -56.5t-53 -45q-51 -31 -133 -31q-89 0 -133 34l55 111q29 -16 64 -16q23 0 39.5 8t24.5 18.5t12.5 30.5t5 33.5t0.5 38.5v426h160v-433z" />
    <glyph glyph-name="f_f" unicode="ff" horiz-adv-x="811" 
d="M462 358h-200v-358h-160v358h-102v126h102v6q0 94 54 148q58 58 168 58q37 0 71 -9.5t47 -16.5l-42 -111q-26 11 -58 11q-80 0 -80 -80v-6h200v6q0 94 54 148q58 58 168 58q65 0 139 -37l-41 -110q-42 21 -80 21q-80 0 -80 -80v-6h163v-126h-163v-358h-160v358z" />
    <glyph glyph-name="fi" unicode="fi" horiz-adv-x="676" 
d="M630 610q0 -36 -24.5 -60t-63.5 -24t-63.5 24t-24.5 60t24.5 60t63.5 24t63.5 -24t24.5 -60zM622 0h-160v484h160v-484zM342 570q-80 0 -80 -80v-6h163v-126h-163v-358h-160v358h-102v126h102v6q0 94 54 148q58 58 168 58q37 0 71 -9.5t47 -16.5l-42 -111q-26 11 -58 11z
" />
    <glyph glyph-name="fl" unicode="fl" horiz-adv-x="676" 
d="M622 0h-160v678h160v-678zM342 570q-80 0 -80 -80v-6h163v-126h-163v-358h-160v358h-102v126h102v6q0 94 54 148q58 58 168 58q37 0 71 -9.5t47 -16.5l-42 -111q-26 11 -58 11z" />
    <glyph glyph-name="f_f_i" unicode="ffi" horiz-adv-x="1036" 
d="M462 358h-200v-358h-160v358h-102v126h102v6q0 94 54 148q58 58 168 58q37 0 71 -9.5t47 -16.5l-42 -111q-26 11 -58 11q-80 0 -80 -80v-6h200v6q0 94 54 148q58 58 168 58q37 0 71 -9.5t47 -16.5l-42 -111q-26 11 -58 11q-80 0 -80 -80v-6h163v-126h-163v-358h-160v358z
M990 610q0 -36 -24.5 -60t-63.5 -24t-63.5 24t-24.5 60t24.5 60t63.5 24t63.5 -24t24.5 -60zM982 0h-160v484h160v-484z" />
    <glyph glyph-name="f_f_l" unicode="ffl" horiz-adv-x="1036" 
d="M982 0h-160v678h160v-678zM462 358h-200v-358h-160v358h-102v126h102v6q0 94 54 148q58 58 168 58q37 0 71 -9.5t47 -16.5l-42 -111q-26 11 -58 11q-80 0 -80 -80v-6h200v6q0 94 54 148q58 58 168 58q37 0 71 -9.5t47 -16.5l-42 -111q-26 11 -58 11q-80 0 -80 -80v-6h163
v-126h-163v-358h-160v358z" />
    <glyph glyph-name="f_t" unicode="ft" horiz-adv-x="828" 
d="M262 484h200v143h160v-143h167v-126h-167v-135q0 -25 2 -39.5t9.5 -32.5t25.5 -26t48 -8q33 0 68 14l42 -113q-6 -4 -21 -10.5t-51.5 -14.5t-75.5 -8q-107 0 -157 45.5t-50 141.5v186h-200v-358h-160v358h-102v126h102v6q0 94 54 148q58 58 168 58q37 0 71 -9.5t47 -16.5
l-42 -111q-26 11 -58 11q-80 0 -80 -80v-6z" />
    <glyph glyph-name=".notdef" horiz-adv-x="660" 
d="M600 -186h-540v864h540v-864zM187 575v-658h286v658h-286z" />
    <glyph glyph-name=".null" horiz-adv-x="0" 
 />
    <glyph glyph-name="nonmarkingreturn" horiz-adv-x="333" 
 />
    <glyph glyph-name="space" unicode=" " horiz-adv-x="280" 
 />
    <glyph glyph-name="exclam" unicode="!" horiz-adv-x="320" 
d="M246 678l-6 -467h-160l-6 467h172zM251 76q0 -39 -25.5 -64.5t-65.5 -25.5t-66 25.5t-26 64.5t26 64.5t66 25.5t65.5 -25.5t25.5 -64.5z" />
    <glyph glyph-name="quotedbl" unicode="&#x22;" horiz-adv-x="498" 
d="M444 678l-36 -315h-98l-36 315h170zM224 678l-36 -315h-98l-36 315h170z" />
    <glyph glyph-name="numbersign" unicode="#" 
d="M584 448h-95l-25 -99h71v-105h-96l-32 -126h-113l32 126h-100l-32 -126h-114l32 126h-72v105h96l25 99h-73v105h96l31 125h114l-31 -125h100l31 125h113l-31 -125h73v-105zM375 448h-100l-25 -99h100z" />
    <glyph glyph-name="dollar" unicode="$" 
d="M574 196q0 -88 -63.5 -143.5t-163.5 -66.5v-90h-77v90q-147 14 -227 114l98 97q5 -7 17 -19.5t44 -31t68 -24.5v141q-34 8 -59 16t-56 25.5t-50.5 40t-33.5 59t-14 82.5q0 87 58.5 141t154.5 65v90h77v-90q44 -4 82 -16t60.5 -25t41 -29t24 -23l9.5 -12l-94 -93l-5 5
l-8 8t-9.5 8.5t-13 9.5l-16 9.5t-19.5 9t-23.5 7t-27.5 5.5v-149q39 -9 64 -16t59 -23.5t54 -37t34.5 -55.5t14.5 -79zM270 423v133q-64 -11 -64 -68q0 -52 64 -65zM425 187q0 45 -77 64v-129q77 7 77 65z" />
    <glyph glyph-name="percent" unicode="%" horiz-adv-x="891" 
d="M686 657l-402 -694l-80 46l402 694zM336 498q0 -83 -40 -136.5t-112 -53.5t-112 53.5t-40 136.5t40 136.5t112 53.5t112 -53.5t40 -136.5zM237 498q0 110 -52 110q-54 0 -54 -110t52 -110q54 0 54 110zM859 182q0 -83 -40 -136.5t-112 -53.5t-112 53.5t-40 136.5
t40 136.5t112 53.5t112 -53.5t40 -136.5zM760 182q0 110 -52 110q-54 0 -54 -110t52 -110q54 0 54 110z" />
    <glyph glyph-name="ampersand" unicode="&#x26;" horiz-adv-x="683" 
d="M677 0h-174l-49 56q-76 -72 -189 -72q-105 0 -173 50.5t-68 153.5q0 129 141 204q-30 35 -45 63.5t-15 63.5q0 81 58.5 128t144.5 47q77 0 133 -42.5t56 -117.5q0 -100 -119 -179l74 -86q18 23 22 76h131q0 -117 -58 -190zM358 531q0 21 -14 34t-36 13q-24 0 -39.5 -12
t-15.5 -35q0 -37 45 -80l9 5q9 6 13 9t12.5 10.5t13 14.5t8.5 18t4 23zM367 157l-116 136q-71 -44 -71 -98q0 -35 24 -56.5t64 -21.5q57 0 99 40z" />
    <glyph glyph-name="quotesingle" unicode="'" horiz-adv-x="278" 
d="M224 678l-36 -315h-98l-36 315h170z" />
    <glyph glyph-name="parenleft" unicode="(" horiz-adv-x="375" 
d="M375 -102l-109 -98q-230 188 -230 447t230 449l109 -96q-179 -163 -179 -353q0 -186 179 -349z" />
    <glyph glyph-name="parenright" unicode=")" horiz-adv-x="375" 
d="M109 -200l-109 98q179 163 179 349q0 190 -179 353l109 96q230 -190 230 -449t-230 -447z" />
    <glyph glyph-name="asterisk" unicode="*" horiz-adv-x="433" 
d="M415 503l-113 -37l72 -91l-91 -65l-64 98l-65 -99l-93 64l72 93l-115 37l39 102l108 -42l-2 115h109l-2 -114l108 41z" />
    <glyph glyph-name="plus" unicode="+" 
d="M578 183h-197v-197h-138v197h-197v138h197v197h138v-197h197v-138z" />
    <glyph glyph-name="comma" unicode="," horiz-adv-x="279" 
d="M245 153l-113 -293h-98l41 293h170z" />
    <glyph glyph-name="hyphen" unicode="-" horiz-adv-x="474" 
d="M414 183h-354v138h354v-138z" />
    <glyph glyph-name="period" unicode="." horiz-adv-x="287" 
d="M235 76q0 -39 -25.5 -64.5t-65.5 -25.5t-66 25.5t-26 64.5t26 64.5t66 25.5t65.5 -25.5t25.5 -64.5z" />
    <glyph glyph-name="slash" unicode="/" horiz-adv-x="471" 
d="M423 678l-290 -906l-133 42l290 906z" />
    <glyph glyph-name="zero" unicode="0" 
d="M592 339q0 -157 -73.5 -256t-206.5 -99t-206.5 99t-73.5 256t73.5 256t206.5 99t206.5 -99t73.5 -256zM426 339q0 217 -113 217q-35 0 -59.5 -21t-35.5 -57t-15.5 -69t-4.5 -70q0 -217 113 -217q35 0 59.5 21t35.5 57t15.5 69t4.5 70z" />
    <glyph glyph-name="one" unicode="1" 
d="M590 0h-502v136h171v378l-133 -84l-76 114l213 134h158v-542h169v-136z" />
    <glyph glyph-name="two" unicode="2" 
d="M563 483q0 -60 -31 -107.5t-76.5 -77t-90.5 -53.5t-79 -50.5t-37 -56.5h310v-138h-487q0 50 1.5 74t8 63t24.5 69.5t47 60.5q31 31 80 61.5t84 49t61.5 46t26.5 59.5q0 35 -28 56t-63 21q-15 0 -30 -2t-28 -6.5t-24 -9t-21.5 -11t-18 -12t-15 -12t-11.5 -10.5t-8 -9
l-5 -5l-93 92q102 119 256 119q107 0 177 -58t70 -153z" />
    <glyph glyph-name="three" unicode="3" 
d="M558 179q0 -86 -75.5 -140.5t-188.5 -54.5q-97 0 -162.5 33t-95.5 73l93 93q5 -6 20.5 -19t53.5 -29.5t77 -16.5q55 0 85.5 20t30.5 59q0 81 -146 81h-35v130h21q32 0 51.5 2t45 8.5t38.5 24t13 44.5q0 34 -28 54.5t-66 20.5q-81 0 -146 -65l-91 91q100 106 245 106
q99 0 169.5 -52.5t70.5 -141.5q0 -66 -34.5 -105t-69.5 -52q16 -4 33.5 -13.5t39.5 -27.5t36.5 -50t14.5 -73z" />
    <glyph glyph-name="four" unicode="4" 
d="M597 128h-101v-128h-157v128h-312v128l298 422h171v-418h101v-132zM339 260v224l-158 -224h158z" />
    <glyph glyph-name="five" unicode="5" 
d="M568 231q0 -110 -74.5 -178.5t-204.5 -68.5q-65 0 -120.5 19.5t-77.5 36t-30 26.5l83 102q62 -51 142 -51q54 0 88.5 27.5t34.5 80.5q0 47 -29.5 71t-72.5 24q-67 0 -101 -55l-127 47l39 366h405v-130h-286l-16 -138q46 37 131 37q92 0 154 -56t62 -160z" />
    <glyph glyph-name="six" unicode="6" 
d="M592 234q0 -106 -71.5 -178t-191.5 -72q-64 0 -114 21.5t-80.5 55.5t-50.5 80t-27.5 91.5t-7.5 93.5t7.5 94.5t28 97.5t51.5 89t84 62.5t121 24.5q47 0 88 -10t66 -22.5t46 -29t28 -24.5t11 -14l-94 -92q-59 59 -133 59q-46 0 -79 -22.5t-46 -55t-18 -59t-4 -43.5
q23 28 66 49.5t99 21.5q96 0 158.5 -57t62.5 -161zM432 217q0 47 -29.5 74.5t-75.5 27.5t-75 -27.5t-29 -74.5t29 -74.5t75 -27.5t75.5 27.5t29.5 74.5z" />
    <glyph glyph-name="seven" unicode="7" 
d="M571 542l-276 -542h-184l285 540h-343v138h518v-136z" />
    <glyph glyph-name="eight" unicode="8" 
d="M565 500q0 -65 -34.5 -104.5t-69.5 -51.5q14 -3 32.5 -13t40.5 -27.5t36.5 -48.5t14.5 -69q0 -96 -77 -149t-196 -53t-196 53t-77 149q0 66 43 107.5t81 50.5q-35 12 -69.5 51.5t-34.5 104.5q0 91 72 142.5t181 51.5q110 0 181.5 -51.5t71.5 -142.5zM420 192q0 43 -32 67
t-77 24t-76.5 -24t-31.5 -67q0 -41 32 -64.5t76 -23.5q45 0 77 23.5t32 64.5zM417 485q0 42 -31 65.5t-74 23.5t-73.5 -23.5t-30.5 -65.5q0 -39 30.5 -61t73.5 -22t74 22t31 61z" />
    <glyph glyph-name="nine" unicode="9" 
d="M32 444q0 106 71.5 178t191.5 72q64 0 114 -21.5t80.5 -55.5t50.5 -80t27.5 -91.5t7.5 -93.5t-7.5 -94.5t-28 -97.5t-51.5 -89t-84 -62.5t-121 -24.5q-47 0 -88 10t-66 22.5t-46 29t-28 24.5t-11 14l94 92q59 -59 133 -59q46 0 79 22.5t46 55t18 59t4 43.5
q-23 -28 -66 -49.5t-99 -21.5q-96 0 -158.5 57t-62.5 161zM192 461q0 -47 29.5 -74.5t75.5 -27.5t75 27.5t29 74.5t-29 74.5t-75 27.5t-75.5 -27.5t-29.5 -74.5z" />
    <glyph glyph-name="colon" unicode=":" horiz-adv-x="294" 
d="M242 408q0 -39 -26.5 -64.5t-68.5 -25.5t-68.5 25.5t-26.5 64.5t26.5 64.5t68.5 25.5t68.5 -25.5t26.5 -64.5zM242 76q0 -39 -26.5 -64.5t-68.5 -25.5t-68.5 25.5t-26.5 64.5t26.5 64.5t68.5 25.5t68.5 -25.5t26.5 -64.5z" />
    <glyph glyph-name="semicolon" unicode=";" horiz-adv-x="304" 
d="M258 408q0 -39 -26.5 -64.5t-68.5 -25.5t-68.5 25.5t-26.5 64.5t26.5 64.5t68.5 25.5t68.5 -25.5t26.5 -64.5zM248 153l-113 -293h-98l41 293h170z" />
    <glyph glyph-name="less" unicode="&#x3c;" 
d="M578 0l-532 183v138l532 186v-145l-349 -110l349 -107v-145z" />
    <glyph glyph-name="equal" unicode="=" 
d="M578 293h-532v138h532v-138zM578 73h-532v138h532v-138z" />
    <glyph glyph-name="greater" unicode="&#x3e;" 
d="M578 183l-532 -183v145l349 107l-349 110v145l532 -186v-138z" />
    <glyph glyph-name="question" unicode="?" horiz-adv-x="537" 
d="M513 499q0 -87 -86 -145q-19 -13 -46 -29t-34.5 -22t-14 -19t-6.5 -33v-40h-148v33q0 69 17 103t80 69q25 14 35 21t21.5 24t11.5 38q0 24 -18 40t-57 16q-73 0 -136 -79l-106 91q95 127 252 127q103 0 169 -53.5t66 -141.5zM343 76q0 -39 -25.5 -64.5t-65.5 -25.5
t-66 25.5t-26 64.5t26 64.5t66 25.5t65.5 -25.5t25.5 -64.5z" />
    <glyph glyph-name="at" unicode="@" horiz-adv-x="969" 
d="M848 152q-68 -83 -170 -83q-41 0 -67.5 19.5t-33.5 52.5q-63 -71 -167 -71q-67 0 -114.5 43.5t-47.5 123.5q0 104 71 182.5t184 78.5q63 0 103 -42l7 27h118l-56 -243q-7 -33 -7 -42q0 -22 18 -22q28 0 58 28q59 59 59 162q0 102 -76 161.5t-200 59.5q-160 0 -258.5 -93
t-98.5 -234q0 -125 86.5 -205t232.5 -80q184 0 303 95l72 -75q-145 -127 -377 -127q-195 0 -317 110.5t-122 282.5q0 184 131.5 308.5t338.5 124.5q174 0 288.5 -86.5t114.5 -235.5q0 -131 -73 -220zM502 394q-55 0 -90.5 -47.5t-35.5 -104.5q0 -64 62 -64q57 0 93.5 44.5
t36.5 100.5q0 36 -19 53.5t-47 17.5z" />
    <glyph glyph-name="A" unicode="A" horiz-adv-x="736" 
d="M730 0h-180l-49 121h-272l-49 -121h-174l276 678h172zM455 251l-90 245l-90 -245h180z" />
    <glyph glyph-name="B" unicode="B" horiz-adv-x="694" 
d="M658 198q0 -51 -18 -88t-45.5 -58t-72 -33t-86.5 -15.5t-99 -3.5h-271v678h269q48 0 73 -1t62 -5.5t63.5 -16.5t46.5 -31q49 -46 49 -111q0 -121 -111 -158q12 -2 22.5 -5t34 -15t40 -27.5t30 -44.5t13.5 -65zM459 478q0 23 -10.5 38t-30.5 21t-35.5 7.5t-40.5 1.5h-110
v-140h109q61 0 89.5 14.5t28.5 57.5zM485 209q0 24 -10.5 39t-31 21.5t-39 8.5t-46.5 2h-126v-146h125q31 0 49.5 2t39 9t30 22.5t9.5 41.5z" />
    <glyph glyph-name="C" unicode="C" horiz-adv-x="715" 
d="M691 98q-114 -114 -289 -114q-174 0 -270 100t-96 254q0 151 98 253.5t270 102.5q170 0 275 -114l-99 -99q-73 73 -170 73q-95 0 -147.5 -62t-52.5 -152q0 -96 57 -155.5t144 -59.5q105 0 188 75z" />
    <glyph glyph-name="D" unicode="D" horiz-adv-x="746" 
d="M710 342q0 -160 -108 -254q-36 -31 -77.5 -50.5t-88.5 -27t-75.5 -9t-73.5 -1.5h-221v678h221q71 0 116 -3.5t102 -22t97 -53.5q108 -94 108 -257zM536 342q0 101 -55 156q-20 20 -51 30t-53 11.5t-64 1.5h-77v-403h77q39 0 62.5 2t53.5 13.5t52 33.5q55 54 55 155z" />
    <glyph glyph-name="E" unicode="E" horiz-adv-x="628" 
d="M592 0h-526v678h512v-141h-342v-127h317v-138h-317v-130h356v-142z" />
    <glyph glyph-name="F" unicode="F" horiz-adv-x="584" 
d="M566 537h-330v-141h303v-138h-303v-258h-170v678h500v-141z" />
    <glyph glyph-name="G" unicode="G" horiz-adv-x="760" 
d="M713 0h-127l-2 63q-6 -8 -27 -24t-72.5 -35.5t-109.5 -19.5q-157 0 -248 101.5t-91 252.5t97.5 253.5t269.5 102.5q62 0 114.5 -14.5t86.5 -37.5t49 -36.5t25 -25.5l-99 -99q-73 73 -170 73q-95 0 -147.5 -62t-52.5 -152q0 -93 53.5 -154.5t142.5 -61.5q70 0 119.5 35.5
t49.5 100.5h-176v130h315v-390z" />
    <glyph glyph-name="H" unicode="H" horiz-adv-x="740" 
d="M674 0h-170v272h-268v-272h-170v678h170v-265h268v265h170v-678z" />
    <glyph glyph-name="I" unicode="I" horiz-adv-x="302" 
d="M236 0h-170v678h170v-678z" />
    <glyph glyph-name="J" unicode="J" horiz-adv-x="544" 
d="M484 245q0 -39 -2 -63.5t-16 -61.5t-41 -64q-71 -71 -203 -71q-47 0 -88.5 12t-68 31.5t-40.5 33t-23 26.5l102 96l4 -4q3 -5 5 -7t7 -7.5t9 -8.5l10.5 -8t12 -8.5t14 -7.5t16.5 -6t18 -3.5t20 -1.5q33 0 53.5 10.5t28.5 30.5t10 34t2 37v444h170v-433z" />
    <glyph glyph-name="K" unicode="K" horiz-adv-x="700" 
d="M700 0h-210l-254 290v-290h-170v678h170v-274l255 274h198l-309 -326z" />
    <glyph glyph-name="L" unicode="L" horiz-adv-x="567" 
d="M561 0h-495v678h170v-536h325v-142z" />
    <glyph glyph-name="M" unicode="M" horiz-adv-x="914" 
d="M848 0h-156v508l-161 -508h-151l-161 508v-508h-153v678h243l149 -469l149 469h241v-678z" />
    <glyph glyph-name="N" unicode="N" horiz-adv-x="740" 
d="M674 0h-169l-280 415v-415h-159v678h169l280 -415v415h159v-678z" />
    <glyph glyph-name="O" unicode="O" horiz-adv-x="798" 
d="M762 339q0 -67 -23 -129t-66 -113.5t-114.5 -82t-159.5 -30.5t-159.5 30.5t-114.5 82t-66 113.5t-23 129t23 129t66 113.5t114.5 82t159.5 30.5t159.5 -30.5t114.5 -82t66 -113.5t23 -129zM588 339q0 91 -49 153.5t-140 62.5t-140 -62.5t-49 -153.5t49 -153t140 -62
t140 62t49 153z" />
    <glyph glyph-name="P" unicode="P" horiz-adv-x="647" 
d="M629 458q0 -60 -23.5 -105t-64.5 -70.5t-91.5 -38t-110.5 -12.5h-103v-232h-170v678h239q88 0 140.5 -8t95.5 -39q88 -62 88 -173zM464 457q0 30 -13 49t-38 27t-45 10t-49 2h-83v-179h83q30 0 52.5 3t45.5 11.5t35 28t12 48.5z" />
    <glyph glyph-name="Q" unicode="Q" horiz-adv-x="798" 
d="M762 339q0 -145 -91 -245l86 -90l-96 -91l-98 103q-70 -32 -164 -32q-88 0 -159.5 30.5t-114.5 82t-66 113.5t-23 129t23 129t66 113.5t114.5 82t159.5 30.5t159.5 -30.5t114.5 -82t66 -113.5t23 -129zM588 339q0 91 -49 153t-140 62t-140 -62t-49 -153t49 -153t140 -62
q31 0 55 7l-83 87l96 91l91 -96q30 54 30 126z" />
    <glyph glyph-name="R" unicode="R" horiz-adv-x="685" 
d="M676 0h-195l-174 246h-71v-246h-170v678h276q52 0 84.5 -3t76 -18.5t73.5 -45.5q60 -60 60 -146t-57 -143q-39 -39 -96 -56zM466 465q0 31 -21 52q-27 27 -105 27h-105v-164h90q24 0 40.5 1t37.5 6t33.5 13.5t21 25t8.5 39.5z" />
    <glyph glyph-name="S" unicode="S" horiz-adv-x="678" 
d="M630 201q0 -102 -84.5 -159.5t-217.5 -57.5q-68 0 -126.5 13t-95.5 32.5t-54.5 31.5t-26.5 21l90 115q97 -74 213 -74q132 0 132 69q0 25 -23 40.5t-60 23.5t-81 15.5t-88.5 21t-81.5 34.5t-60 61.5t-23 97.5q0 93 77.5 150.5t203.5 57.5q199 0 299 -100l-94 -108
q-86 72 -206 72q-53 0 -82.5 -17.5t-29.5 -46.5q0 -28 31 -43.5t77.5 -20t101 -17.5t101 -31.5t77.5 -65t31 -115.5z" />
    <glyph glyph-name="T" unicode="T" horiz-adv-x="622" 
d="M616 537h-220v-537h-170v537h-220v141h610v-141z" />
    <glyph glyph-name="U" unicode="U" horiz-adv-x="736" 
d="M676 286q0 -143 -78 -218q-85 -84 -230 -84q-146 0 -233 87q-75 75 -75 215v392h170v-368q0 -35 1 -52.5t9 -45t25 -45.5q39 -41 104 -41t103 40q17 17 25.5 44.5t9.5 46.5t1 53v368h168v-392z" />
    <glyph glyph-name="V" unicode="V" horiz-adv-x="720" 
d="M714 678l-268 -678h-172l-268 678h186l170 -478l175 478h177z" />
    <glyph glyph-name="W" unicode="W" horiz-adv-x="1048" 
d="M1036 678l-206 -678h-168l-136 455l-135 -455h-171l-208 678h178l128 -448l131 448h154l134 -448l125 448h174z" />
    <glyph glyph-name="X" unicode="X" horiz-adv-x="671" 
d="M665 0h-196l-134 213l-139 -213h-190l239 353l-218 325h193l120 -194l126 194h179l-216 -325z" />
    <glyph glyph-name="Y" unicode="Y" horiz-adv-x="666" 
d="M660 678l-242 -406v-272h-170v272l-242 406h191l136 -253l143 253h184z" />
    <glyph glyph-name="Z" unicode="Z" horiz-adv-x="660" 
d="M624 0h-588v134l357 403h-343v141h560v-134l-357 -402h371v-142z" />
    <glyph glyph-name="bracketleft" unicode="[" horiz-adv-x="339" 
d="M327 -186h-273v864h273v-132h-103v-600h103v-132z" />
    <glyph glyph-name="backslash" unicode="\" horiz-adv-x="401" 
d="M122 720l290 -906l-133 -42l-290 906z" />
    <glyph glyph-name="bracketright" unicode="]" horiz-adv-x="339" 
d="M285 -186h-273v132h103v600h-103v132h273v-864z" />
    <glyph glyph-name="asciicircum" unicode="^" 
d="M574 162h-151l-112 338l-111 -338h-150l190 516h142z" />
    <glyph glyph-name="underscore" unicode="_" horiz-adv-x="574" 
d="M574 -186h-574v138h574v-138z" />
    <glyph glyph-name="grave" unicode="`" horiz-adv-x="346" 
d="M304 540h-123l-127 138h156z" />
    <glyph glyph-name="a" unicode="a" horiz-adv-x="545" 
d="M497 0h-141l-4 49q-56 -61 -152 -61q-71 0 -120.5 39t-49.5 113q0 61 39 100q63 63 188 63h87v13q0 67 -88 67q-31 0 -64.5 -13t-48 -23t-23.5 -18l-68 94l4 4q4 4 8 7.5t11.5 9l15 10.5t19 11.5t23 11.5t26.5 10t31 8.5t35.5 5.5t39.5 2q118 0 175 -57
q36 -36 46.5 -81.5t10.5 -120.5v-244zM344 188v19h-74q-89 0 -89 -60q0 -25 17 -39t45 -14q44 0 73 24q28 24 28 70z" />
    <glyph glyph-name="b" unicode="b" horiz-adv-x="629" 
d="M599 241q0 -101 -62 -178t-173 -77q-99 0 -158 69l-4 -55h-148v678h160v-243q68 68 164 68q87 0 154 -66.5t67 -195.5zM435 243q0 56 -29.5 95t-82.5 39t-82.5 -39t-29.5 -95t29.5 -94.5t82.5 -38.5t82.5 38t29.5 95z" />
    <glyph glyph-name="c" unicode="c" horiz-adv-x="547" 
d="M526 87q-3 -5 -9.5 -13.5t-26 -25.5t-43 -30t-62 -23.5t-82.5 -10.5q-132 0 -202.5 74.5t-70.5 184.5q0 108 71.5 184t202.5 76q42 0 79.5 -9.5t60.5 -21.5t42.5 -28.5t26 -23.5t10.5 -13l-92 -85q-53 53 -118 53q-57 0 -88 -38.5t-31 -94.5t31 -93.5t88 -37.5
q72 0 121 58z" />
    <glyph glyph-name="d" unicode="d" horiz-adv-x="629" 
d="M575 0h-148l-4 59q-58 -73 -168 -73q-40 0 -77 13.5t-71.5 42t-55.5 81.5t-21 123q0 101 62 179t173 78q94 0 150 -63v238h160v-678zM418 244q0 57 -29 95.5t-83 38.5q-53 0 -82.5 -39t-29.5 -95q0 -58 29.5 -96t82.5 -38t82.5 38t29.5 96z" />
    <glyph glyph-name="e" unicode="e" horiz-adv-x="566" 
d="M536 196h-344q0 -34 26 -63t86 -29q72 0 135 55l84 -82q-85 -93 -225 -93q-71 0 -124.5 22t-83.5 59.5t-45 81.5t-15 94q0 48 15 93t45 83.5t83 62t121 23.5q104 0 168 -64q46 -46 60 -102.5t14 -140.5zM383 297q0 8 -2.5 19.5t-10.5 29.5t-29.5 30.5t-52.5 12.5
q-38 0 -61.5 -22t-29 -40.5t-5.5 -29.5h191z" />
    <glyph glyph-name="f" unicode="f" horiz-adv-x="451" 
d="M463 659l-41 -110q-42 21 -80 21q-80 0 -80 -80v-6h163v-126h-163v-358h-160v358h-102v126h102v6q0 94 54 148q58 58 168 58q65 0 139 -37z" />
    <glyph glyph-name="g" unicode="g" horiz-adv-x="616" 
d="M562 484v-407q0 -49 -2 -75t-14.5 -63t-38.5 -64q-70 -75 -217 -75q-56 0 -102 10t-74 26t-40.5 25.5t-20.5 18.5l83 97q60 -51 140 -51q76 0 101 30.5t25 75.5v46q-68 -68 -160 -68q-83 0 -147.5 62.5t-64.5 184.5q0 61 24 115.5t77 92.5t125 38q21 0 40.5 -4t34 -10.5
t27 -14t22 -16t15.5 -14.5t11 -12l4 -5l2 57h150zM404 255q0 53 -27.5 90.5t-77.5 37.5t-77.5 -37.5t-27.5 -90.5t27.5 -90t77.5 -37t77.5 37t27.5 90z" />
    <glyph glyph-name="h" unicode="h" horiz-adv-x="589" 
d="M541 0h-160v275q0 21 -1 33t-7.5 26t-18.5 22q-19 14 -50 14q-40 0 -65 -25t-25 -106v-239h-160v678h160v-236q56 61 148 61q83 0 134 -51q45 -45 45 -149v-303z" />
    <glyph glyph-name="i" unicode="i" horiz-adv-x="268" 
d="M222 610q0 -36 -24.5 -60t-63.5 -24t-63.5 24t-24.5 60t24.5 60t63.5 24t63.5 -24t24.5 -60zM214 0h-160v484h160v-484z" />
    <glyph glyph-name="j" unicode="j" horiz-adv-x="301" 
d="M247 610q0 -36 -24.5 -60t-63.5 -24t-63.5 24t-24.5 60t24.5 60t63.5 24t63.5 -24t24.5 -60zM239 51q0 -38 -2.5 -62.5t-11 -56t-28.5 -56.5t-53 -45q-51 -31 -133 -31q-89 0 -133 34l55 111q29 -16 64 -16q23 0 39.5 8t24.5 18.5t12.5 30.5t5 33.5t0.5 38.5v426h160
v-433z" />
    <glyph glyph-name="k" unicode="k" horiz-adv-x="583" 
d="M583 0h-192l-177 216v-216h-160v678h160v-399l177 205h186l-211 -231z" />
    <glyph glyph-name="l" unicode="l" horiz-adv-x="268" 
d="M214 0h-160v678h160v-678z" />
    <glyph glyph-name="m" unicode="m" horiz-adv-x="842" 
d="M794 0h-160v279q0 52 -10 67q-5 8 -12 13q-16 11 -38 11q-28 0 -48 -17q-11 -10 -16 -26.5t-5.5 -27t-0.5 -34.5v-265h-160v279q0 52 -10 67q-5 8 -12 13q-16 11 -38 11q-28 0 -48 -17q-11 -10 -16 -26.5t-5.5 -27t-0.5 -34.5v-265h-160v484h151l2 -51q56 70 142 70
q42 0 74 -17.5t40.5 -29.5t14.5 -23q60 70 154 70q70 0 116 -47q29 -31 37.5 -71.5t8.5 -96.5v-288z" />
    <glyph glyph-name="n" unicode="n" horiz-adv-x="589" 
d="M541 0h-160v275q0 21 -1 33t-7.5 26t-18.5 22q-19 14 -50 14q-40 0 -65 -25t-25 -106v-239h-160v484h150l2 -52q71 71 159 71q80 0 131 -51q45 -45 45 -149v-303z" />
    <glyph glyph-name="o" unicode="o" horiz-adv-x="612" 
d="M582 244q0 -47 -16 -92t-47.5 -83t-86.5 -61.5t-126 -23.5t-126 23.5t-86.5 61.5t-47.5 83t-16 92t16 91.5t47.5 83t86.5 61.5t126 23t126 -23t86.5 -61.5t47.5 -83t16 -91.5zM418 244q0 58 -29 95.5t-83 37.5q-55 0 -83.5 -38t-28.5 -95q0 -58 29 -96t83 -38t83 38
t29 96z" />
    <glyph glyph-name="p" unicode="p" horiz-adv-x="629" 
d="M599 240q0 -101 -62 -177.5t-173 -76.5q-98 0 -150 62v-234h-160v670h150l2 -63l4 5q5 5 9.5 10.5t13.5 13t18.5 14.5t23.5 14.5t29 12.5t34 8.5t40 3.5q87 0 154 -67t67 -196zM435 242q0 56 -29.5 95.5t-82.5 39.5t-82.5 -39.5t-29.5 -95.5t29 -94t83 -38t83 38t29 94z
" />
    <glyph glyph-name="q" unicode="q" horiz-adv-x="629" 
d="M575 -186h-160v235q-63 -63 -164 -63q-87 0 -154 64.5t-67 193.5q0 64 25 121.5t80 97.5t130 40q100 0 157 -74l1 -2l2 57h150v-670zM418 242q0 57 -29 96t-83 39q-53 0 -82.5 -39.5t-29.5 -95.5t29 -94t83 -38t83 37.5t29 94.5z" />
    <glyph glyph-name="r" unicode="r" horiz-adv-x="406" 
d="M400 351q-16 2 -33 2q-66 0 -102 -30q-23 -19 -35 -44.5t-14 -44t-2 -52.5v-182h-160v484h150l2 -83q26 43 75.5 72.5t99.5 29.5q13 0 19 -1v-151z" />
    <glyph glyph-name="s" unicode="s" horiz-adv-x="515" 
d="M485 154q0 -84 -67.5 -128.5t-166.5 -44.5q-138 0 -233 73l69 100q69 -55 164 -55q33 0 51.5 9.5t21.5 17t3 14.5q0 20 -30.5 29.5t-74 15.5t-87 17.5t-74 45.5t-30.5 90q0 76 61 120.5t161 44.5q144 0 223 -79l-73 -86q-56 48 -141 48q-74 0 -74 -42q0 -19 30.5 -27
t74 -13.5t87.5 -16.5t74.5 -44.5t30.5 -88.5z" />
    <glyph glyph-name="t" unicode="t" horiz-adv-x="456" 
d="M445 18q-6 -4 -21 -10.5t-51.5 -14.5t-75.5 -8q-107 0 -157 45.5t-50 141.5v186h-102v126h102v143h160v-143h167v-126h-167v-135q0 -25 2 -39.5t9.5 -32.5t25.5 -26t48 -8q33 0 68 14z" />
    <glyph glyph-name="u" unicode="u" horiz-adv-x="589" 
d="M535 0h-148l-4 57q-6 -9 -19 -22t-51.5 -31t-84.5 -18q-81 0 -129 46q-33 33 -42 73.5t-9 103.5v275h160v-270q0 -54 20 -74q21 -21 57 -21q40 0 65 25q16 16 20.5 38.5t4.5 63.5v238h160v-484z" />
    <glyph glyph-name="v" unicode="v" horiz-adv-x="582" 
d="M576 484l-208 -484h-152l-210 484h176l113 -289l111 289h170z" />
    <glyph glyph-name="w" unicode="w" horiz-adv-x="865" 
d="M846 484l-166 -484h-153l-96 288l-96 -288h-152l-167 484h166l90 -289l99 289h123l100 -289l92 289h160z" />
    <glyph glyph-name="x" unicode="x" horiz-adv-x="571" 
d="M565 0h-180l-105 146l-102 -146h-172l190 244l-184 240h176l99 -137l101 137h171l-187 -238z" />
    <glyph glyph-name="y" unicode="y" horiz-adv-x="566" 
d="M563 484l-204 -506q-14 -35 -29 -61.5t-41 -55.5t-65.5 -45t-90.5 -16q-75 0 -112 32l47 109q24 -12 51 -12q37 0 55 18t35 60l-206 477h170l114 -299l113 299h163z" />
    <glyph glyph-name="z" unicode="z" horiz-adv-x="511" 
d="M487 0h-463v120l251 238h-241v126h443v-120l-249 -236h259v-128z" />
    <glyph glyph-name="braceleft" unicode="{" horiz-adv-x="361" 
d="M0 322q38 0 59 21q17 17 17 55v121q0 75 37 112q28 28 71 37.5t109 9.5h56v-132h-9q-38 0 -52.5 -2.5t-26.5 -14.5q-4 -4 -6.5 -10.5t-4 -16.5t-2.5 -18.5t-1.5 -23t-0.5 -23v-25v-22.5v-16v-17.5t-0.5 -16t-2.5 -17t-4.5 -14.5t-7 -16t-10.5 -13q-20 -22 -66 -28
q46 -6 66 -28q6 -6 10.5 -13t7 -16t4.5 -14.5t2.5 -17t0.5 -16v-17.5v-16v-23.5v-26.5t0.5 -25t1.5 -26t2.5 -21t4 -18t6.5 -11q12 -12 26.5 -14.5t53.5 -2.5h8v-132h-56q-66 0 -109 9.5t-71 37.5q-37 37 -37 112v133q0 38 -17 55q-21 21 -59 21v140z" />
    <glyph glyph-name="bar" unicode="|" horiz-adv-x="302" 
d="M236 -186h-170v986h170v-986z" />
    <glyph glyph-name="braceright" unicode="}" horiz-adv-x="361" 
d="M361 322v-140q-38 0 -59 -21q-17 -17 -17 -55v-133q0 -75 -37 -112q-28 -28 -71 -37.5t-109 -9.5h-56v132h8q39 0 53.5 2.5t26.5 14.5q4 4 6.5 11t4 18t2.5 21t1.5 26t0.5 25v26.5v23.5v16v17.5t0.5 16t2.5 17t4.5 14.5t7 16t10.5 13q20 22 66 28q-46 6 -66 28
q-6 6 -10.5 13t-7 16t-4.5 14.5t-2.5 17t-0.5 16v17.5v16v22.5v25t-0.5 23t-1.5 23t-2.5 18.5t-4 16.5t-6.5 10.5q-12 12 -26 14.5t-53 2.5h-9v132h56q66 0 109 -9.5t71 -37.5q37 -37 37 -112v-121q0 -38 17 -55q21 -21 59 -21z" />
    <glyph glyph-name="asciitilde" unicode="~" 
d="M582 273q-72 -114 -171 -114q-44 0 -98 21q-44 18 -73 18q-46 0 -87 -52l-111 84q73 115 171 115q43 0 95 -21q44 -18 74 -18q47 0 87 51z" />
    <glyph glyph-name="exclamdown" unicode="&#xa1;" horiz-adv-x="320" 
d="M240 281l6 -467h-172l6 467h160zM251 416q0 -39 -25.5 -64.5t-65.5 -25.5t-66 25.5t-26 64.5t26 64.5t66 25.5t65.5 -25.5t25.5 -64.5z" />
    <glyph glyph-name="cent" unicode="&#xa2;" 
d="M572 86l-9.5 -12t-23.5 -23.5t-38.5 -29t-55 -24t-72.5 -14.5v-87h-77v89q-117 8 -180.5 81.5t-63.5 176.5q0 102 63 174t181 83v88h77v-87q121 -8 197 -100l-99 -81q-46 46 -98 53v-262q58 8 101 58zM296 115v254q-41 -11 -63.5 -45t-22.5 -82t22.5 -82t63.5 -45z" />
    <glyph glyph-name="sterling" unicode="&#xa3;" 
d="M361 560q-50 0 -73 -26.5t-23 -64.5q0 -34 9 -66h179v-126h-151q1 -4 1 -14q0 -79 -47 -125h320v-138h-521v126q99 33 99 125q0 10 -2 26h-97v126h69q-11 33 -11 82q0 88 67.5 148.5t169.5 60.5q152 0 238 -115q2 -1 2 -2l-100 -84q-51 67 -129 67z" />
    <glyph glyph-name="currency" unicode="&#xa4;" 
d="M586 564l-90 -89q45 -67 45 -132q0 -72 -44 -134l86 -89l-51 -51l-88 88q-71 -45 -138 -45q-69 0 -132 45l-89 -89l-51 52l88 89q-43 65 -43 132q0 70 45 134l-89 89l51 51l90 -89q65 46 134 46t135 -46l89 90zM460 344q0 63 -44.5 106.5t-108.5 43.5q-60 0 -104 -44.5
t-44 -106.5q0 -63 44.5 -107.5t106.5 -44.5q63 0 106.5 44.5t43.5 108.5z" />
    <glyph glyph-name="yen" unicode="&#xa5;" 
d="M608 678l-140 -275h107v-118h-181v-67h174v-116h-174v-102h-164v102h-174v116h174v67h-181v118h106l-139 275h178l120 -275l119 275h175z" />
    <glyph glyph-name="brokenbar" unicode="&#xa6;" horiz-adv-x="302" 
d="M236 441h-170v359h170v-359zM236 -186h-170v358h170v-358z" />
    <glyph glyph-name="section" unicode="&#xa7;" horiz-adv-x="606" 
d="M565 5q0 -99 -78 -152t-196 -53q-54 0 -101 11.5t-74.5 26t-50 33t-30 27.5t-10.5 14l93 92q4 -5 8.5 -10t21 -18t34 -22t47.5 -16.5t63 -7.5q56 0 91 18t35 48q0 23 -28 36t-69.5 17t-90 15t-90 27t-69.5 56.5t-28 100.5q0 69 52 119q-52 49 -52 125q0 93 69 147.5
t181 54.5q52 0 98 -11t74 -25t50.5 -31.5t30 -26.5t10.5 -13l-96 -91q-7 8 -21 20.5t-56.5 30t-90.5 17.5q-46 0 -75 -17t-29 -44q0 -24 28 -37.5t70 -18t90.5 -16t90.5 -28t70 -57t28 -100.5q0 -68 -51 -117q51 -46 51 -124zM417 232q0 16 -10.5 27.5t-32.5 18.5t-43 11
t-56.5 10t-57.5 11q-26 -18 -26 -48q0 -16 10.5 -27.5t32.5 -18.5t43.5 -11t56.5 -9.5t58 -10.5q25 17 25 47z" />
    <glyph glyph-name="dieresis" unicode="&#xa8;" horiz-adv-x="402" 
d="M171 609q0 -31 -21 -51.5t-52 -20.5t-53 21t-22 51q0 31 21.5 51.5t52.5 20.5t52.5 -20.5t21.5 -51.5zM379 609q0 -31 -21 -51.5t-52 -20.5t-53 21t-22 51q0 31 21.5 51.5t52.5 20.5t52.5 -20.5t21.5 -51.5z" />
    <glyph glyph-name="copyright" unicode="&#xa9;" horiz-adv-x="804" 
d="M756 339q0 -147 -103.5 -251t-250.5 -104t-250.5 104t-103.5 251t103.5 251t250.5 104t250.5 -104t103.5 -251zM660 339q0 107 -76 184t-182 77t-182 -77t-76 -184t76 -184t182 -77t182 77t76 184zM578 237q-69 -97 -174 -97q-92 0 -138.5 60.5t-46.5 138.5t46.5 138.5
t138.5 60.5q53 0 92.5 -22.5t75.5 -72.5l-67 -54q-24 30 -35 39q-29 21 -66 21q-44 0 -65.5 -30.5t-21.5 -79.5t21.5 -79.5t65.5 -30.5q52 0 88 38q2 2 4 4.5t6 6.5t7 8z" />
    <glyph glyph-name="ordfeminine" unicode="&#xaa;" horiz-adv-x="348" 
d="M294 415h-74l-2 26q-29 -32 -80 -32q-38 0 -64 20.5t-26 59.5q0 33 20 53q32 32 100 32h46v6q0 35 -47 35q-34 0 -69 -28l-40 47q3 5 14.5 14t39.5 19.5t60 10.5q62 0 92 -30q19 -19 24.5 -43t5.5 -63v-127zM214 514v9h-39q-47 0 -47 -30q0 -13 9 -20.5t23 -7.5
q24 0 39 12q15 13 15 37z" />
    <glyph glyph-name="guillemotleft" unicode="&#xab;" horiz-adv-x="528" 
d="M468 100l-80 -54l-162 212l162 212l80 -54l-103 -158zM278 100l-80 -54l-162 212l162 212l80 -54l-103 -158z" />
    <glyph glyph-name="logicalnot" unicode="&#xac;" 
d="M578 73h-138v220h-394v138h532v-358z" />
    <glyph glyph-name="registered" unicode="&#xae;" horiz-adv-x="458" 
d="M434 489q0 -85 -60 -145t-145 -60t-145 60t-60 145t60 145t145 60t145 -60t60 -145zM373 489q0 60 -42 101.5t-102 41.5t-102 -41.5t-42 -101.5t42 -102.5t102 -42.5t102 42.5t42 102.5zM326 394h-61l-42 74h-16v-74h-54v200h71q45 0 62 -13q25 -19 25 -51q0 -39 -36 -53
zM258 529q0 13 -8.5 16.5t-27.5 3.5h-15v-39h15q36 0 36 19z" />
    <glyph glyph-name="macron" unicode="&#xaf;" horiz-adv-x="346" 
d="M331 564h-316v98h316v-98z" />
    <glyph glyph-name="degree" unicode="&#xb0;" horiz-adv-x="382" 
d="M352 533q0 -67 -47 -114t-114 -47t-114 47t-47 114t47 114t114 47t114 -47t47 -114zM270 533q0 33 -23 56t-56 23t-56 -23t-23 -56t23 -56t56 -23t56 23t23 56z" />
    <glyph glyph-name="plusminus" unicode="&#xb1;" 
d="M578 354h-197v-171h-138v171h-197v138h197v170h138v-170h197v-138zM578 0h-532v138h532v-138z" />
    <glyph glyph-name="twosuperior" unicode="&#xb2;" horiz-adv-x="379" 
d="M325 573q0 -39 -24 -69t-53.5 -44.5t-55 -31.5t-28.5 -31h159v-81h-262q0 39 1.5 56.5t11 44.5t30.5 48q9 9 21 18t18.5 13l24 14.5t21.5 12.5q43 25 43 51q0 15 -12.5 25t-28.5 10q-41 0 -84 -43l-54 54q18 23 39 37q43 31 100 31t95 -31.5t38 -83.5z" />
    <glyph glyph-name="threesuperior" unicode="&#xb3;" horiz-adv-x="382" 
d="M328 424q0 -54 -41 -85t-101 -31q-91 0 -141 63l56 53q32 -38 78 -38q55 0 55 38q0 37 -64 37h-29v75h19q20 0 31 1t24 10.5t13 28.5q0 15 -13 24.5t-31 9.5q-38 0 -75 -37l-54 54q23 25 41 36q40 25 93 25t91 -29t38 -78q0 -32 -17 -55t-31 -27q10 -3 21 -8.5t24 -24
t13 -42.5z" />
    <glyph glyph-name="acute" unicode="&#xb4;" horiz-adv-x="402" 
d="M348 678l-127 -138h-123l94 138h156z" />
    <glyph glyph-name="mu" unicode="&#xb5;" horiz-adv-x="595" 
d="M54 484h160v-270q0 -54 20 -74q21 -21 57 -21q40 0 65 25q16 16 20.5 38.5t4.5 63.5v238h160v-484h-148l-4 57q-10 -23 -45 -45.5t-79 -22.5q-35 0 -58 15v-190h-153v670z" />
    <glyph glyph-name="paragraph" unicode="&#xb6;" horiz-adv-x="657" 
d="M591 -116h-122v654h-65v-654h-122v349q-143 3 -209 87q-49 61 -49 138q0 111 86 173q30 22 71.5 33t69.5 12.5t79 1.5h261v-794z" />
    <glyph glyph-name="periodcentered" unicode="&#xb7;" horiz-adv-x="287" 
d="M235 262q0 -39 -25.5 -64.5t-65.5 -25.5t-66 25.5t-26 64.5t26 64.5t66 25.5t65.5 -25.5t25.5 -64.5z" />
    <glyph glyph-name="cedilla" unicode="&#xb8;" horiz-adv-x="334" 
d="M74 -77l43 66l69 -5l-20 -27q4 2 16 2q45 0 73 -20.5t28 -61.5q0 -46 -34.5 -68.5t-84.5 -22.5q-66 0 -102 36l38 49q31 -24 59 -24q37 0 37 30q0 31 -35 31q-21 0 -35 -16z" />
    <glyph glyph-name="onesuperior" unicode="&#xb9;" horiz-adv-x="384" 
d="M341 314h-271v79h88v183l-65 -41l-45 69l116 74h90v-285h87v-79z" />
    <glyph glyph-name="ordmasculine" unicode="&#xba;" horiz-adv-x="340" 
d="M313 544q0 -53 -37.5 -93.5t-105.5 -40.5t-105.5 40.5t-37.5 93.5t37.5 93.5t105.5 40.5t105.5 -40.5t37.5 -93.5zM229 544q0 30 -15.5 47.5t-43.5 17.5t-43.5 -17.5t-15.5 -47.5t15.5 -48t43.5 -18t43.5 18t15.5 48z" />
    <glyph glyph-name="guillemotright" unicode="&#xbb;" horiz-adv-x="528" 
d="M492 258l-162 -212l-80 54l103 158l-103 158l80 54zM302 258l-162 -212l-80 54l103 158l-103 158l80 54z" />
    <glyph glyph-name="onequarter" unicode="&#xbc;" horiz-adv-x="924" 
d="M742 657l-402 -694l-80 46l402 694zM341 314h-271v79h88v183l-65 -41l-45 69l116 74h90v-285h87v-79zM883 67h-51v-67h-89v67h-164v70l157 227h96v-221h51v-76zM743 143v108l-75 -108h75z" />
    <glyph glyph-name="onehalf" unicode="&#xbd;" horiz-adv-x="915" 
d="M717 657l-402 -694l-80 46l402 694zM341 314h-271v79h88v183l-65 -41l-45 69l116 74h90v-285h87v-79zM861 257q0 -39 -24 -69t-53.5 -44.5t-55 -31.5t-28.5 -31h159v-81h-262q0 39 1.5 56.5t11 44.5t30.5 48q17 18 85 58q43 25 43 51q0 15 -12.5 25t-28.5 10
q-41 0 -84 -43l-54 54q18 23 39 37q43 31 100 31t95 -31.5t38 -83.5z" />
    <glyph glyph-name="threequarters" unicode="&#xbe;" horiz-adv-x="875" 
d="M693 657l-402 -694l-80 46l402 694zM328 424q0 -54 -41 -85t-101 -31q-91 0 -141 63l56 53q32 -38 78 -38q55 0 55 38q0 37 -64 37h-29v75h19q20 0 31 1t24 10.5t13 28.5q0 15 -13 24.5t-31 9.5q-38 0 -75 -37l-54 54q23 25 41 36q40 25 93 25t91 -29t38 -78
q0 -32 -17 -55t-31 -27q10 -3 21 -8.5t24 -24t13 -42.5zM834 67h-51v-67h-89v67h-164v70l157 227h96v-221h51v-76zM694 143v108l-75 -108h75z" />
    <glyph glyph-name="questiondown" unicode="&#xbf;" horiz-adv-x="537" 
d="M24 -10q0 87 86 145q19 13 46 29t34.5 22t14 19t6.5 33v40h148v-33q0 -69 -17 -103t-80 -69q-25 -14 -35 -21t-21.5 -24t-11.5 -38q0 -24 18 -40t57 -16q73 0 136 79l106 -91q-95 -127 -252 -127q-103 0 -169 53.5t-66 141.5zM194 413q0 39 25.5 64.5t65.5 25.5t66 -25.5
t26 -64.5t-26 -64.5t-66 -25.5t-65.5 25.5t-25.5 64.5z" />
    <glyph glyph-name="Agrave" unicode="&#xc0;" horiz-adv-x="736" 
d="M730 0h-180l-49 121h-272l-49 -121h-174l276 678h172zM455 251l-90 245l-90 -245h180zM470 742h-123l-127 138h156z" />
    <glyph glyph-name="Aacute" unicode="&#xc1;" horiz-adv-x="736" 
d="M730 0h-180l-49 121h-272l-49 -121h-174l276 678h172zM455 251l-90 245l-90 -245h180zM516 880l-127 -138h-123l94 138h156z" />
    <glyph glyph-name="Acircumflex" unicode="&#xc2;" horiz-adv-x="736" 
d="M730 0h-180l-49 121h-272l-49 -121h-174l276 678h172zM455 251l-90 245l-90 -245h180zM540 742h-119l-53 58l-53 -58h-119l94 138h156z" />
    <glyph glyph-name="Atilde" unicode="&#xc3;" horiz-adv-x="736" 
d="M730 0h-180l-49 121h-272l-49 -121h-174l276 678h172zM455 251l-90 245l-90 -245h180zM533 880v-10q-1 -66 -30.5 -98t-75.5 -32q-26 0 -63 18.5t-50 18.5q-27 0 -27 -34h-86v10q1 67 31 98.5t77 31.5q27 0 64 -17t50 -17q26 0 26 31h84z" />
    <glyph glyph-name="Adieresis" unicode="&#xc4;" horiz-adv-x="736" 
d="M730 0h-180l-49 121h-272l-49 -121h-174l276 678h172zM455 251l-90 245l-90 -245h180zM338 811q0 -31 -21 -51.5t-52 -20.5t-53 21t-22 51q0 31 21.5 51.5t52.5 20.5t52.5 -20.5t21.5 -51.5zM546 811q0 -31 -21 -51.5t-52 -20.5t-53 21t-22 51q0 31 21.5 51.5t52.5 20.5
t52.5 -20.5t21.5 -51.5z" />
    <glyph glyph-name="Aring" unicode="&#xc5;" horiz-adv-x="736" 
d="M730 0h-180l-49 121h-272l-49 -121h-174l276 678h172zM455 251l-90 245l-90 -245h180zM478 817q0 -46 -32 -77t-78 -31t-78 31t-32 77t32 77t78 31t78 -31t32 -77zM410 817q0 17 -12.5 29t-29.5 12t-29 -12t-12 -29t12 -29t29 -12t29.5 12t12.5 29z" />
    <glyph glyph-name="AE" unicode="&#xc6;" horiz-adv-x="1049" 
d="M1013 0h-489v138h-245l-87 -138h-192l437 678h563v-141h-310v-127h288v-138h-288v-130h323v-142zM524 272v275l-166 -275h166z" />
    <glyph glyph-name="Ccedilla" unicode="&#xc7;" horiz-adv-x="715" 
d="M394 -16l-12 -27q4 2 16 2q45 0 73 -20.5t28 -61.5q0 -46 -34.5 -68.5t-84.5 -22.5q-66 0 -102 36l38 49q31 -24 59 -24q37 0 37 30q0 31 -35 31q-18 0 -33 -17l-52 31l31 69q-127 19 -207 111.5t-80 235.5q0 151 98 253.5t270 102.5q170 0 275 -114l-99 -99
q-73 73 -170 73q-95 0 -147.5 -62t-52.5 -152q0 -96 57 -155.5t144 -59.5q105 0 188 75l92 -102q-116 -116 -297 -114z" />
    <glyph glyph-name="Egrave" unicode="&#xc8;" horiz-adv-x="628" 
d="M592 0h-526v678h512v-141h-342v-127h317v-138h-317v-130h356v-142zM434 742h-123l-127 138h156z" />
    <glyph glyph-name="Eacute" unicode="&#xc9;" horiz-adv-x="628" 
d="M592 0h-526v678h512v-141h-342v-127h317v-138h-317v-130h356v-142zM479 880l-127 -138h-123l94 138h156z" />
    <glyph glyph-name="Ecircumflex" unicode="&#xca;" horiz-adv-x="628" 
d="M592 0h-526v678h512v-141h-342v-127h317v-138h-317v-130h356v-142zM501 742h-119l-53 58l-53 -58h-119l94 138h156z" />
    <glyph glyph-name="Edieresis" unicode="&#xcb;" horiz-adv-x="628" 
d="M592 0h-526v678h512v-141h-342v-127h317v-138h-317v-130h356v-142zM300 811q0 -31 -21 -51.5t-52 -20.5t-53 21t-22 51q0 31 21.5 51.5t52.5 20.5t52.5 -20.5t21.5 -51.5zM508 811q0 -31 -21 -51.5t-52 -20.5t-53 21t-22 51q0 31 21.5 51.5t52.5 20.5t52.5 -20.5
t21.5 -51.5z" />
    <glyph glyph-name="Igrave" unicode="&#xcc;" horiz-adv-x="302" 
d="M236 0h-170v678h170v-678zM238 742h-123l-127 138h156z" />
    <glyph glyph-name="Iacute" unicode="&#xcd;" horiz-adv-x="302" 
d="M235 0h-170v678h170v-678zM314 880l-127 -138h-123l94 138h156z" />
    <glyph glyph-name="Icircumflex" unicode="&#xce;" horiz-adv-x="302" 
d="M236 0h-170v678h170v-678zM323 742h-119l-53 58l-53 -58h-119l94 138h156z" />
    <glyph glyph-name="Idieresis" unicode="&#xcf;" horiz-adv-x="302" 
d="M236 0h-170v678h170v-678zM121 811q0 -31 -21 -51.5t-52 -20.5t-53 21t-22 51q0 31 21.5 51.5t52.5 20.5t52.5 -20.5t21.5 -51.5zM329 811q0 -31 -21 -51.5t-52 -20.5t-53 21t-22 51q0 31 21.5 51.5t52.5 20.5t52.5 -20.5t21.5 -51.5z" />
    <glyph glyph-name="Eth" unicode="&#xd0;" horiz-adv-x="784" 
d="M748 342q0 -160 -108 -254q-36 -31 -77.5 -50.5t-88.5 -27t-75.5 -9t-73.5 -1.5h-221v281h-104v124h104v273h221q71 0 116 -3.5t102 -22t97 -53.5q108 -94 108 -257zM574 342q0 101 -55 156q-20 20 -51 30t-53 11.5t-64 1.5h-81v-136h176v-124h-176v-143h81q39 0 62.5 2
t53.5 13.5t52 33.5q55 54 55 155z" />
    <glyph glyph-name="Ntilde" unicode="&#xd1;" horiz-adv-x="748" 
d="M674 0h-169l-280 415v-415h-159v678h169l280 -415v415h159v-678zM540 880v-10q-1 -66 -30.5 -98t-75.5 -32q-26 0 -63 18.5t-50 18.5q-27 0 -27 -34h-86v10q1 67 31 98.5t77 31.5q27 0 64 -17t50 -17q26 0 26 31h84z" />
    <glyph glyph-name="Ograve" unicode="&#xd2;" horiz-adv-x="798" 
d="M762 339q0 -67 -23 -129t-66 -113.5t-114.5 -82t-159.5 -30.5t-159.5 30.5t-114.5 82t-66 113.5t-23 129t23 129t66 113.5t114.5 82t159.5 30.5t159.5 -30.5t114.5 -82t66 -113.5t23 -129zM588 339q0 91 -49 153.5t-140 62.5t-140 -62.5t-49 -153.5t49 -153t140 -62
t140 62t49 153zM504 742h-123l-127 138h156z" />
    <glyph glyph-name="Oacute" unicode="&#xd3;" horiz-adv-x="798" 
d="M762 339q0 -67 -23 -129t-66 -113.5t-114.5 -82t-159.5 -30.5t-159.5 30.5t-114.5 82t-66 113.5t-23 129t23 129t66 113.5t114.5 82t159.5 30.5t159.5 -30.5t114.5 -82t66 -113.5t23 -129zM588 339q0 91 -49 153.5t-140 62.5t-140 -62.5t-49 -153.5t49 -153t140 -62
t140 62t49 153zM543 880l-127 -138h-123l94 138h156z" />
    <glyph glyph-name="Ocircumflex" unicode="&#xd4;" horiz-adv-x="798" 
d="M762 339q0 -67 -23 -129t-66 -113.5t-114.5 -82t-159.5 -30.5t-159.5 30.5t-114.5 82t-66 113.5t-23 129t23 129t66 113.5t114.5 82t159.5 30.5t159.5 -30.5t114.5 -82t66 -113.5t23 -129zM588 339q0 91 -49 153.5t-140 62.5t-140 -62.5t-49 -153.5t49 -153t140 -62
t140 62t49 153zM571 742h-119l-53 58l-53 -58h-119l94 138h156z" />
    <glyph glyph-name="Otilde" unicode="&#xd5;" horiz-adv-x="798" 
d="M762 339q0 -67 -23 -129t-66 -113.5t-114.5 -82t-159.5 -30.5t-159.5 30.5t-114.5 82t-66 113.5t-23 129t23 129t66 113.5t114.5 82t159.5 30.5t159.5 -30.5t114.5 -82t66 -113.5t23 -129zM588 339q0 91 -49 153.5t-140 62.5t-140 -62.5t-49 -153.5t49 -153t140 -62
t140 62t49 153zM565 880v-10q-1 -66 -30.5 -98t-75.5 -32q-26 0 -63 18.5t-50 18.5q-27 0 -27 -34h-86v10q1 67 31 98.5t77 31.5q27 0 64 -17t50 -17q26 0 26 31h84z" />
    <glyph glyph-name="Odieresis" unicode="&#xd6;" horiz-adv-x="798" 
d="M762 339q0 -67 -23 -129t-66 -113.5t-114.5 -82t-159.5 -30.5t-159.5 30.5t-114.5 82t-66 113.5t-23 129t23 129t66 113.5t114.5 82t159.5 30.5t159.5 -30.5t114.5 -82t66 -113.5t23 -129zM588 339q0 91 -49 153.5t-140 62.5t-140 -62.5t-49 -153.5t49 -153t140 -62
t140 62t49 153zM369 811q0 -31 -21 -51.5t-52 -20.5t-53 21t-22 51q0 31 21.5 51.5t52.5 20.5t52.5 -20.5t21.5 -51.5zM577 811q0 -31 -21 -51.5t-52 -20.5t-53 21t-22 51q0 31 21.5 51.5t52.5 20.5t52.5 -20.5t21.5 -51.5z" />
    <glyph glyph-name="multiply" unicode="&#xd7;" 
d="M581 82l-98 -98l-171 171l-171 -171l-98 98l170 170l-170 170l98 98l171 -171l171 171l98 -98l-170 -170z" />
    <glyph glyph-name="Oslash" unicode="&#xd8;" horiz-adv-x="798" 
d="M762 625l-69 -69q69 -94 69 -217q0 -67 -23 -129t-66 -113.5t-114.5 -82t-159.5 -30.5q-128 0 -218 63l-63 -63l-72 69l63 63q-73 95 -73 223q0 67 23 129t66 113.5t114.5 82t159.5 30.5q131 0 224 -67l67 67zM513 518q-47 37 -114 37q-91 0 -140 -62.5t-49 -153.5
q0 -58 19 -103zM588 339q0 55 -17 96l-280 -279q45 -32 108 -32q91 0 140 62t49 153z" />
    <glyph glyph-name="Ugrave" unicode="&#xd9;" horiz-adv-x="736" 
d="M676 286q0 -143 -78 -218q-85 -84 -230 -84q-146 0 -233 87q-75 75 -75 215v392h170v-368q0 -35 1 -52.5t9 -45t25 -45.5q39 -41 104 -41t103 40q17 17 25.5 44.5t9.5 46.5t1 53v368h168v-392zM473 742h-123l-127 138h156z" />
    <glyph glyph-name="Uacute" unicode="&#xda;" horiz-adv-x="736" 
d="M676 286q0 -143 -78 -218q-85 -84 -230 -84q-146 0 -233 87q-75 75 -75 215v392h170v-368q0 -35 1 -52.5t9 -45t25 -45.5q39 -41 104 -41t103 40q17 17 25.5 44.5t9.5 46.5t1 53v368h168v-392zM513 880l-127 -138h-123l94 138h156z" />
    <glyph glyph-name="Ucircumflex" unicode="&#xdb;" horiz-adv-x="736" 
d="M676 286q0 -143 -78 -218q-85 -84 -230 -84q-146 0 -233 87q-75 75 -75 215v392h170v-368q0 -35 1 -52.5t9 -45t25 -45.5q39 -41 104 -41t103 40q17 17 25.5 44.5t9.5 46.5t1 53v368h168v-392zM540 742h-119l-53 58l-53 -58h-119l94 138h156z" />
    <glyph glyph-name="Udieresis" unicode="&#xdc;" horiz-adv-x="736" 
d="M676 286q0 -143 -78 -218q-85 -84 -230 -84q-146 0 -233 87q-75 75 -75 215v392h170v-368q0 -35 1 -52.5t9 -45t25 -45.5q39 -41 104 -41t103 40q17 17 25.5 44.5t9.5 46.5t1 53v368h168v-392zM338 811q0 -31 -21 -51.5t-52 -20.5t-53 21t-22 51q0 31 21.5 51.5
t52.5 20.5t52.5 -20.5t21.5 -51.5zM546 811q0 -31 -21 -51.5t-52 -20.5t-53 21t-22 51q0 31 21.5 51.5t52.5 20.5t52.5 -20.5t21.5 -51.5z" />
    <glyph glyph-name="Yacute" unicode="&#xdd;" horiz-adv-x="666" 
d="M660 678l-242 -406v-272h-170v272l-242 406h191l136 -253l143 253h184zM478 880l-127 -138h-123l94 138h156z" />
    <glyph glyph-name="Thorn" unicode="&#xde;" horiz-adv-x="647" 
d="M629 350q0 -77 -50 -138q-41 -49 -102 -68.5t-148 -19.5h-93v-124h-170v678h170v-108h69q88 0 140.5 -8t95.5 -39q88 -62 88 -173zM464 349q0 30 -13 49t-38 27t-45 10t-49 2h-83v-179h83q30 0 52.5 3t45.5 11.5t35 28t12 48.5z" />
    <glyph glyph-name="germandbls" unicode="&#xdf;" horiz-adv-x="593" 
d="M583 192q0 -54 -21 -95t-56.5 -62.5t-74.5 -32t-82 -10.5q-58 0 -98 16l29 117q14 -7 44 -7q43 0 70.5 21t27.5 62q0 22 -8.5 38.5t-20.5 24.5t-31.5 13t-35 6t-36.5 1h-28v124q29 0 47.5 2.5t40 10.5t32.5 26.5t11 48.5q0 35 -25 56t-67 21q-55 0 -74 -32t-19 -87v-454
h-160v454q0 242 250 242q112 0 179.5 -48t67.5 -135q0 -70 -43 -107.5t-78 -38.5q15 -1 39 -10.5t52 -28t48 -54.5t20 -82z" />
    <glyph glyph-name="agrave" unicode="&#xe0;" horiz-adv-x="545" 
d="M497 0h-141l-4 49q-56 -61 -152 -61q-71 0 -120.5 39t-49.5 113q0 61 39 100q63 63 188 63h87v13q0 67 -88 67q-31 0 -64.5 -13t-48 -23t-23.5 -18l-68 94l4 4q4 4 8 7.5t11.5 9l15 10.5t19 11.5t23 11.5t26.5 10t31 8.5t35.5 5.5t39.5 2q118 0 175 -57
q36 -36 46.5 -81.5t10.5 -120.5v-244zM344 188v19h-74q-89 0 -89 -60q0 -25 17 -39t45 -14q44 0 73 24q28 24 28 70zM378 540h-123l-127 138h156z" />
    <glyph glyph-name="aacute" unicode="&#xe1;" horiz-adv-x="545" 
d="M497 0h-141l-4 49q-56 -61 -152 -61q-71 0 -120.5 39t-49.5 113q0 61 39 100q63 63 188 63h87v13q0 67 -88 67q-31 0 -64.5 -13t-48 -23t-23.5 -18l-68 94l4 4q4 4 8 7.5t11.5 9l15 10.5t19 11.5t23 11.5t26.5 10t31 8.5t35.5 5.5t39.5 2q118 0 175 -57
q36 -36 46.5 -81.5t10.5 -120.5v-244zM344 188v19h-74q-89 0 -89 -60q0 -25 17 -39t45 -14q44 0 73 24q28 24 28 70zM422 678l-127 -138h-123l94 138h156z" />
    <glyph glyph-name="acircumflex" unicode="&#xe2;" horiz-adv-x="545" 
d="M497 0h-141l-4 49q-56 -61 -152 -61q-71 0 -120.5 39t-49.5 113q0 61 39 100q63 63 188 63h87v13q0 67 -88 67q-31 0 -64.5 -13t-48 -23t-23.5 -18l-68 94l4 4q4 4 8 7.5t11.5 9l15 10.5t19 11.5t23 11.5t26.5 10t31 8.5t35.5 5.5t39.5 2q118 0 175 -57
q36 -36 46.5 -81.5t10.5 -120.5v-244zM344 188v19h-74q-89 0 -89 -60q0 -25 17 -39t45 -14q44 0 73 24q28 24 28 70zM444 540h-119l-53 58l-53 -58h-119l94 138h156z" />
    <glyph glyph-name="atilde" unicode="&#xe3;" horiz-adv-x="545" 
d="M497 0h-141l-4 49q-56 -61 -152 -61q-71 0 -120.5 39t-49.5 113q0 61 39 100q63 63 188 63h87v13q0 67 -88 67q-31 0 -64.5 -13t-48 -23t-23.5 -18l-68 94l4 4q4 4 8 7.5t11.5 9l15 10.5t19 11.5t23 11.5t26.5 10t31 8.5t35.5 5.5t39.5 2q118 0 175 -57
q36 -36 46.5 -81.5t10.5 -120.5v-244zM344 188v19h-74q-89 0 -89 -60q0 -25 17 -39t45 -14q44 0 73 24q28 24 28 70zM438 678v-10q-1 -66 -30.5 -98t-75.5 -32q-26 0 -63 18.5t-50 18.5q-27 0 -27 -34h-86v10q1 67 31 98.5t77 31.5q27 0 64 -17t50 -17q26 0 26 31h84z" />
    <glyph glyph-name="adieresis" unicode="&#xe4;" horiz-adv-x="545" 
d="M497 0h-141l-4 49q-56 -61 -152 -61q-71 0 -120.5 39t-49.5 113q0 61 39 100q63 63 188 63h87v13q0 67 -88 67q-31 0 -64.5 -13t-48 -23t-23.5 -18l-68 94l4 4q4 4 8 7.5t11.5 9l15 10.5t19 11.5t23 11.5t26.5 10t31 8.5t35.5 5.5t39.5 2q118 0 175 -57
q36 -36 46.5 -81.5t10.5 -120.5v-244zM344 188v19h-74q-89 0 -89 -60q0 -25 17 -39t45 -14q44 0 73 24q28 24 28 70zM242 609q0 -31 -21 -51.5t-52 -20.5t-53 21t-22 51q0 31 21.5 51.5t52.5 20.5t52.5 -20.5t21.5 -51.5zM450 609q0 -31 -21 -51.5t-52 -20.5t-53 21t-22 51
q0 31 21.5 51.5t52.5 20.5t52.5 -20.5t21.5 -51.5z" />
    <glyph glyph-name="aring" unicode="&#xe5;" horiz-adv-x="545" 
d="M497 0h-141l-4 49q-56 -61 -152 -61q-71 0 -120.5 39t-49.5 113q0 61 39 100q63 63 188 63h87v13q0 67 -88 67q-31 0 -64.5 -13t-48 -23t-23.5 -18l-68 94l4 4q4 4 8 7.5t11.5 9l15 10.5t19 11.5t23 11.5t26.5 10t31 8.5t35.5 5.5t39.5 2q118 0 175 -57
q36 -36 46.5 -81.5t10.5 -120.5v-244zM344 188v19h-74q-89 0 -89 -60q0 -25 17 -39t45 -14q44 0 73 24q28 24 28 70zM382 626q0 -46 -32 -77t-78 -31t-78 31t-32 77t32 77t78 31t78 -31t32 -77zM314 626q0 17 -12.5 29t-29.5 12t-29 -12t-12 -29t12 -29t29 -12t29.5 12
t12.5 29z" />
    <glyph glyph-name="ae" unicode="&#xe6;" horiz-adv-x="873" 
d="M406 66q-66 -83 -193 -83q-79 0 -131 41t-52 116q0 61 39 100q63 63 188 63h87v13q0 67 -88 67q-31 0 -64.5 -13t-48 -23t-23.5 -18l-68 94l4 4q4 4 8 7.5t11.5 9l15 10.5t19 11.5t23 11.5t26.5 10t31 8.5t35.5 5.5t39.5 2q119 0 158 -58q70 58 176 58q104 0 168 -64
q46 -46 60 -102.5t14 -140.5h-344q0 -34 26 -63t86 -29q72 0 135 55l85 -78q-88 -97 -226 -97q-129 0 -197 82zM688 297q0 8 -2.5 19.5t-10.5 29.5t-29.5 30.5t-52.5 12.5q-38 0 -61.5 -22t-29 -40.5t-5.5 -29.5h191zM344 188v19h-74q-89 0 -89 -60q0 -25 17 -39t45 -14
q44 0 73 24q28 24 28 70z" />
    <glyph glyph-name="ccedilla" unicode="&#xe7;" horiz-adv-x="547" 
d="M214 -78l28 63q-99 18 -155.5 87t-56.5 171q0 108 71.5 184t202.5 76q42 0 79.5 -9.5t60.5 -21.5t42.5 -28.5t26 -23.5t10.5 -13l-92 -85q-53 53 -118 53q-57 0 -88 -38.5t-31 -94.5q0 -57 31 -95.5t88 -38.5q72 0 121 58l92 -82q-3 -5 -9.5 -13.5t-25 -25t-41 -29.5
t-59 -23.5t-76.5 -10.5l-11 -25q4 2 16 2q45 0 73 -20.5t28 -61.5q0 -46 -34.5 -68.5t-84.5 -22.5q-66 0 -102 36l38 49q31 -24 59 -24q37 0 37 30q0 31 -35 31q-18 0 -33 -17z" />
    <glyph glyph-name="egrave" unicode="&#xe8;" horiz-adv-x="566" 
d="M536 196h-344q0 -34 26 -63t86 -29q72 0 135 55l84 -82q-85 -93 -225 -93q-71 0 -124.5 22t-83.5 59.5t-45 81.5t-15 94q0 48 15 93t45 83.5t83 62t121 23.5q104 0 168 -64q46 -46 60 -102.5t14 -140.5zM383 297q0 8 -2.5 19.5t-10.5 29.5t-29.5 30.5t-52.5 12.5
q-38 0 -61.5 -22t-29 -40.5t-5.5 -29.5h191zM408 540h-123l-127 138h156z" />
    <glyph glyph-name="eacute" unicode="&#xe9;" horiz-adv-x="566" 
d="M536 196h-344q0 -34 26 -63t86 -29q72 0 135 55l84 -82q-85 -93 -225 -93q-71 0 -124.5 22t-83.5 59.5t-45 81.5t-15 94q0 48 15 93t45 83.5t83 62t121 23.5q104 0 168 -64q46 -46 60 -102.5t14 -140.5zM383 297q0 8 -2.5 19.5t-10.5 29.5t-29.5 30.5t-52.5 12.5
q-38 0 -61.5 -22t-29 -40.5t-5.5 -29.5h191zM408 678l-127 -138h-123l94 138h156z" />
    <glyph glyph-name="ecircumflex" unicode="&#xea;" horiz-adv-x="566" 
d="M536 196h-344q0 -34 26 -63t86 -29q72 0 135 55l84 -82q-85 -93 -225 -93q-71 0 -124.5 22t-83.5 59.5t-45 81.5t-15 94q0 48 15 93t45 83.5t83 62t121 23.5q104 0 168 -64q46 -46 60 -102.5t14 -140.5zM383 297q0 8 -2.5 19.5t-10.5 29.5t-29.5 30.5t-52.5 12.5
q-38 0 -61.5 -22t-29 -40.5t-5.5 -29.5h191zM455 540h-119l-53 58l-53 -58h-119l94 138h156z" />
    <glyph glyph-name="edieresis" unicode="&#xeb;" horiz-adv-x="566" 
d="M536 196h-344q0 -34 26 -63t86 -29q72 0 135 55l84 -82q-85 -93 -225 -93q-71 0 -124.5 22t-83.5 59.5t-45 81.5t-15 94q0 48 15 93t45 83.5t83 62t121 23.5q104 0 168 -64q46 -46 60 -102.5t14 -140.5zM383 297q0 8 -2.5 19.5t-10.5 29.5t-29.5 30.5t-52.5 12.5
q-38 0 -61.5 -22t-29 -40.5t-5.5 -29.5h191zM253 609q0 -31 -21 -51.5t-52 -20.5t-53 21t-22 51q0 31 21.5 51.5t52.5 20.5t52.5 -20.5t21.5 -51.5zM461 609q0 -31 -21 -51.5t-52 -20.5t-53 21t-22 51q0 31 21.5 51.5t52.5 20.5t52.5 -20.5t21.5 -51.5z" />
    <glyph glyph-name="igrave" unicode="&#xec;" horiz-adv-x="268" 
d="M214 0h-160v484h160v-484zM117 540l-127 138h156l94 -138h-123z" />
    <glyph glyph-name="iacute" unicode="&#xed;" horiz-adv-x="268" 
d="M214 0h-160v484h160v-484zM278 678l-127 -138h-123l94 138h156z" />
    <glyph glyph-name="icircumflex" unicode="&#xee;" horiz-adv-x="268" 
d="M214 0h-160v484h160v-484zM306 540h-119l-53 58l-53 -58h-119l94 138h156z" />
    <glyph glyph-name="idieresis" unicode="&#xef;" horiz-adv-x="268" 
d="M214 0h-160v484h160v-484zM312 609q0 -31 -21.5 -51.5t-52.5 -20.5t-52.5 20.5t-21.5 51.5t21.5 51.5t52.5 20.5t52.5 -20.5t21.5 -51.5zM104 609q0 -31 -21.5 -51.5t-52.5 -20.5t-52.5 20.5t-21.5 51.5t21.5 51.5t52.5 20.5t52.5 -20.5t21.5 -51.5z" />
    <glyph glyph-name="eth" unicode="&#xf0;" horiz-adv-x="598" 
d="M562 249q0 -52 -16 -98.5t-47.5 -84t-83.5 -60t-117 -22.5q-126 0 -194 66.5t-68 171.5q0 108 72.5 170t171.5 62q20 0 38 -2q-49 47 -84 75l-64 -61l-80 69l59 59l-78 62l98 95q53 -37 82 -60l60 60l82 -71l-56 -56q47 -41 81.5 -77t70 -84t54.5 -102.5t19 -111.5z
M399 225q0 45 -27 76t-76 31t-75 -31t-26 -76t27 -76t76 -31t75 31t26 76z" />
    <glyph glyph-name="ntilde" unicode="&#xf1;" horiz-adv-x="589" 
d="M541 0h-160v275q0 21 -1 33t-7.5 26t-18.5 22q-19 14 -50 14q-40 0 -65 -25t-25 -106v-239h-160v484h150l2 -52q71 71 159 71q80 0 131 -51q45 -45 45 -149v-303zM460 678v-10q-1 -66 -30.5 -98t-75.5 -32q-26 0 -63 18.5t-50 18.5q-27 0 -27 -34h-86v10q1 67 31 98.5
t77 31.5q27 0 64 -17t50 -17q26 0 26 31h84z" />
    <glyph glyph-name="ograve" unicode="&#xf2;" horiz-adv-x="612" 
d="M582 244q0 -47 -16 -92t-47.5 -83t-86.5 -61.5t-126 -23.5t-126 23.5t-86.5 61.5t-47.5 83t-16 92t16 91.5t47.5 83t86.5 61.5t126 23t126 -23t86.5 -61.5t47.5 -83t16 -91.5zM418 244q0 58 -29 95.5t-83 37.5q-55 0 -83.5 -38t-28.5 -95q0 -58 29 -96t83 -38t83 38
t29 96zM431 540h-123l-127 138h156z" />
    <glyph glyph-name="oacute" unicode="&#xf3;" horiz-adv-x="612" 
d="M582 244q0 -47 -16 -92t-47.5 -83t-86.5 -61.5t-126 -23.5t-126 23.5t-86.5 61.5t-47.5 83t-16 92t16 91.5t47.5 83t86.5 61.5t126 23t126 -23t86.5 -61.5t47.5 -83t16 -91.5zM418 244q0 58 -29 95.5t-83 37.5q-55 0 -83.5 -38t-28.5 -95q0 -58 29 -96t83 -38t83 38
t29 96zM431 678l-127 -138h-123l94 138h156z" />
    <glyph glyph-name="ocircumflex" unicode="&#xf4;" horiz-adv-x="612" 
d="M582 244q0 -47 -16 -92t-47.5 -83t-86.5 -61.5t-126 -23.5t-126 23.5t-86.5 61.5t-47.5 83t-16 92t16 91.5t47.5 83t86.5 61.5t126 23t126 -23t86.5 -61.5t47.5 -83t16 -91.5zM418 244q0 58 -29 95.5t-83 37.5q-55 0 -83.5 -38t-28.5 -95q0 -58 29 -96t83 -38t83 38
t29 96zM478 540h-119l-53 58l-53 -58h-119l94 138h156z" />
    <glyph glyph-name="otilde" unicode="&#xf5;" horiz-adv-x="612" 
d="M582 244q0 -47 -16 -92t-47.5 -83t-86.5 -61.5t-126 -23.5t-126 23.5t-86.5 61.5t-47.5 83t-16 92t16 91.5t47.5 83t86.5 61.5t126 23t126 -23t86.5 -61.5t47.5 -83t16 -91.5zM418 244q0 58 -29 95.5t-83 37.5q-55 0 -83.5 -38t-28.5 -95q0 -58 29 -96t83 -38t83 38
t29 96zM471 678v-10q-1 -66 -30.5 -98t-75.5 -32q-26 0 -63 18.5t-50 18.5q-27 0 -27 -34h-86v10q1 67 31 98.5t77 31.5q27 0 64 -17t50 -17q26 0 26 31h84z" />
    <glyph glyph-name="odieresis" unicode="&#xf6;" horiz-adv-x="612" 
d="M582 244q0 -47 -16 -92t-47.5 -83t-86.5 -61.5t-126 -23.5t-126 23.5t-86.5 61.5t-47.5 83t-16 92t16 91.5t47.5 83t86.5 61.5t126 23t126 -23t86.5 -61.5t47.5 -83t16 -91.5zM418 244q0 58 -29 95.5t-83 37.5q-55 0 -83.5 -38t-28.5 -95q0 -58 29 -96t83 -38t83 38
t29 96zM276 609q0 -31 -21 -51.5t-52 -20.5t-53 21t-22 51q0 31 21.5 51.5t52.5 20.5t52.5 -20.5t21.5 -51.5zM484 609q0 -31 -21 -51.5t-52 -20.5t-53 21t-22 51q0 31 21.5 51.5t52.5 20.5t52.5 -20.5t21.5 -51.5z" />
    <glyph glyph-name="divide" unicode="&#xf7;" 
d="M578 187h-532v130h532v-130zM403 60q0 -39 -25.5 -64.5t-65.5 -25.5t-66 25.5t-26 64.5t26 64.5t66 25.5t65.5 -25.5t25.5 -64.5zM403 444q0 -39 -25.5 -64.5t-65.5 -25.5t-66 25.5t-26 64.5t26 64.5t66 25.5t65.5 -25.5t25.5 -64.5z" />
    <glyph glyph-name="oslash" unicode="&#xf8;" horiz-adv-x="612" 
d="M245 127q26 -17 61 -17q54 0 83 38t29 96q0 23 -4 42zM367 360q-26 17 -61 17q-55 0 -83.5 -38t-28.5 -95q0 -20 5 -42zM582 444l-48 -45q48 -68 48 -155q0 -47 -16 -92t-47.5 -83t-86.5 -61.5t-126 -23.5q-98 0 -166 45l-47 -45l-63 59l48 45q-48 68 -48 156
q0 47 16 91.5t47.5 83t86.5 61.5t126 23q98 0 166 -44l47 44z" />
    <glyph glyph-name="ugrave" unicode="&#xf9;" horiz-adv-x="589" 
d="M535 0h-148l-4 57q-6 -9 -19 -22t-51.5 -31t-84.5 -18q-81 0 -129 46q-33 33 -42 73.5t-9 103.5v275h160v-270q0 -54 20 -74q21 -21 57 -21q40 0 65 25q16 16 20.5 38.5t4.5 63.5v238h160v-484zM419 540h-123l-127 138h156z" />
    <glyph glyph-name="uacute" unicode="&#xfa;" horiz-adv-x="589" 
d="M535 0h-148l-4 57q-6 -9 -19 -22t-51.5 -31t-84.5 -18q-81 0 -129 46q-33 33 -42 73.5t-9 103.5v275h160v-270q0 -54 20 -74q21 -21 57 -21q40 0 65 25q16 16 20.5 38.5t4.5 63.5v238h160v-484zM419 678l-127 -138h-123l94 138h156z" />
    <glyph glyph-name="ucircumflex" unicode="&#xfb;" horiz-adv-x="589" 
d="M535 0h-148l-4 57q-6 -9 -19 -22t-51.5 -31t-84.5 -18q-81 0 -129 46q-33 33 -42 73.5t-9 103.5v275h160v-270q0 -54 20 -74q21 -21 57 -21q40 0 65 25q16 16 20.5 38.5t4.5 63.5v238h160v-484zM466 540h-119l-53 58l-53 -58h-119l94 138h156z" />
    <glyph glyph-name="udieresis" unicode="&#xfc;" horiz-adv-x="589" 
d="M535 0h-148l-4 57q-6 -9 -19 -22t-51.5 -31t-84.5 -18q-81 0 -129 46q-33 33 -42 73.5t-9 103.5v275h160v-270q0 -54 20 -74q21 -21 57 -21q40 0 65 25q16 16 20.5 38.5t4.5 63.5v238h160v-484zM264 609q0 -31 -21 -51.5t-52 -20.5t-53 21t-22 51q0 31 21.5 51.5
t52.5 20.5t52.5 -20.5t21.5 -51.5zM472 609q0 -31 -21 -51.5t-52 -20.5t-53 21t-22 51q0 31 21.5 51.5t52.5 20.5t52.5 -20.5t21.5 -51.5z" />
    <glyph glyph-name="yacute" unicode="&#xfd;" horiz-adv-x="566" 
d="M563 484l-204 -506q-14 -35 -29 -61.5t-41 -55.5t-65.5 -45t-90.5 -16q-75 0 -112 32l47 109q24 -12 51 -12q37 0 55 18t35 60l-206 477h170l114 -299l113 299h163zM444 678l-127 -138h-123l94 138h156z" />
    <glyph glyph-name="thorn" unicode="&#xfe;" horiz-adv-x="629" 
d="M599 240q0 -101 -62 -177.5t-173 -76.5q-98 0 -150 62v-234h-160v864h160v-249q62 74 164 74q87 0 154 -67t67 -196zM435 242q0 56 -29.5 95.5t-82.5 39.5t-82.5 -39.5t-29.5 -95.5t29 -94t83 -38t83 38t29 94z" />
    <glyph glyph-name="ydieresis" unicode="&#xff;" horiz-adv-x="566" 
d="M563 484l-204 -506q-14 -35 -29 -61.5t-41 -55.5t-65.5 -45t-90.5 -16q-75 0 -112 32l47 109q24 -12 51 -12q37 0 55 18t35 60l-206 477h170l114 -299l113 299h163zM253 609q0 -31 -21 -51.5t-52 -20.5t-53 21t-22 51q0 31 21.5 51.5t52.5 20.5t52.5 -20.5t21.5 -51.5z
M461 609q0 -31 -21 -51.5t-52 -20.5t-53 21t-22 51q0 31 21.5 51.5t52.5 20.5t52.5 -20.5t21.5 -51.5z" />
    <glyph glyph-name="Idotaccent" unicode="&#x130;" horiz-adv-x="302" 
d="M236 0h-170v678h170v-678zM225 803q0 -31 -21 -51.5t-52 -20.5t-53 21t-22 51q0 31 21.5 51.5t52.5 20.5t52.5 -20.5t21.5 -51.5z" />
    <glyph glyph-name="dotlessi" unicode="&#x131;" horiz-adv-x="268" 
d="M214 0h-160v484h160v-484z" />
    <glyph glyph-name="Lslash" unicode="&#x141;" horiz-adv-x="609" 
d="M603 142v-142h-495v202l-40 -38l-84 87l124 110v317h170v-185l66 61l84 -86l-150 -138v-188h325z" />
    <glyph glyph-name="lslash" unicode="&#x142;" horiz-adv-x="410" 
d="M412 443l-127 -116v-327h-160v205l-46 -43l-81 86l127 112v318h160v-196l47 45z" />
    <glyph glyph-name="OE" unicode="&#x152;" horiz-adv-x="1120" 
d="M1084 0h-476v66q-79 -82 -216 -82q-87 0 -156.5 30.5t-112 82t-65 113.5t-22.5 129t22.5 129t65 113.5t112 82t156.5 30.5q140 0 216 -84v68h462v-141h-313v-127h288v-138h-288v-130h327v-142zM592 339q0 91 -50 153t-143 62t-143 -62t-50 -153t50 -153t143 -62t143 62
t50 153z" />
    <glyph glyph-name="oe" unicode="&#x153;" horiz-adv-x="936" 
d="M478 48q-71 -64 -182 -64q-68 0 -121 23t-83.5 61.5t-46 83t-15.5 91.5t15.5 92t46 83t83.5 61.5t121 23.5q107 0 180 -68q70 68 188 68q104 0 168 -64q46 -46 60 -102.5t14 -140.5h-344q0 -34 26 -63t86 -29q72 0 135 55l85 -78q-88 -97 -226 -97q-119 0 -190 64z
M753 297q0 8 -2.5 19.5t-10.5 29.5t-29.5 30.5t-52.5 12.5q-38 0 -61.5 -22t-29 -40.5t-5.5 -29.5h191zM398 243q0 56 -27 95t-76 39t-75 -38.5t-26 -95.5q0 -56 27 -94.5t76 -38.5t75 38.5t26 94.5z" />
    <glyph glyph-name="Scaron" unicode="&#x160;" horiz-adv-x="678" 
d="M630 201q0 -102 -84.5 -159.5t-217.5 -57.5q-68 0 -126.5 13t-95.5 32.5t-54.5 31.5t-26.5 21l90 115q97 -74 213 -74q132 0 132 69q0 25 -23 40.5t-60 23.5t-81 15.5t-88.5 21t-81.5 34.5t-60 61.5t-23 97.5q0 93 77.5 150.5t203.5 57.5q199 0 299 -100l-94 -108
q-86 72 -206 72q-53 0 -82.5 -17.5t-29.5 -46.5q0 -28 31 -43.5t77.5 -20t101 -17.5t101 -31.5t77.5 -65t31 -115.5zM501 880l-94 -138h-156l-94 138h119l53 -58l53 58h119z" />
    <glyph glyph-name="scaron" unicode="&#x161;" horiz-adv-x="515" 
d="M485 154q0 -84 -67.5 -128.5t-166.5 -44.5q-138 0 -233 73l69 100q69 -55 164 -55q33 0 51.5 9.5t21.5 17t3 14.5q0 20 -30.5 29.5t-74 15.5t-87 17.5t-74 45.5t-30.5 90q0 76 61 120.5t161 44.5q144 0 223 -79l-73 -86q-56 48 -141 48q-74 0 -74 -42q0 -19 30.5 -27
t74 -13.5t87.5 -16.5t74.5 -44.5t30.5 -88.5zM428 678l-94 -138h-156l-94 138h119l53 -58l53 58h119z" />
    <glyph glyph-name="Ydieresis" unicode="&#x178;" horiz-adv-x="666" 
d="M660 678l-242 -406v-272h-170v272l-242 406h191l136 -253l143 253h184zM303 811q0 -31 -21 -51.5t-52 -20.5t-53 21t-22 51q0 31 21.5 51.5t52.5 20.5t52.5 -20.5t21.5 -51.5zM511 811q0 -31 -21 -51.5t-52 -20.5t-53 21t-22 51q0 31 21.5 51.5t52.5 20.5t52.5 -20.5
t21.5 -51.5z" />
    <glyph glyph-name="Zcaron" unicode="&#x17d;" horiz-adv-x="660" 
d="M624 0h-588v134l357 403h-343v141h560v-134l-357 -402h371v-142zM502 880l-94 -138h-156l-94 138h119l53 -58l53 58h119z" />
    <glyph glyph-name="zcaron" unicode="&#x17e;" horiz-adv-x="511" 
d="M487 0h-463v120l251 238h-241v126h443v-120l-249 -236h259v-128zM427 678l-94 -138h-156l-94 138h119l53 -58l53 58h119z" />
    <glyph glyph-name="florin" unicode="&#x192;" 
d="M618 676l-37 -119q-28 7 -54 7q-38 0 -56 -14t-25 -50l-9 -39h140v-128h-167l-78 -370q-35 -163 -225 -163q-50 0 -102 16l37 119q28 -7 54 -7q38 0 56 14t25 50l72 341h-91v128h118l15 68q35 163 225 163q50 0 102 -16z" />
    <glyph glyph-name="circumflex" unicode="&#x2c6;" horiz-adv-x="346" 
d="M346 540h-119l-53 58l-53 -58h-119l94 138h156z" />
    <glyph glyph-name="caron" unicode="&#x2c7;" horiz-adv-x="346" 
d="M345 678l-94 -138h-156l-94 138h119l53 -58l53 58h119z" />
    <glyph glyph-name="breve" unicode="&#x2d8;" horiz-adv-x="346" 
d="M239 678h98q0 -70 -42.5 -106.5t-121.5 -36.5t-121.5 36.5t-42.5 106.5h98q7 -61 66 -61t66 61z" />
    <glyph glyph-name="dotaccent" unicode="&#x2d9;" horiz-adv-x="346" 
d="M247 609q0 -31 -21 -51.5t-52 -20.5t-53 21t-22 51q0 31 21.5 51.5t52.5 20.5t52.5 -20.5t21.5 -51.5z" />
    <glyph glyph-name="ring" unicode="&#x2da;" horiz-adv-x="346" 
d="M283 626q0 -46 -32 -77t-78 -31t-78 31t-32 77t32 77t78 31t78 -31t32 -77zM215 626q0 17 -12.5 29t-29.5 12t-29 -12t-12 -29t12 -29t29 -12t29.5 12t12.5 29z" />
    <glyph glyph-name="ogonek" unicode="&#x2db;" horiz-adv-x="369" 
d="M116 0h180l-8 -3l-16 -7t-20.5 -10t-22 -13.5t-20 -16t-15 -18.5t-5.5 -21q0 -13 9 -21t21 -8q19 0 38 13l45 -58q-51 -37 -108 -37q-53 0 -90 23.5t-37 77.5t49 99z" />
    <glyph glyph-name="tilde" unicode="&#x2dc;" horiz-adv-x="346" 
d="M339 678v-10q-1 -66 -30.5 -98t-75.5 -32q-26 0 -63 18.5t-50 18.5q-27 0 -27 -34h-86v10q1 67 31 98.5t77 31.5q27 0 64 -17t50 -17q26 0 26 31h84z" />
    <glyph glyph-name="hungarumlaut" unicode="&#x2dd;" horiz-adv-x="346" 
d="M394 678l-127 -138h-115l94 138h148zM196 678l-127 -138h-115l94 138h148z" />
    <glyph glyph-name="Omega" unicode="&#x3a9;" horiz-adv-x="798" 
d="M768 0h-309v134q8 0 20.5 5t31.5 19.5t34.5 36t27 59.5t11.5 85q0 95 -46.5 155t-137.5 60q-92 0 -139 -60.5t-47 -154.5q0 -47 11.5 -85t27 -59.5t34.5 -36t31.5 -19.5t20.5 -5v-134h-309v127h114q-9 7 -22 22t-32.5 43.5t-33 73t-13.5 93.5q0 66 22.5 125t65 106.5
t112 75.5t156.5 28t156.5 -28t112 -76t65 -107t22.5 -125q0 -49 -13.5 -93t-33 -72.5t-32.5 -43.5t-22 -22h114v-127z" />
    <glyph glyph-name="pi" unicode="&#x3c0;" horiz-adv-x="615" 
d="M591 0h-35q-57 0 -93 8t-62 34q-15 15 -23.5 31.5t-11 43t-3 36t-0.5 43.5v148h-101v-344h-160v344h-78v128h567v-128h-70v-151q0 -37 13 -51t57 -14v-128z" />
    <glyph glyph-name="figuredash" unicode="&#x2012;" 
d="M578 183h-532v138h532v-138z" />
    <glyph glyph-name="endash" unicode="&#x2013;" horiz-adv-x="628" 
d="M580 183h-532v138h532v-138z" />
    <glyph glyph-name="emdash" unicode="&#x2014;" horiz-adv-x="940" 
d="M880 183h-820v138h820v-138z" />
    <glyph glyph-name="quoteleft" unicode="&#x2018;" horiz-adv-x="283" 
d="M247 678l-41 -293h-170l113 293h98z" />
    <glyph glyph-name="quoteright" unicode="&#x2019;" horiz-adv-x="283" 
d="M247 678l-113 -293h-98l41 293h170z" />
    <glyph glyph-name="quotesinglbase" unicode="&#x201a;" horiz-adv-x="279" 
d="M245 153l-113 -293h-98l41 293h170z" />
    <glyph glyph-name="quotedblleft" unicode="&#x201c;" horiz-adv-x="479" 
d="M455 678l-41 -293h-170l113 293h98zM235 678l-41 -293h-170l113 293h98z" />
    <glyph glyph-name="quotedblright" unicode="&#x201d;" horiz-adv-x="479" 
d="M455 678l-113 -293h-98l41 293h170zM235 678l-113 -293h-98l41 293h170z" />
    <glyph glyph-name="quotedblbase" unicode="&#x201e;" horiz-adv-x="499" 
d="M465 153l-113 -293h-98l41 293h170zM245 153l-113 -293h-98l41 293h170z" />
    <glyph glyph-name="dagger" unicode="&#x2020;" 
d="M578 346h-189v-462h-154v462h-189v138h189v194h154v-194h189v-138z" />
    <glyph glyph-name="daggerdbl" unicode="&#x2021;" 
d="M578 125h-189v-241h-154v241h-189v138h189v83h-189v138h189v194h154v-194h189v-138h-189v-83h189v-138z" />
    <glyph glyph-name="bullet" unicode="&#x2022;" horiz-adv-x="392" 
d="M326 254q0 -54 -38 -92t-92 -38t-92 38t-38 92t38 92t92 38t92 -38t38 -92z" />
    <glyph glyph-name="ellipsis" unicode="&#x2026;" horiz-adv-x="950" 
d="M235 76q0 -39 -25.5 -64.5t-65.5 -25.5t-66 25.5t-26 64.5t26 64.5t66 25.5t65.5 -25.5t25.5 -64.5zM566 76q0 -39 -25.5 -64.5t-65.5 -25.5t-66 25.5t-26 64.5t26 64.5t66 25.5t65.5 -25.5t25.5 -64.5zM898 76q0 -39 -25.5 -64.5t-65.5 -25.5t-66 25.5t-26 64.5t26 64.5
t66 25.5t65.5 -25.5t25.5 -64.5z" />
    <glyph glyph-name="perthousand" unicode="&#x2030;" horiz-adv-x="1259" 
d="M686 657l-402 -694l-80 46l402 694zM336 498q0 -83 -40 -136.5t-112 -53.5t-112 53.5t-40 136.5t40 136.5t112 53.5t112 -53.5t40 -136.5zM237 498q0 110 -52 110q-54 0 -54 -110t52 -110q54 0 54 110zM859 182q0 -83 -40 -136.5t-112 -53.5t-112 53.5t-40 136.5
t40 136.5t112 53.5t112 -53.5t40 -136.5zM760 182q0 110 -52 110q-54 0 -54 -110t52 -110q54 0 54 110zM1227 182q0 -83 -40 -136.5t-112 -53.5t-112 53.5t-40 136.5t40 136.5t112 53.5t112 -53.5t40 -136.5zM1128 182q0 110 -52 110q-54 0 -54 -110t52 -110q54 0 54 110z
" />
    <glyph glyph-name="guilsinglleft" unicode="&#x2039;" horiz-adv-x="338" 
d="M278 100l-80 -54l-162 212l162 212l80 -54l-103 -158z" />
    <glyph glyph-name="guilsinglright" unicode="&#x203a;" horiz-adv-x="338" 
d="M302 258l-162 -212l-80 54l103 158l-103 158l80 54z" />
    <glyph glyph-name="fraction" unicode="&#x2044;" horiz-adv-x="118" 
d="M300 657l-402 -694l-80 46l402 694z" />
    <glyph glyph-name="zerosuperior" unicode="&#x2070;" horiz-adv-x="368" 
d="M336 498q0 -83 -40 -136.5t-112 -53.5t-112 53.5t-40 136.5t40 136.5t112 53.5t112 -53.5t40 -136.5zM237 498q0 110 -52 110q-54 0 -54 -110t52 -110q54 0 54 110z" />
    <glyph glyph-name="foursuperior" unicode="&#x2074;" horiz-adv-x="390" 
d="M349 381h-51v-67h-89v67h-164v70l157 227h96v-221h51v-76zM209 457v108l-75 -108h75z" />
    <glyph glyph-name="fivesuperior" unicode="&#x2075;" horiz-adv-x="360" 
d="M319 440q0 -60 -39.5 -97t-108.5 -37q-73 0 -126 49l47 59q38 -31 77 -31q25 0 42 13.5t17 37.5q0 25 -13.5 37.5t-34.5 12.5q-35 0 -52 -32l-73 27l21 199h220v-76h-148l-6 -58q19 14 61 14q49 0 82.5 -30.5t33.5 -87.5z" />
    <glyph glyph-name="sixsuperior" unicode="&#x2076;" horiz-adv-x="355" 
d="M323 443q0 -57 -38.5 -96t-102.5 -39q-42 0 -73 17t-47 45.5t-23 58.5t-7 62q0 34 7.5 65.5t23.5 62.5t49 50t78 19q38 0 69 -12.5t42.5 -23t16.5 -18.5l-53 -54q-31 31 -71 31q-34 0 -52 -25.5t-19 -54.5q9 12 32 21.5t49 9.5q51 0 85 -31t34 -88zM230 434
q0 24 -13.5 37.5t-35.5 13.5t-35.5 -13.5t-13.5 -37.5t13.5 -37t35.5 -13t35.5 13t13.5 37z" />
    <glyph glyph-name="sevensuperior" unicode="&#x2077;" horiz-adv-x="380" 
d="M326 602l-144 -288h-106l148 283h-176v81h278v-76z" />
    <glyph glyph-name="eightsuperior" unicode="&#x2078;" horiz-adv-x="356" 
d="M324 419q0 -53 -41.5 -82t-104.5 -29t-104.5 29t-41.5 82q0 31 18 52.5t40 29.5q-18 7 -33 28.5t-15 51.5q0 50 39 78.5t97 28.5t97 -28.5t39 -78.5q0 -29 -15 -51.5t-33 -27.5q22 -7 40 -29t18 -54zM227 574q0 20 -13.5 32t-35.5 12q-21 0 -35 -11.5t-14 -32.5
q0 -19 14 -29.5t35 -10.5q22 0 35.5 10.5t13.5 29.5zM229 422q0 21 -15 32.5t-37 11.5q-21 0 -36 -11.5t-15 -32.5q0 -20 15 -31.5t36 -11.5q22 0 37 11t15 32z" />
    <glyph glyph-name="ninesuperior" unicode="&#x2079;" horiz-adv-x="355" 
d="M32 553q0 57 38.5 96t102.5 39q42 0 73 -17t47 -45.5t23 -58.5t7 -62t-7 -63.5t-23 -63t-49 -51t-79 -19.5q-39 0 -70 12.5t-42 22.5t-16 19l53 54q31 -31 71 -31q34 0 52 25.5t19 54.5q-9 -12 -32 -21.5t-49 -9.5q-51 0 -85 31t-34 88zM125 562q0 -24 13.5 -37.5
t35.5 -13.5t35.5 13.5t13.5 37.5t-13.5 37t-35.5 13t-35.5 -13t-13.5 -37z" />
    <glyph glyph-name="parenleftsuperior" unicode="&#x207d;" horiz-adv-x="305" 
d="M189 222q-154 106 -154 275q0 79 42.5 152.5t118.5 119.5l56 -66q-105 -91 -105 -206q0 -112 105 -203z" />
    <glyph glyph-name="parenrightsuperior" unicode="&#x207e;" horiz-adv-x="305" 
d="M98 222l-63 72q105 91 105 203q0 115 -105 206l56 66q76 -46 118.5 -119.5t42.5 -152.5q0 -169 -154 -275z" />
    <glyph glyph-name="zeroinferior" unicode="&#x2080;" horiz-adv-x="368" 
d="M336 182q0 -83 -40 -136.5t-112 -53.5t-112 53.5t-40 136.5t40 136.5t112 53.5t112 -53.5t40 -136.5zM237 182q0 110 -52 110q-54 0 -54 -110t52 -110q54 0 54 110z" />
    <glyph glyph-name="oneinferior" unicode="&#x2081;" horiz-adv-x="384" 
d="M341 0h-271v79h88v183l-65 -41l-45 69l116 74h90v-285h87v-79z" />
    <glyph glyph-name="twoinferior" unicode="&#x2082;" horiz-adv-x="379" 
d="M325 257q0 -39 -24 -69t-53.5 -44.5t-55 -31.5t-28.5 -31h159v-81h-262q0 39 1.5 56.5t11 44.5t30.5 48q18 18 85 58q43 25 43 51q0 15 -12.5 25t-28.5 10q-41 0 -84 -43l-54 54q18 23 39 37q43 31 100 31t95 -31.5t38 -83.5z" />
    <glyph glyph-name="threeinferior" unicode="&#x2083;" horiz-adv-x="382" 
d="M328 107q0 -54 -41 -85t-101 -31q-91 0 -141 63l56 53q32 -38 78 -38q55 0 55 38q0 37 -64 37h-29v75h19q20 0 31 1t24 10.5t13 28.5q0 15 -13 24.5t-31 9.5q-38 0 -75 -37l-54 54q23 25 41 36q40 25 93 25t91 -29t38 -78q0 -32 -17 -55t-31 -27q10 -3 21 -8.5t24 -24
t13 -42.5z" />
    <glyph glyph-name="fourinferior" unicode="&#x2084;" horiz-adv-x="390" 
d="M349 67h-51v-67h-89v67h-164v70l157 227h96v-221h51v-76zM209 143v108l-75 -108h75z" />
    <glyph glyph-name="fiveinferior" unicode="&#x2085;" horiz-adv-x="360" 
d="M319 126q0 -60 -39.5 -97t-108.5 -37q-73 0 -126 49l47 59q38 -31 77 -31q25 0 42 13.5t17 37.5q0 25 -13.5 37.5t-34.5 12.5q-35 0 -52 -32l-73 27l21 199h220v-76h-148l-6 -58q19 14 61 14q49 0 82.5 -30.5t33.5 -87.5z" />
    <glyph glyph-name="sixinferior" unicode="&#x2086;" horiz-adv-x="355" 
d="M323 127q0 -57 -38.5 -96t-102.5 -39q-42 0 -73 17t-47 45.5t-23 58.5t-7 62q0 34 7.5 65.5t23.5 62.5t49 50t78 19q38 0 69 -12.5t42.5 -23t16.5 -18.5l-53 -54q-31 31 -71 31q-34 0 -52 -25.5t-19 -54.5q9 12 32 21.5t49 9.5q51 0 85 -31t34 -88zM230 118
q0 24 -13.5 37.5t-35.5 13.5t-35.5 -13.5t-13.5 -37.5t13.5 -37t35.5 -13t35.5 13t13.5 37z" />
    <glyph glyph-name="seveninferior" unicode="&#x2087;" horiz-adv-x="380" 
d="M326 288l-144 -288h-106l148 283h-176v81h278v-76z" />
    <glyph glyph-name="eightinferior" unicode="&#x2088;" horiz-adv-x="356" 
d="M324 103q0 -53 -41.5 -82t-104.5 -29t-104.5 29t-41.5 82q0 31 18 52.5t40 29.5q-18 7 -33 28.5t-15 51.5q0 50 39 78.5t97 28.5t97 -28.5t39 -78.5q0 -29 -15 -51.5t-33 -27.5q22 -7 40 -29t18 -54zM227 258q0 20 -13.5 32t-35.5 12q-21 0 -35 -11.5t-14 -32.5
q0 -19 14 -29.5t35 -10.5q22 0 35.5 10.5t13.5 29.5zM229 106q0 21 -15 32.5t-37 11.5q-21 0 -36 -11.5t-15 -32.5q0 -20 15 -31.5t36 -11.5q22 0 37 11t15 32z" />
    <glyph glyph-name="nineinferior" unicode="&#x2089;" horiz-adv-x="355" 
d="M32 237q0 57 38.5 96t102.5 39q42 0 73 -17t47 -45.5t23 -58.5t7 -62t-7 -63.5t-23 -63t-49 -51t-79 -19.5q-39 0 -70 12.5t-42 22.5t-16 19l53 54q31 -31 71 -31q34 0 52 25.5t19 54.5q-9 -12 -32 -21.5t-49 -9.5q-51 0 -85 31t-34 88zM125 246q0 -24 13.5 -37.5
t35.5 -13.5t35.5 13.5t13.5 37.5t-13.5 37t-35.5 13t-35.5 -13t-13.5 -37z" />
    <glyph glyph-name="parenleftinferior" unicode="&#x208d;" horiz-adv-x="305" 
d="M189 -93q-154 106 -154 275q0 79 42.5 152.5t118.5 119.5l56 -66q-105 -91 -105 -206q0 -112 105 -203z" />
    <glyph glyph-name="parenrightinferior" unicode="&#x208e;" horiz-adv-x="305" 
d="M116 -93l-63 72q105 91 105 203q0 115 -105 206l56 66q76 -46 118.5 -119.5t42.5 -152.5q0 -169 -154 -275z" />
    <glyph glyph-name="franc" unicode="&#x20a3;" horiz-adv-x="0" 
 />
    <glyph glyph-name="lira" unicode="&#x20a4;" horiz-adv-x="0" 
 />
    <glyph glyph-name="peseta" unicode="&#x20a7;" horiz-adv-x="0" 
 />
    <glyph glyph-name="Euro" unicode="&#x20ac;" 
d="M434 361h-191q-1 -8 -1 -26q0 -19 1 -26h191v-100h-179q9 -45 43 -69t78 -24q76 0 127 61l100 -82q-77 -111 -235 -111q-108 0 -184 59.5t-96 165.5h-88v100h77q-1 7 -1 26q0 18 1 26h-77v100h88q20 108 95 170.5t182 62.5q155 0 232 -111l-100 -82q-51 61 -124 61
q-42 0 -75 -27.5t-43 -73.5h179v-100z" />
    <glyph glyph-name="afii61352" unicode="&#x2116;" horiz-adv-x="1352" 
 />
    <glyph glyph-name="trademark" unicode="&#x2122;" horiz-adv-x="824" 
d="M776 298h-90v272l-76 -272h-77l-75 272v-272h-91v380h135l70 -254l69 254h135v-380zM327 593h-108v-295h-99v295h-108v85h315v-85z" />
    <glyph glyph-name="onethird" unicode="&#x2153;" horiz-adv-x="916" 
d="M717 657l-402 -694l-80 46l402 694zM341 314h-271v79h88v183l-65 -41l-45 69l116 74h90v-285h87v-79zM862 107q0 -54 -41 -85t-101 -31q-91 0 -141 63l56 53q32 -38 78 -38q55 0 55 38q0 37 -64 37h-29v75h19q20 0 31 1t24 10.5t13 28.5q0 15 -13 24.5t-31 9.5
q-38 0 -75 -37l-54 54q23 25 41 36q40 25 93 25t91 -29t38 -78q0 -32 -17 -55t-31 -27q10 -3 21 -8.5t24 -24t13 -42.5z" />
    <glyph glyph-name="twothirds" unicode="&#x2154;" horiz-adv-x="898" 
d="M699 657l-402 -694l-80 46l402 694zM844 107q0 -54 -41 -85t-101 -31q-91 0 -141 63l56 53q32 -38 78 -38q55 0 55 38q0 37 -64 37h-29v75h19q20 0 31 1t24 10.5t13 28.5q0 15 -13 24.5t-31 9.5q-38 0 -75 -37l-54 54q23 25 41 36q40 25 93 25t91 -29t38 -78
q0 -32 -17 -55t-31 -27q10 -3 21 -8.5t24 -24t13 -42.5zM325 573q0 -39 -24 -69t-53.5 -44.5t-55 -31.5t-28.5 -31h159v-81h-262q0 39 1.5 56.5t11 44.5t30.5 48q9 9 21 18t18.5 13l24 14.5t21.5 12.5q43 25 43 51q0 15 -12.5 25t-28.5 10q-41 0 -84 -43l-54 54q18 23 39 37
q43 31 100 31t95 -31.5t38 -83.5z" />
    <glyph glyph-name="oneeighth" unicode="&#x215b;" horiz-adv-x="894" 
d="M717 657l-402 -694l-80 46l402 694zM862 103q0 -53 -41.5 -82t-104.5 -29t-104.5 29t-41.5 82q0 31 18 52.5t40 29.5q-18 7 -33 28.5t-15 51.5q0 50 39 78.5t97 28.5t97 -28.5t39 -78.5q0 -29 -15 -51.5t-33 -27.5q22 -7 40 -29t18 -54zM765 258q0 20 -13.5 32t-35.5 12
q-21 0 -35 -11.5t-14 -32.5q0 -19 14 -29.5t35 -10.5q22 0 35.5 10.5t13.5 29.5zM767 106q0 21 -15 32.5t-37 11.5q-21 0 -36 -11.5t-15 -32.5q0 -20 15 -31.5t36 -11.5q22 0 37 11t15 32zM341 314h-271v79h88v183l-65 -41l-45 69l116 74h90v-285h87v-79z" />
    <glyph glyph-name="threeeighths" unicode="&#x215c;" horiz-adv-x="882" 
d="M705 657l-402 -694l-80 46l402 694zM350 415q0 -50 -46 -81.5t-113 -31.5q-95 0 -146 57l59 62q35 -35 81 -35q59 0 59 36t-68 36h-30v82h27q17 0 32 3q32 7 32 33q0 29 -48 29q-42 0 -80 -36l-59 59q54 60 143 60q60 0 102.5 -27t42.5 -78q0 -29 -17 -52t-36 -30
q24 -6 44.5 -28t20.5 -58zM850 103q0 -53 -41.5 -82t-104.5 -29t-104.5 29t-41.5 82q0 31 18 52.5t40 29.5q-18 7 -33 28.5t-15 51.5q0 50 39 78.5t97 28.5t97 -28.5t39 -78.5q0 -29 -15 -51.5t-33 -27.5q22 -7 40 -29t18 -54zM753 258q0 20 -13.5 32t-35.5 12
q-21 0 -35 -11.5t-14 -32.5q0 -19 14 -29.5t35 -10.5q22 0 35.5 10.5t13.5 29.5zM755 106q0 21 -15 32.5t-37 11.5q-21 0 -36 -11.5t-15 -32.5q0 -20 15 -31.5t36 -11.5q22 0 37 11t15 32z" />
    <glyph glyph-name="fiveeighths" unicode="&#x215d;" horiz-adv-x="847" 
d="M670 657l-402 -694l-80 46l402 694zM815 103q0 -53 -41.5 -82t-104.5 -29t-104.5 29t-41.5 82q0 31 18 52.5t40 29.5q-18 7 -33 28.5t-15 51.5q0 50 39 78.5t97 28.5t97 -28.5t39 -78.5q0 -29 -15 -51.5t-33 -27.5q22 -7 40 -29t18 -54zM718 258q0 20 -13.5 32t-35.5 12
q-21 0 -35 -11.5t-14 -32.5q0 -19 14 -29.5t35 -10.5q22 0 35.5 10.5t13.5 29.5zM720 106q0 21 -15 32.5t-37 11.5q-21 0 -36 -11.5t-15 -32.5q0 -20 15 -31.5t36 -11.5q22 0 37 11t15 32zM319 440q0 -60 -39.5 -97t-108.5 -37q-73 0 -126 49l47 59q38 -31 77 -31
q25 0 42 13.5t17 37.5q0 25 -13.5 37.5t-34.5 12.5q-35 0 -52 -32l-73 27l21 199h220v-76h-148l-6 -58q19 14 61 14q49 0 82.5 -30.5t33.5 -87.5z" />
    <glyph glyph-name="seveneighths" unicode="&#x215e;" horiz-adv-x="806" 
d="M629 657l-402 -694l-80 46l402 694zM774 103q0 -53 -41.5 -82t-104.5 -29t-104.5 29t-41.5 82q0 31 18 52.5t40 29.5q-18 7 -33 28.5t-15 51.5q0 50 39 78.5t97 28.5t97 -28.5t39 -78.5q0 -29 -15 -51.5t-33 -27.5q22 -7 40 -29t18 -54zM677 258q0 20 -13.5 32t-35.5 12
q-21 0 -35 -11.5t-14 -32.5q0 -19 14 -29.5t35 -10.5q22 0 35.5 10.5t13.5 29.5zM679 106q0 21 -15 32.5t-37 11.5q-21 0 -36 -11.5t-15 -32.5q0 -20 15 -31.5t36 -11.5q22 0 37 11t15 32zM326 602l-144 -288h-106l148 283h-176v81h278v-76z" />
    <glyph glyph-name="partialdiff" unicode="&#x2202;" horiz-adv-x="619" 
d="M44 234q0 104 62.5 161t158.5 57q56 0 99 -21.5t66 -49.5q1 17 -4 43.5t-18 59t-46 55t-79 22.5q-74 0 -133 -59l-94 92q4 6 11 14t28 24.5t46 29t66 22.5t88 10q68 0 121 -24.5t84 -62.5t51.5 -89t28 -97.5t7.5 -94.5t-7.5 -93.5t-27.5 -91.5t-50.5 -80t-80.5 -55.5
t-114 -21.5q-120 0 -191.5 72t-71.5 178zM204 217q0 -47 29.5 -74.5t75.5 -27.5t75 27.5t29 74.5t-29 74.5t-75 27.5t-75.5 -27.5t-29.5 -74.5z" />
    <glyph glyph-name="Delta" unicode="&#x2206;" horiz-adv-x="657" 
d="M657 0h-657l255 678h138zM451 129l-127 371l-122 -371h249z" />
    <glyph glyph-name="product" unicode="&#x220f;" horiz-adv-x="738" 
d="M726 537h-78v-537h-170v537h-218v-537h-170v537h-78v141h714v-141z" />
    <glyph glyph-name="summation" unicode="&#x2211;" horiz-adv-x="621" 
d="M597 0h-573v142l198 210l-182 184v142h544v-142h-341l184 -184l-199 -210h369v-142z" />
    <glyph glyph-name="minus" unicode="&#x2212;" 
d="M578 183h-532v138h532v-138z" />
    <glyph glyph-name="radical" unicode="&#x221a;" 
d="M608 649l-205 -649h-138l-115 293h-115v138h207l86 -238l148 501z" />
    <glyph glyph-name="infinity" unicode="&#x221e;" horiz-adv-x="703" 
d="M655 341q0 -69 -41 -121.5t-115 -52.5q-87 0 -143 88q-55 -88 -146 -88q-76 0 -119 50t-43 122q0 70 43 121t117 51q48 0 86 -27q38 -26 59 -56q55 84 144 84q73 0 115.5 -51t42.5 -120zM561 342q0 34 -18.5 55.5t-51.5 21.5q-31 0 -58 -34q-28 -36 -28 -43q0 -9 29 -47
q28 -37 58 -37q32 0 50.5 24t18.5 60zM302 345q0 4 -33 40t-63 36q-29 0 -45.5 -25t-16.5 -60q0 -33 18 -56t48 -23q32 0 61 39q31 40 31 49z" />
    <glyph glyph-name="integral" unicode="&#x222b;" 
d="M562 676l-37 -119q-28 7 -54 7q-29 0 -46 -7.5t-23.5 -24.5t-8 -29.5t-1.5 -38.5v-10v-446q0 -104 -60.5 -156t-167.5 -52q-50 0 -102 16l37 119q28 -7 54 -7q28 0 45.5 7t24 24t8 30t1.5 39v456q0 104 60.5 156t167.5 52q50 0 102 -16z" />
    <glyph glyph-name="approxequal" unicode="&#x2248;" 
d="M582 383q-72 -114 -171 -114q-44 0 -98 21q-44 18 -73 18q-46 0 -87 -52l-111 84q73 115 171 115q43 0 95 -21q44 -18 74 -18q47 0 87 51zM582 163q-72 -114 -171 -114q-44 0 -98 21q-44 18 -73 18q-46 0 -87 -52l-111 84q73 115 171 115q43 0 95 -21q44 -18 74 -18
q47 0 87 51z" />
    <glyph glyph-name="notequal" unicode="&#x2260;" 
d="M578 73h-336l-81 -115l-72 50l47 65h-90v138h185l56 82h-241v138h336l80 115l72 -50l-47 -65h91v-138h-185l-57 -82h242v-138z" />
    <glyph glyph-name="lessequal" unicode="&#x2264;" 
d="M578 171l-532 183v138l532 186v-145l-349 -110l349 -107v-145zM578 0h-532v138h532v-138z" />
    <glyph glyph-name="greaterequal" unicode="&#x2265;" 
d="M578 354l-532 -183v145l349 107l-349 110v145l532 -186v-138zM578 0h-532v138h532v-138z" />
    <glyph glyph-name="lozenge" unicode="&#x25ca;" horiz-adv-x="612" 
d="M605 340l-230 -340h-138l-230 340l230 338h138zM443 339l-137 227l-137 -227l137 -227z" />
    <glyph glyph-name="Euro.fitted" unicode="&#xe002;" 
d="M434 361h-191q-1 -8 -1 -26q0 -19 1 -26h191v-100h-179q9 -45 43 -69t78 -24q76 0 127 61l100 -82q-77 -111 -235 -111q-108 0 -184 59.5t-96 165.5h-88v100h77q-1 7 -1 26q0 18 1 26h-77v100h88q20 108 95 170.5t182 62.5q155 0 232 -111l-100 -82q-51 61 -124 61
q-42 0 -75 -27.5t-43 -73.5h179v-100z" />
    <glyph glyph-name="parenleft.dnom" unicode="&#xf62c;" horiz-adv-x="305" 
d="M189 -93q-154 106 -154 275q0 79 42.5 152.5t118.5 119.5l56 -66q-105 -91 -105 -206q0 -112 105 -203z" />
    <glyph glyph-name="parenright.dnom" unicode="&#xf62d;" horiz-adv-x="305" 
d="M116 -93l-63 72q105 91 105 203q0 115 -105 206l56 66q76 -46 118.5 -119.5t42.5 -152.5q0 -169 -154 -275z" />
    <glyph glyph-name="zero.fitted" unicode="&#xf639;" 
d="M592 339q0 -157 -73.5 -256t-206.5 -99t-206.5 99t-73.5 256t73.5 256t206.5 99t206.5 -99t73.5 -256zM426 339q0 217 -113 217q-35 0 -59.5 -21t-35.5 -57t-15.5 -69t-4.5 -70q0 -217 113 -217q35 0 59.5 21t35.5 57t15.5 69t4.5 70z" />
    <glyph glyph-name="two.fitted" unicode="&#xf63a;" 
d="M563 483q0 -60 -31 -107.5t-76.5 -77t-90.5 -53.5t-79 -50.5t-37 -56.5h310v-138h-487q0 50 1.5 74t8 63t24.5 69.5t47 60.5q31 31 80 61.5t84 49t61.5 46t26.5 59.5q0 35 -28 56t-63 21q-15 0 -30 -2t-28 -6.5t-24 -9t-21.5 -11t-18 -12t-15 -12t-11.5 -10.5t-8 -9
l-5 -5l-93 92q102 119 256 119q107 0 177 -58t70 -153z" />
    <glyph glyph-name="three.fitted" unicode="&#xf63b;" 
d="M558 179q0 -86 -75.5 -140.5t-188.5 -54.5q-97 0 -162.5 33t-95.5 73l93 93q5 -6 20.5 -19t53.5 -29.5t77 -16.5q55 0 85.5 20t30.5 59q0 81 -146 81h-35v130h21q32 0 51.5 2t45 8.5t38.5 24t13 44.5q0 34 -28 54.5t-66 20.5q-81 0 -146 -65l-91 91q100 106 245 106
q99 0 169.5 -52.5t70.5 -141.5q0 -66 -34.5 -105t-69.5 -52q16 -4 33.5 -13.5t39.5 -27.5t36.5 -50t14.5 -73z" />
    <glyph glyph-name="four.fitted" unicode="&#xf63c;" 
d="M597 128h-101v-128h-157v128h-312v128l298 422h171v-418h101v-132zM339 260v224l-158 -224h158z" />
    <glyph glyph-name="five.fitted" unicode="&#xf63d;" 
d="M568 231q0 -110 -74.5 -178.5t-204.5 -68.5q-65 0 -120.5 19.5t-77.5 36t-30 26.5l83 102q62 -51 142 -51q54 0 88.5 27.5t34.5 80.5q0 47 -29.5 71t-72.5 24q-67 0 -101 -55l-127 47l39 366h405v-130h-286l-16 -138q46 37 131 37q92 0 154 -56t62 -160z" />
    <glyph glyph-name="six.fitted" unicode="&#xf63e;" 
d="M592 234q0 -106 -71.5 -178t-191.5 -72q-64 0 -114 21.5t-80.5 55.5t-50.5 80t-27.5 91.5t-7.5 93.5t7.5 94.5t28 97.5t51.5 89t84 62.5t121 24.5q47 0 88 -10t66 -22.5t46 -29t28 -24.5t11 -14l-94 -92q-59 59 -133 59q-46 0 -79 -22.5t-46 -55t-18 -59t-4 -43.5
q23 28 66 49.5t99 21.5q96 0 158.5 -57t62.5 -161zM432 217q0 47 -29.5 74.5t-75.5 27.5t-75 -27.5t-29 -74.5t29 -74.5t75 -27.5t75.5 27.5t29.5 74.5z" />
    <glyph glyph-name="seven.fitted" unicode="&#xf63f;" 
d="M571 542l-276 -542h-184l285 540h-343v138h518v-136z" />
    <glyph glyph-name="eight.fitted" unicode="&#xf640;" 
d="M565 500q0 -65 -34.5 -104.5t-69.5 -51.5q14 -3 32.5 -13t40.5 -27.5t36.5 -48.5t14.5 -69q0 -96 -77 -149t-196 -53t-196 53t-77 149q0 66 43 107.5t81 50.5q-35 12 -69.5 51.5t-34.5 104.5q0 91 72 142.5t181 51.5q110 0 181.5 -51.5t71.5 -142.5zM420 192q0 43 -32 67
t-77 24t-76.5 -24t-31.5 -67q0 -41 32 -64.5t76 -23.5q45 0 77 23.5t32 64.5zM417 485q0 42 -31 65.5t-74 23.5t-73.5 -23.5t-30.5 -65.5q0 -39 30.5 -61t73.5 -22t74 22t31 61z" />
    <glyph glyph-name="nine.fitted" unicode="&#xf641;" 
d="M32 444q0 106 71.5 178t191.5 72q64 0 114 -21.5t80.5 -55.5t50.5 -80t27.5 -91.5t7.5 -93.5t-7.5 -94.5t-28 -97.5t-51.5 -89t-84 -62.5t-121 -24.5q-47 0 -88 10t-66 22.5t-46 29t-28 24.5t-11 14l94 92q59 -59 133 -59q46 0 79 22.5t46 55t18 59t4 43.5
q-23 -28 -66 -49.5t-99 -21.5q-96 0 -158.5 57t-62.5 161zM192 461q0 -47 29.5 -74.5t75.5 -27.5t75 27.5t29 74.5t-29 74.5t-75 27.5t-75.5 -27.5t-29.5 -74.5z" />
    <glyph glyph-name="zero.taboldstyle" unicode="&#xf643;" horiz-adv-x="558" 
d="M532 303q0 -138 -66.5 -227.5t-186.5 -89.5t-186.5 89.5t-66.5 227.5t66.5 227.5t186.5 89.5t186.5 -89.5t66.5 -227.5zM367 303q0 183 -87 183q-89 0 -89 -183t87 -183q89 0 89 183z" />
    <glyph glyph-name="one.taboldstyle" unicode="&#xf644;" horiz-adv-x="558" 
d="M533 0h-452v134h146v303l-107 -69l-76 115l193 123h151v-472h145v-134z" />
    <glyph glyph-name="two.taboldstyle" unicode="&#xf645;" horiz-adv-x="558" 
d="M505 428q0 -45 -19 -82.5t-47.5 -61t-62.5 -45t-63.5 -36.5t-51 -32.5t-24.5 -35.5h265v-135h-436q0 50 1 71.5t7 58t21.5 64t42.5 54.5q12 12 24.5 23t29.5 22l27 17l31.5 18.5l28.5 16.5q38 23 55 41t17 44q0 25 -20.5 41.5t-47.5 16.5q-43 0 -73.5 -17.5t-66.5 -53.5
l-90 90q35 41 64 62q73 51 167 51q95 0 158 -52.5t63 -139.5z" />
    <glyph glyph-name="three.taboldstyle" unicode="&#xf646;" horiz-adv-x="558" 
d="M515 179q0 -89 -67.5 -141t-168.5 -52q-152 0 -235 106l93 88q7 -9 21.5 -22t45.5 -27.5t63 -14.5q91 0 91 63q0 21 -10 35t-29.5 19t-32.5 6t-34 1h-48v128h31q24 0 37.5 1.5t34.5 6.5t31.5 19.5t10.5 37.5q0 25 -21.5 41t-51.5 16q-64 0 -126 -62l-90 90q36 39 69 60
q69 42 154 42q87 0 151 -48t64 -130q0 -55 -27.5 -93t-51.5 -45q11 -3 24 -9.5t30.5 -20.5t29.5 -39t12 -56z" />
    <glyph glyph-name="four.taboldstyle" unicode="&#xf647;" horiz-adv-x="558" 
d="M533 111h-86v-111h-152v111h-270v120l262 375h160v-365h86v-130zM295 241v165l-116 -165h116z" />
    <glyph glyph-name="five.taboldstyle" unicode="&#xf648;" horiz-adv-x="558" 
d="M510 210q0 -100 -66.5 -162t-181.5 -62q-124 0 -210 82l79 98q62 -52 128 -52q43 0 71 22.5t28 63.5t-23 62t-58 21q-34 0 -52.5 -13.5t-33.5 -40.5l-121 45l35 332h366v-127h-247l-10 -97q33 24 102 24q82 0 138 -51t56 -145z" />
    <glyph glyph-name="six.taboldstyle" unicode="&#xf649;" horiz-adv-x="558" 
d="M529 212q0 -96 -64 -161t-171 -65q-57 0 -102 19.5t-72 50t-45 72.5t-24.5 82t-6.5 82t6.5 83t24.5 86.5t45.5 79.5t75 56.5t108.5 22.5q51 0 93 -11.5t67.5 -29t37.5 -29t19 -21.5l-89 -89q-27 28 -53.5 40t-64.5 12q-57 0 -86.5 -43t-31.5 -91q15 20 53 36t81 16
q86 0 142.5 -51.5t56.5 -146.5zM374 197q0 39 -22.5 62t-59.5 23q-36 0 -58.5 -23t-22.5 -62t22 -61.5t59 -22.5t59.5 22.5t22.5 61.5z" />
    <glyph glyph-name="seven.taboldstyle" unicode="&#xf64a;" horiz-adv-x="558" 
d="M510 480l-240 -480h-176l246 471h-292v135h462v-126z" />
    <glyph glyph-name="eight.taboldstyle" unicode="&#xf64b;" horiz-adv-x="558" 
d="M523 171q0 -88 -70 -136.5t-174 -48.5t-174 48.5t-70 136.5q0 52 30 88t67 49q-30 12 -55 48t-25 86q0 84 65.5 131t161.5 47q97 0 162 -47t65 -131q0 -49 -25.5 -86.5t-54.5 -45.5q36 -12 66.5 -48.5t30.5 -90.5zM361 430q0 34 -23 53.5t-59 19.5q-35 0 -58.5 -19
t-23.5 -54q0 -31 23 -49t59 -18t59 17.5t23 49.5zM364 176q0 35 -24.5 54.5t-61.5 19.5q-36 0 -60.5 -19.5t-24.5 -54.5q0 -33 24.5 -52.5t60.5 -19.5q37 0 61.5 18.5t24.5 53.5z" />
    <glyph glyph-name="nine.taboldstyle" unicode="&#xf64c;" horiz-adv-x="558" 
d="M514 314q0 -42 -6.5 -83t-24.5 -86.5t-45.5 -79.5t-75 -56.5t-108.5 -22.5q-51 0 -93 11.5t-67.5 29t-37.5 29t-19 21.5l89 89q27 -28 53.5 -40t64.5 -12q57 0 86.5 43t31.5 91q-15 -20 -53 -36t-81 -16q-86 0 -142.5 51.5t-56.5 146.5q0 96 64 161t171 65
q57 0 102 -19.5t72 -50t45 -72.5t24.5 -82t6.5 -82zM347 409q0 39 -22 61.5t-59 22.5t-59.5 -22.5t-22.5 -61.5t22.5 -62t59.5 -23q36 0 58.5 23t22.5 62z" />
    <glyph glyph-name="Euro.taboldstyle" unicode="&#xf64e;" horiz-adv-x="588" 
d="M574 94q-75 -108 -215 -108q-95 0 -163 52.5t-86 144.5h-78v95h73q0 3 -0.5 11t-0.5 9t0.5 9.5t0.5 10.5h-73v95h78q16 95 84 151t162 56q138 0 213 -108l-98 -79q-47 57 -108 57q-32 0 -59 -20t-36 -57h147v-95h-160q0 -2 -0.5 -10.5t-0.5 -9.5t0.5 -9t0.5 -11h160v-95
h-146q6 -30 33 -49t64 -19q63 0 112 58z" />
    <glyph glyph-name="florin.taboldstyle" unicode="&#xf64f;" 
d="M618 676l-37 -119q-28 7 -54 7q-38 0 -56 -14t-25 -50l-9 -39h140v-128h-167l-78 -370q-35 -163 -225 -163q-50 0 -102 16l37 119q28 -7 54 -7q38 0 56 14t25 50l72 341h-91v128h118l15 68q35 163 225 163q50 0 102 -16z" />
    <glyph glyph-name="sterling.taboldstyle" unicode="&#xf651;" horiz-adv-x="558" 
d="M530 508l-97 -83q-48 63 -111 63q-42 0 -60 -22t-18 -51q0 -14 1.5 -25t4.5 -19.5t3 -10.5h151v-111h-128l1 -12q0 -66 -36 -105h273v-132h-465v119q85 29 85 108q0 2 -0.5 11t-0.5 11h-84v111h60q-11 44 -11 69q0 81 61 136t152 55q121 0 197 -85q4 -4 22 -27z" />
    <glyph glyph-name="yen.taboldstyle" unicode="&#xf652;" horiz-adv-x="558" 
d="M548 606l-120 -238h86v-101h-156v-69h150v-99h-150v-99h-159v99h-150v99h150v69h-156v101h85l-119 238h170l100 -238l104 238h165z" />
    <glyph glyph-name="dollar.taboldstyle" unicode="&#xf653;" horiz-adv-x="558" 
d="M512 179q0 -80 -57 -132t-143 -60v-79h-73v79q-126 11 -200 105l91 91q9 -14 41 -35.5t68 -26.5v108q-38 9 -66 20.5t-58.5 33.5t-47 59.5t-16.5 88.5q0 78 52 128.5t136 59.5v79h73v-79q134 -12 193 -97l-90 -90q-46 46 -102 53v-116q35 -8 55 -13.5t51.5 -20.5
t48.5 -33t30.5 -50t13.5 -73zM239 385v102l-6 -1q-6 -1 -10.5 -2t-11.5 -4.5t-11.5 -8.5t-8 -14t-3.5 -21q0 -6 0.5 -11.5t3 -9.5t4 -7t6 -6t5.5 -4.5t8 -4t7.5 -3t8.5 -2.5zM375 169q0 13 -4.5 21.5t-16.5 14t-17.5 7t-23.5 5.5v-99q62 2 62 51z" />
    <glyph glyph-name="cent.taboldstyle" unicode="&#xf654;" horiz-adv-x="558" 
d="M512 73q-63 -91 -177 -99v-77h-77v78q-102 9 -157.5 75t-55.5 157q0 90 55 155t158 76v77h77v-77q95 -6 157 -73q10 -11 19 -23l-99 -82q-40 42 -77 49v-205q42 8 80 53zM258 108v196q-59 -22 -59 -98q0 -75 59 -98z" />
    <glyph glyph-name="zero.dnom" unicode="&#xf655;" horiz-adv-x="368" 
d="M336 182q0 -83 -40 -136.5t-112 -53.5t-112 53.5t-40 136.5t40 136.5t112 53.5t112 -53.5t40 -136.5zM237 182q0 110 -52 110q-54 0 -54 -110t52 -110q54 0 54 110z" />
    <glyph glyph-name="one.dnom" unicode="&#xf656;" horiz-adv-x="384" 
d="M341 0h-271v79h88v183l-65 -41l-45 69l116 74h90v-285h87v-79z" />
    <glyph glyph-name="two.dnom" unicode="&#xf657;" horiz-adv-x="379" 
d="M325 257q0 -39 -24 -69t-53.5 -44.5t-55 -31.5t-28.5 -31h159v-81h-262q0 39 1.5 56.5t11 44.5t30.5 48q18 18 85 58q43 25 43 51q0 15 -12.5 25t-28.5 10q-41 0 -84 -43l-54 54q18 23 39 37q43 31 100 31t95 -31.5t38 -83.5z" />
    <glyph glyph-name="three.dnom" unicode="&#xf658;" horiz-adv-x="382" 
d="M328 107q0 -54 -41 -85t-101 -31q-91 0 -141 63l56 53q32 -38 78 -38q55 0 55 38q0 37 -64 37h-29v75h19q20 0 31 1t24 10.5t13 28.5q0 15 -13 24.5t-31 9.5q-38 0 -75 -37l-54 54q23 25 41 36q40 25 93 25t91 -29t38 -78q0 -32 -17 -55t-31 -27q10 -3 21 -8.5t24 -24
t13 -42.5z" />
    <glyph glyph-name="four.dnom" unicode="&#xf659;" horiz-adv-x="390" 
d="M349 67h-51v-67h-89v67h-164v70l157 227h96v-221h51v-76zM209 143v108l-75 -108h75z" />
    <glyph glyph-name="five.dnom" unicode="&#xf65a;" horiz-adv-x="360" 
d="M319 126q0 -60 -39.5 -97t-108.5 -37q-73 0 -126 49l47 59q38 -31 77 -31q25 0 42 13.5t17 37.5q0 25 -13.5 37.5t-34.5 12.5q-35 0 -52 -32l-73 27l21 199h220v-76h-148l-6 -58q19 14 61 14q49 0 82.5 -30.5t33.5 -87.5z" />
    <glyph glyph-name="six.dnom" unicode="&#xf65b;" horiz-adv-x="355" 
d="M323 127q0 -57 -38.5 -96t-102.5 -39q-42 0 -73 17t-47 45.5t-23 58.5t-7 62q0 34 7.5 65.5t23.5 62.5t49 50t78 19q38 0 69 -12.5t42.5 -23t16.5 -18.5l-53 -54q-31 31 -71 31q-34 0 -52 -25.5t-19 -54.5q9 12 32 21.5t49 9.5q51 0 85 -31t34 -88zM230 118
q0 24 -13.5 37.5t-35.5 13.5t-35.5 -13.5t-13.5 -37.5t13.5 -37t35.5 -13t35.5 13t13.5 37z" />
    <glyph glyph-name="seven.dnom" unicode="&#xf65c;" horiz-adv-x="380" 
d="M326 288l-144 -288h-106l148 283h-176v81h278v-76z" />
    <glyph glyph-name="eight.dnom" unicode="&#xf65d;" horiz-adv-x="356" 
d="M324 103q0 -53 -41.5 -82t-104.5 -29t-104.5 29t-41.5 82q0 31 18 52.5t40 29.5q-18 7 -33 28.5t-15 51.5q0 50 39 78.5t97 28.5t97 -28.5t39 -78.5q0 -29 -15 -51.5t-33 -27.5q22 -7 40 -29t18 -54zM227 258q0 20 -13.5 32t-35.5 12q-21 0 -35 -11.5t-14 -32.5
q0 -19 14 -29.5t35 -10.5q22 0 35.5 10.5t13.5 29.5zM229 106q0 21 -15 32.5t-37 11.5q-21 0 -36 -11.5t-15 -32.5q0 -20 15 -31.5t36 -11.5q22 0 37 11t15 32z" />
    <glyph glyph-name="nine.dnom" unicode="&#xf65e;" horiz-adv-x="355" 
d="M32 237q0 57 38.5 96t102.5 39q42 0 73 -17t47 -45.5t23 -58.5t7 -62t-7 -63.5t-23 -63t-49 -51t-79 -19.5q-39 0 -70 12.5t-42 22.5t-16 19l53 54q31 -31 71 -31q34 0 52 25.5t19 54.5q-9 -12 -32 -21.5t-49 -9.5q-51 0 -85 31t-34 88zM125 246q0 -24 13.5 -37.5
t35.5 -13.5t35.5 13.5t13.5 37.5t-13.5 37t-35.5 13t-35.5 -13t-13.5 -37z" />
    <glyph glyph-name="zero.numr" unicode="&#xf661;" horiz-adv-x="368" 
d="M336 498q0 -83 -40 -136.5t-112 -53.5t-112 53.5t-40 136.5t40 136.5t112 53.5t112 -53.5t40 -136.5zM237 498q0 110 -52 110q-54 0 -54 -110t52 -110q54 0 54 110z" />
    <glyph glyph-name="one.numr" unicode="&#xf662;" horiz-adv-x="384" 
d="M341 314h-271v79h88v183l-65 -41l-45 69l116 74h90v-285h87v-79z" />
    <glyph glyph-name="two.numr" unicode="&#xf663;" horiz-adv-x="379" 
d="M325 573q0 -39 -24 -69t-53.5 -44.5t-55 -31.5t-28.5 -31h159v-81h-262q0 39 1.5 56.5t11 44.5t30.5 48q9 9 21 18t18.5 13l24 14.5t21.5 12.5q43 25 43 51q0 15 -12.5 25t-28.5 10q-41 0 -84 -43l-54 54q18 23 39 37q43 31 100 31t95 -31.5t38 -83.5z" />
    <glyph glyph-name="three.numr" unicode="&#xf664;" horiz-adv-x="382" 
d="M328 424q0 -54 -41 -85t-101 -31q-91 0 -141 63l56 53q32 -38 78 -38q55 0 55 38q0 37 -64 37h-29v75h19q20 0 31 1t24 10.5t13 28.5q0 15 -13 24.5t-31 9.5q-38 0 -75 -37l-54 54q23 25 41 36q40 25 93 25t91 -29t38 -78q0 -32 -17 -55t-31 -27q10 -3 21 -8.5t24 -24
t13 -42.5z" />
    <glyph glyph-name="four.numr" unicode="&#xf665;" horiz-adv-x="390" 
d="M349 381h-51v-67h-89v67h-164v70l157 227h96v-221h51v-76zM209 457v108l-75 -108h75z" />
    <glyph glyph-name="five.numr" unicode="&#xf666;" horiz-adv-x="360" 
d="M319 440q0 -60 -39.5 -97t-108.5 -37q-73 0 -126 49l47 59q38 -31 77 -31q25 0 42 13.5t17 37.5q0 25 -13.5 37.5t-34.5 12.5q-35 0 -52 -32l-73 27l21 199h220v-76h-148l-6 -58q19 14 61 14q49 0 82.5 -30.5t33.5 -87.5z" />
    <glyph glyph-name="six.numr" unicode="&#xf667;" horiz-adv-x="355" 
d="M323 443q0 -57 -38.5 -96t-102.5 -39q-42 0 -73 17t-47 45.5t-23 58.5t-7 62q0 34 7.5 65.5t23.5 62.5t49 50t78 19q38 0 69 -12.5t42.5 -23t16.5 -18.5l-53 -54q-31 31 -71 31q-34 0 -52 -25.5t-19 -54.5q9 12 32 21.5t49 9.5q51 0 85 -31t34 -88zM230 434
q0 24 -13.5 37.5t-35.5 13.5t-35.5 -13.5t-13.5 -37.5t13.5 -37t35.5 -13t35.5 13t13.5 37z" />
    <glyph glyph-name="seven.numr" unicode="&#xf668;" horiz-adv-x="380" 
d="M326 602l-144 -288h-106l148 283h-176v81h278v-76z" />
    <glyph glyph-name="eight.numr" unicode="&#xf669;" horiz-adv-x="356" 
d="M324 419q0 -53 -41.5 -82t-104.5 -29t-104.5 29t-41.5 82q0 31 18 52.5t40 29.5q-18 7 -33 28.5t-15 51.5q0 50 39 78.5t97 28.5t97 -28.5t39 -78.5q0 -29 -15 -51.5t-33 -27.5q22 -7 40 -29t18 -54zM227 574q0 20 -13.5 32t-35.5 12q-21 0 -35 -11.5t-14 -32.5
q0 -19 14 -29.5t35 -10.5q22 0 35.5 10.5t13.5 29.5zM229 422q0 21 -15 32.5t-37 11.5q-21 0 -36 -11.5t-15 -32.5q0 -20 15 -31.5t36 -11.5q22 0 37 11t15 32z" />
    <glyph glyph-name="nine.numr" unicode="&#xf66a;" horiz-adv-x="355" 
d="M32 553q0 57 38.5 96t102.5 39q42 0 73 -17t47 -45.5t23 -58.5t7 -62t-7 -63.5t-23 -63t-49 -51t-79 -19.5q-39 0 -70 12.5t-42 22.5t-16 19l53 54q31 -31 71 -31q34 0 52 25.5t19 54.5q-9 -12 -32 -21.5t-49 -9.5q-51 0 -85 31t-34 88zM125 562q0 -24 13.5 -37.5
t35.5 -13.5t35.5 13.5t13.5 37.5t-13.5 37t-35.5 13t-35.5 -13t-13.5 -37z" />
    <glyph glyph-name="parenleft.numr" unicode="&#xf66b;" horiz-adv-x="305" 
d="M189 222q-154 106 -154 275q0 79 42.5 152.5t118.5 119.5l56 -66q-105 -91 -105 -206q0 -112 105 -203z" />
    <glyph glyph-name="parenright.numr" unicode="&#xf66c;" horiz-adv-x="305" 
d="M116 222l-63 72q105 91 105 203q0 115 -105 206l56 66q76 -46 118.5 -119.5t42.5 -152.5q0 -169 -154 -275z" />
    <glyph glyph-name="one.fitted" unicode="&#xf6dc;" 
d="M590 0h-502v136h171v378l-133 -84l-76 114l213 134h158v-542h169v-136z" />
    <glyph glyph-name="Lslashsmall" unicode="&#xf6f9;" horiz-adv-x="565" 
d="M565 0h-441v175l-33 -29l-80 85l113 99v276h165v-154l47 45l80 -84l-127 -116v-158h276v-139z" />
    <glyph glyph-name="OEsmall" unicode="&#xf6fa;" horiz-adv-x="996" 
d="M966 0h-436v44q-68 -58 -179 -58q-78 0 -141 27.5t-101 73t-58.5 101t-20.5 115.5t20.5 115.5t58.5 101t101 73t141 27.5q112 0 179 -59v45h423v-137h-273v-96h252v-136h-252v-99h286v-138zM517 303q0 78 -42 132t-118 54t-118 -54t-42 -132t42 -131.5t118 -53.5
t118 53.5t42 131.5z" />
    <glyph glyph-name="Scaronsmall" unicode="&#xf6fd;" horiz-adv-x="599" 
d="M557 184q0 -94 -76 -146t-193 -52q-60 0 -111.5 11.5t-84 29t-49 29t-24.5 20.5l85 109q82 -64 182 -64q50 0 76 15t26 40q0 22 -26.5 34.5t-65.5 18t-85.5 17.5t-85.5 29t-65.5 57t-26.5 98q0 85 70 137.5t181 52.5q156 0 244 -70q11 -9 23 -21l-89 -105q-79 66 -178 66
q-44 0 -66 -14t-22 -35q0 -19 20 -30.5t51.5 -17.5t70 -11.5t77.5 -17.5t70.5 -31.5t51.5 -57.5t20 -91zM461 806l-94 -138h-156l-94 138h119l53 -58l53 58h119z" />
    <glyph glyph-name="Zcaronsmall" unicode="&#xf6ff;" horiz-adv-x="584" 
d="M554 0h-524v126l299 343h-287v137h500v-126l-299 -342h311v-138zM462 808l-94 -138h-156l-94 138h119l53 -58l53 58h119z" />
    <glyph glyph-name="ampersandsmall" unicode="&#xf726;" horiz-adv-x="606" 
d="M605 0h-165l-41 47q-63 -61 -163 -61q-93 0 -155.5 46t-62.5 140q0 118 123 180q-53 55 -53 107q0 75 54 118t131 43q70 0 121.5 -39t51.5 -109q0 -96 -110 -157l65 -73q16 27 20 76h120q0 -112 -54 -178zM313 472q0 17 -11 27t-29 10q-20 0 -32 -10t-12 -27
q0 -31 37 -70q47 28 47 70zM318 140l-101 120q-28 -18 -41.5 -37t-13.5 -46q0 -29 19.5 -48t56.5 -19q47 0 80 30z" />
    <glyph glyph-name="zerooldstyle" unicode="&#xf730;" horiz-adv-x="558" 
d="M532 303q0 -138 -66.5 -227.5t-186.5 -89.5t-186.5 89.5t-66.5 227.5t66.5 227.5t186.5 89.5t186.5 -89.5t66.5 -227.5zM367 303q0 183 -87 183q-89 0 -89 -183t87 -183q89 0 89 183z" />
    <glyph glyph-name="oneoldstyle" unicode="&#xf731;" horiz-adv-x="558" 
d="M533 0h-452v134h146v303l-107 -69l-76 115l193 123h151v-472h145v-134z" />
    <glyph glyph-name="twooldstyle" unicode="&#xf732;" horiz-adv-x="558" 
d="M505 428q0 -45 -19 -82.5t-47.5 -61t-62.5 -45t-63.5 -36.5t-51 -32.5t-24.5 -35.5h265v-135h-436q0 50 1 71.5t7 58t21.5 64t42.5 54.5q12 12 24.5 23t29.5 22l27 17l31.5 18.5l28.5 16.5q38 23 55 41t17 44q0 25 -20.5 41.5t-47.5 16.5q-43 0 -73.5 -17.5t-66.5 -53.5
l-90 90q35 41 64 62q73 51 167 51q95 0 158 -52.5t63 -139.5z" />
    <glyph glyph-name="threeoldstyle" unicode="&#xf733;" horiz-adv-x="558" 
d="M515 179q0 -89 -67.5 -141t-168.5 -52q-152 0 -235 106l93 88q7 -9 21.5 -22t45.5 -27.5t63 -14.5q91 0 91 63q0 21 -10 35t-29.5 19t-32.5 6t-34 1h-48v128h31q24 0 37.5 1.5t34.5 6.5t31.5 19.5t10.5 37.5q0 25 -21.5 41t-51.5 16q-64 0 -126 -62l-90 90q36 39 69 60
q69 42 154 42q87 0 151 -48t64 -130q0 -55 -27.5 -93t-51.5 -45q11 -3 24 -9.5t30.5 -20.5t29.5 -39t12 -56z" />
    <glyph glyph-name="fouroldstyle" unicode="&#xf734;" horiz-adv-x="558" 
d="M533 111h-86v-111h-152v111h-270v120l262 375h160v-365h86v-130zM295 241v165l-116 -165h116z" />
    <glyph glyph-name="fiveoldstyle" unicode="&#xf735;" horiz-adv-x="558" 
d="M510 210q0 -100 -66.5 -162t-181.5 -62q-124 0 -210 82l79 98q62 -52 128 -52q43 0 71 22.5t28 63.5t-23 62t-58 21q-34 0 -52.5 -13.5t-33.5 -40.5l-121 45l35 332h366v-127h-247l-10 -97q33 24 102 24q82 0 138 -51t56 -145z" />
    <glyph glyph-name="sixoldstyle" unicode="&#xf736;" horiz-adv-x="558" 
d="M529 212q0 -96 -64 -161t-171 -65q-57 0 -102 19.5t-72 50t-45 72.5t-24.5 82t-6.5 82t6.5 83t24.5 86.5t45.5 79.5t75 56.5t108.5 22.5q51 0 93 -11.5t67.5 -29t37.5 -29t19 -21.5l-89 -89q-27 28 -53.5 40t-64.5 12q-57 0 -86.5 -43t-31.5 -91q15 20 53 36t81 16
q86 0 142.5 -51.5t56.5 -146.5zM374 197q0 39 -22.5 62t-59.5 23q-36 0 -58.5 -23t-22.5 -62t22 -61.5t59 -22.5t59.5 22.5t22.5 61.5z" />
    <glyph glyph-name="sevenoldstyle" unicode="&#xf737;" horiz-adv-x="558" 
d="M510 480l-240 -480h-176l246 471h-292v135h462v-126z" />
    <glyph glyph-name="eightoldstyle" unicode="&#xf738;" horiz-adv-x="558" 
d="M523 171q0 -88 -70 -136.5t-174 -48.5t-174 48.5t-70 136.5q0 52 30 88t67 49q-30 12 -55 48t-25 86q0 84 65.5 131t161.5 47q97 0 162 -47t65 -131q0 -49 -25.5 -86.5t-54.5 -45.5q36 -12 66.5 -48.5t30.5 -90.5zM361 430q0 34 -23 53.5t-59 19.5q-35 0 -58.5 -19
t-23.5 -54q0 -31 23 -49t59 -18t59 17.5t23 49.5zM364 176q0 35 -24.5 54.5t-61.5 19.5q-36 0 -60.5 -19.5t-24.5 -54.5q0 -33 24.5 -52.5t60.5 -19.5q37 0 61.5 18.5t24.5 53.5z" />
    <glyph glyph-name="nineoldstyle" unicode="&#xf739;" horiz-adv-x="558" 
d="M514 314q0 -42 -6.5 -83t-24.5 -86.5t-45.5 -79.5t-75 -56.5t-108.5 -22.5q-51 0 -93 11.5t-67.5 29t-37.5 29t-19 21.5l89 89q27 -28 53.5 -40t64.5 -12q57 0 86.5 43t31.5 91q-15 -20 -53 -36t-81 -16q-86 0 -142.5 51.5t-56.5 146.5q0 96 64 161t171 65
q57 0 102 -19.5t72 -50t45 -72.5t24.5 -82t6.5 -82zM347 409q0 39 -22 61.5t-59 22.5t-59.5 -22.5t-22.5 -61.5t22.5 -62t59.5 -23q36 0 58.5 23t22.5 62z" />
    <glyph glyph-name="Asmall" unicode="&#xf761;" horiz-adv-x="656" 
d="M656 0h-173l-42 105h-231l-42 -105h-168l247 606h162zM395 232l-70 184l-69 -184h139z" />
    <glyph glyph-name="Bsmall" unicode="&#xf762;" horiz-adv-x="618" 
d="M588 181q0 -47 -16.5 -81t-41.5 -53t-65 -30t-76.5 -14t-85.5 -3h-243v606h241q55 0 84 -1.5t69 -13.5t64 -35q45 -43 45 -103q0 -48 -21.5 -85.5t-64.5 -49.5q49 -7 80 -45.5t31 -91.5zM398 423q0 18 -8 29.5t-24 16t-28 5.5t-31 1h-85v-107h84q49 0 70.5 12t21.5 43z
M420 190q0 18 -8.5 29.5t-25 16.5t-30.5 6.5t-36 1.5h-98v-112h98q51 0 75.5 11.5t24.5 46.5z" />
    <glyph glyph-name="Csmall" unicode="&#xf763;" horiz-adv-x="637" 
d="M619 94q-15 -15 -26 -25q-95 -83 -237 -83q-154 0 -240 89.5t-86 226.5q0 135 87.5 226.5t240.5 91.5q137 0 224 -81q4 -4 26 -28l-95 -96q-35 35 -68.5 52.5t-81.5 17.5q-78 0 -121 -50.5t-43 -130.5q0 -82 47 -132t118 -50q87 0 166 71z" />
    <glyph glyph-name="Dsmall" unicode="&#xf764;" horiz-adv-x="664" 
d="M634 306q0 -143 -96 -227q-57 -50 -123.5 -64.5t-154.5 -14.5h-200v606h200q62 0 101 -3t90 -19.5t87 -48.5q96 -84 96 -229zM465 306q0 87 -45 132q-17 17 -43.5 25t-43.5 9t-51 1h-57v-339h57q50 0 81 7t57 32q45 45 45 133z" />
    <glyph glyph-name="Esmall" unicode="&#xf765;" horiz-adv-x="560" 
d="M530 0h-470v606h458v-137h-293v-96h271v-136h-271v-99h305v-138z" />
    <glyph glyph-name="Fsmall" unicode="&#xf766;" horiz-adv-x="518" 
d="M506 469h-281v-109h258v-136h-258v-224h-165v606h446v-137z" />
    <glyph glyph-name="Gsmall" unicode="&#xf767;" horiz-adv-x="676" 
d="M635 0h-126l-2 49q-13 -20 -64.5 -41.5t-109.5 -21.5q-140 0 -221.5 91t-81.5 225q0 135 87 226.5t240 91.5q161 0 250 -109l-95 -96q-69 69 -150 69q-77 0 -120 -52t-43 -128q0 -84 44.5 -133t115.5 -49q58 0 95.5 26.5t40.5 78.5h-152v127h292v-354z" />
    <glyph glyph-name="Hsmall" unicode="&#xf768;" horiz-adv-x="662" 
d="M602 0h-165v237h-212v-237h-165v606h165v-230h212v230h165v-606z" />
    <glyph glyph-name="Ismall" unicode="&#xf769;" horiz-adv-x="285" 
d="M225 0h-165v606h165v-606z" />
    <glyph glyph-name="Jsmall" unicode="&#xf76a;" horiz-adv-x="488" 
d="M428 220q0 -34 -2 -55.5t-15 -55.5t-37 -58q-64 -65 -180 -65q-122 0 -198 96l96 92q45 -54 100 -54q32 0 49 15t19.5 30.5t2.5 40.5v400h165v-386z" />
    <glyph glyph-name="Ksmall" unicode="&#xf76b;" horiz-adv-x="638" 
d="M638 0h-198l-215 255v-255h-165v606h165v-243l218 243h186l-261 -288z" />
    <glyph glyph-name="Lsmall" unicode="&#xf76c;" horiz-adv-x="501" 
d="M501 0h-441v606h165v-468h276v-138z" />
    <glyph glyph-name="Msmall" unicode="&#xf76d;" horiz-adv-x="818" 
d="M758 0h-151v413l-131 -413h-137l-131 413v-413h-148v606h228l121 -386l123 386h226v-606z" />
    <glyph glyph-name="Nsmall" unicode="&#xf76e;" horiz-adv-x="662" 
d="M602 0h-160l-226 339v-339h-156v606h160l226 -339v339h156v-606z" />
    <glyph glyph-name="Osmall" unicode="&#xf76f;" horiz-adv-x="708" 
d="M678 303q0 -60 -20.5 -115.5t-59.5 -101t-102 -73t-142 -27.5t-142 27.5t-102 73t-59.5 101t-20.5 115.5t20.5 115.5t59.5 101t102 73t142 27.5t142 -27.5t102 -73t59.5 -101t20.5 -115.5zM508 303q0 77 -40 129.5t-114 52.5t-114 -52.5t-40 -129.5q0 -76 40.5 -128.5
t113.5 -52.5t113.5 52.5t40.5 128.5z" />
    <glyph glyph-name="Psmall" unicode="&#xf770;" horiz-adv-x="575" 
d="M563 406q0 -106 -73.5 -155.5t-185.5 -49.5h-79v-201h-165v606h215q52 0 80 -1.5t64.5 -11.5t63.5 -29q80 -57 80 -158zM402 405q0 23 -10.5 38.5t-29.5 21.5t-35 8t-39 2h-63v-142h63q54 0 84 15t30 57z" />
    <glyph glyph-name="Qsmall" unicode="&#xf771;" horiz-adv-x="708" 
d="M678 302q0 -123 -78 -213l73 -77l-92 -87l-87 90q-60 -29 -140 -29q-79 0 -142 27.5t-102 73t-59.5 100.5t-20.5 115q0 81 34.5 151.5t110 118.5t179.5 48t179.5 -48t110 -118.5t34.5 -151.5zM508 302q0 77 -40.5 130t-113.5 53t-113.5 -53t-40.5 -130t40 -128.5
t114 -51.5q17 0 35 4l-71 72l93 89l77 -80q20 39 20 95z" />
    <glyph glyph-name="Rsmall" unicode="&#xf772;" horiz-adv-x="616" 
d="M613 0h-186l-150 213h-52v-213h-165v606h247q44 0 73.5 -2.5t68.5 -17t66 -41.5q55 -55 55 -134q0 -62 -34 -108t-92 -68zM404 412q0 63 -99 63h-80v-130h67q24 0 40 2t34.5 8t28 20.5t9.5 36.5z" />
    <glyph glyph-name="Ssmall" unicode="&#xf773;" horiz-adv-x="599" 
d="M557 184q0 -94 -76 -146t-193 -52q-60 0 -111.5 11.5t-84 29t-49 29t-24.5 20.5l85 109q82 -64 182 -64q50 0 76 15t26 40q0 22 -26.5 34.5t-65.5 18t-85.5 17.5t-85.5 29t-65.5 57t-26.5 98q0 85 70 137.5t181 52.5q156 0 244 -70q11 -9 23 -21l-89 -105q-79 66 -178 66
q-44 0 -66 -14t-22 -35q0 -19 20 -30.5t51.5 -17.5t70 -11.5t77.5 -17.5t70.5 -31.5t51.5 -57.5t20 -91z" />
    <glyph glyph-name="Tsmall" unicode="&#xf774;" horiz-adv-x="543" 
d="M543 469h-189v-469h-165v469h-189v137h543v-137z" />
    <glyph glyph-name="Usmall" unicode="&#xf775;" horiz-adv-x="657" 
d="M603 257q0 -127 -70 -196q-76 -75 -205 -75q-130 0 -208 78q-66 66 -66 193v349h165v-332v-7q0 -82 27 -110q31 -33 83 -33q42 0 70.5 22t35.5 63q4 21 4 65v332h164v-349z" />
    <glyph glyph-name="Vsmall" unicode="&#xf776;" horiz-adv-x="642" 
d="M642 606l-240 -606h-162l-240 606h181l143 -400l146 400h172z" />
    <glyph glyph-name="Wsmall" unicode="&#xf777;" horiz-adv-x="932" 
d="M926 606l-186 -606h-163l-109 369l-109 -369h-165l-188 606h173l107 -367l109 367h148l110 -367l104 367h169z" />
    <glyph glyph-name="Xsmall" unicode="&#xf778;" horiz-adv-x="600" 
d="M600 0h-186l-114 182l-118 -182h-182l214 315l-194 291h184l101 -165l103 165h174l-192 -291z" />
    <glyph glyph-name="Ysmall" unicode="&#xf779;" horiz-adv-x="598" 
d="M598 606l-216 -364v-242h-165v242l-217 364h185l114 -212l121 212h178z" />
    <glyph glyph-name="Zsmall" unicode="&#xf77a;" horiz-adv-x="584" 
d="M554 0h-524v126l299 343h-287v137h500v-126l-299 -342h311v-138z" />
    <glyph glyph-name="Agravesmall" unicode="&#xf7e0;" horiz-adv-x="656" 
d="M656 0h-173l-42 105h-231l-42 -105h-168l247 606h162zM395 232l-70 184l-69 -184h139zM430 670h-123l-127 138h156z" />
    <glyph glyph-name="Aacutesmall" unicode="&#xf7e1;" horiz-adv-x="656" 
d="M656 0h-173l-42 105h-231l-42 -105h-168l247 606h162zM395 232l-70 184l-69 -184h139zM476 808l-127 -138h-123l94 138h156z" />
    <glyph glyph-name="Acircumflexsmall" unicode="&#xf7e2;" horiz-adv-x="656" 
d="M656 0h-173l-42 105h-231l-42 -105h-168l247 606h162zM395 232l-70 184l-69 -184h139zM497 670h-119l-53 58l-53 -58h-119l94 138h156z" />
    <glyph glyph-name="Atildesmall" unicode="&#xf7e3;" horiz-adv-x="656" 
d="M656 0h-173l-42 105h-231l-42 -105h-168l247 606h162zM395 232l-70 184l-69 -184h139zM491 807v-10q-1 -66 -30.5 -98t-75.5 -32q-26 0 -63 18.5t-50 18.5q-27 0 -27 -34h-86v10q1 67 31 98.5t77 31.5q27 0 64 -17t50 -17q26 0 26 31h84z" />
    <glyph glyph-name="Adieresissmall" unicode="&#xf7e4;" horiz-adv-x="656" 
d="M656 0h-173l-42 105h-231l-42 -105h-168l247 606h162zM395 232l-70 184l-69 -184h139zM298 739q0 -31 -21 -51.5t-52 -20.5t-53 21t-22 51q0 31 21.5 51.5t52.5 20.5t52.5 -20.5t21.5 -51.5zM506 739q0 -31 -21 -51.5t-52 -20.5t-53 21t-22 51q0 31 21.5 51.5t52.5 20.5
t52.5 -20.5t21.5 -51.5z" />
    <glyph glyph-name="Aringsmall" unicode="&#xf7e5;" horiz-adv-x="656" 
d="M656 0h-173l-42 105h-231l-42 -105h-168l247 606h162zM395 232l-70 184l-69 -184h139zM435 776q0 -46 -32 -77t-78 -31t-78 31t-32 77t32 77t78 31t78 -31t32 -77zM367 776q0 17 -12.5 29t-29.5 12t-29 -12t-12 -29t12 -29t29 -12t29.5 12t12.5 29z" />
    <glyph glyph-name="AEsmall" unicode="&#xf7e6;" horiz-adv-x="943" 
d="M913 0h-447v122h-205l-75 -122h-186l384 606h517v-137h-270v-96h251v-136h-251v-99h282v-138zM466 255v223l-130 -223h130z" />
    <glyph glyph-name="Ccedillasmall" unicode="&#xf7e7;" horiz-adv-x="637" 
d="M354 -14l-12 -27q4 2 16 2q45 0 73 -20.5t28 -61.5q0 -46 -34.5 -68.5t-84.5 -22.5q-66 0 -102 36l38 49q31 -24 59 -24q37 0 37 30q0 31 -35 31q-18 0 -33 -17l-52 31l31 68q-113 19 -183 101t-70 209q0 135 87.5 226.5t240.5 91.5q137 0 224 -81q4 -4 26 -28l-95 -96
q-35 35 -68.5 52.5t-81.5 17.5q-78 0 -121 -50.5t-43 -130.5q0 -82 47 -132t118 -50q87 0 166 71l89 -99q-15 -15 -26 -25q-95 -83 -239 -83z" />
    <glyph glyph-name="Egravesmall" unicode="&#xf7e8;" horiz-adv-x="560" 
d="M530 0h-470v606h458v-137h-293v-96h271v-136h-271v-99h305v-138zM398 670h-123l-127 138h156z" />
    <glyph glyph-name="Eacutesmall" unicode="&#xf7e9;" horiz-adv-x="560" 
d="M530 0h-470v606h458v-137h-293v-96h271v-136h-271v-99h305v-138zM443 808l-127 -138h-123l94 138h156z" />
    <glyph glyph-name="Ecircumflexsmall" unicode="&#xf7ea;" horiz-adv-x="560" 
d="M530 0h-470v606h458v-137h-293v-96h271v-136h-271v-99h305v-138zM465 670h-119l-53 58l-53 -58h-119l94 138h156z" />
    <glyph glyph-name="Edieresissmall" unicode="&#xf7eb;" horiz-adv-x="560" 
d="M530 0h-470v606h458v-137h-293v-96h271v-136h-271v-99h305v-138zM264 739q0 -31 -21 -51.5t-52 -20.5t-53 21t-22 51q0 31 21.5 51.5t52.5 20.5t52.5 -20.5t21.5 -51.5zM472 739q0 -31 -21 -51.5t-52 -20.5t-53 21t-22 51q0 31 21.5 51.5t52.5 20.5t52.5 -20.5
t21.5 -51.5z" />
    <glyph glyph-name="Igravesmall" unicode="&#xf7ec;" horiz-adv-x="285" 
d="M225 0h-165v606h165v-606zM229 670h-123l-127 138h156z" />
    <glyph glyph-name="Iacutesmall" unicode="&#xf7ed;" horiz-adv-x="285" 
d="M225 0h-165v606h165v-606zM306 808l-127 -138h-123l94 138h156z" />
    <glyph glyph-name="Icircumflexsmall" unicode="&#xf7ee;" horiz-adv-x="285" 
d="M225 0h-165v606h165v-606zM314 670h-119l-53 58l-53 -58h-119l94 138h156z" />
    <glyph glyph-name="Idieresissmall" unicode="&#xf7ef;" horiz-adv-x="285" 
d="M225 0h-165v606h165v-606zM112 739q0 -31 -21 -51.5t-52 -20.5t-53 21t-22 51q0 31 21.5 51.5t52.5 20.5t52.5 -20.5t21.5 -51.5zM320 739q0 -31 -21 -51.5t-52 -20.5t-53 21t-22 51q0 31 21.5 51.5t52.5 20.5t52.5 -20.5t21.5 -51.5z" />
    <glyph glyph-name="Ethsmall" unicode="&#xf7f0;" horiz-adv-x="724" 
d="M694 306q0 -143 -96 -227q-32 -28 -69 -45.5t-78.5 -24t-66.5 -8t-64 -1.5h-200v247h-90v119h90v240h200q62 0 101 -3t90 -19.5t87 -48.5q96 -84 96 -229zM525 306q0 87 -45 132q-17 17 -43.5 25t-43.5 9t-51 1h-57v-107h136v-119h-136v-113h57q50 0 81 7t57 32
q45 45 45 133z" />
    <glyph glyph-name="Ntildesmall" unicode="&#xf7f1;" horiz-adv-x="662" 
d="M602 0h-160l-226 339v-339h-156v606h160l226 -339v339h156v-606zM500 808v-10q-1 -66 -30.5 -98t-75.5 -32q-26 0 -63 18.5t-50 18.5q-27 0 -27 -34h-86v10q1 67 31 98.5t77 31.5q27 0 64 -17t50 -17q26 0 26 31h84z" />
    <glyph glyph-name="Ogravesmall" unicode="&#xf7f2;" horiz-adv-x="708" 
d="M678 303q0 -60 -20.5 -115.5t-59.5 -101t-102 -73t-142 -27.5t-142 27.5t-102 73t-59.5 101t-20.5 115.5t20.5 115.5t59.5 101t102 73t142 27.5t142 -27.5t102 -73t59.5 -101t20.5 -115.5zM508 303q0 77 -40 129.5t-114 52.5t-114 -52.5t-40 -129.5q0 -76 40.5 -128.5
t113.5 -52.5t113.5 52.5t40.5 128.5zM459 668h-123l-127 138h156z" />
    <glyph glyph-name="Oacutesmall" unicode="&#xf7f3;" horiz-adv-x="708" 
d="M678 303q0 -60 -20.5 -115.5t-59.5 -101t-102 -73t-142 -27.5t-142 27.5t-102 73t-59.5 101t-20.5 115.5t20.5 115.5t59.5 101t102 73t142 27.5t142 -27.5t102 -73t59.5 -101t20.5 -115.5zM508 303q0 77 -40 129.5t-114 52.5t-114 -52.5t-40 -129.5q0 -76 40.5 -128.5
t113.5 -52.5t113.5 52.5t40.5 128.5zM498 806l-127 -138h-123l94 138h156z" />
    <glyph glyph-name="Ocircumflexsmall" unicode="&#xf7f4;" horiz-adv-x="708" 
d="M678 303q0 -60 -20.5 -115.5t-59.5 -101t-102 -73t-142 -27.5t-142 27.5t-102 73t-59.5 101t-20.5 115.5t20.5 115.5t59.5 101t102 73t142 27.5t142 -27.5t102 -73t59.5 -101t20.5 -115.5zM508 303q0 77 -40 129.5t-114 52.5t-114 -52.5t-40 -129.5q0 -76 40.5 -128.5
t113.5 -52.5t113.5 52.5t40.5 128.5zM526 668h-119l-53 58l-53 -58h-119l94 138h156z" />
    <glyph glyph-name="Otildesmall" unicode="&#xf7f5;" horiz-adv-x="708" 
d="M678 303q0 -60 -20.5 -115.5t-59.5 -101t-102 -73t-142 -27.5t-142 27.5t-102 73t-59.5 101t-20.5 115.5t20.5 115.5t59.5 101t102 73t142 27.5t142 -27.5t102 -73t59.5 -101t20.5 -115.5zM508 303q0 77 -40 129.5t-114 52.5t-114 -52.5t-40 -129.5q0 -76 40.5 -128.5
t113.5 -52.5t113.5 52.5t40.5 128.5zM520 806v-10q-1 -66 -30.5 -98t-75.5 -32q-26 0 -63 18.5t-50 18.5q-27 0 -27 -34h-86v10q1 67 31 98.5t77 31.5q27 0 64 -17t50 -17q26 0 26 31h84z" />
    <glyph glyph-name="Odieresissmall" unicode="&#xf7f6;" horiz-adv-x="708" 
d="M678 303q0 -60 -20.5 -115.5t-59.5 -101t-102 -73t-142 -27.5t-142 27.5t-102 73t-59.5 101t-20.5 115.5t20.5 115.5t59.5 101t102 73t142 27.5t142 -27.5t102 -73t59.5 -101t20.5 -115.5zM508 303q0 77 -40 129.5t-114 52.5t-114 -52.5t-40 -129.5q0 -76 40.5 -128.5
t113.5 -52.5t113.5 52.5t40.5 128.5zM324 737q0 -31 -21 -51.5t-52 -20.5t-53 21t-22 51q0 31 21.5 51.5t52.5 20.5t52.5 -20.5t21.5 -51.5zM532 737q0 -31 -21 -51.5t-52 -20.5t-53 21t-22 51q0 31 21.5 51.5t52.5 20.5t52.5 -20.5t21.5 -51.5z" />
    <glyph glyph-name="Oslashsmall" unicode="&#xf7f8;" horiz-adv-x="712" 
d="M682 551l-61 -61q57 -80 57 -187q0 -60 -20.5 -115.5t-59.5 -101t-102 -73t-142 -27.5q-110 0 -188 52l-55 -56l-76 73l55 56q-60 84 -60 192q0 60 20.5 115.5t59.5 101t102 73t142 27.5q110 0 193 -56l59 60zM442 458q-39 27 -88 27q-74 0 -114 -52.5t-40 -129.5
q0 -47 11 -76zM508 303q0 47 -9 69l-227 -226q30 -24 82 -24q74 1 114 53t40 128z" />
    <glyph glyph-name="Ugravesmall" unicode="&#xf7f9;" horiz-adv-x="657" 
d="M603 257q0 -127 -70 -196q-76 -75 -205 -75q-130 0 -208 78q-66 66 -66 193v349h165v-332v-7q0 -82 27 -110q31 -33 83 -33q42 0 70.5 22t35.5 63q4 21 4 65v332h164v-349zM434 670h-123l-127 138h156z" />
    <glyph glyph-name="Uacutesmall" unicode="&#xf7fa;" horiz-adv-x="657" 
d="M603 257q0 -127 -70 -196q-76 -75 -205 -75q-130 0 -208 78q-66 66 -66 193v349h165v-332v-7q0 -82 27 -110q31 -33 83 -33q42 0 70.5 22t35.5 63q4 21 4 65v332h164v-349zM474 808l-127 -138h-123l94 138h156z" />
    <glyph glyph-name="Ucircumflexsmall" unicode="&#xf7fb;" horiz-adv-x="657" 
d="M603 257q0 -127 -70 -196q-76 -75 -205 -75q-130 0 -208 78q-66 66 -66 193v349h165v-332v-7q0 -82 27 -110q31 -33 83 -33q42 0 70.5 22t35.5 63q4 21 4 65v332h164v-349zM501 670h-119l-53 58l-53 -58h-119l94 138h156z" />
    <glyph glyph-name="Udieresissmall" unicode="&#xf7fc;" horiz-adv-x="657" 
d="M603 257q0 -127 -70 -196q-76 -75 -205 -75q-130 0 -208 78q-66 66 -66 193v349h165v-332v-7q0 -82 27 -110q31 -33 83 -33q42 0 70.5 22t35.5 63q4 21 4 65v332h164v-349zM299 739q0 -31 -21 -51.5t-52 -20.5t-53 21t-22 51q0 31 21.5 51.5t52.5 20.5t52.5 -20.5
t21.5 -51.5zM507 739q0 -31 -21 -51.5t-52 -20.5t-53 21t-22 51q0 31 21.5 51.5t52.5 20.5t52.5 -20.5t21.5 -51.5z" />
    <glyph glyph-name="Yacutesmall" unicode="&#xf7fd;" horiz-adv-x="598" 
d="M598 606l-216 -364v-242h-165v242l-217 364h185l114 -212l121 212h178zM444 808l-127 -138h-123l94 138h156z" />
    <glyph glyph-name="Thornsmall" unicode="&#xf7fe;" horiz-adv-x="575" 
d="M563 312q0 -106 -73.5 -155.5t-185.5 -49.5h-79v-107h-165v606h165v-94h50q52 0 80 -1.5t64.5 -11.5t63.5 -29q80 -57 80 -158zM402 311q0 23 -10.5 38.5t-29.5 21.5t-35 8t-39 2h-63v-142h63q54 0 84 15t30 57z" />
    <glyph glyph-name="Ydieresissmall" unicode="&#xf7ff;" horiz-adv-x="598" 
d="M598 606l-216 -364v-242h-165v242l-217 364h185l114 -212l121 212h178zM269 739q0 -31 -21 -51.5t-52 -20.5t-53 21t-22 51q0 31 21.5 51.5t52.5 20.5t52.5 -20.5t21.5 -51.5zM477 739q0 -31 -21 -51.5t-52 -20.5t-53 21t-22 51q0 31 21.5 51.5t52.5 20.5t52.5 -20.5
t21.5 -51.5z" />
    <glyph glyph-name="apple" unicode="&#xf8ff;" horiz-adv-x="884" 
d="M848 386q0 -168 -117.5 -285t-288.5 -117q-170 0 -288 117.5t-118 284.5q0 168 118.5 285.5t287.5 117.5q170 0 288 -117.5t118 -285.5zM770 386q0 134 -96.5 230.5t-231.5 96.5q-134 0 -231 -96.5t-97 -229.5q0 -103 59.5 -187t154.5 -119v229h-106v69h106v30
q0 52 10 85t37 60q45 45 125 45q27 0 51.5 -5t34.5 -9.5t14 -7.5l-24 -61q-36 13 -67 13q-49 0 -76 -27q-25 -25 -25 -93v-30h170v-69h-170v-248q22 -2 34 -2q134 0 231 96.5t97 229.5z" />
    <glyph glyph-name="ff" horiz-adv-x="811" 
d="M462 358h-200v-358h-160v358h-102v126h102v6q0 94 54 148q58 58 168 58q37 0 71 -9.5t47 -16.5l-42 -111q-26 11 -58 11q-80 0 -80 -80v-6h200v6q0 94 54 148q58 58 168 58q65 0 139 -37l-41 -110q-42 21 -80 21q-80 0 -80 -80v-6h163v-126h-163v-358h-160v358z" />
    <glyph glyph-name="ffi" horiz-adv-x="1036" 
d="M462 358h-200v-358h-160v358h-102v126h102v6q0 94 54 148q58 58 168 58q37 0 71 -9.5t47 -16.5l-42 -111q-26 11 -58 11q-80 0 -80 -80v-6h200v6q0 94 54 148q58 58 168 58q37 0 71 -9.5t47 -16.5l-42 -111q-26 11 -58 11q-80 0 -80 -80v-6h163v-126h-163v-358h-160v358z
M990 610q0 -36 -24.5 -60t-63.5 -24t-63.5 24t-24.5 60t24.5 60t63.5 24t63.5 -24t24.5 -60zM982 0h-160v484h160v-484z" />
    <glyph glyph-name="ffl" horiz-adv-x="1036" 
d="M982 0h-160v678h160v-678zM462 358h-200v-358h-160v358h-102v126h102v6q0 94 54 148q58 58 168 58q37 0 71 -9.5t47 -16.5l-42 -111q-26 11 -58 11q-80 0 -80 -80v-6h200v6q0 94 54 148q58 58 168 58q37 0 71 -9.5t47 -16.5l-42 -111q-26 11 -58 11q-80 0 -80 -80v-6h163
v-126h-163v-358h-160v358z" />
    <glyph glyph-name="US" horiz-adv-x="767" 
 />
    <glyph glyph-name="fj" horiz-adv-x="676" 
d="M342 570q-80 0 -80 -80v-6h163v-126h-163v-358h-160v358h-102v126h102v6q0 94 54 148q58 58 168 58q37 0 71 -9.5t47 -16.5l-42 -111q-26 11 -58 11zM630 610q0 -36 -24.5 -60t-63.5 -24t-63.5 24t-24.5 60t24.5 60t63.5 24t63.5 -24t24.5 -60zM622 51q0 -38 -2.5 -62.5
t-11 -56t-28.5 -56.5t-53 -45q-51 -31 -133 -31q-89 0 -133 34l55 111q29 -16 64 -16q23 0 39.5 8t24.5 18.5t12.5 30.5t5 33.5t0.5 38.5v426h160v-433z" />
    <glyph glyph-name="Grave" horiz-adv-x="346" 
d="M304 742h-123l-127 138h156z" />
    <glyph glyph-name="Circumflex" horiz-adv-x="346" 
d="M346 742h-119l-53 58l-53 -58h-119l94 138h156z" />
    <glyph glyph-name="Tilde" horiz-adv-x="346" 
d="M339 880v-10q-1 -66 -30.5 -98t-75.5 -32q-26 0 -63 18.5t-50 18.5q-27 0 -27 -34h-86v10q1 67 31 98.5t77 31.5q27 0 64 -17t50 -17q26 0 26 31h84z" />
    <glyph glyph-name="Dieresis" horiz-adv-x="402" 
d="M171 811q0 -31 -21 -51.5t-52 -20.5t-53 21t-22 51q0 31 21.5 51.5t52.5 20.5t52.5 -20.5t21.5 -51.5zM379 811q0 -31 -21 -51.5t-52 -20.5t-53 21t-22 51q0 31 21.5 51.5t52.5 20.5t52.5 -20.5t21.5 -51.5z" />
    <glyph glyph-name="Macron" horiz-adv-x="346" 
d="M331 766h-316v98h316v-98z" />
    <glyph glyph-name="Acute" horiz-adv-x="402" 
d="M348 880l-127 -138h-123l94 138h156z" />
    <glyph glyph-name="Cedilla" horiz-adv-x="334" 
d="M74 -77l43 66l69 -5l-20 -27q4 2 16 2q45 0 73 -20.5t28 -61.5q0 -46 -34.5 -68.5t-84.5 -22.5q-66 0 -102 36l38 49q31 -24 59 -24q37 0 37 30q0 31 -35 31q-21 0 -35 -16z" />
    <glyph glyph-name="Breve" horiz-adv-x="346" 
d="M239 880h98q0 -70 -42.5 -106.5t-121.5 -36.5t-121.5 36.5t-42.5 106.5h98q7 -61 66 -61t66 61z" />
    <glyph glyph-name="Dotaccent" horiz-adv-x="346" 
d="M247 811q0 -31 -21 -51.5t-52 -20.5t-53 21t-22 51q0 31 21.5 51.5t52.5 20.5t52.5 -20.5t21.5 -51.5z" />
    <glyph glyph-name="Ring" horiz-adv-x="346" 
d="M283 817q0 -46 -32 -77t-78 -31t-78 31t-32 77t32 77t78 31t78 -31t32 -77zM215 817q0 17 -12.5 29t-29.5 12t-29 -12t-12 -29t12 -29t29 -12t29.5 12t12.5 29z" />
    <glyph glyph-name="Hungarumlaut" horiz-adv-x="346" 
d="M394 880l-127 -138h-115l94 138h148zM196 880l-127 -138h-115l94 138h148z" />
    <glyph glyph-name="Ogonek" horiz-adv-x="369" 
d="M116 0h180l-8 -3l-16 -7t-20.5 -10t-22 -13.5t-20 -16t-15 -18.5t-5.5 -21q0 -13 9 -21t21 -8q19 0 38 13l45 -58q-51 -37 -108 -37q-53 0 -90 23.5t-37 77.5t49 99z" />
    <glyph glyph-name="Caron" horiz-adv-x="346" 
d="M1 880h119l53 -58l53 58h119l-94 -138h-156z" />
    <glyph glyph-name="commaaccent.cap" horiz-adv-x="500" 
 />
    <glyph glyph-name="commaaccent" horiz-adv-x="0" 
 />
    <glyph glyph-name="germandbls.small" horiz-adv-x="1198" 
d="M557 184q0 -94 -76 -146t-193 -52q-60 0 -111.5 11.5t-84 29t-49 29t-24.5 20.5l85 109q82 -64 182 -64q50 0 76 15t26 40q0 22 -26.5 34.5t-65.5 18t-85.5 17.5t-85.5 29t-65.5 57t-26.5 98q0 85 70 137.5t181 52.5q156 0 244 -70q11 -9 23 -21l-89 -105q-79 66 -178 66
q-44 0 -66 -14t-22 -35q0 -19 20 -30.5t51.5 -17.5t70 -11.5t77.5 -17.5t70.5 -31.5t51.5 -57.5t20 -91zM1156 184q0 -94 -76 -146t-193 -52q-60 0 -111.5 11.5t-84 29t-49 29t-24.5 20.5l85 109q82 -64 182 -64q50 0 76 15t26 40q0 22 -26.5 34.5t-65.5 18t-85.5 17.5
t-85.5 29t-65.5 57t-26.5 98q0 85 70 137.5t181 52.5q156 0 244 -70q11 -9 23 -21l-89 -105q-79 66 -178 66q-44 0 -66 -14t-22 -35q0 -19 20 -30.5t51.5 -17.5t70.5 -11.5t77.5 -17.5t70 -31.5t51.5 -57.5t20 -91z" />
    <glyph glyph-name="f_i" horiz-adv-x="719" 
d="M463 659l-41 -110q-42 21 -80 21q-80 0 -80 -80v-6h163v-126h-163v-358h-160v358h-102v126h102v6q0 94 54 148q58 58 168 58q65 0 139 -37zM673 610q0 -36 -24.5 -60t-63.5 -24t-63.5 24t-24.5 60t24.5 60t63.5 24t63.5 -24t24.5 -60zM665 0h-160v484h160v-484z" />
    <glyph glyph-name="dollar.fitted" 
d="M574 196q0 -88 -63.5 -143.5t-163.5 -66.5v-90h-77v90q-147 14 -227 114l98 97q5 -7 17 -19.5t44 -31t68 -24.5v141q-34 8 -59 16t-56 25.5t-50.5 40t-33.5 59t-14 82.5q0 87 58.5 141t154.5 65v90h77v-90q44 -4 82 -16t60.5 -25t41 -29t24 -23l9.5 -12l-94 -93l-5 5
l-8 8t-9.5 8.5t-13 9.5l-16 9.5t-19.5 9t-23.5 7t-27.5 5.5v-149q39 -9 64 -16t59 -23.5t54 -37t34.5 -55.5t14.5 -79zM270 423v133q-64 -11 -64 -68q0 -52 64 -65zM425 187q0 45 -77 64v-129q77 7 77 65z" />
    <glyph glyph-name="cent.fitted" 
d="M572 86l-9.5 -12t-23.5 -23.5t-38.5 -29t-55 -24t-72.5 -14.5v-87h-77v89q-117 8 -180.5 81.5t-63.5 176.5q0 102 63 174t181 83v88h77v-87q121 -8 197 -100l-99 -81q-46 46 -98 53v-262q58 8 101 58zM296 115v254q-41 -11 -63.5 -45t-22.5 -82t22.5 -82t63.5 -45z" />
    <glyph glyph-name="sterling.fitted" 
d="M361 560q-50 0 -73 -26.5t-23 -64.5q0 -34 9 -66h179v-126h-151q1 -4 1 -14q0 -79 -47 -125h320v-138h-521v126q99 33 99 125q0 10 -2 26h-97v126h69q-11 33 -11 82q0 88 67.5 148.5t169.5 60.5q152 0 238 -115q2 -1 2 -2l-100 -84q-51 67 -129 67z" />
    <glyph glyph-name="florin.fitted" 
d="M618 676l-37 -119q-28 7 -54 7q-38 0 -56 -14t-25 -50l-9 -39h140v-128h-167l-78 -370q-35 -163 -225 -163q-50 0 -102 16l37 119q28 -7 54 -7q38 0 56 14t25 50l72 341h-91v128h118l15 68q35 163 225 163q50 0 102 -16z" />
    <glyph glyph-name="yen.fitted" 
d="M608 678l-140 -275h107v-118h-181v-67h174v-116h-174v-102h-164v102h-174v116h174v67h-181v118h106l-139 275h178l120 -275l119 275h175z" />
    <glyph glyph-name="Commaaccent" horiz-adv-x="0" 
 />
    <glyph glyph-name="germandblssmall" horiz-adv-x="1198" 
d="M557 184q0 -94 -76 -146t-193 -52q-60 0 -111.5 11.5t-84 29t-49 29t-24.5 20.5l85 109q82 -64 182 -64q50 0 76 15t26 40q0 22 -26.5 34.5t-65.5 18t-85.5 17.5t-85.5 29t-65.5 57t-26.5 98q0 85 70 137.5t181 52.5q156 0 244 -70q11 -9 23 -21l-89 -105q-79 66 -178 66
q-44 0 -66 -14t-22 -35q0 -19 20 -30.5t51.5 -17.5t70 -11.5t77.5 -17.5t70.5 -31.5t51.5 -57.5t20 -91zM1156 184q0 -94 -76 -146t-193 -52q-60 0 -111.5 11.5t-84 29t-49 29t-24.5 20.5l85 109q82 -64 182 -64q50 0 76 15t26 40q0 22 -26.5 34.5t-65.5 18t-85.5 17.5
t-85.5 29t-65.5 57t-26.5 98q0 85 70 137.5t181 52.5q156 0 244 -70q11 -9 23 -21l-89 -105q-79 66 -178 66q-44 0 -66 -14t-22 -35q0 -19 20 -30.5t51.5 -17.5t70.5 -11.5t77.5 -17.5t70 -31.5t51.5 -57.5t20 -91z" />
    <glyph glyph-name="dotlessismall" horiz-adv-x="285" 
d="M225 0h-165v606h165v-606z" />
    <glyph glyph-name="Eurooldstyle" horiz-adv-x="588" 
d="M574 94q-75 -108 -215 -108q-95 0 -163 52.5t-86 144.5h-78v95h73q0 3 -0.5 11t-0.5 9t0.5 9.5t0.5 10.5h-73v95h78q16 95 84 151t162 56q138 0 213 -108l-98 -79q-47 57 -108 57q-32 0 -59 -20t-36 -57h147v-95h-160q0 -2 -0.5 -10.5t-0.5 -9.5t0.5 -9t0.5 -11h160v-95
h-146q6 -30 33 -49t64 -19q63 0 112 58z" />
    <glyph glyph-name="dollaroldstyle" horiz-adv-x="558" 
d="M512 179q0 -80 -57 -132t-143 -60v-79h-73v79q-126 11 -200 105l91 91q9 -14 41 -35.5t68 -26.5v108q-38 9 -66 20.5t-58.5 33.5t-47 59.5t-16.5 88.5q0 78 52 128.5t136 59.5v79h73v-79q134 -12 193 -97l-90 -90q-46 46 -102 53v-116q35 -8 55 -13.5t51.5 -20.5
t48.5 -33t30.5 -50t13.5 -73zM239 385v102l-6 -1q-6 -1 -10.5 -2t-11.5 -4.5t-11.5 -8.5t-8 -14t-3.5 -21q0 -6 0.5 -11.5t3 -9.5t4 -7t6 -6t5.5 -4.5t8 -4t7.5 -3t8.5 -2.5zM375 169q0 13 -4.5 21.5t-16.5 14t-17.5 7t-23.5 5.5v-99q62 2 62 51z" />
    <glyph glyph-name="centoldstyle" horiz-adv-x="558" 
d="M512 73q-63 -91 -177 -99v-77h-77v78q-102 9 -157.5 75t-55.5 157q0 90 55 155t158 76v77h77v-77q95 -6 157 -73q10 -11 19 -23l-99 -82q-40 42 -77 49v-205q42 8 80 53zM258 108v196q-59 -22 -59 -98q0 -75 59 -98z" />
    <glyph glyph-name="sterlingoldstyle" horiz-adv-x="558" 
d="M530 508l-97 -83q-48 63 -111 63q-42 0 -60 -22t-18 -51q0 -14 1.5 -25t4.5 -19.5t3 -10.5h151v-111h-128l1 -12q0 -66 -36 -105h273v-132h-465v119q85 29 85 108q0 2 -0.5 11t-0.5 11h-84v111h60q-11 44 -11 69q0 81 61 136t152 55q121 0 197 -85q4 -4 22 -27z" />
    <glyph glyph-name="florinoldstyle" 
d="M618 676l-37 -119q-28 7 -54 7q-38 0 -56 -14t-25 -50l-9 -39h140v-128h-167l-78 -370q-35 -163 -225 -163q-50 0 -102 16l37 119q28 -7 54 -7q38 0 56 14t25 50l72 341h-91v128h118l15 68q35 163 225 163q50 0 102 -16z" />
    <glyph glyph-name="yenoldstyle" horiz-adv-x="558" 
d="M548 606l-120 -238h86v-101h-156v-69h150v-99h-150v-99h-159v99h-150v99h150v69h-156v101h85l-119 238h170l100 -238l104 238h165z" />
    </font>
</defs>
</svg>
